<svg width="120" height="40" viewBox="0 0 241 80" fill="none" xmlns="http://www.w3.org/2000/svg">
<path fill-rule="evenodd" clip-rule="evenodd" d="M33.8458 80C15.1529 80 0 64.7144 0 45.8586C0 35.2395 4.80654 25.7531 12.3453 19.4912C-4.67758 63.6985 44.8181 81.2534 56.6091 51.1521C47.6054 54.9328 39.374 54.7274 31.7845 51.2121C44.7848 47.981 56.4251 42.6678 65.1804 32.9336C66.799 36.9211 67.6923 41.2843 67.6923 45.8586C67.6923 64.7144 52.5387 80 33.8458 80Z" fill="white"/>
<path fill-rule="evenodd" clip-rule="evenodd" d="M18.5169 54.3744C17.7561 36.9811 23.5582 19.4101 45.8766 16.2185C34.337 19.8859 26.2042 26.6279 22.5264 37.0359C42.4989 37.068 62.0381 33.0265 59.9108 0.277344C19.3501 -3.41415 2.66628 30.5474 18.5169 54.3744Z" fill="white"/>
<path d="M80.9646 33.7403C81.0743 33.4731 81.2454 33.2594 81.4782 33.099C81.7109 32.9387 81.9783 32.8591 82.2804 32.8591H85.7747C86.4046 32.8591 86.8567 33.1536 87.1308 33.7403L96.8327 57.1844C97.0799 57.7723 97.0799 58.2402 96.8327 58.587C96.5865 58.935 96.1334 59.1084 95.4766 59.1084H92.3929C91.707 59.1084 91.255 58.815 91.0368 58.2271L89.3104 53.9386H78.7447L77.0183 58.2271C76.9086 58.4944 76.7374 58.7081 76.5047 58.8685C76.272 59.0288 76.0046 59.1084 75.7025 59.1084H72.5785C71.9475 59.1084 71.51 58.935 71.2627 58.587C71.0166 58.2402 71.0166 57.7723 71.2627 57.1844L80.9646 33.7403ZM80.8829 48.7284H87.1733L84.0494 40.9137L80.884 48.7284H80.8829Z" fill="white"/>
<path d="M122.281 42.036C122.281 43.7997 121.787 45.4095 120.8 46.8656C119.814 48.3216 118.32 49.4374 116.319 50.2118L121.171 56.9042C121.636 57.5727 121.767 58.1061 121.561 58.5074C121.355 58.9077 120.827 59.1084 119.978 59.1084H116.401C115.908 59.1084 115.524 58.9077 115.25 58.5074L109.905 51.2141H105.794V57.7058C105.794 58.1333 105.663 58.4736 105.403 58.7278C105.144 58.9819 104.794 59.1084 104.355 59.1084H101.313C100.874 59.1084 100.525 58.9819 100.264 58.7278C100.004 58.4736 99.8738 58.1333 99.8738 57.7058V34.2617C99.8738 33.8341 100.004 33.4939 100.264 33.2397C100.525 32.9856 100.874 32.8591 101.313 32.8591H110.645C112.482 32.8591 114.12 33.099 115.558 33.58C116.997 34.061 118.217 34.7089 119.217 35.5236C120.218 36.3394 120.978 37.3069 121.499 38.4292C122.019 39.5515 122.28 40.7534 122.28 42.036H122.281ZM116.361 42.036C116.361 40.7807 115.812 39.8056 114.716 39.1108C113.619 38.4161 112.167 38.0692 110.358 38.0692H105.794V46.0039H110.358C112.167 46.0039 113.619 45.6571 114.716 44.9623C115.811 44.2676 116.361 43.2925 116.361 42.0371V42.036Z" fill="white"/>
<path d="M136.505 31.8164C138.916 31.8164 141.028 32.1436 142.836 32.798C144.645 33.4535 146.289 34.5278 147.769 36.0242C148.07 36.3187 148.208 36.6394 148.18 36.9862C148.152 37.3341 147.987 37.6548 147.686 37.9482L145.384 39.9518C145.11 40.1917 144.781 40.3128 144.397 40.3128C144.04 40.3128 143.684 40.1666 143.328 39.8721C142.451 39.0705 141.464 38.3964 140.368 37.8478C139.271 37.3003 137.983 37.0266 136.503 37.0266C134.941 37.0266 133.659 37.2207 132.66 37.6079C131.659 37.9951 131.118 38.6964 131.036 39.7118C130.981 40.2724 131.194 40.7403 131.674 41.1144C132.153 41.4885 132.804 41.8223 133.626 42.1167C134.449 42.4112 135.394 42.6773 136.463 42.9184C137.531 43.1583 138.621 43.4332 139.731 43.7397C140.841 44.0472 141.931 44.4083 142.999 44.8216C144.068 45.2361 145.02 45.7574 145.857 46.3846C146.693 47.0128 147.351 47.7675 147.831 48.6488C148.31 49.5301 148.522 50.5989 148.468 51.8543C148.44 53.1108 148.133 54.2385 147.543 55.2409C146.953 56.2432 146.138 57.0907 145.097 57.7854C144.056 58.4802 142.822 59.0081 141.397 59.368C139.972 59.729 138.41 59.909 136.71 59.909C134.407 59.909 132.297 59.5818 130.379 58.9273C128.46 58.2729 126.789 57.1844 125.363 55.6608C125.089 55.3674 124.966 55.0533 124.993 54.7195C125.02 54.3858 125.184 54.0847 125.486 53.8175L127.829 51.7736C128.103 51.5064 128.432 51.3733 128.816 51.3733C129.145 51.3733 129.488 51.5206 129.844 51.814C130.749 52.6429 131.742 53.33 132.825 53.8775C133.907 54.425 135.203 54.6988 136.71 54.6988C137.476 54.6988 138.182 54.6388 138.827 54.5188C139.47 54.3989 140.04 54.2178 140.533 53.9779C141.027 53.7379 141.417 53.4565 141.705 53.1359C141.992 52.8152 142.15 52.4542 142.178 52.0539C142.233 51.4933 142.014 51.0319 141.52 50.6709C141.027 50.3099 140.369 49.9892 139.546 49.7089C138.724 49.4286 137.779 49.1745 136.71 48.9476C135.641 48.7208 134.552 48.4601 133.442 48.1656C132.332 47.8722 131.242 47.5243 130.173 47.124C129.105 46.7238 128.159 46.2024 127.337 45.5611C126.515 44.9198 125.863 44.1454 125.385 43.2369C124.905 42.3294 124.692 41.2202 124.748 39.9103C124.775 38.6549 125.084 37.5261 125.673 36.5238C126.262 35.5214 127.071 34.674 128.099 33.9792C129.127 33.2844 130.354 32.7511 131.779 32.3759C133.203 32.0018 134.78 31.8153 136.506 31.8153L136.505 31.8164Z" fill="white"/>
<path d="M163.638 31.8164C166.049 31.8164 168.161 32.1436 169.969 32.798C171.778 33.4535 173.422 34.5278 174.902 36.0242C175.203 36.3187 175.341 36.6394 175.313 36.9862C175.285 37.3341 175.12 37.6548 174.819 37.9482L172.517 39.9518C172.243 40.1917 171.914 40.3128 171.53 40.3128C171.173 40.3128 170.817 40.1666 170.461 39.8721C169.584 39.0705 168.597 38.3964 167.501 37.8478C166.404 37.3003 165.116 37.0266 163.636 37.0266C162.074 37.0266 160.792 37.2207 159.793 37.6079C158.792 37.9951 158.251 38.6964 158.169 39.7118C158.114 40.2724 158.327 40.7403 158.807 41.1144C159.286 41.4885 159.937 41.8223 160.759 42.1167C161.582 42.4112 162.527 42.6773 163.596 42.9184C164.664 43.1583 165.754 43.4332 166.864 43.7397C167.974 44.0472 169.064 44.4083 170.132 44.8216C171.201 45.2361 172.153 45.7574 172.99 46.3846C173.826 47.0128 174.484 47.7675 174.964 48.6488C175.443 49.5301 175.655 50.5989 175.601 51.8543C175.573 53.1108 175.266 54.2385 174.676 55.2409C174.086 56.2432 173.271 57.0907 172.23 57.7854C171.189 58.4802 169.956 59.0081 168.53 59.368C167.105 59.729 165.543 59.909 163.843 59.909C161.54 59.909 159.43 59.5818 157.512 58.9273C155.593 58.2729 153.922 57.1844 152.496 55.6608C152.222 55.3674 152.099 55.0533 152.126 54.7195C152.153 54.3858 152.317 54.0847 152.619 53.8175L154.962 51.7736C155.237 51.5064 155.565 51.3733 155.949 51.3733C156.278 51.3733 156.621 51.5206 156.978 51.814C157.882 52.6429 158.875 53.33 159.958 53.8775C161.04 54.425 162.336 54.6988 163.843 54.6988C164.61 54.6988 165.316 54.6388 165.96 54.5188C166.603 54.3989 167.173 54.2178 167.666 53.9779C168.16 53.7379 168.55 53.4565 168.838 53.1359C169.125 52.8152 169.283 52.4542 169.311 52.0539C169.366 51.4933 169.147 51.0319 168.653 50.6709C168.16 50.3099 167.502 49.9892 166.679 49.7089C165.857 49.4286 164.912 49.1745 163.843 48.9476C162.775 48.7208 161.685 48.4601 160.575 48.1656C159.465 47.8722 158.375 47.5243 157.307 47.124C156.238 46.7238 155.293 46.2024 154.47 45.5611C153.648 44.9198 152.997 44.1454 152.518 43.2369C152.038 42.3294 151.825 41.2202 151.881 39.9103C151.908 38.6549 152.217 37.5261 152.806 36.5238C153.395 35.5214 154.204 34.674 155.232 33.9792C156.26 33.2844 157.487 32.7511 158.912 32.3759C160.336 32.0018 161.913 31.8153 163.639 31.8153L163.638 31.8164Z" fill="white"/>
<path d="M179.137 34.2617C179.137 33.8341 179.267 33.4939 179.528 33.2397C179.788 32.9856 180.137 32.8591 180.576 32.8591H183.618C184.057 32.8591 184.406 32.9867 184.667 33.2397C184.927 33.4939 185.057 33.8341 185.057 34.2617V47.0455C185.057 48.3282 185.153 49.457 185.345 50.4321C185.536 51.4071 185.885 52.2295 186.393 52.897C186.9 53.5656 187.591 54.0662 188.47 54.4C189.347 54.7348 190.457 54.9006 191.8 54.9006C193.142 54.9006 194.287 54.7337 195.151 54.4C196.014 54.0662 196.692 53.5721 197.186 52.9166C197.679 52.2622 198.022 51.441 198.214 50.4517C198.405 49.4636 198.502 48.3282 198.502 47.0455V34.2617C198.502 33.8341 198.632 33.4939 198.892 33.2397C199.153 32.9856 199.502 32.8591 199.941 32.8591H202.983C203.421 32.8591 203.771 32.9867 204.031 33.2397C204.292 33.4939 204.422 33.8341 204.422 34.2617V48.5681C204.422 50.0372 204.161 51.4137 203.641 52.6963C203.119 53.979 202.338 55.0947 201.298 56.0425C200.256 56.9914 198.947 57.7396 197.372 58.2871C195.795 58.8346 193.939 59.1084 191.801 59.1084C189.663 59.1084 187.806 58.8346 186.23 58.2871C184.653 57.7396 183.337 56.9914 182.283 56.0425C181.228 55.0947 180.439 53.979 179.919 52.6963C179.398 51.4137 179.138 50.0383 179.138 48.5681V34.2617H179.137Z" fill="white"/>
<path d="M210.382 59.1084C209.943 59.1084 209.594 58.9819 209.334 58.7278C209.073 58.4736 208.943 58.1333 208.943 57.7058V34.2617C208.943 33.8341 209.073 33.4939 209.334 33.2397C209.594 32.9856 209.943 32.8591 210.382 32.8591H213.712C214.26 32.8591 214.671 33.0859 214.945 33.5408L224.647 49.5312L234.349 33.5408C234.623 33.087 235.033 32.8591 235.582 32.8591H238.87C239.309 32.8591 239.658 32.9867 239.918 33.2397C240.179 33.4939 240.309 33.8341 240.309 34.2617V57.7058C240.309 58.1333 240.178 58.4736 239.918 58.7278C239.659 58.9819 239.309 59.1084 238.87 59.1084H235.828C235.389 59.1084 235.04 58.9819 234.779 58.7278C234.519 58.4736 234.389 58.1333 234.389 57.7058V44.4813L226.824 56.9849C226.55 57.4397 226.138 57.6665 225.591 57.6665H223.7C223.152 57.6665 222.74 57.4397 222.467 56.9849L214.862 44.4813V57.7058C214.862 58.1333 214.731 58.4736 214.472 58.7278C214.212 58.9819 213.862 59.1084 213.423 59.1084H210.381H210.382Z" fill="white"/>
</svg>
