<svg width="450" height="440" viewBox="0 0 536 524" fill="none" xmlns="http://www.w3.org/2000/svg">
<path opacity="0.3" d="M464.776 450.655C451.063 464.805 438.793 473.121 429.398 479.4C337.777 540.639 233.042 522.987 200.661 516.956C148.418 507.223 104.317 500.356 66.4288 466.09C-19.6682 388.228 -15.4804 225.797 50.3076 125.18C58.1074 113.249 123.798 15.7796 228.759 2.04515C231.326 1.71016 233.242 1.51741 234.919 1.33962C251.156 -0.382094 351.774 -9.46414 433.82 59.3427C445.564 69.192 464.464 86.9575 481.991 114.052C546.076 213.124 546.278 366.564 464.778 450.655H464.776Z" fill="#A3EF8B"/>
<path d="M59.2119 169.327C59.2119 169.327 57.7199 162.685 60.156 153.528C59.4661 153.639 77.0605 154.513 80.1902 154.746C83.3198 154.982 87.9489 141.65 83.7872 142.303C82.3794 142.524 23.1424 135.433 15.051 137.716C9.87604 139.178 11.396 148.649 12.385 151.528C13.374 154.406 28.5006 153.74 28.3043 153.76C25.586 154.058 39.7591 154.073 40.1405 155.757C42.3148 165.359 41.5426 169.516 41.5426 169.516C41.5426 169.516 7.40261 275.059 110.718 316.685C214.036 358.311 268.748 301.603 288.912 275.487C285.208 265.642 279.711 265.78 279.711 265.78C279.711 265.78 186.262 287.901 132.96 251.662C81.1493 216.436 59.2137 169.323 59.2137 169.323L59.2119 169.327Z" fill="url(#paint0_linear_262_218)"/>
<g style="mix-blend-mode:soft-light">
<path d="M203.705 283.864C180.33 283.864 153.585 279.868 132.602 265.602C81.2373 230.68 58.8549 182.844 58.6362 182.365C58.4903 182.047 58.6287 181.671 58.9465 181.525C59.2643 181.377 59.6401 181.517 59.7859 181.835C60.0047 182.311 82.2543 229.839 133.314 264.554C160.684 283.164 198.085 284.088 224.64 281.586C253.469 278.869 276.098 271.642 276.324 271.569C276.659 271.46 277.014 271.645 277.12 271.977C277.227 272.31 277.046 272.667 276.713 272.774C276.487 272.847 253.747 280.113 224.786 282.846C218.302 283.458 211.175 283.866 203.705 283.866V283.864Z" fill="white"/>
</g>
<path d="M279.796 331.08C287.286 321.833 279.566 309.671 279.566 309.671C279.566 309.671 192.394 342.099 124.008 309.431C55.621 276.764 42.764 169.518 42.764 169.518L40.1392 155.759C40.1392 155.759 -38.8516 270.732 61.1324 352.94C161.117 435.148 272.307 340.327 279.798 331.08H279.796Z" fill="url(#paint1_linear_262_218)"/>
<g style="mix-blend-mode:soft-light">
<path d="M167.411 338.06C158.389 338.06 149.858 337.553 141.864 336.537C119.687 333.721 101.621 326.959 88.1681 316.442C58.3112 293.101 46.06 259.146 41.0421 234.769C35.6091 208.382 37.2487 187.214 37.2656 187.002C37.2936 186.652 37.6039 186.394 37.9479 186.422C38.2957 186.45 38.5556 186.757 38.5275 187.105C38.5107 187.315 36.8879 208.333 42.2909 234.548C47.2696 258.704 59.4049 292.347 88.9495 315.44C102.218 325.812 120.072 332.485 142.013 335.276C159.608 337.512 179.849 337.271 202.178 334.557C240.229 329.933 271.544 319.586 271.856 319.481C272.187 319.37 272.546 319.55 272.656 319.881C272.767 320.214 272.587 320.572 272.256 320.682C271.944 320.787 240.526 331.168 202.353 335.811C190.05 337.308 178.371 338.057 167.415 338.057L167.411 338.06Z" fill="white"/>
</g>
<path d="M413.916 414.124C414.23 411.665 414.361 409.212 414.137 406.736C413.913 404.254 413.253 401.749 413.288 399.248C413.32 396.93 414.52 395.182 415.676 393.316C416.988 391.196 418.1 389.1 418.901 386.686C420.49 381.898 420.406 376.69 419.576 371.748C418.042 362.63 413.21 353.949 407.104 347.526C404.169 344.438 400.8 341.7 397.189 339.595C393.25 337.297 388.389 336.088 385.062 332.734C382.074 329.723 380.285 325.527 377.707 322.132C374.807 318.315 370.937 315.852 366.566 314.488C362.274 313.148 357.751 312.931 353.468 311.544C349.746 310.337 347.233 307.537 344.707 304.492C339.158 297.802 333.462 291.75 324.449 293.022C320.283 293.61 316.26 295.569 312.068 294.272C307.688 292.918 303.805 291.198 299.206 290.764C282.726 289.205 266.823 300.45 260.79 316.789C260.424 317.781 260.489 318.837 260.833 319.806C260.278 320.242 259.736 320.697 259.216 321.191C253.37 326.753 250.35 335.304 250.724 343.626C251.158 353.247 255.237 361.429 260.384 369.036C261.643 370.896 263.039 372.901 263.407 375.227C263.78 377.581 262.992 380.034 262.306 382.237C260.861 386.876 259.218 391.364 259.782 396.355C260.304 400.972 262.248 405.186 264.518 409.083C267.262 413.793 270.2 418.382 273.047 423.021C275.905 427.679 278.747 432.35 281.626 436.993C284.066 440.927 286.706 444.896 290.122 447.915C293.773 451.141 297.89 452.921 302.629 453.076C305.134 453.159 307.828 452.627 310.281 453.312C312.452 453.917 314.306 455.476 316.137 456.81C323.8 462.4 332.761 464.644 341.905 462.827C345.687 462.074 349.815 458.966 353.66 459.235C355.992 459.398 358.218 460.974 360.423 461.724C362.434 462.409 364.553 462.754 366.654 462.909C376.398 463.637 383.897 457.923 390.779 451.22C397.773 444.408 404.746 437.023 409.386 428.074C411.628 423.749 413.286 419.046 413.915 414.128L413.916 414.124Z" fill="url(#paint2_linear_262_218)"/>
<path d="M205.928 55.5418C194.056 71.8007 194.372 93.1874 197.27 112.587C198.951 123.836 202.099 134.11 211.385 140.563C219.054 145.891 227.893 150.126 236.551 153.17C254.119 159.348 274.213 160.065 290.83 150.27C295.141 147.728 299.236 144.633 302.676 140.838C303.143 140.321 303.734 139.726 304.194 139.135C305.54 140.082 307.871 141.298 307.991 141.36C314.02 144.472 320.403 143.669 325.703 140.295C327.659 140.405 329.786 139.226 330.252 136.59C330.259 136.55 330.267 136.509 330.272 136.47C330.635 136.077 330.992 135.673 331.334 135.252C333.155 133.013 333.058 129.699 331.882 127.051C333.823 114.978 335.025 102.808 332.392 90.6442C330.915 83.8191 328.337 77.6246 324.778 71.7745C321.242 65.9656 316.871 60.7219 313.835 54.5705C310.543 47.897 310.763 40.3907 308.226 33.4514C306.312 28.217 302.582 23.6994 298.097 20.8511C288.617 14.8307 276.324 14.6679 266.746 20.5442C258.404 25.6625 252.398 33.6778 248.193 42.7674C233.846 35.2573 215.728 42.1161 205.926 55.5418H205.928Z" fill="url(#paint3_linear_262_218)"/>
<path d="M324.737 311.28C321.474 326.809 324.251 342.81 333.318 355.483C339.688 364.388 348.677 370.986 358.789 372.893C358.591 388.43 363.953 403.877 374.718 414.677C386.849 426.849 403.787 431.853 419.993 428.681C428.269 427.06 435.433 425.325 443.912 426.354C451.618 427.29 459.27 429.04 467.053 429.104C482.384 429.227 496.886 420.905 503.158 405.35C508.103 393.09 506.654 379.191 500.001 368.447C522.925 352.193 533.436 319.524 520.577 291.739C514.761 279.17 504.299 268.973 492.255 263.497C484.902 247.893 473.1 234.973 455.857 233.442C442.637 232.268 430.573 240.636 425.345 252.815C414.952 246.149 402.06 244.088 390.095 246.198C360.825 251.355 331.34 279.848 324.737 311.278V311.28Z" fill="url(#paint4_linear_262_218)"/>
<path d="M149.32 192.746C149.658 207.867 155.659 221.908 166.74 231.312C174.525 237.916 184.224 241.743 193.948 240.967C197.109 255.326 205.375 268.211 217.613 275.461C231.407 283.632 248.087 283.997 262.329 277.016C269.604 273.449 275.829 270.056 283.859 268.881C291.16 267.813 298.584 267.507 305.766 265.615C319.915 261.888 331.48 250.59 333.909 234.69C335.823 222.159 331.497 209.72 323.056 201.491C340.673 180.776 343.322 148.052 325.496 125.681C317.432 115.562 305.602 108.792 293.33 106.765C283.199 94.2356 269.546 85.292 253.335 88.2021C240.906 90.4328 231.594 101.164 229.402 113.691C218.394 110.156 206.076 111.488 195.509 116.429C169.659 128.515 148.636 162.144 149.318 192.749L149.32 192.746Z" fill="url(#paint5_linear_262_218)"/>
<path d="M207.975 293.075C209.333 307.406 216.833 323.012 227.851 327.986C230.205 341.633 236.767 345.305 243.781 356.395C256.752 376.9 268.336 388.521 287.793 387.627C305.714 386.803 321.819 363.132 331.942 364.286C342.066 365.439 371.425 381.416 383.933 384.782C412.303 392.418 438.731 382.471 458.231 359.149C473.561 340.813 470.331 311.712 472.438 305.587C474.547 299.46 511.138 284.315 522.409 267.646C534.298 250.066 539.923 223.742 532.694 200.28C529.113 188.664 521 178.266 513.54 169.974C511.437 167.637 509.206 165.692 507.013 163.533C505.161 161.708 505.4 160.808 505.811 158.122C506.795 151.718 507.307 145.148 507.036 138.461C505.942 111.619 495.841 87.6704 477.757 72.2985C462.234 59.103 439.827 55.4687 430.646 53.7957C421.464 52.1226 419.797 30.8763 397.014 23.2109C374.232 15.5455 362.923 31.9542 353.302 30.2025C314.544 7.74165 283.741 26.4896 268.615 43.4729C249.663 64.751 255.184 81.2233 253.828 86.1957C249.388 94.7818 233.605 94.3402 226.437 96.4736C209.783 101.429 198.416 123.695 198.142 147.042C197.953 163.168 206.259 176.737 206.082 185.215C205.904 193.693 188.794 212.422 190.368 230.715C191.862 248.069 204.522 268.398 209.802 274.686C215.082 280.974 207.362 286.596 207.975 293.075Z" fill="url(#paint6_linear_262_218)"/>
<path d="M313.728 343.487C213.927 341.419 42.6868 463.347 42.6868 463.347L16.0156 375.68C165.27 349.757 173.421 250.797 194.235 224.897C199.313 218.577 209.584 219.913 204.411 234.059C185.592 285.523 167.93 315.457 167.93 315.457C231.413 285.437 259.976 250.561 291.781 210.78C291.781 210.78 304.008 205.127 298.521 219.29C295.621 226.776 279.289 252.961 254.816 276.387C295.053 263.806 311.636 236.125 323.844 234.057C327.995 233.354 333.358 239.425 333.358 239.425C333.358 239.425 272.261 299.488 181.298 342.181C181.298 342.181 274.77 304.999 308.748 308.102C315.04 308.769 314.949 314.959 306.444 318.921C306.444 318.921 287.094 322.411 259.976 333.67C293.01 333.007 299.549 331.587 311.01 331.587C322.47 331.587 322.079 339.464 313.728 343.491V343.487Z" fill="url(#paint7_linear_262_218)"/>
<path d="M202.89 149.491C205.429 157.422 209.052 165.503 214.872 171.258C217.903 174.256 221.405 176.632 225.321 178.029C227.412 178.773 229.588 179.118 231.775 179.325C234.082 179.544 237.247 179.015 239.397 180.029C243.127 181.786 245.946 186.596 249.547 188.928C252.684 190.958 256.268 192.461 259.85 193.256C268.222 195.115 277.011 193.954 284.599 189.652C288.395 187.502 291.347 184.403 294.314 181.146C297.43 177.725 300.837 179.954 304.931 179.619C314.797 178.811 322.559 171.026 328.07 162.769C335.79 151.203 340.903 132.837 333.889 119.896C339.946 111.896 339.243 99.2582 333.492 90.7488C331.17 87.3148 328.312 84.3205 325.12 81.7098C324.898 74.5816 321.925 67.7396 316.083 63.2819C309.743 58.4461 301.19 57.9258 294.174 61.1821C280.15 41.6107 255.821 32.4239 233.446 40.1866C221.328 44.3917 209.798 53.0882 203.367 65.1402C198.112 74.9895 197.723 87.3934 203.889 96.03C195.012 111.497 197.603 132.97 202.89 149.491Z" fill="url(#paint8_linear_262_218)"/>
<path d="M404.374 250.955C401.9 251.956 399.535 253.154 397.342 254.748C395.144 256.348 393.16 258.435 390.802 259.764C388.615 260.995 386.325 260.645 383.949 260.405C381.247 260.134 378.68 260.069 375.984 260.514C370.637 261.399 365.812 264.334 361.641 267.94C353.948 274.591 348.466 284.594 345.793 294.75C344.506 299.632 343.787 304.798 343.789 309.877C343.792 315.422 345.314 321.373 343.994 326.83C342.809 331.729 339.861 335.968 338.094 340.63C336.107 345.872 335.916 351.434 337.026 356.938C338.118 362.344 340.386 367.386 341.427 372.809C342.332 377.521 341.083 381.788 339.616 386.199C336.389 395.897 333.839 405.404 339.95 414.523C342.775 418.738 346.806 422.048 347.881 427.32C349.007 432.831 349.519 437.997 351.624 443.242C359.168 462.039 378.374 473.211 396.955 470.857C398.082 470.715 399.034 470.067 399.752 469.162C400.462 469.528 401.186 469.871 401.93 470.165C410.326 473.49 419.975 472.111 427.556 467.155C436.321 461.429 441.746 452.517 446.052 442.756C447.104 440.37 448.217 437.753 450.191 436.084C452.191 434.392 454.917 433.909 457.349 433.453C462.479 432.491 467.574 431.832 471.936 428.49C475.97 425.398 478.849 420.98 481.255 416.38C484.164 410.82 486.853 405.114 489.637 399.481C492.432 393.823 495.249 388.179 498.022 382.509C500.37 377.703 502.641 372.661 503.599 367.292C504.623 361.552 504.04 356.099 501.594 350.854C500.303 348.082 498.334 345.438 497.635 342.393C497.016 339.698 497.459 336.829 497.708 334.108C498.751 322.709 495.958 311.728 489.261 302.762C486.492 299.054 481.328 296.258 479.479 291.922C478.358 289.293 478.616 286.01 478.115 283.198C477.657 280.632 476.821 278.137 475.821 275.764C471.179 264.757 461.737 259.711 451.707 255.878C441.514 251.984 430.796 248.425 419.891 248.26C414.621 248.181 409.315 248.945 404.37 250.945L404.374 250.955Z" fill="url(#paint9_linear_262_218)"/>
<path d="M324.326 71.0018C311.001 79.034 301.517 92.4035 298.754 108.692C296.813 120.134 298.326 132.155 303.96 141.864C292.751 152.445 285.448 167.575 285.196 183.973C284.912 202.455 293.059 219.968 306.525 231.217C313.404 236.962 319.596 241.704 324.726 249.452C329.388 256.492 333.434 264.051 338.77 270.55C349.284 283.355 365.245 289.63 380.67 284.077C392.828 279.7 401.733 268.887 404.788 255.936C432.227 263.714 462.78 249.841 473.69 219.958C478.626 206.441 478.66 190.71 474.232 176.93C480.269 160.039 481.314 141.313 470.482 125.949C462.176 114.17 447.868 109.948 435.574 114.035C433.138 100.802 425.689 88.6831 415.912 80.2149C391.992 59.4982 351.294 54.7429 324.326 71.0018Z" fill="url(#paint10_linear_262_218)"/>
<path d="M16.0162 375.68C29.2508 375.68 60.6257 443.994 42.6873 463.347C24.7489 482.701 -10.1091 375.68 16.0162 375.68Z" fill="url(#paint11_linear_262_218)"/>
<path d="M487.16 382.366C483.595 373.342 478.584 364.962 471.779 358.014C465.026 351.119 456.563 346.448 447.454 343.456C424.431 335.893 396.23 338.126 374.985 349.583C347.618 364.889 338.121 383.106 336.281 402.69C334.563 420.991 339.556 438.775 350.83 453.333C356.409 460.538 363.246 466.654 371.182 471.151C379.61 475.927 389.204 478.449 398.799 479.387C432.38 482.668 478.298 473.314 490.523 436.653C496.396 419.046 493.861 399.327 487.16 382.365V382.366Z" fill="url(#paint12_linear_262_218)"/>
<path d="M376.869 368.314C376.869 368.314 385.074 361.244 397.253 360.366C413.166 359.219 418.306 365.716 418.306 365.716C418.306 365.716 420.185 363.117 408.438 350.59C396.69 338.062 402.832 321.899 402.832 321.899C402.832 321.899 406.014 334.024 411.312 341.697C416.61 349.369 425.345 348.056 428.796 359.761C428.796 359.761 435.781 352.134 433.442 344.889C431.103 337.645 434.324 326.706 434.324 326.706C434.324 326.706 435.693 334.566 442.977 343.922C450.26 353.277 442.285 364.764 439.739 368.044C439.739 368.044 446.706 363.038 457.583 368.789C468.462 374.54 485.965 362.432 485.965 362.432C485.965 362.432 477.509 375.117 467.756 376.595C447.735 381.128 438 375.292 438 375.292C438 375.292 434.444 377.798 447.054 387.462C459.662 397.126 446.579 412.369 446.579 412.369C446.579 412.369 446.458 397.592 437.327 390.75C428.196 383.907 424.416 380.368 424.416 380.368C424.416 380.368 402.527 383.802 404.742 398.053C406.531 406.665 412.226 415.618 412.226 415.618C412.226 415.618 393.944 408.733 394.901 395.803C395.858 382.874 412.174 373.859 412.174 373.859C412.174 373.859 404.892 368.95 396.44 367.85C387.987 366.749 376.865 368.316 376.865 368.316L376.869 368.314Z" fill="url(#paint13_linear_262_218)"/>
<path d="M424.505 370.376C424.505 370.376 443.924 337.952 468.417 331.907C474.731 334.784 473.233 342.026 473.233 342.026C473.233 342.026 443.703 355.208 433.193 371.845C428.904 378.154 424.505 370.376 424.505 370.376Z" fill="url(#paint14_linear_262_218)"/>
<path d="M411.516 430.415C414.849 402.456 392.226 396.799 392.226 396.799C392.226 396.799 391.444 378.025 374.2 366.641C356.955 355.259 340.392 357.993 340.392 357.993L299.642 473.774C307.722 487.468 336.384 495.998 354.188 484.165C371.992 472.331 408.184 458.373 411.518 430.415H411.516Z" fill="url(#paint15_linear_262_218)"/>
<path d="M340.39 357.995C340.39 357.995 320.107 344.616 306.946 351.261C293.782 357.909 287.106 368.11 281.993 385.952C276.879 403.794 273.647 417.134 271.417 441.835C270.274 454.493 272.852 461.197 283.326 469.844C295.108 476.662 299.639 473.776 299.639 473.776C299.639 473.776 356.162 414.304 355.395 393.249C354.569 370.545 340.39 357.995 340.39 357.995Z" fill="url(#paint16_linear_262_218)"/>
<path d="M353.106 372.82C362.752 385.065 377.292 384.361 373.192 387.264C369.316 390.009 369.356 386.489 368.084 393.239C366.628 400.976 360.567 388.289 351.242 385.804C341.916 383.319 347.155 365.267 353.106 372.82Z" fill="url(#paint17_linear_262_218)"/>
<path d="M358.43 380.222C358.43 380.222 370.152 352.317 366.162 344.777C362.171 337.237 382.971 349.437 381.825 351.873C380.679 354.31 363.657 383.704 363.657 383.704C363.657 383.704 360.647 384.24 358.43 380.222Z" fill="url(#paint18_linear_262_218)"/>
<path d="M101.554 318.964C101.554 318.964 89.9962 345.982 76.9522 371.688C63.9083 397.396 60.7058 427.05 91.8788 442.928C123.054 458.805 166.336 454.063 183.263 425.74C200.19 397.418 179.314 374.175 158.286 359.097C137.257 344.019 118.98 338.066 114.338 315.644L101.554 318.962V318.964Z" fill="url(#paint19_linear_262_218)"/>
<g style="mix-blend-mode:soft-light">
<path d="M145.346 414.639C145 414.639 144.716 414.36 144.712 414.012C144.572 400.1 137.726 389.474 129.797 377.171C122.186 365.361 113.56 351.974 109.97 333.266C109.905 332.921 110.129 332.59 110.473 332.525C110.819 332.455 111.148 332.684 111.215 333.026C114.758 351.493 123.313 364.771 130.863 376.484C138.898 388.954 145.836 399.722 145.98 414.001C145.984 414.351 145.703 414.637 145.354 414.641H145.348L145.346 414.639Z" fill="white"/>
</g>
<g style="mix-blend-mode:soft-light">
<path d="M92.2246 387.52C92.1704 387.52 92.1143 387.513 92.0582 387.498C91.7199 387.406 91.5217 387.06 91.6114 386.721C92.6116 383.018 93.6904 379.385 94.8327 375.538C98.2502 364.025 102.124 350.973 104.713 332.577C104.762 332.231 105.08 331.988 105.429 332.038C105.775 332.087 106.016 332.407 105.968 332.753C103.365 351.243 99.4767 364.343 96.046 375.899C94.9056 379.739 93.8306 383.366 92.8341 387.053C92.7575 387.335 92.5013 387.522 92.2228 387.522L92.2246 387.52Z" fill="white"/>
</g>
<g style="mix-blend-mode:soft-light">
<path d="M178.398 412.234C178.093 412.234 177.826 412.014 177.774 411.705C174.599 392.513 163.739 376.816 143.594 362.306C134.172 355.519 122.592 346.384 116.615 335.906C116.441 335.603 116.547 335.216 116.85 335.042C117.153 334.868 117.54 334.974 117.714 335.277C123.57 345.542 135.017 354.564 144.335 361.277C164.767 375.996 175.79 391.954 179.024 411.497C179.081 411.843 178.849 412.169 178.503 412.225C178.467 412.231 178.434 412.232 178.398 412.232V412.234Z" fill="white"/>
</g>
<path d="M43.3121 332.034C43.3121 332.034 41.5622 355.946 15.0088 393.348C-11.5445 430.75 -1.89573 467.376 36.2956 483.412C74.487 499.449 149.14 489.051 150.399 437.194C151.657 385.336 95.6018 389.431 77.5475 364.24C59.4931 339.048 57.689 328.832 57.689 328.832L43.314 332.032L43.3121 332.034Z" fill="url(#paint20_linear_262_218)"/>
<g style="mix-blend-mode:soft-light">
<path d="M16.873 451.911C16.5589 451.911 16.286 451.677 16.2448 451.357C14.0687 434.14 20.5841 417.289 27.9502 401.642C33.8318 389.148 41.3063 370.238 43.5086 351.112C43.5479 350.764 43.8601 350.518 44.2097 350.554C44.5575 350.595 44.8061 350.91 44.7668 351.256C42.5439 370.556 35.0171 389.601 29.0962 402.183C21.8124 417.654 15.3661 434.302 17.5031 451.198C17.5461 451.546 17.3011 451.862 16.9534 451.905C16.9272 451.909 16.8992 451.911 16.873 451.911Z" fill="white"/>
</g>
<g style="mix-blend-mode:soft-light">
<path d="M83.2201 447.275C83.05 447.275 82.8798 447.208 82.7546 447.071C71.8008 435.203 62.8344 420.63 56.8257 404.923C50.7122 388.948 47.8013 372.13 48.4052 356.284C48.4182 355.934 48.6987 355.682 49.0614 355.674C49.411 355.687 49.6821 355.981 49.669 356.331C48.4725 387.741 61.507 422.179 83.6856 446.21C83.9231 446.467 83.9062 446.869 83.6501 447.105C83.5286 447.217 83.3734 447.273 83.2201 447.273V447.275Z" fill="white"/>
</g>
<g style="mix-blend-mode:soft-light">
<path d="M97.0477 406.031C96.9131 406.031 96.7785 405.987 96.6625 405.9C88.6945 399.793 80.4553 393.481 73.1603 385.784C65.9326 378.157 58.7385 366.143 54.833 355.176C54.7152 354.847 54.8872 354.484 55.2163 354.366C55.5453 354.248 55.908 354.42 56.0258 354.75C59.8771 365.565 66.9627 377.401 74.0783 384.91C81.3041 392.534 89.504 398.816 97.4309 404.893C97.7095 405.106 97.7618 405.503 97.5487 405.782C97.4235 405.944 97.2365 406.031 97.0458 406.031H97.0477Z" fill="white"/>
</g>
<path d="M468.735 60.7969C468.735 84.5191 446.508 103.748 422.81 103.748C399.111 103.748 379.901 84.5172 379.901 60.7969C379.901 37.0765 399.113 17.8457 422.81 17.8457C446.506 17.8457 468.735 37.0765 468.735 60.7969Z" fill="url(#paint21_linear_262_218)"/>
<path opacity="0.65" d="M459.348 60.7967C459.355 65.2937 458.482 69.802 456.79 73.9846C455.1 78.1691 452.593 82.0224 449.446 85.2806C446.3 88.535 442.518 91.2093 438.332 93.0433C434.155 94.8922 429.588 95.9196 424.987 96.0319C420.388 96.1423 415.725 95.3563 411.386 93.6627C407.052 91.9653 403.033 89.4071 399.668 86.1433C396.3 82.8814 393.584 78.9289 391.746 74.5835C390.83 72.4108 390.122 70.1463 389.658 67.8295C389.194 65.5145 388.961 63.1547 388.951 60.7985C388.959 58.4424 389.192 56.0825 389.658 53.7676C390.122 51.4526 390.832 49.1882 391.746 47.0136C393.584 42.6681 396.302 38.7138 399.668 35.4538C403.033 32.19 407.052 29.6317 411.386 27.9344C415.725 26.2407 420.388 25.4547 424.987 25.5651C429.588 25.6774 434.153 26.7048 438.332 28.5538C442.52 30.3859 446.3 33.0602 449.446 36.3165C452.593 39.5746 455.1 43.4279 456.79 47.6124C458.482 51.7951 459.355 56.3034 459.348 60.8004V60.7967ZM454.655 60.7967C454.646 58.8504 454.444 56.906 454.044 55.0027C453.644 53.0995 453.028 51.2393 452.24 49.4539C450.652 45.8851 448.302 42.6344 445.393 39.9602C442.484 37.2821 439.012 35.1974 435.29 33.8219C431.56 32.452 427.567 31.8288 423.611 31.9392C415.684 32.1451 408.069 35.4481 402.728 40.8229C400.049 43.4953 397.918 46.6449 396.486 50.0528C395.052 53.4607 394.311 57.1193 394.317 60.7985C394.311 64.4778 395.052 68.1364 396.486 71.5443C397.918 74.9521 400.047 78.1018 402.728 80.7742C408.069 86.1489 415.684 89.4501 423.611 89.6578C427.569 89.7664 431.56 89.1451 435.29 87.7752C439.014 86.3997 442.484 84.3149 445.393 81.6369C448.304 78.9608 450.652 75.712 452.24 72.1431C453.028 70.3578 453.644 68.4995 454.044 66.5943C454.444 64.6911 454.647 62.7486 454.655 60.8004V60.7967Z" fill="white"/>
<path opacity="0.84" d="M434.178 43.8511C430.183 43.8511 426.625 45.9489 424.317 49.2165C422.01 45.9489 418.45 43.8511 414.455 43.8511C407.498 43.8511 401.859 50.2027 401.859 58.0365C401.859 58.6709 401.962 59.3521 402.147 60.0726H404.879L411.403 52.92C411.796 52.4915 412.376 52.2875 412.951 52.3773C413.525 52.469 414.015 52.8414 414.256 53.371L419.536 64.9982L424.911 55.263C425.231 54.6829 425.855 54.3367 426.517 54.3704C427.179 54.4059 427.762 54.8158 428.02 55.4277L430.256 60.7426H436.429C437.385 60.7426 438.161 61.5174 438.161 62.4755C438.161 63.4337 437.387 64.2085 436.429 64.2085H429.106C428.411 64.2085 427.781 63.7912 427.512 63.1493L426.214 60.0651L420.899 69.6918C420.594 70.2457 420.013 70.5863 419.385 70.5863C419.362 70.5863 419.34 70.5863 419.317 70.5863C418.663 70.5601 418.08 70.169 417.81 69.572L412.191 57.1981L406.918 62.9771C406.591 63.3364 406.128 63.5404 405.64 63.5404H403.536C407.124 70.4441 415.709 78.9834 421.772 82.876C423.307 83.8622 425.294 83.7743 426.741 82.6645C433.487 77.49 446.772 64.9346 446.772 58.0403C446.772 50.2064 441.133 43.8548 434.177 43.8548L434.178 43.8511Z" fill="white"/>
<path d="M518.368 156.625C518.368 180.347 496.141 199.576 472.442 199.576C448.744 199.576 429.534 180.346 429.534 156.625C429.534 132.905 448.746 113.674 472.442 113.674C496.139 113.674 518.368 132.905 518.368 156.625Z" fill="url(#paint22_linear_262_218)"/>
<path opacity="0.65" d="M508.98 156.625C508.988 161.122 508.115 165.631 506.423 169.811C504.733 173.996 502.226 177.849 499.079 181.107C495.933 184.362 492.151 187.036 487.965 188.87C483.788 190.719 479.221 191.746 474.62 191.859C470.021 191.969 465.358 191.183 461.019 189.489C456.685 187.792 452.666 185.234 449.3 181.97C445.933 178.708 443.217 174.756 441.379 170.41C440.463 168.237 439.754 165.973 439.291 163.656C438.827 161.341 438.593 158.981 438.584 156.625C438.591 154.269 438.825 151.909 439.291 149.594C439.754 147.279 440.465 145.013 441.379 142.84C443.217 138.495 445.935 134.54 449.3 131.28C452.666 128.017 456.685 125.458 461.019 123.761C465.358 122.067 470.021 121.281 474.62 121.392C479.221 121.504 483.786 122.531 487.965 124.38C492.153 126.213 495.933 128.887 499.079 132.143C502.226 135.401 504.735 139.255 506.423 143.439C508.115 147.622 508.988 152.13 508.98 156.627V156.625ZM504.288 156.625C504.278 154.679 504.077 152.734 503.676 150.831C503.276 148.928 502.661 147.068 501.872 145.282C500.285 141.714 497.935 138.463 495.026 135.789C492.117 133.111 488.645 131.026 484.923 129.65C481.193 128.281 477.2 127.657 473.244 127.766C465.317 127.972 457.702 131.275 452.361 136.65C449.682 139.322 447.55 142.472 446.118 145.879C444.684 149.287 443.944 152.946 443.95 156.625C443.944 160.304 444.684 163.963 446.118 167.371C447.55 170.779 449.68 173.928 452.361 176.601C457.702 181.976 465.317 185.277 473.244 185.485C477.202 185.593 481.193 184.972 484.923 183.6C488.647 182.224 492.117 180.14 495.026 177.462C497.937 174.786 500.285 171.537 501.872 167.968C502.661 166.183 503.276 164.324 503.676 162.419C504.077 160.516 504.28 158.573 504.288 156.625Z" fill="white"/>
<g opacity="0.89">
<path d="M460.774 142.01H453.632C453.374 142.01 453.165 142.219 453.165 142.477V172.722C453.165 172.98 453.374 173.189 453.632 173.189H460.774C461.032 173.189 461.242 172.98 461.242 172.722V142.477C461.242 142.219 461.032 142.01 460.774 142.01Z" fill="white"/>
<path d="M450.569 163.085C449.773 163.085 449.128 162.44 449.128 161.642V153.558C449.128 152.761 449.773 152.115 450.569 152.115C451.366 152.115 452.011 152.761 452.011 153.558V161.642C452.011 162.44 451.366 163.085 450.569 163.085Z" fill="white"/>
<path d="M487.087 173.191H494.229C494.487 173.191 494.696 172.982 494.696 172.723V142.479C494.696 142.221 494.487 142.011 494.229 142.011H487.087C486.829 142.011 486.62 142.221 486.62 142.479V172.723C486.62 172.982 486.829 173.191 487.087 173.191Z" fill="white"/>
<path d="M497.293 163.085C498.089 163.085 498.734 162.44 498.734 161.642V153.558C498.734 152.761 498.089 152.115 497.293 152.115C496.497 152.115 495.852 152.761 495.852 153.558V161.642C495.852 162.44 496.497 163.085 497.293 163.085Z" fill="white"/>
<path d="M485.054 155.261H462.81C462.58 155.261 462.395 155.447 462.395 155.676V159.234C462.395 159.463 462.58 159.649 462.81 159.649H485.054C485.283 159.649 485.469 159.463 485.469 159.234V155.676C485.469 155.447 485.283 155.261 485.054 155.261Z" fill="white"/>
</g>
<path d="M474.502 258.852C474.502 282.575 452.275 301.803 428.576 301.803C404.878 301.803 385.668 282.573 385.668 258.852C385.668 235.132 404.88 215.901 428.576 215.901C452.273 215.901 474.502 235.132 474.502 258.852Z" fill="url(#paint23_linear_262_218)"/>
<path opacity="0.65" d="M465.117 258.852C465.125 263.349 464.251 267.858 462.56 272.04C460.869 276.225 458.362 280.078 455.216 283.336C452.069 286.591 448.287 289.265 444.101 291.099C439.925 292.948 435.357 293.975 430.756 294.088C426.157 294.198 421.495 293.412 417.155 291.718C412.822 290.021 408.802 287.463 405.437 284.199C402.07 280.937 399.353 276.985 397.516 272.639C396.601 270.466 395.891 268.202 395.427 265.885C394.964 263.57 394.73 261.21 394.721 258.854C394.728 256.498 394.962 254.138 395.427 251.823C395.891 249.508 396.601 247.242 397.516 245.069C399.353 240.724 402.072 236.769 405.437 233.509C408.802 230.246 412.822 227.687 417.155 225.99C421.495 224.296 426.157 223.51 430.756 223.621C435.357 223.733 439.923 224.76 444.101 226.609C448.289 228.442 452.069 231.116 455.216 234.372C458.362 237.63 460.869 241.484 462.56 245.668C464.251 249.851 465.125 254.359 465.117 258.856V258.852ZM460.424 258.852C460.415 256.906 460.213 254.962 459.813 253.058C459.413 251.155 458.798 249.295 458.009 247.51C456.422 243.941 454.072 240.69 451.163 238.016C448.254 235.338 444.782 233.253 441.06 231.878C437.33 230.508 433.336 229.884 429.38 229.995C421.454 230.201 413.839 233.504 408.497 238.879C405.818 241.551 403.687 244.701 402.255 248.108C400.821 251.516 400.081 255.175 400.086 258.854C400.081 262.533 400.821 266.192 402.255 269.6C403.687 273.008 405.817 276.157 408.497 278.83C413.839 284.205 421.454 287.506 429.38 287.714C433.338 287.822 437.33 287.201 441.06 285.829C444.784 284.453 448.254 282.369 451.163 279.691C454.074 277.015 456.422 273.766 458.009 270.197C458.798 268.412 459.413 266.553 459.813 264.648C460.213 262.745 460.417 260.802 460.424 258.854V258.852Z" fill="white"/>
<g opacity="0.65">
<path d="M420.847 246.582C420.738 246.595 420.632 246.621 420.531 246.655C420.239 246.754 419.983 246.937 419.79 247.186C419.254 247.88 419.383 248.882 420.076 249.419C420.413 249.679 420.83 249.793 421.25 249.739C421.671 249.684 422.047 249.469 422.307 249.134C422.843 248.44 422.714 247.439 422.021 246.902C421.684 246.641 421.267 246.527 420.847 246.582Z" fill="white"/>
<path d="M429.229 243.116L427.887 241.403C427.848 241.353 427.781 241.334 427.721 241.355L426.01 241.948C425.33 241.403 424.576 240.984 423.78 240.692L423.398 238.918C423.385 238.856 423.333 238.809 423.271 238.802L421.112 238.542C421.048 238.534 420.988 238.568 420.96 238.624L420.17 240.256C419.328 240.35 418.496 240.578 417.705 240.945L416.184 239.96C416.129 239.927 416.06 239.929 416.012 239.968L414.301 241.312C414.251 241.351 414.232 241.418 414.252 241.478L414.845 243.19C414.301 243.872 413.882 244.626 413.591 245.423L411.818 245.805C411.757 245.818 411.71 245.87 411.702 245.932L411.442 248.092C411.435 248.155 411.469 248.215 411.525 248.243L413.155 249.035C413.248 249.877 413.477 250.71 413.843 251.501L412.86 253.025C412.826 253.079 412.828 253.148 412.867 253.197L414.209 254.909C414.249 254.96 414.316 254.979 414.376 254.958L416.086 254.365C416.767 254.909 417.52 255.329 418.317 255.62L418.698 257.395C418.711 257.456 418.764 257.503 418.825 257.511L420.985 257.771C421.048 257.778 421.108 257.745 421.136 257.688L421.927 256.057C422.768 255.963 423.6 255.735 424.391 255.368L425.913 256.35C425.967 256.384 426.036 256.382 426.085 256.343L427.795 254.999C427.846 254.96 427.865 254.892 427.844 254.833L427.251 253.118C427.795 252.437 428.214 251.683 428.506 250.886L430.278 250.504C430.34 250.491 430.387 250.438 430.394 250.377L430.654 248.215C430.662 248.152 430.628 248.092 430.572 248.064L428.942 247.272C428.848 246.43 428.62 245.597 428.254 244.805L429.235 243.282C429.269 243.228 429.267 243.159 429.228 243.11L429.229 243.116ZM425.872 246.17C425.703 246.252 425.5 246.181 425.416 246.013C425.264 245.7 425.077 245.402 424.86 245.125C424.051 244.094 422.89 243.439 421.589 243.282C420.287 243.125 419.005 243.484 417.973 244.295C416.943 245.105 416.288 246.267 416.131 247.57C416.042 248.314 416.12 249.054 416.358 249.744C416.533 250.261 416.797 250.747 417.143 251.189C417.952 252.22 419.113 252.875 420.414 253.032C421.716 253.189 423 252.83 424.03 252.02C424.729 251.47 425.266 250.742 425.582 249.916C425.649 249.74 425.846 249.652 426.021 249.72C426.118 249.757 426.19 249.836 426.221 249.928C426.246 250.001 426.247 250.083 426.218 250.16C425.859 251.101 425.247 251.93 424.449 252.557C423.946 252.952 423.391 253.253 422.804 253.453C422.019 253.721 421.179 253.813 420.332 253.71C418.852 253.53 417.528 252.785 416.606 251.61C416.212 251.108 415.913 250.553 415.711 249.965C415.441 249.179 415.352 248.337 415.455 247.489C415.634 246.007 416.378 244.682 417.552 243.759C418.726 242.837 420.188 242.427 421.669 242.607C423.15 242.784 424.473 243.531 425.395 244.706C425.412 244.727 425.429 244.749 425.445 244.77C425.631 245.013 425.797 245.273 425.939 245.543C425.948 245.562 425.96 245.58 425.969 245.601C425.973 245.608 425.976 245.616 425.98 245.621C425.995 245.651 426.01 245.681 426.025 245.713C426.031 245.726 426.036 245.739 426.042 245.752C426.096 245.913 426.025 246.093 425.868 246.17H425.872ZM422.847 249.55C422.564 249.914 422.194 250.169 421.789 250.309C421.089 250.549 420.289 250.444 419.661 249.959C418.67 249.192 418.487 247.762 419.253 246.77C419.624 246.29 420.16 245.983 420.762 245.906C421.364 245.829 421.961 245.99 422.439 246.362C423.43 247.13 423.613 248.56 422.847 249.551V249.55Z" fill="white"/>
</g>
<g opacity="0.65">
<path d="M437.327 263.774C437.156 263.739 436.983 263.722 436.812 263.722C436.321 263.722 435.84 263.866 435.422 264.143C434.255 264.914 433.931 266.49 434.702 267.658C435.076 268.223 435.646 268.61 436.31 268.745C436.973 268.881 437.648 268.75 438.215 268.376C439.381 267.605 439.705 266.029 438.934 264.862C438.561 264.296 437.99 263.909 437.327 263.772V263.774Z" fill="white"/>
<path d="M451.757 262.874L450.615 259.599C450.581 259.504 450.492 259.44 450.391 259.44L447.502 259.451C446.756 258.278 445.835 257.256 444.786 256.406L445.124 253.534C445.135 253.433 445.083 253.335 444.991 253.292L441.869 251.786C441.778 251.741 441.669 251.76 441.598 251.833L439.562 253.886C438.244 253.592 436.872 253.506 435.49 253.654L433.701 251.384C433.637 251.303 433.533 251.273 433.436 251.307L430.164 252.45C430.068 252.484 430.005 252.574 430.005 252.675L430.016 255.566C428.844 256.311 427.823 257.236 426.974 258.285L424.105 257.947C424.004 257.935 423.906 257.988 423.863 258.08L422.358 261.205C422.314 261.297 422.332 261.405 422.405 261.476L424.456 263.514C424.163 264.834 424.077 266.207 424.224 267.59L421.956 269.381C421.876 269.445 421.846 269.55 421.88 269.647L423.022 272.922C423.056 273.017 423.145 273.081 423.246 273.081L426.135 273.07C426.879 274.243 427.803 275.265 428.851 276.115L428.513 278.987C428.502 279.088 428.554 279.186 428.646 279.229L431.768 280.735C431.86 280.78 431.968 280.761 432.039 280.688L434.075 278.635C435.393 278.929 436.765 279.015 438.147 278.867L439.936 281.137C440 281.218 440.104 281.248 440.202 281.214L443.473 280.071C443.569 280.037 443.632 279.947 443.632 279.846L443.621 276.955C444.793 276.21 445.814 275.285 446.663 274.236L449.532 274.574C449.633 274.586 449.731 274.533 449.774 274.441L451.279 271.316C451.324 271.224 451.305 271.116 451.232 271.045L449.181 269.007C449.475 267.687 449.561 266.314 449.413 264.931L451.681 263.14C451.761 263.076 451.791 262.971 451.757 262.874ZM445.118 265.747C444.821 265.784 444.55 265.573 444.513 265.275C444.444 264.725 444.316 264.179 444.131 263.651C443.441 261.676 442.026 260.089 440.145 259.18C438.263 258.272 436.141 258.153 434.168 258.841C432.196 259.532 430.611 260.948 429.702 262.831C429.182 263.909 428.921 265.066 428.922 266.228C428.922 267.096 429.07 267.968 429.364 268.812C430.054 270.787 431.469 272.374 433.35 273.283C435.23 274.191 437.354 274.312 439.327 273.622C440.665 273.154 441.85 272.332 442.752 271.249C442.944 271.019 443.286 270.987 443.516 271.18C443.645 271.286 443.711 271.442 443.713 271.597C443.713 271.72 443.671 271.844 443.587 271.945C442.559 273.18 441.211 274.114 439.686 274.647C438.725 274.984 437.73 275.151 436.741 275.151C435.419 275.151 434.105 274.853 432.878 274.262C430.736 273.227 429.122 271.419 428.339 269.171C428.003 268.21 427.836 267.218 427.836 266.228C427.836 264.905 428.133 263.587 428.724 262.36C429.758 260.215 431.564 258.6 433.809 257.816C436.055 257.03 438.472 257.168 440.617 258.201C442.759 259.236 444.373 261.044 445.156 263.291C445.171 263.333 445.184 263.374 445.199 263.415C445.354 263.879 445.47 264.354 445.547 264.835C445.547 264.835 445.547 264.837 445.547 264.839C445.552 264.873 445.558 264.907 445.562 264.942C445.562 264.955 445.565 264.966 445.567 264.98C445.575 265.034 445.582 265.086 445.59 265.14C445.593 265.163 445.593 265.185 445.593 265.208C445.593 265.479 445.391 265.713 445.117 265.747H445.118ZM438.812 269.284C438.199 269.688 437.507 269.883 436.823 269.883C435.645 269.883 434.49 269.31 433.795 268.256C432.695 266.589 433.155 264.336 434.823 263.235C435.63 262.702 436.597 262.515 437.543 262.709C438.491 262.904 439.306 263.456 439.839 264.265C440.938 265.932 440.478 268.185 438.811 269.286L438.812 269.284Z" fill="white"/>
</g>
<path d="M396.557 95.7905L395.674 97.2914C395.564 97.4786 395.321 97.5422 395.134 97.4318C394.947 97.3214 394.883 97.0781 394.994 96.8909V96.8872L395.001 96.8797L395.889 95.4031L395.895 95.3956C396.005 95.2122 396.243 95.1542 396.426 95.2646C396.607 95.3751 396.667 95.609 396.558 95.7924L396.557 95.7905Z" fill="white"/>
<path d="M393.481 100.709L392.488 102.139C392.355 102.329 392.091 102.378 391.901 102.243C391.71 102.11 391.661 101.847 391.796 101.656V101.652L391.804 101.644L392.8 100.239L392.806 100.232C392.938 100.044 393.196 100.001 393.383 100.134C393.568 100.265 393.613 100.522 393.484 100.709H393.481Z" fill="white"/>
<path d="M390.053 105.389L388.965 106.746C388.81 106.94 388.526 106.97 388.333 106.815C388.139 106.66 388.109 106.375 388.264 106.183V106.179L388.272 106.171L389.362 104.839L389.367 104.831C389.522 104.642 389.799 104.614 389.988 104.77C390.175 104.923 390.203 105.2 390.052 105.387L390.053 105.389Z" fill="white"/>
<path d="M386.324 109.826L385.152 111.11C384.974 111.305 384.673 111.318 384.477 111.14C384.283 110.962 384.27 110.661 384.447 110.464L384.451 110.461L384.457 110.455L385.629 109.194L385.634 109.188C385.81 108.999 386.107 108.988 386.296 109.164C386.485 109.34 386.496 109.634 386.322 109.824L386.324 109.826Z" fill="white"/>
<path d="M382.328 114.028L381.083 115.242C380.883 115.437 380.563 115.433 380.369 115.233C380.174 115.033 380.178 114.713 380.378 114.518L380.382 114.514L380.388 114.509L381.633 113.318L381.638 113.313C381.836 113.124 382.151 113.131 382.339 113.33C382.528 113.526 382.521 113.839 382.326 114.03L382.328 114.028Z" fill="white"/>
<path d="M378.099 117.993L376.789 119.138C376.568 119.331 376.232 119.309 376.039 119.088C375.847 118.867 375.869 118.53 376.09 118.337L376.093 118.334L376.099 118.328L377.408 117.207L377.413 117.201C377.632 117.012 377.963 117.039 378.152 117.26C378.339 117.478 378.314 117.806 378.097 117.995L378.099 117.993Z" fill="white"/>
<path d="M373.665 121.728L372.299 122.805C372.056 122.995 371.704 122.954 371.513 122.711C371.323 122.468 371.364 122.116 371.607 121.925L371.611 121.921L371.616 121.916L372.979 120.862L372.985 120.856C373.226 120.669 373.572 120.714 373.757 120.956C373.942 121.195 373.899 121.539 373.661 121.727L373.665 121.728Z" fill="white"/>
<path d="M369.053 125.239L367.637 126.25C367.374 126.439 367.007 126.377 366.818 126.112C366.63 125.848 366.691 125.481 366.955 125.292L366.959 125.288L366.966 125.284L368.378 124.298L368.385 124.294C368.647 124.111 369.008 124.175 369.191 124.438C369.372 124.699 369.311 125.058 369.053 125.241V125.239Z" fill="white"/>
<path d="M364.279 128.529L362.819 129.474C362.535 129.658 362.153 129.577 361.97 129.291C361.787 129.007 361.867 128.625 362.153 128.441L362.159 128.438L362.166 128.434L363.623 127.513L363.63 127.509C363.913 127.33 364.288 127.414 364.466 127.698C364.644 127.979 364.561 128.352 364.283 128.533L364.279 128.529Z" fill="white"/>
<path d="M359.362 131.602L357.861 132.482C357.554 132.661 357.161 132.559 356.982 132.252C356.802 131.945 356.905 131.552 357.212 131.372L357.217 131.368L357.225 131.365L358.719 130.507L358.726 130.504C359.029 130.33 359.416 130.434 359.59 130.74C359.762 131.041 359.659 131.426 359.36 131.602H359.362Z" fill="white"/>
<path d="M354.316 134.456L352.779 135.27C352.452 135.443 352.048 135.319 351.874 134.991C351.702 134.664 351.826 134.26 352.153 134.086L352.159 134.082L352.166 134.078L353.695 133.287L353.703 133.283C354.026 133.114 354.426 133.242 354.593 133.567C354.759 133.889 354.636 134.286 354.314 134.456H354.316Z" fill="white"/>
<path d="M349.155 137.095L347.585 137.844C347.237 138.01 346.822 137.862 346.655 137.514C346.489 137.166 346.637 136.751 346.984 136.584L346.99 136.58L346.997 136.577L348.559 135.849L348.566 135.845C348.91 135.684 349.319 135.834 349.48 136.18C349.639 136.522 349.493 136.93 349.153 137.093L349.155 137.095Z" fill="white"/>
<path d="M343.884 139.516L342.283 140.2C341.915 140.357 341.491 140.185 341.334 139.818C341.177 139.449 341.349 139.024 341.715 138.867H341.721L341.728 138.861L343.317 138.201L343.325 138.197C343.689 138.046 344.108 138.218 344.259 138.584C344.411 138.948 344.239 139.365 343.88 139.518L343.884 139.516Z" fill="white"/>
<path d="M338.516 141.715L336.888 142.331C336.499 142.477 336.065 142.282 335.92 141.893C335.774 141.504 335.968 141.07 336.357 140.924H336.364L336.374 140.918L337.989 140.325L337.998 140.321C338.384 140.179 338.81 140.377 338.952 140.763C339.092 141.146 338.898 141.571 338.516 141.715Z" fill="white"/>
<path d="M333.061 143.686L331.408 144.231C330.999 144.365 330.56 144.143 330.425 143.735C330.29 143.325 330.513 142.885 330.92 142.75H330.928L330.937 142.745L332.577 142.221L332.586 142.217C332.992 142.088 333.426 142.312 333.555 142.718C333.684 143.123 333.463 143.553 333.061 143.686Z" fill="white"/>
<path d="M327.522 145.417L325.845 145.889C325.417 146.009 324.972 145.76 324.85 145.329C324.731 144.901 324.979 144.455 325.409 144.334H325.417L325.428 144.328L327.088 143.879L327.099 143.875C327.526 143.759 327.963 144.012 328.079 144.438C328.193 144.861 327.944 145.297 327.524 145.415L327.522 145.417Z" fill="white"/>
<path d="M321.906 146.899L320.208 147.292C319.759 147.395 319.313 147.116 319.208 146.667C319.105 146.218 319.384 145.771 319.832 145.666H319.84L319.851 145.662L321.53 145.292H321.541C321.986 145.191 322.427 145.471 322.524 145.917C322.622 146.36 322.345 146.798 321.904 146.899H321.906Z" fill="white"/>
<path d="M316.224 148.11L314.508 148.417C314.041 148.501 313.592 148.189 313.508 147.721C313.424 147.253 313.736 146.804 314.203 146.72H314.211L314.224 146.716L315.918 146.43H315.931C316.394 146.349 316.836 146.662 316.914 147.126C316.993 147.588 316.684 148.026 316.224 148.108V148.11Z" fill="white"/>
<path d="M418.253 156.189L416.526 156.184C416.182 156.184 415.901 155.903 415.903 155.557C415.903 155.212 416.184 154.932 416.53 154.934H416.533L418.263 154.949C418.605 154.952 418.882 155.231 418.878 155.576C418.874 155.918 418.597 156.195 418.255 156.191L418.253 156.189Z" fill="white"/>
<path d="M412.493 156.172H410.764C410.412 156.172 410.126 155.886 410.126 155.532C410.126 155.18 410.412 154.894 410.764 154.894H410.767L412.498 154.903C412.848 154.905 413.13 155.192 413.129 155.542C413.127 155.892 412.844 156.174 412.493 156.172Z" fill="white"/>
<path d="M406.728 156.174L404.999 156.178C404.64 156.178 404.347 155.888 404.347 155.528C404.347 155.169 404.636 154.875 404.995 154.875H404.999L406.73 154.881C407.087 154.881 407.377 155.173 407.375 155.53C407.375 155.888 407.086 156.178 406.728 156.176V156.174Z" fill="white"/>
<path d="M400.96 156.189L399.231 156.197C398.864 156.197 398.565 155.903 398.563 155.534C398.563 155.168 398.857 154.868 399.225 154.866H400.958C401.323 154.866 401.618 155.164 401.618 155.529C401.618 155.894 401.325 156.189 400.96 156.189Z" fill="white"/>
<path d="M395.195 156.219L393.466 156.23C393.092 156.232 392.785 155.931 392.783 155.557C392.781 155.182 393.082 154.875 393.456 154.874H393.46L395.191 154.87C395.563 154.87 395.866 155.171 395.866 155.544C395.866 155.916 395.569 156.219 395.195 156.219Z" fill="white"/>
<path d="M389.429 156.262L387.699 156.277C387.318 156.281 387.004 155.974 387.002 155.59C386.998 155.209 387.305 154.894 387.688 154.892H387.692L389.423 154.885C389.803 154.885 390.113 155.19 390.113 155.57C390.113 155.95 389.81 156.26 389.431 156.26L389.429 156.262Z" fill="white"/>
<path d="M383.663 156.315L381.934 156.333C381.545 156.337 381.225 156.025 381.222 155.635C381.218 155.246 381.53 154.926 381.919 154.922H381.923L383.654 154.911C384.041 154.909 384.357 155.222 384.359 155.609C384.361 155.997 384.052 156.313 383.665 156.315H383.663Z" fill="white"/>
<path d="M377.896 156.382L376.167 156.404C375.77 156.41 375.443 156.092 375.438 155.695C375.432 155.298 375.75 154.971 376.146 154.965H376.15L377.881 154.952C378.276 154.948 378.599 155.266 378.601 155.661C378.605 156.056 378.289 156.38 377.894 156.382H377.896Z" fill="white"/>
<path d="M372.13 156.459L370.4 156.485C369.997 156.491 369.664 156.169 369.656 155.763C369.651 155.358 369.972 155.025 370.378 155.018H370.382L372.113 155.001C372.515 154.997 372.844 155.319 372.848 155.723C372.851 156.126 372.532 156.455 372.13 156.459Z" fill="white"/>
<path d="M366.364 156.548L364.634 156.577C364.223 156.584 363.883 156.255 363.875 155.843C363.868 155.431 364.197 155.091 364.608 155.083H364.612L366.343 155.063C366.752 155.057 367.089 155.386 367.093 155.796C367.098 156.206 366.773 156.543 366.364 156.547V156.548Z" fill="white"/>
<path d="M360.598 156.648L358.869 156.679C358.45 156.687 358.102 156.354 358.095 155.935C358.087 155.515 358.42 155.167 358.839 155.16H358.843L360.574 155.136C360.991 155.13 361.333 155.463 361.34 155.88C361.346 156.298 361.017 156.64 360.598 156.648Z" fill="white"/>
<path d="M354.83 156.762L353.101 156.797C352.674 156.807 352.321 156.468 352.312 156.041C352.302 155.615 352.641 155.261 353.067 155.252H353.071L354.802 155.224C355.226 155.216 355.576 155.555 355.583 155.98C355.591 156.404 355.254 156.754 354.83 156.762Z" fill="white"/>
<path d="M349.065 156.887L347.335 156.928C346.902 156.94 346.541 156.595 346.53 156.161C346.518 155.727 346.862 155.366 347.296 155.354H347.3L349.031 155.323C349.463 155.315 349.82 155.659 349.827 156.09C349.835 156.522 349.495 156.88 349.063 156.887H349.065Z" fill="white"/>
<path d="M343.299 157.026L341.57 157.071C341.129 157.082 340.761 156.734 340.749 156.292C340.738 155.851 341.086 155.482 341.527 155.471H341.531L343.262 155.433C343.701 155.424 344.064 155.774 344.073 156.212C344.083 156.652 343.737 157.015 343.297 157.024L343.299 157.026Z" fill="white"/>
<path d="M337.531 157.181L335.802 157.23C335.353 157.243 334.979 156.889 334.964 156.44C334.951 155.991 335.304 155.617 335.753 155.603H335.757L337.488 155.562C337.935 155.551 338.305 155.905 338.316 156.352C338.328 156.799 337.976 157.17 337.529 157.181H337.531Z" fill="white"/>
<path d="M331.767 157.351L330.038 157.406C329.581 157.421 329.2 157.061 329.185 156.605C329.17 156.148 329.529 155.766 329.985 155.751H329.989L331.72 155.705C332.174 155.693 332.552 156.051 332.565 156.506C332.576 156.96 332.221 157.338 331.769 157.351H331.767Z" fill="white"/>
<path d="M326.002 157.538L324.272 157.598C323.809 157.615 323.42 157.252 323.403 156.788C323.386 156.324 323.749 155.935 324.212 155.918H324.218L325.949 155.865C326.411 155.852 326.796 156.215 326.809 156.678C326.822 157.14 326.463 157.525 326.002 157.538Z" fill="white"/>
<path d="M320.24 157.746L318.513 157.813C318.042 157.832 317.645 157.465 317.627 156.994C317.608 156.522 317.974 156.125 318.446 156.107H318.451L320.182 156.049C320.652 156.032 321.044 156.4 321.061 156.87C321.078 157.34 320.713 157.733 320.244 157.75L320.24 157.746Z" fill="white"/>
<path d="M314.478 157.978L313.542 158.018C313.065 158.038 312.661 157.668 312.639 157.19C312.618 156.713 312.988 156.309 313.465 156.286H313.47L314.409 156.251C314.886 156.232 315.286 156.605 315.305 157.082C315.323 157.559 314.955 157.96 314.478 157.978Z" fill="white"/>
<path d="M386.385 226.628L385.291 225.29L385.287 225.286C385.125 225.086 385.153 224.792 385.353 224.63C385.553 224.467 385.846 224.495 386.011 224.695V224.699L387.101 226.054C387.26 226.252 387.228 226.54 387.03 226.699C386.833 226.857 386.545 226.827 386.386 226.632L386.383 226.628H386.385Z" fill="white"/>
<path d="M382.69 222.213L381.556 220.913L381.552 220.909C381.372 220.703 381.393 220.393 381.599 220.213C381.804 220.033 382.115 220.054 382.294 220.26L382.298 220.263L383.429 221.581C383.603 221.785 383.58 222.09 383.377 222.266C383.175 222.44 382.87 222.417 382.696 222.217L382.692 222.213H382.69Z" fill="white"/>
<path d="M378.855 217.92L377.678 216.657L377.674 216.653C377.479 216.444 377.491 216.116 377.7 215.922C377.909 215.727 378.237 215.738 378.431 215.948L378.435 215.952L379.607 217.232C379.798 217.439 379.783 217.763 379.575 217.954C379.37 218.143 379.048 218.13 378.857 217.926L378.854 217.922L378.855 217.92Z" fill="white"/>
<path d="M374.885 213.756L373.668 212.532L373.664 212.529C373.453 212.315 373.453 211.971 373.664 211.759C373.877 211.548 374.221 211.548 374.433 211.759L374.436 211.763L375.65 213.006C375.857 213.217 375.854 213.556 375.64 213.764C375.431 213.97 375.095 213.968 374.887 213.758L374.883 213.754L374.885 213.756Z" fill="white"/>
<path d="M370.783 209.721L369.527 208.537L369.523 208.533C369.295 208.318 369.284 207.957 369.499 207.728C369.714 207.5 370.075 207.489 370.303 207.704L370.307 207.708L371.559 208.911C371.784 209.126 371.791 209.482 371.576 209.705C371.363 209.927 371.01 209.937 370.787 209.725L370.783 209.721Z" fill="white"/>
<path d="M366.554 205.822L365.263 204.678L365.259 204.674C365.012 204.457 364.99 204.081 365.206 203.834C365.423 203.589 365.799 203.565 366.046 203.782L366.05 203.785L367.341 204.948C367.583 205.165 367.601 205.535 367.386 205.777C367.171 206.016 366.803 206.037 366.562 205.823L366.558 205.82L366.554 205.822Z" fill="white"/>
<path d="M362.202 202.06L360.873 200.96L360.869 200.956C360.606 200.737 360.568 200.346 360.787 200.082C361.006 199.818 361.397 199.781 361.66 200L361.664 200.003L362.991 201.124C363.249 201.343 363.283 201.729 363.064 201.987C362.847 202.243 362.464 202.279 362.206 202.064L362.2 202.06H362.202Z" fill="white"/>
<path d="M357.734 198.439L356.371 197.381L356.365 197.378C356.083 197.159 356.032 196.754 356.251 196.472C356.47 196.189 356.874 196.139 357.156 196.358L357.16 196.361L358.523 197.439C358.799 197.658 358.846 198.059 358.627 198.336C358.41 198.611 358.012 198.66 357.737 198.444L357.732 198.441L357.734 198.439Z" fill="white"/>
<path d="M353.153 194.962L351.759 193.947L351.753 193.944C351.454 193.727 351.386 193.306 351.605 193.006C351.822 192.707 352.243 192.639 352.542 192.858L352.547 192.862L353.944 193.895C354.238 194.112 354.301 194.528 354.082 194.823C353.866 195.117 353.454 195.179 353.161 194.966L353.155 194.962H353.153Z" fill="white"/>
<path d="M348.466 191.634L347.04 190.665L347.034 190.661C346.716 190.446 346.634 190.012 346.849 189.694C347.064 189.375 347.498 189.293 347.816 189.508L347.821 189.512L349.25 190.502C349.562 190.719 349.64 191.148 349.424 191.46C349.209 191.771 348.784 191.851 348.472 191.638L348.466 191.634Z" fill="white"/>
<path d="M343.675 188.456L342.219 187.534L342.213 187.53C341.877 187.317 341.776 186.871 341.989 186.534C342.202 186.198 342.647 186.097 342.983 186.31L342.989 186.314L344.449 187.257C344.78 187.47 344.875 187.914 344.662 188.245C344.449 188.574 344.012 188.67 343.681 188.462L343.675 188.458V188.456Z" fill="white"/>
<path d="M338.786 185.436L337.302 184.56L337.296 184.557C336.941 184.347 336.823 183.888 337.032 183.533C337.242 183.177 337.7 183.059 338.055 183.269L338.061 183.273L339.551 184.169C339.9 184.379 340.014 184.834 339.803 185.184C339.594 185.532 339.143 185.646 338.795 185.44L338.79 185.436H338.786Z" fill="white"/>
<path d="M333.804 182.573L332.291 181.746L332.286 181.742C331.912 181.538 331.773 181.068 331.979 180.694C332.183 180.32 332.652 180.181 333.026 180.387L333.032 180.391L334.55 181.239C334.918 181.445 335.051 181.911 334.845 182.279C334.641 182.646 334.18 182.779 333.811 182.579L333.804 182.575V182.573Z" fill="white"/>
<path d="M328.733 179.872L327.197 179.094L327.189 179.09C326.797 178.892 326.639 178.411 326.838 178.018C327.036 177.625 327.516 177.468 327.909 177.666L327.915 177.67L329.459 178.469C329.846 178.669 329.997 179.146 329.797 179.534C329.599 179.919 329.126 180.073 328.739 179.876L328.732 179.872H328.733Z" fill="white"/>
<path d="M323.58 177.337L322.019 176.609L322.012 176.605C321.6 176.412 321.421 175.924 321.614 175.51C321.806 175.098 322.294 174.919 322.707 175.111L322.715 175.115L324.283 175.864C324.689 176.058 324.863 176.545 324.668 176.951C324.476 177.355 323.993 177.529 323.59 177.34L323.582 177.337H323.58Z" fill="white"/>
<path d="M318.348 174.971L316.764 174.295L316.757 174.292C316.327 174.108 316.125 173.609 316.31 173.178C316.493 172.748 316.992 172.546 317.422 172.731L317.43 172.735L319.023 173.431C319.449 173.616 319.641 174.112 319.456 174.539C319.271 174.962 318.781 175.156 318.357 174.977L318.35 174.973L318.348 174.971Z" fill="white"/>
<path d="M168.289 202.239C168.289 202.239 162.028 203.935 163.613 206.761C165.199 209.587 169.588 216.356 169.588 216.356L165.056 220.314C165.056 220.314 154.751 209.89 156.47 206.184C160.846 196.739 168.289 202.243 168.289 202.243V202.239Z" fill="url(#paint24_linear_262_218)"/>
<path d="M153.91 202.7C152.153 198.422 148.234 195.901 143.336 193.824L141.062 196.99C141.062 196.99 142.586 196.807 146.609 198.358C150.631 199.912 152.448 204.517 152.448 204.517L153.912 202.698L153.91 202.7Z" fill="url(#paint25_linear_262_218)"/>
<path d="M152.384 201.867C152.384 201.867 143.485 199.859 139.839 206.218C136.194 212.577 145.981 223.735 152.438 226.177C158.898 228.619 160.227 224.912 160.227 224.912C160.227 224.912 170.098 226.21 169.588 216.356C169.588 216.356 166.125 218.886 165.439 214.149C164.297 214.297 162.633 214.093 161.666 212.976C160.902 212.092 160.083 209.087 161.971 207.622C160.819 207.038 160.44 204.792 161.218 203.486C162.723 200.954 164.798 202.178 168.29 202.241C167.808 200.834 167.112 200.287 166.017 199.077C161.12 193.655 152.386 201.869 152.386 201.869L152.384 201.867Z" fill="url(#paint26_linear_262_218)"/>
<path d="M142.917 227.65C145.938 229.761 150.818 233.882 154.211 236.399C157.602 238.916 162.489 230.874 162.489 230.874C162.489 230.874 158.724 223.52 157.857 221.04C156.989 218.56 152.91 213.753 152.91 213.753C152.91 213.753 149.894 214.136 152.426 220.454C153.149 222.258 150.917 224.734 150.917 224.734L146.299 220.349C146.299 220.349 145.235 217.496 143.115 213.369C140.995 209.243 138.611 210.319 138.611 210.319L138.834 219.612C138.834 219.612 141.111 226.387 142.919 227.648L142.917 227.65Z" fill="url(#paint27_linear_262_218)"/>
<path d="M321.219 216.41C321.219 216.41 324.857 216.318 325.969 211.864C327.081 207.409 328.119 202.852 328.794 201.607C329.471 200.361 334.868 194.95 336.932 195.299C337.443 199.283 336.308 202.101 334.642 205.535C332.976 208.971 333.713 214.146 333.713 214.146C333.713 214.146 334.866 214.95 337.031 212.849C339.196 210.747 341.507 212.087 341.507 212.087C341.507 212.087 335.736 220.535 332.169 222.359C328.601 224.184 320.929 224.566 320.929 224.566L321.217 216.41H321.219Z" fill="url(#paint28_linear_262_218)"/>
<path d="M239.449 219.507C239.449 219.507 270.589 226.813 293.545 223.284C316.503 219.754 322.366 216.168 322.366 216.168C322.366 216.168 326.515 219.269 324.983 223.712C292.717 242.303 247.901 240.083 247.901 240.083L239.447 219.507H239.449Z" fill="url(#paint29_linear_262_218)"/>
<path d="M239.778 164.397C239.778 164.397 242.788 153.363 255.38 154.752C267.971 156.142 254.155 188.08 265.619 189.581C277.084 191.082 280.714 184.201 277.994 190.73C273.174 202.301 259.16 209.285 249.758 195.585C240.354 181.884 239.778 164.397 239.778 164.397Z" fill="url(#paint30_linear_262_218)"/>
<path d="M154.882 236.964C155.766 234.499 162.489 230.873 162.489 230.873C162.489 230.873 176.443 251.329 185.707 248.883C194.971 246.437 195.745 223.791 205.059 220.359C214.371 216.928 213.502 238.699 213.502 238.699C213.502 238.699 203.352 265.215 187.135 264.558C170.917 263.903 154.884 236.96 154.884 236.96L154.882 236.964Z" fill="url(#paint31_linear_262_218)"/>
<path d="M215.994 476.589C216.061 477.087 215.998 480.641 216.516 481.485C217.032 482.329 219.978 486.816 226.292 485.209C232.605 483.601 231.76 482.136 232.054 480.487C232.347 478.839 232.171 476.415 232.171 476.415L215.994 476.589Z" fill="url(#paint32_linear_262_218)"/>
<path d="M216.235 478.092C217.804 484.986 226.952 485.059 230.765 480.252C234.579 475.444 229.554 469.947 228.443 465.443C227.333 460.938 227.548 458.715 227.548 458.715C227.548 458.715 217.908 458.936 217.849 459.576C218.467 465.042 214.667 471.198 216.235 478.092Z" fill="url(#paint33_linear_262_218)"/>
<path d="M249.566 294.241C249.566 294.241 266.766 337.654 270.232 376.037C271.513 390.225 195.508 442.247 195.508 442.247L191.01 435.605C191.01 435.605 228.995 386.892 252.402 378.515C252.402 378.515 247.628 362.047 240.843 348.136C234.06 334.226 224.024 294.494 224.024 294.494L249.564 294.239L249.566 294.241Z" fill="url(#paint34_linear_262_218)"/>
<path d="M209.068 290.131C204.302 326.916 205.747 345.945 206.531 379.668C207.314 413.393 217.924 459.25 217.924 459.25L227.518 458.848C227.518 458.848 224.546 399.453 227.503 374.478C230.461 349.504 235.771 328.11 235.771 328.11L249.757 294.179L209.07 290.129L209.068 290.131Z" fill="url(#paint35_linear_262_218)"/>
<path d="M224.594 474.933C219.358 476.198 216.237 478.092 216.237 478.092C217.806 484.986 226.954 485.059 230.768 480.251C230.768 480.251 232.439 478.614 232.172 476.415C232.172 476.415 229.992 473.628 224.594 474.933Z" fill="url(#paint36_linear_262_218)"/>
<path d="M199.708 463.337L196.82 463.478C196.82 463.478 191.355 464.881 189.456 463.708C187.554 462.535 184.212 437.169 184.212 437.169C182.923 437.751 181.916 438.388 181.703 439.102C181.007 441.421 185.266 465.643 188.096 466.994C190.927 468.347 197.252 468.05 198.19 467.116C199.568 465.746 199.921 464.088 199.71 463.337H199.708Z" fill="url(#paint37_linear_262_218)"/>
<path d="M195.508 442.209L191.406 434.931C191.406 434.931 187.097 435.803 184.21 437.108C184.21 437.108 185.169 455.186 186.67 459.303C187.736 462.226 188.97 464.423 191.333 465.162L194.493 457.879C190.965 456.177 195.51 442.209 195.51 442.209H195.508Z" fill="url(#paint38_linear_262_218)"/>
<path d="M194.491 457.877C193.356 457.216 192.339 461.004 191.331 465.16C192.294 465.462 193.446 465.52 194.848 465.286C199.69 464.477 199.697 463.089 199.697 463.089C199.247 460.762 196.545 458.868 194.491 457.877Z" fill="url(#paint39_linear_262_218)"/>
<path d="M205.199 220.319C205.199 220.319 236.679 211.767 245.148 224.049C255.937 239.696 256.261 248.992 256.261 248.992C256.261 248.992 256.38 251.484 249.179 258.921C241.349 278.906 249.566 294.241 249.566 294.241C239.388 297.838 226.723 297.718 209.067 290.131C209.067 290.131 215.274 257.398 208.772 242.694C206.155 220.301 205.199 220.319 205.199 220.319Z" fill="url(#paint40_linear_262_218)"/>
<path d="M218.515 199.582C218.589 200.344 220.362 218.529 220.779 218.922C224.538 222.472 230.736 223.196 236.838 220.576L233.209 199.575L218.515 199.584V199.582Z" fill="url(#paint41_linear_262_218)"/>
<path d="M220.596 166.699C220.596 166.699 212.003 173.234 209.012 188.844C206.021 204.452 212.555 209.634 218.923 208.945C225.292 208.256 234.444 205.771 241.864 194.284C249.284 182.797 231.884 158.669 220.596 166.699Z" fill="url(#paint42_linear_262_218)"/>
<path d="M233.432 188.518C233.432 188.518 235.494 166.274 217.378 170.654L213.889 174.713C213.889 174.713 204.379 165.107 213.875 156.928C223.37 148.752 237.233 149.952 245.603 163.432C253.975 176.91 257.271 186.523 251.365 195.508C245.459 204.493 240.256 197.349 240.256 197.349C240.256 197.349 242.772 189.716 240.17 186.641C237.567 183.566 234.713 188.81 234.713 188.81L233.434 188.516L233.432 188.518Z" fill="url(#paint43_linear_262_218)"/>
<path d="M236.035 190.27C236.035 190.27 237.028 178.83 242.997 181.757C248.967 184.684 241.491 192.476 238.469 195.152L236.035 190.27Z" fill="url(#paint44_linear_262_218)"/>
<defs>
<linearGradient id="paint0_linear_262_218" x1="220.611" y1="378.828" x2="-35.4481" y2="-160.062" gradientUnits="userSpaceOnUse">
<stop stop-color="#F9C200"/>
<stop offset="1" stop-color="#9B1E5F"/>
</linearGradient>
<linearGradient id="paint1_linear_262_218" x1="134.002" y1="268.814" x2="18.3715" y2="8.36086" gradientUnits="userSpaceOnUse">
<stop stop-color="#F9C200"/>
<stop offset="1" stop-color="#9B1E5F"/>
</linearGradient>
<linearGradient id="paint2_linear_262_218" x1="321.175" y1="219.004" x2="344.072" y2="445.451" gradientUnits="userSpaceOnUse">
<stop stop-color="#41A362"/>
<stop offset="1" stop-color="#204F2E"/>
</linearGradient>
<linearGradient id="paint3_linear_262_218" x1="318.68" y1="-6.89738" x2="209.68" y2="214.157" gradientUnits="userSpaceOnUse">
<stop stop-color="#41A362"/>
<stop offset="1" stop-color="#204F2E"/>
</linearGradient>
<linearGradient id="paint4_linear_262_218" x1="617.6" y1="104.55" x2="241.86" y2="561.622" gradientUnits="userSpaceOnUse">
<stop stop-color="#41A362"/>
<stop offset="1" stop-color="#204F2E"/>
</linearGradient>
<linearGradient id="paint5_linear_262_218" x1="341.486" y1="271.612" x2="179.435" y2="113.383" gradientUnits="userSpaceOnUse">
<stop stop-color="#41A362"/>
<stop offset="1" stop-color="#204F2E"/>
</linearGradient>
<linearGradient id="paint6_linear_262_218" x1="477.521" y1="113.726" x2="239.399" y2="297.28" gradientUnits="userSpaceOnUse">
<stop stop-color="#41A362"/>
<stop offset="1" stop-color="#204F2E"/>
</linearGradient>
<linearGradient id="paint7_linear_262_218" x1="297.248" y1="263.13" x2="-1.10807" y2="404.031" gradientUnits="userSpaceOnUse">
<stop stop-color="#41A362"/>
<stop offset="1" stop-color="#204F2E"/>
</linearGradient>
<linearGradient id="paint8_linear_262_218" x1="348.058" y1="19.904" x2="97.0249" y2="304.406" gradientUnits="userSpaceOnUse">
<stop stop-color="#41A362"/>
<stop offset="1" stop-color="#204F2E"/>
</linearGradient>
<linearGradient id="paint9_linear_262_218" x1="526.965" y1="358.219" x2="85.8583" y2="365.56" gradientUnits="userSpaceOnUse">
<stop stop-color="#41A362"/>
<stop offset="1" stop-color="#204F2E"/>
</linearGradient>
<linearGradient id="paint10_linear_262_218" x1="399.624" y1="146.312" x2="193.778" y2="374.182" gradientUnits="userSpaceOnUse">
<stop stop-color="#41A362"/>
<stop offset="1" stop-color="#204F2E"/>
</linearGradient>
<linearGradient id="paint11_linear_262_218" x1="28.6189" y1="340.781" x2="25.4905" y2="535.434" gradientUnits="userSpaceOnUse">
<stop stop-color="#41A362"/>
<stop offset="1" stop-color="#204F2E"/>
</linearGradient>
<linearGradient id="paint12_linear_262_218" x1="523.119" y1="571.058" x2="393.191" y2="378.241" gradientUnits="userSpaceOnUse">
<stop stop-color="#4E1FC7"/>
<stop offset="1" stop-color="#E25408"/>
</linearGradient>
<linearGradient id="paint13_linear_262_218" x1="453.73" y1="277.71" x2="431.573" y2="364.561" gradientUnits="userSpaceOnUse">
<stop stop-color="#85CCFF"/>
<stop offset="1" stop-color="#9A76FF"/>
</linearGradient>
<linearGradient id="paint14_linear_262_218" x1="435.315" y1="313.88" x2="473.69" y2="427.401" gradientUnits="userSpaceOnUse">
<stop stop-color="#85CCFF"/>
<stop offset="1" stop-color="#9A76FF"/>
</linearGradient>
<linearGradient id="paint15_linear_262_218" x1="387.275" y1="387.843" x2="188.435" y2="594.534" gradientUnits="userSpaceOnUse">
<stop stop-color="#F9C200"/>
<stop offset="0.97" stop-color="#9B1E5F"/>
</linearGradient>
<linearGradient id="paint16_linear_262_218" x1="320.588" y1="387.635" x2="179.464" y2="599.51" gradientUnits="userSpaceOnUse">
<stop stop-color="#F9C200"/>
<stop offset="1" stop-color="#9B1E5F"/>
</linearGradient>
<linearGradient id="paint17_linear_262_218" x1="360.247" y1="380.554" x2="346.327" y2="409.066" gradientUnits="userSpaceOnUse">
<stop stop-color="#41A362"/>
<stop offset="1" stop-color="#204F2E"/>
</linearGradient>
<linearGradient id="paint18_linear_262_218" x1="369.819" y1="355.565" x2="325.836" y2="421.599" gradientUnits="userSpaceOnUse">
<stop stop-color="#41A362"/>
<stop offset="1" stop-color="#204F2E"/>
</linearGradient>
<linearGradient id="paint19_linear_262_218" x1="179.427" y1="316.82" x2="75.762" y2="472.163" gradientUnits="userSpaceOnUse">
<stop stop-color="#CB236D"/>
<stop offset="1" stop-color="#4C246D"/>
</linearGradient>
<linearGradient id="paint20_linear_262_218" x1="61.2935" y1="399.855" x2="120.81" y2="547.788" gradientUnits="userSpaceOnUse">
<stop stop-color="#CB236D"/>
<stop offset="1" stop-color="#4C246D"/>
</linearGradient>
<linearGradient id="paint21_linear_262_218" x1="394.082" y1="79.5093" x2="535.299" y2="-10.8237" gradientUnits="userSpaceOnUse">
<stop stop-color="#26DD9B"/>
<stop offset="1" stop-color="#74EE9B"/>
</linearGradient>
<linearGradient id="paint22_linear_262_218" x1="503.176" y1="139.414" x2="401.391" y2="197.034" gradientUnits="userSpaceOnUse">
<stop stop-color="#26DD9B"/>
<stop offset="1" stop-color="#74EE9B"/>
</linearGradient>
<linearGradient id="paint23_linear_262_218" x1="384.172" y1="278.953" x2="521.122" y2="217.463" gradientUnits="userSpaceOnUse">
<stop stop-color="#26DD9B"/>
<stop offset="1" stop-color="#74EE9B"/>
</linearGradient>
<linearGradient id="paint24_linear_262_218" x1="216.319" y1="146.997" x2="267.959" y2="85.1976" gradientUnits="userSpaceOnUse">
<stop stop-color="#F9C200"/>
<stop offset="1" stop-color="#9B1E5F"/>
</linearGradient>
<linearGradient id="paint25_linear_262_218" x1="140.703" y1="214.352" x2="147.785" y2="199.243" gradientUnits="userSpaceOnUse">
<stop stop-color="#41A362"/>
<stop offset="1" stop-color="#204F2E"/>
</linearGradient>
<linearGradient id="paint26_linear_262_218" x1="145.289" y1="298.056" x2="154.467" y2="212.182" gradientUnits="userSpaceOnUse">
<stop stop-color="#4E1FC7"/>
<stop offset="1" stop-color="#E25408"/>
</linearGradient>
<linearGradient id="paint27_linear_262_218" x1="147.297" y1="212.715" x2="174.296" y2="313.483" gradientUnits="userSpaceOnUse">
<stop stop-color="#F9B776"/>
<stop offset="1" stop-color="#F47960"/>
</linearGradient>
<linearGradient id="paint28_linear_262_218" x1="166.469" y1="696.636" x2="132.674" y2="795.329" gradientUnits="userSpaceOnUse">
<stop stop-color="#F9B776"/>
<stop offset="1" stop-color="#F47960"/>
</linearGradient>
<linearGradient id="paint29_linear_262_218" x1="242.347" y1="270.988" x2="152.056" y2="382.539" gradientUnits="userSpaceOnUse">
<stop stop-color="#53D8FF"/>
<stop offset="1" stop-color="#3840F7"/>
</linearGradient>
<linearGradient id="paint30_linear_262_218" x1="265.982" y1="158.51" x2="242.063" y2="222.789" gradientUnits="userSpaceOnUse">
<stop stop-color="#2B3582"/>
<stop offset="1" stop-color="#150E42"/>
</linearGradient>
<linearGradient id="paint31_linear_262_218" x1="192.057" y1="230.281" x2="101.764" y2="341.836" gradientUnits="userSpaceOnUse">
<stop stop-color="#53D8FF"/>
<stop offset="1" stop-color="#3840F7"/>
</linearGradient>
<linearGradient id="paint32_linear_262_218" x1="256.059" y1="242.364" x2="188.855" y2="736.875" gradientUnits="userSpaceOnUse">
<stop stop-color="#53D8FF"/>
<stop offset="1" stop-color="#3840F7"/>
</linearGradient>
<linearGradient id="paint33_linear_262_218" x1="242.475" y1="535.42" x2="214.661" y2="445.199" gradientUnits="userSpaceOnUse">
<stop stop-color="#2C50FF"/>
<stop offset="1" stop-color="#1A1B80"/>
</linearGradient>
<linearGradient id="paint34_linear_262_218" x1="148.661" y1="519.176" x2="324.137" y2="193.941" gradientUnits="userSpaceOnUse">
<stop stop-color="#2B3582"/>
<stop offset="1" stop-color="#150E42"/>
</linearGradient>
<linearGradient id="paint35_linear_262_218" x1="242.385" y1="182.179" x2="202.488" y2="519.211" gradientUnits="userSpaceOnUse">
<stop stop-color="#2B3582"/>
<stop offset="1" stop-color="#150E42"/>
</linearGradient>
<linearGradient id="paint36_linear_262_218" x1="256.116" y1="242.37" x2="188.91" y2="736.887" gradientUnits="userSpaceOnUse">
<stop stop-color="#53D8FF"/>
<stop offset="1" stop-color="#3840F7"/>
</linearGradient>
<linearGradient id="paint37_linear_262_218" x1="219.758" y1="237.418" x2="152.549" y2="731.954" gradientUnits="userSpaceOnUse">
<stop stop-color="#53D8FF"/>
<stop offset="1" stop-color="#3840F7"/>
</linearGradient>
<linearGradient id="paint38_linear_262_218" x1="213.719" y1="524.406" x2="181.561" y2="420.092" gradientUnits="userSpaceOnUse">
<stop stop-color="#2C50FF"/>
<stop offset="1" stop-color="#1A1B80"/>
</linearGradient>
<linearGradient id="paint39_linear_262_218" x1="226.133" y1="238.288" x2="158.927" y2="732.816" gradientUnits="userSpaceOnUse">
<stop stop-color="#53D8FF"/>
<stop offset="1" stop-color="#3840F7"/>
</linearGradient>
<linearGradient id="paint40_linear_262_218" x1="226.611" y1="258.252" x2="136.318" y2="369.809" gradientUnits="userSpaceOnUse">
<stop stop-color="#53D8FF"/>
<stop offset="1" stop-color="#3840F7"/>
</linearGradient>
<linearGradient id="paint41_linear_262_218" x1="226.392" y1="242.883" x2="227.838" y2="206.338" gradientUnits="userSpaceOnUse">
<stop stop-color="#F9B776"/>
<stop offset="1" stop-color="#F47960"/>
</linearGradient>
<linearGradient id="paint42_linear_262_218" x1="208.085" y1="182.135" x2="262.995" y2="201.936" gradientUnits="userSpaceOnUse">
<stop stop-color="#F9B776"/>
<stop offset="1" stop-color="#F47960"/>
</linearGradient>
<linearGradient id="paint43_linear_262_218" x1="236.301" y1="148.099" x2="225.784" y2="215.881" gradientUnits="userSpaceOnUse">
<stop stop-color="#2B3582"/>
<stop offset="1" stop-color="#150E42"/>
</linearGradient>
<linearGradient id="paint44_linear_262_218" x1="209.831" y1="177.287" x2="264.743" y2="197.086" gradientUnits="userSpaceOnUse">
<stop stop-color="#F9B776"/>
<stop offset="1" stop-color="#F47960"/>
</linearGradient>
</defs>
</svg>
