<svg width="1104.8" height="1091.2" viewBox="0 0 1381 1364" fill="none" xmlns="http://www.w3.org/2000/svg">
<path d="M957.284 749.018L951.94 745.932C950.248 744.96 948.895 742.593 948.895 740.649V518.717C948.895 516.772 950.262 514.405 951.94 513.433L1100.47 427.743C1102.17 426.771 1104.89 426.771 1106.58 427.743L1111.92 430.829C1113.61 431.801 1114.98 434.168 1114.98 436.112V658.044C1114.98 659.989 1113.61 662.356 1111.92 663.328L963.388 749.032C961.697 750.004 958.975 750.004 957.284 749.032V749.018Z" fill="#455A64"/>
<path d="M1114.94 435.605C1114.73 434.027 1113.44 433.449 1111.91 434.337L963.387 520.041C962.541 520.534 961.794 521.351 961.23 522.31L949.768 515.702C950.317 514.744 951.079 513.912 951.925 513.419L1100.46 427.729C1102.14 426.757 1104.87 426.757 1106.56 427.729L1111.91 430.815C1113.46 431.702 1114.74 433.773 1114.94 435.605Z" fill="#455A64"/>
<path d="M962.869 749.258C961.177 749.976 958.809 749.892 957.286 749.018L951.928 745.918C950.25 744.946 948.883 742.579 948.883 740.635V518.703C948.883 517.731 949.221 516.66 949.771 515.702L961.234 522.31C960.67 523.268 960.331 524.353 960.331 525.325V747.257C960.331 749.004 961.431 749.807 962.869 749.258Z" fill="#263238"/>
<path d="M960.33 525.325V747.257C960.33 749.201 961.698 749.99 963.39 749.018L1111.92 663.314C1113.62 662.341 1114.98 659.974 1114.98 658.03V436.098C1114.98 434.154 1113.62 433.365 1111.92 434.337L963.39 520.041C961.698 521.013 960.33 523.38 960.33 525.325Z" fill="#37474F"/>
<path d="M925.645 609.916C923.727 608.775 914.831 603.717 914.365 603.449C912.955 602.59 912.448 600.505 913.759 599.096L948.88 561.449L960.328 568.015L925.222 605.675C923.953 607.028 924.362 608.986 925.645 609.916Z" fill="#455A64"/>
<path d="M960.33 568.029L925.209 605.675C923.447 607.563 924.941 610.62 927.507 610.409L960.316 607.704V568.015L960.33 568.029Z" fill="#37474F"/>
<path d="M1037.65 500.274C1054.96 490.285 1068.99 498.386 1068.99 518.351C1068.99 538.315 1054.96 562.619 1037.65 572.594C1020.33 582.583 1006.3 574.482 1006.3 554.503C1006.3 534.525 1020.33 510.235 1037.65 500.26V500.274Z" fill="#26DD9B"/>
<path d="M1037.44 515.997C1043.05 512.757 1047.6 515.377 1047.6 521.858C1047.6 528.339 1043.05 536.215 1037.44 539.456C1031.83 542.696 1027.27 540.076 1027.27 533.595C1027.27 527.114 1031.83 519.238 1037.44 515.997Z" fill="white"/>
<path d="M1057.47 550.544C1057.47 539.893 1049.98 535.581 1040.76 540.907L1034.99 544.232C1025.77 549.558 1018.29 562.506 1018.29 573.143V576.045C1019.95 576.595 1021.76 576.877 1023.67 576.877C1027.87 576.877 1032.63 575.496 1037.65 572.594C1045.16 568.254 1052.07 561.21 1057.47 552.996V550.53V550.544Z" fill="white"/>
<path d="M1017.8 671.499L1057.52 648.59C1059.21 647.618 1060.58 648.407 1060.58 650.351V663.13C1060.58 665.075 1059.21 667.442 1057.52 668.414L1017.8 691.323C1016.11 692.295 1014.74 691.506 1014.74 689.561V676.783C1014.74 674.838 1016.11 672.471 1017.79 671.499H1017.8Z" fill="#26DD9B"/>
<path d="M998.355 642.955L1076.93 597.616C1078.95 596.447 1080.6 597.391 1080.6 599.729V604.491C1080.6 606.83 1078.96 609.662 1076.93 610.832L998.355 656.17C996.339 657.34 994.689 656.396 994.689 654.057V649.295C994.689 646.956 996.325 644.124 998.355 642.955Z" fill="#FAFAFA"/>
<path d="M998.355 618.841L1076.93 573.502C1078.95 572.332 1080.6 573.276 1080.6 575.615V580.377C1080.6 582.716 1078.96 585.548 1076.93 586.717L998.355 632.056C996.339 633.226 994.689 632.282 994.689 629.943V625.181C994.689 622.842 996.325 620.01 998.355 618.841Z" fill="#FAFAFA"/>
<path d="M200.892 594.433C202.91 594.883 204.813 595.597 206.589 596.577C208.377 597.556 209.888 598.755 211.122 600.173C212.356 601.59 213.255 603.204 213.797 605.013C214.339 606.822 214.385 608.77 213.913 610.867C213.532 612.585 212.932 614.014 212.125 615.155C211.306 616.295 210.372 617.287 209.311 618.105C208.25 618.923 207.131 619.649 205.967 620.26C204.79 620.882 203.683 621.47 202.645 622.023C201.596 622.576 200.65 623.187 199.808 623.856C198.966 624.524 198.367 625.319 198.032 626.23C197.836 626.679 197.559 627.048 197.179 627.324C196.798 627.601 196.383 627.682 195.91 627.578L191.02 626.495C190.547 626.391 190.167 626.126 189.878 625.7C189.59 625.273 189.521 624.835 189.671 624.374C190.132 622.726 190.801 621.332 191.712 620.202C192.612 619.073 193.615 618.105 194.722 617.298C195.829 616.491 196.971 615.788 198.159 615.189C199.347 614.601 200.454 614.025 201.48 613.46C202.507 612.896 203.372 612.308 204.098 611.686C204.825 611.063 205.286 610.291 205.482 609.392C205.84 607.767 205.459 606.269 204.317 604.921C203.176 603.572 201.469 602.639 199.197 602.132C195.553 601.325 192.473 602.558 189.948 605.82C189.625 606.246 189.325 606.546 189.037 606.73C188.748 606.914 188.322 606.949 187.768 606.822L182.555 605.67C182.175 605.589 181.863 605.382 181.644 605.059C181.425 604.736 181.356 604.367 181.448 603.941C181.817 602.454 182.624 601.025 183.847 599.654C185.069 598.283 186.569 597.13 188.322 596.197C190.086 595.263 192.047 594.606 194.226 594.237C196.406 593.869 198.62 593.926 200.892 594.433ZM195.38 631.508C195.852 631.612 196.221 631.877 196.487 632.292C196.752 632.706 196.833 633.156 196.729 633.628L195.472 639.287C195.368 639.76 195.103 640.128 194.688 640.393C194.272 640.658 193.823 640.739 193.35 640.635L187.814 639.414C187.341 639.31 186.972 639.045 186.707 638.63C186.442 638.215 186.361 637.766 186.465 637.293L187.722 631.635C187.826 631.162 188.091 630.793 188.506 630.528C188.921 630.263 189.371 630.183 189.844 630.286L195.38 631.508Z" fill="#41E39B"/>
<path d="M207.052 648.495C208.459 648.265 209.854 648.23 211.25 648.403C212.645 648.576 213.926 648.956 215.079 649.544C216.232 650.143 217.224 650.95 218.031 651.964C218.85 652.978 219.369 654.223 219.611 655.686C219.807 656.885 219.784 657.957 219.553 658.902C219.323 659.847 218.977 660.711 218.504 661.518C218.031 662.313 217.501 663.062 216.912 663.754C216.324 664.445 215.759 665.102 215.229 665.736C214.698 666.358 214.248 666.992 213.879 667.637C213.51 668.283 213.337 668.94 213.349 669.608C213.349 669.954 213.257 670.253 213.084 670.53C212.911 670.807 212.657 670.968 212.334 671.026L208.92 671.579C208.586 671.636 208.274 671.556 207.986 671.36C207.698 671.164 207.536 670.899 207.513 670.565C207.386 669.389 207.467 668.329 207.756 667.372C208.044 666.416 208.436 665.54 208.932 664.733C209.428 663.926 209.981 663.189 210.593 662.509C211.204 661.829 211.769 661.172 212.276 660.55C212.784 659.927 213.199 659.328 213.499 658.74C213.799 658.153 213.902 657.542 213.799 656.92C213.614 655.79 212.98 654.926 211.907 654.35C210.835 653.773 209.497 653.612 207.917 653.877C205.38 654.292 203.708 655.871 202.935 658.602C202.843 658.959 202.727 659.224 202.589 659.42C202.45 659.616 202.185 659.743 201.805 659.801L198.172 660.4C197.907 660.446 197.653 660.4 197.434 660.25C197.215 660.1 197.076 659.881 197.03 659.582C196.892 658.533 197.03 657.415 197.468 656.217C197.907 655.029 198.564 653.9 199.452 652.851C200.34 651.803 201.436 650.881 202.727 650.085C204.03 649.29 205.472 648.76 207.052 648.507V648.495ZM213.014 673.676C213.349 673.619 213.649 673.699 213.926 673.895C214.202 674.091 214.364 674.356 214.421 674.69L215.067 678.643C215.125 678.978 215.044 679.277 214.848 679.554C214.652 679.83 214.387 679.992 214.052 680.049L210.189 680.683C209.854 680.741 209.555 680.66 209.278 680.464C209.001 680.268 208.828 680.003 208.782 679.669L208.136 675.716C208.078 675.393 208.159 675.082 208.355 674.806C208.551 674.529 208.817 674.356 209.151 674.31L213.014 673.676Z" fill="#41E39B"/>
<path d="M207.052 648.495C208.459 648.265 209.854 648.23 211.25 648.403C212.645 648.576 213.926 648.956 215.079 649.544C216.232 650.143 217.224 650.95 218.031 651.964C218.85 652.979 219.369 654.223 219.611 655.687C219.807 656.885 219.784 657.957 219.553 658.902C219.323 659.847 218.977 660.712 218.504 661.518C218.031 662.313 217.501 663.063 216.912 663.754C216.324 664.445 215.759 665.102 215.229 665.736C214.698 666.359 214.248 666.992 213.879 667.638C213.51 668.283 213.337 668.94 213.349 669.609C213.349 669.954 213.257 670.254 213.084 670.53C212.911 670.807 212.657 670.968 212.334 671.026L208.92 671.579C208.586 671.637 208.274 671.556 207.986 671.36C207.698 671.164 207.536 670.899 207.513 670.565C207.386 669.39 207.467 668.329 207.756 667.373C208.044 666.416 208.436 665.54 208.932 664.734C209.428 663.927 209.981 663.189 210.593 662.509C211.204 661.829 211.769 661.173 212.276 660.55C212.784 659.928 213.199 659.329 213.499 658.741C213.799 658.153 213.902 657.542 213.799 656.92C213.614 655.791 212.98 654.926 211.907 654.35C210.835 653.774 209.497 653.612 207.917 653.877C205.38 654.292 203.708 655.871 202.935 658.603C202.843 658.96 202.727 659.225 202.589 659.421C202.45 659.617 202.185 659.743 201.805 659.801L198.172 660.4C197.907 660.446 197.653 660.4 197.434 660.251C197.215 660.101 197.076 659.882 197.03 659.582C196.892 658.533 197.03 657.415 197.468 656.217C197.907 655.03 198.564 653.9 199.452 652.852C200.34 651.803 201.436 650.881 202.727 650.086C204.03 649.291 205.472 648.761 207.052 648.507V648.495ZM213.014 673.677C213.349 673.619 213.649 673.7 213.926 673.896C214.202 674.092 214.364 674.357 214.421 674.691L215.067 678.644C215.125 678.978 215.044 679.278 214.848 679.554C214.652 679.831 214.387 679.992 214.052 680.05L210.189 680.684C209.854 680.741 209.555 680.661 209.278 680.465C209.001 680.269 208.828 680.004 208.782 679.669L208.136 675.717C208.078 675.394 208.159 675.083 208.355 674.806C208.551 674.53 208.817 674.357 209.151 674.311L213.014 673.677Z" fill="black"/>
<path d="M239.652 654.696C239.975 654.926 240.171 655.237 240.24 655.641C240.309 656.044 240.228 656.401 239.998 656.724L237.253 660.585C237.022 660.907 236.711 661.103 236.307 661.172C235.904 661.241 235.546 661.161 235.223 660.93L231.452 658.245C231.129 658.015 230.933 657.703 230.864 657.3C230.795 656.897 230.875 656.539 231.106 656.217L233.851 652.356C234.081 652.033 234.393 651.837 234.796 651.768C235.2 651.699 235.558 651.78 235.881 652.01L239.652 654.696ZM255.625 628.523C256.997 629.503 258.208 630.644 259.234 631.946C260.261 633.248 261.022 634.631 261.506 636.095C261.991 637.558 262.141 639.057 261.979 640.589C261.818 642.122 261.218 643.609 260.203 645.038C259.373 646.213 258.462 647.101 257.481 647.7C256.501 648.299 255.486 648.749 254.425 649.025C253.364 649.314 252.292 649.498 251.219 649.59C250.135 649.682 249.12 649.775 248.151 649.855C247.183 649.936 246.283 650.097 245.43 650.339C244.576 650.57 243.884 650.985 243.342 651.561C243.054 651.837 242.719 652.022 242.35 652.114C241.981 652.206 241.635 652.137 241.312 651.907L237.98 649.533C237.657 649.302 237.449 648.979 237.368 648.576C237.288 648.161 237.368 647.815 237.633 647.504C238.51 646.409 239.456 645.58 240.494 645.015C241.532 644.45 242.593 644.047 243.688 643.782C244.772 643.517 245.868 643.355 246.952 643.286C248.036 643.217 249.051 643.136 249.997 643.044C250.942 642.952 251.796 642.779 252.534 642.537C253.272 642.295 253.872 641.869 254.31 641.258C255.106 640.151 255.279 638.895 254.852 637.512C254.425 636.129 253.433 634.885 251.888 633.79C249.397 632.027 246.687 631.969 243.746 633.617C243.365 633.836 243.042 633.963 242.766 634.009C242.489 634.055 242.166 633.94 241.785 633.675L238.222 631.151C237.956 630.966 237.795 630.713 237.726 630.402C237.657 630.091 237.726 629.791 237.945 629.491C238.706 628.489 239.756 627.659 241.116 627.025C242.477 626.38 243.965 625.988 245.591 625.849C247.217 625.7 248.901 625.838 250.666 626.253C252.418 626.668 254.079 627.417 255.625 628.523Z" fill="#41E39B"/>
<path d="M239.656 654.695C239.979 654.926 240.175 655.237 240.244 655.64C240.313 656.044 240.232 656.401 240.002 656.723L237.257 660.584C237.026 660.907 236.715 661.103 236.311 661.172C235.908 661.241 235.55 661.16 235.227 660.93L231.456 658.245C231.133 658.014 230.937 657.703 230.868 657.3C230.799 656.896 230.879 656.539 231.11 656.216L233.855 652.356C234.085 652.033 234.397 651.837 234.8 651.768C235.204 651.699 235.562 651.779 235.884 652.01L239.656 654.695ZM255.628 628.523C257.001 629.502 258.212 630.643 259.238 631.946C260.265 633.248 261.026 634.631 261.51 636.094C261.995 637.558 262.144 639.056 261.983 640.589C261.822 642.122 261.222 643.608 260.207 645.038C259.377 646.213 258.466 647.1 257.485 647.7C256.505 648.299 255.49 648.748 254.429 649.025C253.368 649.313 252.296 649.498 251.223 649.59C250.139 649.682 249.124 649.774 248.155 649.855C247.187 649.935 246.287 650.097 245.434 650.339C244.58 650.569 243.888 650.984 243.346 651.56C243.058 651.837 242.723 652.021 242.354 652.114C241.985 652.206 241.639 652.137 241.316 651.906L237.983 649.532C237.66 649.302 237.453 648.979 237.372 648.576C237.291 648.161 237.372 647.815 237.637 647.504C238.514 646.409 239.46 645.579 240.498 645.014C241.535 644.45 242.596 644.046 243.692 643.781C244.776 643.516 245.872 643.355 246.956 643.286C248.04 643.217 249.055 643.136 250 643.044C250.946 642.952 251.8 642.779 252.538 642.537C253.276 642.295 253.876 641.868 254.314 641.257C255.11 640.151 255.283 638.895 254.856 637.512C254.429 636.129 253.437 634.884 251.892 633.79C249.401 632.026 246.691 631.969 243.75 633.617C243.369 633.836 243.046 633.962 242.769 634.009C242.493 634.055 242.17 633.939 241.789 633.674L238.226 631.15C237.96 630.966 237.799 630.712 237.73 630.401C237.66 630.09 237.73 629.791 237.949 629.491C238.71 628.488 239.759 627.658 241.12 627.025C242.481 626.379 243.969 625.987 245.595 625.849C247.221 625.699 248.905 625.838 250.669 626.252C252.422 626.667 254.083 627.416 255.628 628.523Z" fill="white"/>
<path d="M153.782 756.711H112.807V657.508C112.807 639.564 127.361 625.02 145.317 625.02H149.1C167.057 625.02 181.611 639.564 181.611 657.508V728.903C181.611 744.265 169.156 756.711 153.782 756.711Z" fill="#263238"/>
<path d="M108.819 995.536C108.485 998.025 107.77 1000.94 107.632 1007.98C107.493 1015.54 106.098 1018.23 105.913 1024.43C105.706 1031.52 106.928 1034.17 109.811 1038.15C112.694 1042.14 120.248 1045.75 123.431 1039.02C126.661 1032.21 126.211 1027.87 125.196 1020.92C124.135 1013.73 124.008 1009.77 123.397 1004.28C122.855 999.454 122.209 995.778 122.209 995.778L108.819 995.536Z" fill="#263238"/>
<path d="M130.292 945.323L105.381 944.874C105.75 961.492 108.391 979.943 108.829 995.536C108.91 998.474 108.76 1018.34 109.867 1024.38C111.528 1033.45 122.311 1032.23 122.888 1026.8C123.464 1021.37 122.196 998.163 122.23 995.778C122.138 985.774 126.82 968.891 129.288 950.935C129.404 950.048 130.199 946.176 130.315 945.323H130.292Z" fill="#FFA8A7"/>
<path d="M162.292 982.605C162.292 982.605 161.311 982.074 161.104 983.123C160.862 984.368 160.504 986.949 159.985 988.989C159.259 991.836 158.67 996.526 159.097 998.843C159.524 1001.16 164.944 1004.16 168.462 1005.23C173.652 1006.82 177.204 1009.41 180.041 1012.08C183.524 1015.36 191.031 1018.45 196.152 1018.41C202.207 1018.37 206.428 1016.39 208.423 1013.16C210.51 1009.78 206.601 1009.53 199.692 1005.04C198.124 1004.03 196.336 1002.88 194.318 1001.56C183.362 994.406 179.349 990.58 176.246 983.423L162.303 982.593L162.292 982.605Z" fill="#263238"/>
<path d="M176.327 978.179C176.142 973.028 179.671 929.373 179.671 929.373L156.006 940.148C161.069 970.366 162.153 977.499 162.245 982.443C162.21 982.559 162.107 982.974 162.107 983.711C162.13 989.577 168.761 992.746 173.928 996.665C175.969 998.209 181.908 1002.77 187.917 1005.79C191.677 1007.68 199.311 1007.86 200.257 1005.43C193.96 1000.63 184.803 993.438 179.798 987.964C177.411 985.348 176.5 983.331 176.315 978.179H176.327Z" fill="#FFA8A7"/>
<path d="M115.586 783.16C106.498 803.098 106.498 818.506 108.009 843.941C109.381 867.267 111.584 887.815 111.584 887.815C111.227 891.952 105.472 900.031 104.734 918.332C104.042 935.435 105.91 957.182 105.91 957.182C105.91 957.182 118.838 964.338 128.399 957.124C128.399 957.124 137.625 913.112 140.324 891.699C142.688 873.017 146.782 849.139 146.782 849.139L155.466 891.595C155.466 891.595 152.168 902.059 151.395 910.034C150.173 922.631 157.219 947.363 157.219 947.363C157.219 947.363 170.574 951.35 178.728 944.113C178.728 944.113 181.784 903.903 182.914 888.737C184.437 868.419 181.23 813.424 178.728 784.301L115.598 783.16H115.586Z" fill="#455A64"/>
<path d="M146.773 849.138L150.36 817.181C150.36 817.181 166.437 815.037 173.725 808.192C173.725 808.192 168.259 818.206 154.777 820.154L149.587 849.899L155.458 891.607L146.773 849.15V849.138Z" fill="#263238"/>
<path d="M211.872 775.301C212.875 765.505 212.829 758.982 212.748 757.726C212.402 752.655 211.491 751.825 204.399 742.848C194.815 730.712 186.638 719.81 178 708.966C171.83 701.221 165.337 700.022 158.994 700.38C154.566 700.622 163.204 721.908 167.563 734.504L192.416 761.218C193.177 762.278 193.535 763.569 193.408 764.871L191.886 787.609L199.324 797.555C199.324 797.555 210.592 787.84 211.872 775.313V775.301Z" fill="#FFA8A7"/>
<path d="M135.043 701.059C130.234 701.393 121.492 702.154 121.492 702.154C116.452 704.966 115.172 707.271 114.238 713.967C113.835 716.813 116.164 724.408 118.159 735.207L121.942 755.225L121.527 765.159C119.566 771.221 115.115 778.746 111.205 789.845C130.465 800.586 146.611 800.977 161.257 799.099C172.421 797.67 178.337 794.962 180.309 792.299C179.894 781.328 179.121 774.563 178.937 763.108C178.856 758.29 179.144 753.438 179.329 747.907C186.825 741.752 186.906 731.53 182.823 724.915C173.332 709.553 164.094 699.884 157.982 700.379L135.055 701.048L135.043 701.059Z" fill="#27DEBF"/>
<path d="M135.043 701.059C130.234 701.393 121.492 702.154 121.492 702.154C116.452 704.966 115.172 707.271 114.238 713.967C113.835 716.813 116.164 724.408 118.159 735.207L121.942 755.225L121.527 765.159C119.566 771.221 115.115 778.746 111.205 789.845C130.465 800.586 146.611 800.977 161.257 799.099C172.421 797.67 178.337 794.962 180.309 792.299C179.894 781.328 179.121 774.563 178.937 763.108C178.856 758.29 179.144 753.438 179.329 747.907C186.825 741.752 186.906 731.53 182.823 724.915C173.332 709.553 164.094 699.884 157.982 700.379L135.055 701.048L135.043 701.059Z" fill="#74EE9B"/>
<path opacity="0.1" d="M164.417 748.079C164.417 748.079 155.618 754.902 145.584 751.341C135.551 747.78 134.086 739.021 134.086 739.021C134.086 739.021 133.025 750.488 145.677 754.395C157.89 758.163 164.417 748.079 164.417 748.079Z" fill="black"/>
<path d="M176.345 669.586C175.964 686.227 170.567 690.341 167.857 691.517C165.147 692.704 159.922 691.978 154.848 691.137V701.117C154.848 701.117 160.706 707.248 160.268 711.823C159.818 716.41 151.065 716.917 144.491 712.434C139.694 709.173 136.269 705.439 134.769 703.664C134.227 703.018 133.927 702.212 133.927 701.37V677.872C133.927 677.872 131.148 680.811 126.224 677.445C121.311 674.092 120.895 667.822 123.894 664.284C126.039 661.772 131.471 661.588 134.089 665.506C135.554 668.376 135.761 671.257 137.399 670.07C141.781 666.912 139.429 659.744 144.734 656.194C144.745 656.194 144.745 656.183 144.757 656.183C146.337 655.33 148.136 654.523 150.154 653.831C159.599 650.57 167.788 647.827 169.76 641.373C173.485 643.586 176.806 649.948 176.345 669.586Z" fill="#FFA8A7"/>
<path d="M157.721 684.453C158.931 684.453 159.912 683.472 159.912 682.263C159.912 681.054 158.931 680.073 157.721 680.073C156.51 680.073 155.529 681.054 155.529 682.263C155.529 683.472 156.51 684.453 157.721 684.453Z" fill="#B16668"/>
<path d="M156.267 667.062C156.336 668.375 155.356 669.493 154.087 669.563C152.819 669.62 151.735 668.606 151.666 667.281C151.596 665.967 152.577 664.849 153.845 664.78C155.114 664.722 156.198 665.736 156.267 667.062Z" fill="#263238"/>
<path d="M173.738 667.292C173.796 668.491 172.908 669.505 171.754 669.563C170.486 669.62 169.621 668.813 169.551 667.488C169.494 666.29 170.382 665.275 171.535 665.218C172.688 665.16 173.68 666.094 173.738 667.292Z" fill="#263238"/>
<path d="M153.303 672.985C149.163 672.985 145.807 669.62 145.807 665.494C145.807 660.4 151.066 660.4 153.303 660.4C155.54 660.4 160.799 660.4 160.799 665.494C160.799 669.632 157.432 672.985 153.303 672.985ZM153.303 661.576C148.759 661.576 146.983 662.671 146.983 665.494C146.983 668.975 149.82 671.81 153.303 671.81C156.786 671.81 159.623 668.975 159.623 665.494C159.623 662.682 157.847 661.576 153.303 661.576Z" fill="#455A64"/>
<path d="M172.344 672.985C168.204 672.985 164.848 669.62 164.848 665.494C164.848 660.4 170.107 660.4 172.344 660.4C174.581 660.4 179.84 660.4 179.84 665.494C179.84 669.632 176.473 672.985 172.344 672.985ZM172.344 661.576C167.8 661.576 166.024 662.671 166.024 665.494C166.024 668.975 168.861 671.81 172.344 671.81C175.827 671.81 178.664 668.975 178.664 665.494C178.664 662.682 176.888 661.576 172.344 661.576Z" fill="#455A64"/>
<path d="M161.961 663.074L162.33 677.076L169.699 674.795L161.961 663.074Z" fill="#F28F8F"/>
<path d="M154.835 691.137C149.484 690.434 138.459 687.276 136.752 682.92C136.752 682.92 137.329 685.651 140.615 688.475C143.902 691.298 154.835 694.467 154.835 694.467V691.137Z" fill="#F28F8F"/>
<path d="M155.103 656.286L150.213 659.259C149.417 657.853 149.855 656.044 151.205 655.226C152.554 654.408 154.295 654.88 155.091 656.286H155.103Z" fill="#263238"/>
<path d="M174.996 659.594L169.553 657.692C170.026 656.16 171.629 655.341 173.128 655.86C174.627 656.379 175.469 658.05 174.996 659.582V659.594Z" fill="#263238"/>
<path d="M160.213 666.094C159.89 666.094 159.625 665.829 159.625 665.495C159.625 664.538 161.528 663.916 163.223 663.916C164.919 663.916 166.026 664.538 166.026 665.495C166.026 665.817 165.76 666.082 165.438 666.082C165.115 666.082 164.849 665.817 164.849 665.495C164.792 665.391 164.25 665.103 163.223 665.103C162.197 665.103 160.859 665.391 160.801 665.506C160.801 665.829 160.536 666.094 160.213 666.094Z" fill="#455A64"/>
<path d="M146.406 665.587C146.406 665.587 146.36 665.587 146.337 665.587L133.155 664.388C132.912 664.169 132.29 663.524 130.998 662.982L146.475 664.411C146.798 664.446 147.029 664.745 146.994 665.068C146.959 665.368 146.706 665.598 146.406 665.598V665.587Z" fill="#455A64"/>
<path d="M92.2805 679.324C96.5938 673.573 99.5346 669.217 103.467 664.284C105.705 661.484 107.135 659.479 109.28 656.609C110.756 654.627 111.621 652.967 113.27 652.345C115.115 651.653 116.891 650.293 118.079 649.049C118.933 648.161 119.625 647.136 120.351 646.145C122.819 642.826 125.76 639.864 129.058 637.374C132.53 634.758 136.382 632.765 139.945 630.275C142.067 628.789 144.351 626.322 141.767 624.017C140.995 623.326 140.015 622.923 139.011 622.704C132.737 621.332 127.259 623.499 121.124 625.066C118.46 625.746 115.83 626.599 113.305 627.705C112.082 628.235 110.86 628.823 109.845 629.688C108.265 631.036 107.319 632.96 106.293 634.77C103.536 639.633 97.8163 643.92 93.7913 647.7C89.0744 652.137 84.8535 656.206 79.4677 661.104C74.6239 665.506 69.884 669.574 65.4323 674.38C61.7534 678.356 63.0912 681.479 63.6217 682.551C66.6202 688.705 69.9762 690.918 73.9781 694.732C80.9208 701.336 104.828 720.351 112.763 726.621C114.458 727.969 115.796 729.709 116.649 731.692L118.16 735.207C127.202 736.866 133.233 723.302 125.749 706.971C124.538 704.321 122.612 702.062 120.247 700.345C110.802 693.465 92.2805 679.312 92.2805 679.312V679.324Z" fill="#FFA8A7"/>
<path d="M92.2827 679.324C92.2827 679.324 88.2001 684.787 81.2344 686.93C81.2344 686.93 87.0007 688.405 94.9006 681.318L92.2943 679.324H92.2827Z" fill="#F28F8F"/>
<path d="M209.524 763.281H209.559L208.083 762.013V762.036C207.748 761.771 207.229 761.69 206.56 761.863L190.553 766.22C189.065 766.623 187.462 768.133 186.955 769.585L175.433 802.81C175.168 803.582 175.272 804.17 175.641 804.504H175.629L177.152 805.818V805.795C177.486 806.072 178.005 806.164 178.686 805.979L194.693 801.623C196.181 801.22 197.784 799.71 198.291 798.258C200.552 791.723 207.552 771.567 209.812 765.033C210.101 764.214 209.951 763.603 209.524 763.281Z" fill="#455A64"/>
<path d="M176.897 804.066L188.419 770.841C188.926 769.389 190.529 767.879 192.017 767.476L208.036 763.119C209.523 762.716 210.319 763.569 209.812 765.021C207.551 771.555 200.551 791.712 198.291 798.246C197.783 799.698 196.18 801.208 194.692 801.611L178.685 805.968C177.197 806.371 176.401 805.518 176.909 804.066H176.897Z" fill="#37474F"/>
<path d="M190.289 768.409C189.458 769.066 188.743 769.977 188.432 770.853L176.899 804.066C176.645 804.815 176.726 805.392 177.061 805.737L175.631 804.504H175.642C175.262 804.159 175.158 803.571 175.423 802.799L186.956 769.573C187.232 768.755 187.89 767.925 188.663 767.268L190.289 768.421V768.409Z" fill="#37474F"/>
<path d="M205.13 778.424C204 781.812 199.975 784.071 193.367 785.639C186.758 787.206 183.091 794.224 184.152 796.356C185.224 798.488 195.904 800.471 200.182 799.86C204.461 799.249 208.763 793.072 210.054 791.159C211.346 789.246 212.857 775.9 211.484 774.068C210.112 772.235 207.217 772.524 207.217 772.524L205.13 778.424Z" fill="#F28F8F"/>
<path d="M1380.74 1323.24C1380.74 1323.24 1284.69 1268.77 1301.77 1134.22C1320.92 983.353 1209.99 918.506 1134.23 955.886C1058.46 993.265 1042.45 1159.29 919.731 1136.08C797.004 1112.86 741.519 1314.71 741.519 1314.71" stroke="#26DD9B" stroke-miterlimit="10"/>
<path d="M1269.76 1363.82C1269.76 1363.82 1228.14 1248.81 1243.08 1134.38C1258.02 1019.95 1190.86 1006.57 1164.11 1019.95C1108.62 1047.72 1097.95 1196.16 1008.31 1205.77C940.933 1212.99 850.372 1155.58 802.353 1285.86" stroke="#26DD9B" stroke-miterlimit="10"/>
<path d="M1224.94 1312.55C1224.94 1312.55 1239.92 1195 1173.71 1215.99C1097.81 1240.04 1099.01 1296.54 1002.96 1243.15C968.798 1224.16 831.15 1218.58 858.898 1323.24" stroke="#26DD9B" stroke-miterlimit="10"/>
<path d="M1148.1 1113.4C1148.1 1084.21 1161 1060.54 1176.92 1060.54C1192.83 1060.54 1205.74 1084.21 1205.74 1113.4C1205.74 1142.59 1192.83 1166.26 1176.92 1166.26C1161 1166.26 1148.1 1142.59 1148.1 1113.4Z" stroke="#26DD9B" stroke-miterlimit="10"/>
<path d="M213.502 0C95.5878 0 0 95.5878 0 213.502C0 331.417 95.5878 427.005 213.502 427.005C331.417 427.005 427.005 331.417 427.005 213.502C427.005 95.5878 331.412 0 213.502 0ZM213.502 359.692C132.762 359.692 67.313 294.238 67.313 213.502C67.313 132.767 132.762 67.3083 213.502 67.3083C294.243 67.3083 359.692 132.762 359.692 213.498C359.692 294.233 294.238 359.687 213.502 359.687V359.692Z" fill="#74EE9B"/>
</svg>
