<svg width="50" height="50" viewBox="0 0 63 63" fill="none" xmlns="http://www.w3.org/2000/svg">
<path d="M59.2071 4.03519L59.207 4.03513C57.7632 2.60832 55.7725 1.72412 53.5815 1.72412H7.26756C6.12145 1.72412 5.03169 1.96583 4.04648 2.39968C3.9883 2.45385 3.93108 2.5087 3.87482 2.56429C2.43102 3.99097 1.54102 5.95247 1.54102 8.10637V53.8709C1.54102 56.0248 2.43092 57.9864 3.87479 59.4131C5.31893 60.8399 7.30955 61.7241 9.50055 61.7241H55.8145C56.9607 61.7241 58.0504 61.4824 59.0356 61.0485C59.0936 60.9945 59.1508 60.9397 59.2072 60.8841L59.2071 4.03519ZM59.2071 4.03519C60.651 5.46185 61.541 7.42333 61.541 9.57737M59.2071 4.03519L61.541 9.57737M61.541 9.57737V55.3419M61.541 9.57737V55.3419M61.541 55.3419C61.541 57.4957 60.6512 59.457 59.2077 60.8836L61.541 55.3419Z" fill="#26DD9B"/>
<path d="M59.2071 4.03519L59.207 4.03513C57.7632 2.60832 55.7725 1.72412 53.5815 1.72412H7.26756C6.12145 1.72412 5.03169 1.96583 4.04648 2.39968C3.9883 2.45385 3.93108 2.5087 3.87482 2.56429C2.43102 3.99097 1.54102 5.95247 1.54102 8.10637V53.8709C1.54102 56.0248 2.43092 57.9864 3.87479 59.4131C5.31893 60.8399 7.30955 61.7241 9.50055 61.7241H55.8145C56.9607 61.7241 58.0504 61.4824 59.0356 61.0485C59.0936 60.9945 59.1508 60.9397 59.2072 60.8841L59.2071 4.03519ZM59.2071 4.03519C60.651 5.46185 61.541 7.42333 61.541 9.57737M59.2071 4.03519L61.541 9.57737M61.541 9.57737V55.3419M61.541 9.57737V55.3419M61.541 55.3419C61.541 57.4957 60.6512 59.457 59.2077 60.8836L61.541 55.3419Z" fill="white"/>
<path d="M59.2071 4.03519L59.207 4.03513C57.7632 2.60832 55.7725 1.72412 53.5815 1.72412H7.26756C6.12145 1.72412 5.03169 1.96583 4.04648 2.39968C3.9883 2.45385 3.93108 2.5087 3.87482 2.56429C2.43102 3.99097 1.54102 5.95247 1.54102 8.10637V53.8709C1.54102 56.0248 2.43092 57.9864 3.87479 59.4131C5.31893 60.8399 7.30955 61.7241 9.50055 61.7241H55.8145C56.9607 61.7241 58.0504 61.4824 59.0356 61.0485C59.0936 60.9945 59.1508 60.9397 59.2072 60.8841L59.2071 4.03519ZM59.2071 4.03519C60.651 5.46185 61.541 7.42333 61.541 9.57737M59.2071 4.03519L61.541 9.57737M61.541 9.57737V55.3419M61.541 9.57737V55.3419M61.541 55.3419C61.541 57.4957 60.6512 59.457 59.2077 60.8836L61.541 55.3419Z" stroke="white" stroke-width="2"/>
<path fill-rule="evenodd" clip-rule="evenodd" d="M26.7657 5.6377H38.5522C39.3113 5.6377 40.0006 5.94374 40.4995 6.4368C40.9984 6.92986 41.3081 7.61088 41.3081 8.36109V12.3974C41.3081 13.1474 40.9984 13.8286 40.4995 14.3216C40.0005 14.8147 39.3113 15.1208 38.5522 15.1208H26.7657C26.0066 15.1208 25.3173 14.8147 24.8185 14.3216C24.3195 13.8286 24.0098 13.1474 24.0098 12.3974V8.36096C24.0098 7.61088 24.3195 6.92972 24.8185 6.43667C25.3174 5.94375 26.0066 5.6377 26.7657 5.6377Z" fill="#28DC9A"/>
<path fill-rule="evenodd" clip-rule="evenodd" d="M23.9538 47.2836C24.6531 50.7137 23.2386 53.3572 21.1317 54.8267C20.3181 55.3942 19.393 55.7843 18.4407 55.9747C17.4778 56.1672 16.4897 56.1532 15.5618 55.9098C13.4329 55.3515 11.6364 53.6455 11.1713 50.5439C10.5956 46.7039 10.3042 43.6076 9.76663 37.8944C9.56208 35.7199 9.32058 33.1545 8.99445 29.8304C8.76936 27.5367 9.47882 25.3949 10.7538 23.6222C11.9016 22.0265 13.515 20.7295 15.3145 19.8976C17.1315 19.0576 19.1463 18.687 21.0767 18.9537C22.9693 19.2152 24.7708 20.0769 26.2242 21.6898C27.8925 23.5411 28.5847 25.3716 28.3276 27.6137C28.0892 29.693 26.9971 32.067 25.0739 35.1441C23.9027 37.0182 23.3676 38.7752 23.2485 40.6618C23.1249 42.6201 23.437 44.7475 23.9538 47.2836ZM44.1821 54.8268C42.0753 53.3573 40.6608 50.7139 41.36 47.2837C41.8771 44.7476 42.189 42.6201 42.0653 40.6618C41.9463 38.7752 41.4112 37.0182 40.2399 35.1441C38.3168 32.0669 37.2247 29.6928 36.9863 27.6137C36.729 25.3716 37.4214 23.5412 39.0895 21.6898C40.5431 20.0769 42.3446 19.2151 44.237 18.9537C46.1674 18.687 48.1821 19.0576 49.9992 19.8976C51.7986 20.7294 53.4121 22.0265 54.5599 23.6222C55.8349 25.3951 56.5444 27.5367 56.3193 29.8304C55.993 33.1545 55.7517 35.72 55.5471 37.8944C55.0095 43.6076 54.7181 46.7039 54.1424 50.5439C53.6773 53.6455 51.8809 55.3515 49.7519 55.9098C48.824 56.153 47.8361 56.1672 46.873 55.9747C45.9208 55.7845 44.9958 55.3942 44.1821 54.8268Z" fill="#3EE09A"/>
</svg>
