<svg width="20" height="20" viewBox="0 0 15 15" fill="none" xmlns="http://www.w3.org/2000/svg">
<path d="M1.875 13.75H13.125C13.2908 13.75 13.4497 13.6842 13.5669 13.5669C13.6842 13.4497 13.75 13.2908 13.75 13.125V1.875C13.75 1.70924 13.6842 1.55027 13.5669 1.43306C13.4497 1.31585 13.2908 1.25 13.125 1.25H1.875C1.70924 1.25 1.55027 1.31585 1.43306 1.43306C1.31585 1.55027 1.25 1.70924 1.25 1.875V13.125C1.25 13.2908 1.31585 13.4497 1.43306 13.5669C1.55027 13.6842 1.70924 13.75 1.875 13.75ZM3.38375 12.5L6.25 9.63375L7.05813 10.4419C7.17533 10.559 7.33427 10.6249 7.5 10.6249C7.66573 10.6249 7.82467 10.559 7.94187 10.4419L10.625 7.75875L12.5 9.63375V12.5H3.38375ZM12.5 2.5V7.86625L11.0669 6.43313C10.9497 6.31596 10.7907 6.25013 10.625 6.25013C10.4593 6.25013 10.3003 6.31596 10.1831 6.43313L7.5 9.11625L6.69187 8.30813C6.57467 8.19096 6.41573 8.12513 6.25 8.12513C6.08427 8.12513 5.92533 8.19096 5.80813 8.30813L2.5 11.6163V2.5H12.5ZM3.75 5.3125C3.75 5.00347 3.84164 4.70137 4.01333 4.44442C4.18502 4.18747 4.42905 3.9872 4.71456 3.86894C5.00007 3.75068 5.31423 3.71973 5.61733 3.78002C5.92042 3.84031 6.19883 3.98913 6.41735 4.20765C6.63587 4.42617 6.78469 4.70458 6.84498 5.00767C6.90527 5.31077 6.87432 5.62493 6.75606 5.91044C6.6378 6.19595 6.43753 6.43998 6.18058 6.61167C5.92363 6.78336 5.62153 6.875 5.3125 6.875C4.8981 6.875 4.50067 6.71038 4.20765 6.41735C3.91462 6.12433 3.75 5.7269 3.75 5.3125Z" fill="white"/>
</svg>
