<svg width="17" height="17" viewBox="0 0 60 60" fill="none" xmlns="http://www.w3.org/2000/svg">
<g clip-path="url(#clip0_678_157)">
<path d="M59.9996 28.125C59.9996 41.5898 46.5699 52.5 29.9996 52.5C25.6519 52.5 21.5269 51.75 17.8003 50.4023C16.4058 51.4219 14.1324 52.8164 11.4371 53.9883C8.62457 55.207 5.23785 56.25 1.87457 56.25C1.11285 56.25 0.433163 55.793 0.140194 55.0898C-0.152775 54.3867 0.0112877 53.5898 0.538631 53.0508L0.573788 53.0156C0.608944 52.9805 0.655819 52.9336 0.726131 52.8516C0.855038 52.7109 1.05426 52.4883 1.30035 52.1836C1.78082 51.5977 2.42535 50.7305 3.0816 49.6523C4.25348 47.707 5.36676 45.1523 5.58941 42.2812C2.07379 38.2969 -0.000431043 33.4102 -0.000431043 28.125C-0.000431043 14.6602 13.4293 3.75 29.9996 3.75C46.5699 3.75 59.9996 14.6602 59.9996 28.125Z" fill="#B2B2B2"/>
</g>
<defs>
<clipPath id="clip0_678_157">
<rect width="60" height="60" fill="white"/>
</clipPath>
</defs>
</svg>
