<svg width="177.1" height="161.7" viewBox="0 0 253 231" fill="none" xmlns="http://www.w3.org/2000/svg">
<path d="M234.894 101.7C232.962 79.6523 225.724 58.1452 212.945 39.2776C192.882 9.65651 160.138 -6.3565 124.509 2.37668C90.8245 10.6341 82.2746 47.0528 54.2099 63.1831C32.6784 75.566 0.0450239 95.7696 5.26636 131.615C6.96982 143.294 14.717 151.831 25.3424 156.622C39.8708 163.172 60.1948 160.506 73.1438 170.067C88.1551 181.146 100.556 196.788 133.189 208.519C158.996 217.8 188.111 206.694 207.619 189.13C231.624 167.512 237.603 132.651 234.894 101.7Z" fill="#74EE9B"/>
<path opacity="0.7" d="M234.894 101.7C232.962 79.6523 225.724 58.1452 212.945 39.2776C192.882 9.65651 160.138 -6.3565 124.509 2.37668C90.8245 10.6341 82.2746 47.0528 54.2099 63.1831C32.6784 75.566 0.0450239 95.7696 5.26636 131.615C6.96982 143.294 14.717 151.831 25.3424 156.622C39.8708 163.172 60.1948 160.506 73.1438 170.067C88.1551 181.146 100.556 196.788 133.189 208.519C158.996 217.8 188.111 206.694 207.619 189.13C231.624 167.512 237.603 132.651 234.894 101.7Z" fill="white"/>
<path d="M244.421 219.286L239.983 214.906C243.683 209.562 242.084 205.626 238.912 202.002C237 199.819 232.001 200.151 225.833 200.94L191.92 167.46L186.699 169.416C186.699 169.416 200.823 186.589 214.052 202.38C208.55 202.869 203.022 202.875 198.447 201.35C184.741 196.788 173.646 187.012 173.646 187.012C157.982 188.316 181.478 213.733 190.615 220.902C208.916 235.26 218.601 232.653 231.576 222.975C233.913 225.634 235.597 227.465 236.302 228.071C236.347 228.11 236.393 228.149 236.439 228.189C242.28 233.037 249.818 224.624 244.421 219.292V219.286Z" fill="#10563B"/>
<path opacity="0.5" d="M244.418 219.286L239.98 214.906C243.68 209.562 242.081 205.626 238.909 202.002C236.997 199.819 231.998 200.151 225.83 200.94L191.917 167.46L186.696 169.416C186.696 169.416 200.82 186.589 214.049 202.38C208.547 202.869 203.019 202.875 198.444 201.35C184.738 196.788 173.643 187.012 173.643 187.012C157.979 188.316 180.979 214.417 190.612 220.902C212.124 235.384 218.598 232.653 231.573 222.975C233.91 225.634 235.594 227.465 236.299 228.071C236.344 228.11 236.39 228.149 236.436 228.189C242.277 233.037 249.815 224.624 244.418 219.292V219.286Z" fill="white"/>
<path d="M37.0588 101.186C37.0588 101.186 54.2239 120.999 54.3153 145.543C54.4067 170.087 37.3917 190.069 37.3917 190.069C37.3917 190.069 20.2265 170.257 20.1351 145.712C20.0438 121.168 37.0588 101.186 37.0588 101.186Z" fill="#26DD9B"/>
<path d="M74.7743 157.326C74.7743 157.326 74.8787 173.456 66.2047 183.708C57.5308 193.959 43.3614 194.455 43.3614 194.455C43.3614 194.455 43.257 178.324 51.9309 168.073C60.6049 157.821 74.7743 157.326 74.7743 157.326Z" fill="#26DD9B"/>
<path d="M0.214509 155.833C0.214509 155.833 -0.496898 171.944 7.78545 182.606C16.0678 193.269 30.2046 194.455 30.2046 194.455C30.2046 194.455 30.916 178.344 22.6336 167.682C14.3578 157.013 0.214509 155.833 0.214509 155.833Z" fill="#26DD9B"/>
<path d="M26.5226 167.389C26.6727 167.167 26.9534 167.128 27.1492 167.304L36.169 175.353C36.4627 175.614 36.8935 175.379 36.8935 174.949L36.8217 156.387C36.8217 156.244 36.7695 156.107 36.6716 156.009L23.1287 142.375C22.946 142.186 22.9264 141.867 23.0896 141.658C23.2528 141.45 23.5334 141.43 23.7161 141.613L36.0711 154.048C36.3583 154.341 36.8152 154.106 36.8152 153.663L36.7369 133.238C36.7369 133.095 36.6781 132.951 36.5802 132.854L27.6191 124.029C27.4298 123.847 27.4102 123.527 27.5734 123.312C27.7366 123.097 28.0172 123.078 28.2 123.26L35.9798 130.924C36.2669 131.211 36.7173 130.977 36.7173 130.54L36.6063 101.688C36.6063 101.408 36.8021 101.179 37.0501 101.179C37.2982 101.179 37.494 101.408 37.5005 101.688L37.6636 144.454C37.6636 144.95 38.2315 145.152 38.4795 144.741L48.5371 128.018C48.6741 127.79 48.9548 127.724 49.1571 127.887C49.3594 128.044 49.4117 128.363 49.2746 128.591L37.755 147.759L37.6832 147.7L37.7485 165.225C37.7485 165.662 38.2054 165.896 38.4925 165.603L50.7496 153.064C50.9324 152.875 51.213 152.894 51.3762 153.103C51.5394 153.311 51.5263 153.631 51.3435 153.82L37.755 167.715L37.8399 189.561C37.8399 189.841 37.6441 190.069 37.3961 190.069C37.148 190.069 36.9522 189.841 36.9457 189.561L36.9 177.543C36.9 177.386 36.8348 177.243 36.7303 177.145L26.6009 168.106C26.4051 167.93 26.3725 167.617 26.5226 167.395V167.389Z" fill="white"/>
<path d="M0.722772 156.896C0.905518 156.707 1.18617 156.726 1.35586 156.935L14.9574 174.238C15.2511 174.61 15.7863 174.33 15.7341 173.834L14.6115 163.746C14.5789 163.465 14.7551 163.211 14.9966 163.179C15.2381 163.146 15.4665 163.341 15.4926 163.615L16.9546 176.761H16.9416L22.2543 183.519C22.5088 183.845 22.9853 183.675 23.0309 183.239L23.9904 173.593C24.0165 173.313 24.2384 173.117 24.4864 173.143C24.7344 173.176 24.9041 173.424 24.878 173.704L23.7358 185.148C23.7228 185.292 23.7619 185.435 23.8468 185.546L30.9543 194.585C31.1175 194.794 31.1044 195.113 30.9217 195.302C30.7389 195.491 30.4583 195.472 30.2951 195.263L26.4574 190.382C26.3661 190.264 26.2355 190.206 26.0985 190.212L19.017 190.701C18.769 190.721 18.5602 190.506 18.5471 190.225C18.5341 189.945 18.7168 189.704 18.9648 189.684L24.6365 189.293C25.0085 189.267 25.1913 188.765 24.9433 188.446L19.265 181.225C19.1802 181.114 19.0562 181.055 18.9322 181.055L8.80279 181.069C8.55478 181.069 8.35898 180.84 8.35898 180.56C8.35898 180.28 8.55478 180.052 8.80279 180.052L17.3397 180.039C17.7248 180.039 17.9271 179.517 17.6725 179.192L11.4069 171.221C11.3221 171.11 11.1981 171.051 11.0675 171.051L4.55393 171.143C4.30591 171.143 4.10359 170.921 4.10359 170.641C4.10359 170.361 4.29939 170.132 4.5474 170.126L9.50115 170.061C9.88622 170.061 10.082 169.539 9.82748 169.214L0.690138 157.613C0.526971 157.404 0.540025 157.085 0.722772 156.896Z" fill="white"/>
<path d="M46.8873 180.025C47.1288 179.986 47.3572 180.182 47.3899 180.462L48.1535 186.869C48.2057 187.292 48.656 187.455 48.9171 187.155L54.8238 180.175C54.9086 180.071 54.9543 179.928 54.9478 179.784L54.1776 168.288C54.158 168.008 54.3408 167.766 54.5888 167.74C54.8368 167.721 55.0457 167.929 55.0652 168.21L55.7114 177.894C55.7375 178.331 56.2074 178.526 56.475 178.207L62.9951 170.497C63.0865 170.393 63.1322 170.249 63.1192 170.1L62.5579 162.715C62.5383 162.435 62.721 162.188 62.9625 162.168C63.2105 162.142 63.4259 162.351 63.4455 162.631L63.8762 168.249C63.9089 168.685 64.3788 168.868 64.6399 168.555L74.1362 157.332C74.3059 157.13 74.5865 157.124 74.7693 157.319C74.9455 157.515 74.952 157.834 74.7823 158.036L60.6325 174.759C60.3257 175.118 60.6129 175.704 61.0437 175.607L69.8025 173.58C70.044 173.521 70.2789 173.704 70.3311 173.977C70.3833 174.251 70.2267 174.525 69.9852 174.577L58.5701 177.216V177.203L53.042 183.734C52.7744 184.047 52.9636 184.575 53.3487 184.594L61.8791 184.966C62.1271 184.979 62.3164 185.213 62.3098 185.493C62.3033 185.774 62.0945 185.995 61.8464 185.982L51.7301 185.539C51.6061 185.539 51.4821 185.591 51.3907 185.695L43.996 194.435C43.8263 194.637 43.5457 194.644 43.3629 194.448C43.1867 194.253 43.1802 193.933 43.3499 193.731L47.3442 189.013C47.4356 188.902 47.4812 188.746 47.4617 188.596L46.5088 180.592C46.4761 180.312 46.6458 180.058 46.8873 180.019V180.025Z" fill="white"/>
<path d="M209.68 166.431L112.727 193.68C110.69 194.254 108.21 193.231 107.186 191.399L33.6561 59.274C32.6379 57.4426 33.4668 55.494 35.5031 54.9204L132.457 27.6716C134.493 27.0981 136.973 28.1213 137.998 29.9527L211.528 162.084C212.546 163.916 211.717 165.864 209.68 166.438V166.431Z" fill="#263238" stroke="black" stroke-miterlimit="10"/>
<path d="M111.363 187.886C111.363 187.886 167.388 174.584 205.099 161.543L111.363 187.886Z" fill="#884849"/>
<path d="M205.1 161.544L111.364 187.887L38.8594 57.5992L132.595 31.2562L205.1 161.544Z" fill="white" stroke="#263238" stroke-miterlimit="10"/>
<path d="M104.828 58.8441L112.105 56.8042" stroke="#263238" stroke-miterlimit="10"/>
<path d="M54.3457 73.0322L99.197 60.4277" stroke="#263238" stroke-miterlimit="10"/>
<path d="M96.8477 66.9451L114.927 61.8616" stroke="#263238" stroke-miterlimit="10"/>
<path d="M69.1406 74.7333L91.9122 68.3268" stroke="#263238" stroke-miterlimit="10"/>
<path d="M57.168 78.0963L64.9151 75.9196" stroke="#263238" stroke-miterlimit="10"/>
<path d="M82.5195 76.8259L117.737 66.9261" stroke="#263238" stroke-miterlimit="10"/>
<path d="M59.9844 83.1601L74.7738 79.0021" stroke="#263238" stroke-miterlimit="10"/>
<path d="M137.464 55.038C135.78 52.0075 131.681 50.326 128.307 51.271C124.933 52.2161 123.569 55.4421 125.253 58.4727C126.936 61.5032 131.035 63.1847 134.409 62.2397C137.784 61.2947 139.148 58.0686 137.464 55.038Z" fill="white" stroke="#263238" stroke-miterlimit="10"/>
<path d="M74.1822 93.554L66.8984 95.6004" stroke="#263238" stroke-miterlimit="10"/>
<path d="M124.659 79.366L79.8145 91.9704" stroke="#263238" stroke-miterlimit="10"/>
<path d="M87.7996 95.5812L69.7207 100.658" stroke="#263238" stroke-miterlimit="10"/>
<path d="M115.503 87.793L92.7246 94.193" stroke="#263238" stroke-miterlimit="10"/>
<path d="M127.48 84.4233L119.732 86.6066" stroke="#263238" stroke-miterlimit="10"/>
<path d="M107.755 95.8226L72.5371 105.722" stroke="#263238" stroke-miterlimit="10"/>
<path d="M130.293 89.4868L115.504 93.6449" stroke="#263238" stroke-miterlimit="10"/>
<path d="M150.021 77.6071C148.337 74.5766 144.238 72.8951 140.864 73.8401C137.489 74.7851 136.125 78.0112 137.809 81.0417C139.493 84.0723 143.592 85.7538 146.966 84.8088C150.34 83.8637 151.704 80.6377 150.021 77.6071Z" fill="white" stroke="#263238" stroke-miterlimit="10"/>
<path d="M129.945 103.977L137.223 101.93" stroke="#263238" stroke-miterlimit="10"/>
<path d="M79.4629 118.165L124.308 105.561" stroke="#263238" stroke-miterlimit="10"/>
<path d="M121.965 112.078L140.044 106.994" stroke="#263238" stroke-miterlimit="10"/>
<path d="M94.2578 119.859L117.029 113.459" stroke="#263238" stroke-miterlimit="10"/>
<path d="M82.2852 123.229L90.0323 121.052" stroke="#263238" stroke-miterlimit="10"/>
<path d="M107.637 121.951L142.855 112.051" stroke="#263238" stroke-miterlimit="10"/>
<path d="M85.0957 128.286L99.8917 124.128" stroke="#263238" stroke-miterlimit="10"/>
<path d="M162.579 100.171C160.895 97.1403 156.797 95.4588 153.422 96.4039C150.048 97.3489 148.684 100.575 150.368 103.605C152.052 106.636 156.15 108.317 159.525 107.372C162.899 106.427 164.263 103.201 162.579 100.171Z" fill="white" stroke="#263238" stroke-miterlimit="10"/>
<path d="M99.3013 138.687L92.0176 140.727" stroke="#263238" stroke-miterlimit="10"/>
<path d="M149.778 124.499L104.934 137.103" stroke="#263238" stroke-miterlimit="10"/>
<path d="M112.919 140.708L94.8398 145.791" stroke="#263238" stroke-miterlimit="10"/>
<path d="M140.622 132.926L117.844 139.326" stroke="#263238" stroke-miterlimit="10"/>
<path d="M152.597 129.556L144.844 131.733" stroke="#263238" stroke-miterlimit="10"/>
<path d="M132.875 140.956L97.6504 150.855" stroke="#263238" stroke-miterlimit="10"/>
<path d="M155.412 134.62L140.623 138.778" stroke="#263238" stroke-miterlimit="10"/>
<path d="M175.136 122.733C173.452 119.702 169.353 118.021 165.979 118.966C162.605 119.911 161.241 123.137 162.924 126.167C164.608 129.198 168.707 130.879 172.081 129.934C175.456 128.989 176.82 125.763 175.136 122.733Z" fill="white" stroke="#263238" stroke-miterlimit="10"/>
<path d="M155.061 149.109L162.338 147.062" stroke="#263238" stroke-miterlimit="10"/>
<path d="M104.578 163.297L149.423 150.693" stroke="#263238" stroke-miterlimit="10"/>
<path d="M147.08 157.203L165.159 152.126" stroke="#263238" stroke-miterlimit="10"/>
<path d="M119.375 164.991L142.147 158.591" stroke="#263238" stroke-miterlimit="10"/>
<path d="M107.4 168.355L115.148 166.178" stroke="#263238" stroke-miterlimit="10"/>
<path d="M132.752 167.083L167.97 157.183" stroke="#263238" stroke-miterlimit="10"/>
<path d="M110.211 173.418L125.007 169.26" stroke="#263238" stroke-miterlimit="10"/>
<path d="M188.101 149.566C189.219 146.725 187.208 143.277 183.608 141.864C180.009 140.451 176.184 141.608 175.066 144.449C173.948 147.29 175.959 150.738 179.559 152.151C183.158 153.564 186.983 152.407 188.101 149.566Z" fill="white" stroke="#263238" stroke-miterlimit="10"/>
<path d="M100.855 33.459L88.5326 36.9196C87.5993 36.9588 86.555 36.8871 86.2874 36.4113C85.6086 35.1926 86.4701 34.039 86.7312 32.9571C87.0249 31.7514 86.8683 30.5392 86.1699 29.2944C84.4404 26.1857 80.2372 24.4586 76.778 25.4296C73.3189 26.4007 71.9157 29.705 73.6452 32.8137C74.435 34.241 75.7534 35.3685 77.2675 36.0854C77.2675 36.0854 79.7738 37.1999 80.2698 38.0993C80.5309 38.575 79.839 39.1355 79.1211 39.5592L65.8393 43.2936C63.5942 43.9257 62.6869 46.0699 63.8095 48.0838L65.6044 51.3098L108.726 39.1877L106.931 35.9616C105.809 33.9478 103.081 32.8268 100.842 33.459H100.855ZM78.9123 29.2553C80.0218 28.9425 81.3663 29.4964 81.9145 30.4936C82.4693 31.4842 82.019 32.5465 80.9094 32.8529C79.7999 33.1657 78.4554 32.6117 77.9072 31.6146C77.3524 30.6239 77.8027 29.5616 78.9123 29.2488V29.2553Z" fill="#26DD9B" stroke="#263238" stroke-miterlimit="10"/>
<path d="M132.769 61.0797C132.371 61.0797 131.979 60.9624 131.646 60.7278L126.327 57.0194C125.44 56.4003 125.224 55.1815 125.844 54.2952C126.464 53.4088 127.685 53.1938 128.572 53.8129L131.953 56.1656L136.47 46.0573C136.907 45.0732 138.069 44.63 139.054 45.0667C140.04 45.5033 140.484 46.6634 140.046 47.6475L134.564 59.9196C134.329 60.454 133.859 60.8516 133.298 61.008C133.128 61.0536 132.945 61.0797 132.776 61.0797H132.769Z" fill="#74EE9B"/>
<path d="M145.132 83.2904C144.734 83.2904 144.343 83.1731 144.01 82.9385L138.69 79.2301C137.803 78.611 137.587 77.3922 138.207 76.5059C138.828 75.6195 140.048 75.4045 140.936 76.0236L144.31 78.3763L148.826 68.268C149.264 67.2839 150.425 66.8407 151.411 67.2774C152.396 67.714 152.84 68.8741 152.403 69.8582L146.921 82.1303C146.679 82.6647 146.216 83.0623 145.654 83.2187C145.485 83.2643 145.302 83.2904 145.132 83.2904Z" fill="#74EE9B"/>
<path d="M227.044 74.5947C227.044 74.5947 228.467 71.5837 227.579 69.2765C226.692 66.9694 210.355 63.248 210.355 63.248C210.355 63.248 206.629 63.248 206.805 65.3727C206.981 67.4973 220.478 75.657 221.542 76.3674C222.606 77.0778 226.692 78.6745 227.044 74.5947Z" fill="white" stroke="#263238" stroke-linecap="round" stroke-linejoin="round"/>
<path d="M211.707 60.2698C211.707 60.2698 210.153 59.7093 208.744 59.0055C207.334 58.3016 208.887 61.5407 209.448 61.6776C210.01 61.8144 211.42 62.1012 211.42 62.1012L211.7 60.2698H211.707Z" fill="white" stroke="#263238" stroke-linecap="round" stroke-linejoin="round"/>
<path d="M162.95 91.7941L154.785 101.72L155.497 103.141L167.036 100.306L248.299 53.0683C251.732 51.074 252.829 46.6422 250.734 43.2728C248.652 39.9294 244.22 38.9518 240.918 41.1025L162.957 91.7941H162.95Z" fill="#26DD9B" stroke="#263238" stroke-linecap="round" stroke-linejoin="round"/>
<path d="M203.783 73.3959L201.133 75.0969" stroke="#263238" stroke-linecap="round" stroke-linejoin="round"/>
<path d="M226.593 58.7384L207.02 71.3168" stroke="#263238" stroke-linecap="round" stroke-linejoin="round"/>
<path d="M155.541 101.511C155.541 101.511 153.518 102.359 153.825 103.206C154.131 104.053 157.055 102 157.055 102L155.541 101.511Z" fill="#C6FF00" stroke="#263238" stroke-linecap="round" stroke-linejoin="round"/>
<path d="M154.779 101.72L155.491 103.141L167.03 100.306C160.64 97.8224 162.944 91.7939 162.944 91.7939L154.779 101.72Z" fill="white" stroke="#263238" stroke-linecap="round" stroke-linejoin="round"/>
<path d="M250.725 43.2728C248.643 39.9294 244.212 38.9518 240.909 41.1025L226.733 50.3245C226.361 51.263 226.152 52.2927 226.152 53.3746C226.152 57.8194 229.611 61.4235 233.893 61.443L248.291 53.0748C251.724 51.0805 252.82 46.6487 250.725 43.2793V43.2728Z" fill="white" stroke="#263238" stroke-linecap="round" stroke-linejoin="round"/>
<path d="M250.726 43.2728C248.644 39.9294 244.213 38.9518 240.91 41.1025L230.135 48.1086C229.632 49.1449 229.352 50.318 229.352 51.5497C229.352 55.8577 232.772 59.351 236.988 59.351C237.164 59.351 237.347 59.3444 237.516 59.3314L248.292 53.0683C251.725 51.074 252.821 46.6422 250.726 43.2728Z" fill="#263238" stroke="#263238" stroke-linecap="round" stroke-linejoin="round"/>
<path d="M202.685 63.5088C202.685 63.5088 201.105 63.5088 201.105 64.2257C201.105 64.9426 200.687 67.4909 201.601 67.4127C202.515 67.3344 202.43 65.7377 202.515 65.1837C202.6 64.6232 202.678 63.5088 202.678 63.5088H202.685Z" fill="white" stroke="#263238" stroke-linecap="round" stroke-linejoin="round"/>
<path d="M204.414 60.9153C204.414 60.9153 203.004 60.4851 202.678 61.3454C202.352 62.2122 202.025 66.3312 203.004 66.2204C203.983 66.1096 204.199 62.4273 204.414 60.9153Z" fill="white" stroke="#263238" stroke-linecap="round" stroke-linejoin="round"/>
<path d="M206.581 61.1304C206.581 61.1304 204.955 59.7227 204.414 60.9153C203.872 62.108 203.761 65.4644 204.414 65.4644C205.066 65.4644 206.039 64.0567 206.261 63.3007C206.476 62.5446 206.587 61.1369 206.587 61.1369L206.581 61.1304Z" fill="white" stroke="#263238" stroke-linecap="round" stroke-linejoin="round"/>
<path d="M208.864 61.7818C208.864 61.7818 206.802 60.0482 206.475 60.374C206.149 60.6999 204.844 64.0368 205.823 64.708C206.802 65.3793 208.035 62.3879 208.035 62.3879L208.858 61.7883L208.864 61.7818Z" fill="white" stroke="#263238" stroke-linecap="round" stroke-linejoin="round"/>
<path d="M179.078 72.0663C179.078 72.0663 179.313 75.54 180.24 76.3547C181.167 77.1628 181.748 77.9775 181.748 77.9775C181.748 77.9775 181.983 79.6003 181.983 80.643C181.983 81.6858 182.681 81.5685 183.262 81.5685C183.843 81.5685 184.887 83.5367 185.468 84.4687C186.049 85.3942 188.372 87.3689 189.416 87.9424C190.461 88.5225 192.203 86.3196 192.203 86.3196L193.013 88.6398L201.256 83.3086L197.196 75.4292C197.196 75.4292 197.079 71.8382 194.762 67.6671C192.438 63.496 189.305 61.1759 184.084 62.6814C178.863 64.1869 179.091 72.0663 179.091 72.0663H179.078Z" fill="white" stroke="#263238" stroke-linecap="round" stroke-linejoin="round"/>
<path d="M188.62 56.6202C188.62 56.6202 186.152 56.6202 182.922 57.7608C179.874 58.8361 179.123 63.0724 176.467 64.5909C173.811 66.1094 174.946 63.2614 173.615 64.0239C172.283 64.7799 170.958 71.421 173.804 73.3176C176.656 75.2141 180.833 72.7506 180.833 72.7506C180.833 72.7506 180.455 74.0801 181.59 74.4581C182.726 74.8361 183.679 75.0251 183.679 75.0251C183.679 75.0251 183.49 77.2996 185.2 77.1106C186.91 76.9216 185.389 74.2626 185.389 74.2626C185.389 74.2626 188.62 80.5192 191.087 81.2817C193.554 82.0377 197.163 78.6292 198.116 77.1106C199.069 75.5921 198.305 64.7799 196.217 60.6088C194.128 56.4378 188.62 56.6268 188.62 56.6268V56.6202Z" fill="#263238" stroke="#263238" stroke-linecap="round" stroke-linejoin="round"/>
<path d="M185.462 78.3229C185.462 78.3229 184.3 73.9172 186.16 74.4972C188.02 75.0773 189.065 79.0202 188.947 79.4829C188.83 79.9457 187.903 80.1803 187.439 80.063" fill="white"/>
<path d="M185.462 78.3229C185.462 78.3229 184.3 73.9172 186.16 74.4972C188.02 75.0773 189.065 79.0202 188.947 79.4829C188.83 79.9457 187.903 80.1803 187.439 80.063" stroke="#263238" stroke-linecap="round" stroke-linejoin="round"/>
<path d="M198.881 79.9201C198.881 79.9201 194.665 82.2989 192.694 84.039C190.723 85.7791 188.98 90.993 188.98 90.993C188.98 90.993 200.937 82.8789 203.026 81.7188C205.114 80.5588 205.578 79.9787 205.578 79.9787C205.578 79.9787 201.205 79.3335 198.881 79.9136V79.9201Z" fill="white" stroke="#263238" stroke-linecap="round" stroke-linejoin="round"/>
<path d="M214.969 72.822C214.969 72.822 216.392 69.987 219.76 69.2766C223.134 68.5662 227.572 70.8733 228.108 74.5947C228.643 78.3161 225.797 80.0888 224.022 80.0888C222.247 80.0888 220.648 77.6057 220.648 77.6057C220.648 77.6057 214.963 75.4811 214.963 72.8155L214.969 72.822Z" fill="white" stroke="#263238" stroke-linecap="round" stroke-linejoin="round"/>
<path d="M167.388 112.356L173.073 97.2878C173.073 97.2878 172.185 98.1741 170.763 98.1741C169.34 98.1741 165.972 97.6397 166.86 97.1118C167.747 96.5839 171.122 94.2768 171.122 94.2768C171.122 94.2768 168.635 94.8112 167.924 94.2768C167.212 93.7424 166.86 93.0385 167.388 92.856C167.917 92.6735 168.987 92.856 170.939 92.1456C172.89 91.4352 173.778 90.7249 175.377 90.7249C176.976 90.7249 178.392 93.5599 178.392 94.4462C178.392 95.3326 177.152 112.173 177.152 112.884C177.152 113.594 177.152 114.304 172.538 114.832C167.924 115.367 167.212 114.298 167.388 112.349V112.356Z" fill="white" stroke="#263238" stroke-linecap="round" stroke-linejoin="round"/>
<path d="M173.064 97.2883L173.906 93.9775" stroke="#263238" stroke-linecap="round" stroke-linejoin="round"/>
<path d="M172.891 108.635C172.891 108.635 167.206 110.231 166.143 112.714C165.079 115.197 165.255 118.919 167.383 121.05C169.51 123.175 170.398 123.709 172.708 122.823C175.019 121.936 175.548 120.516 175.724 119.101C175.9 117.681 177.147 112.897 172.885 108.641L172.891 108.635Z" fill="white" stroke="#263238" stroke-linecap="round" stroke-linejoin="round"/>
<path d="M170.585 183.812C170.585 183.812 165.612 181.505 163.661 182.391C161.709 183.277 161.709 184.164 164.196 188.068C166.682 191.972 173.607 196.755 175.911 195.693C178.222 194.631 176.087 187.54 176.087 187.54L170.585 183.818V183.812Z" fill="white" stroke="#263238" stroke-linecap="round" stroke-linejoin="round"/>
<path d="M167.032 189.306C164.773 186.816 163.396 184.327 162.724 182.952C161.81 183.76 162.202 184.946 164.186 188.068C166.673 191.965 173.597 196.755 175.901 195.693C176.489 195.426 176.789 194.761 176.906 193.927C173.656 195.302 170.256 192.884 167.025 189.312L167.032 189.306Z" fill="white" stroke="#263238" stroke-linecap="round" stroke-linejoin="round"/>
<path d="M196.151 129.555L196.327 134.874C196.327 134.874 185.5 138.953 180.167 142.675C174.842 146.396 171.291 149.238 170.756 152.783C170.221 156.328 170.58 183.812 170.58 183.812C170.58 183.812 168.981 184.164 169.516 185.233C170.051 186.295 171.115 190.199 172.531 190.551C173.947 190.903 175.729 191.613 176.082 190.727C176.434 189.84 177.504 184.522 178.209 182.75C178.921 180.977 180.161 172.641 181.225 166.795C182.289 160.943 182.289 156.869 182.289 156.869C182.289 156.869 187.079 156.335 193.299 154.21C199.512 152.086 208.571 148.182 208.571 148.182C208.571 148.182 215.849 166.443 217.448 169.989C219.047 173.534 225.26 181.511 226.5 183.818C227.74 186.126 235.553 196.051 235.553 196.051C235.553 196.051 238.568 193.392 240.526 193.392H243.189C243.189 193.392 239.991 184.529 237.328 179.211C234.665 173.893 229.163 165.205 229.163 165.205C229.163 165.205 224.196 134.183 224.014 132.052C223.668 127.959 221.044 121.78 221.044 121.78C221.044 121.78 212.474 119.995 196.138 129.568L196.151 129.555Z" fill="#263238" stroke="#263238" stroke-linecap="round" stroke-linejoin="round"/>
<path d="M235.565 196.045C235.565 196.045 234.502 197.818 234.325 198.352C234.149 198.887 230.24 199.415 230.775 201.187C231.31 202.96 235.389 204.381 237.347 204.557C239.299 204.733 243.208 202.074 243.92 201.363C244.337 200.946 244.964 198.189 244.631 196.045C244.396 194.559 243.208 193.386 243.208 193.386C243.208 193.386 239.834 188.244 235.572 196.045H235.565Z" fill="white" stroke="#263238" stroke-linecap="round" stroke-linejoin="round"/>
<path d="M244.618 196.045C244.448 194.957 243.763 194.038 243.411 193.621C242.066 193.706 240.5 194.097 239.469 195.335C237.693 197.46 238.581 202.25 236.453 202.96C234.867 203.488 232.093 201.552 230.782 200.536C230.71 200.731 230.697 200.946 230.768 201.187C231.304 202.96 235.383 204.381 237.341 204.557C239.292 204.733 243.202 202.074 243.913 201.363C244.331 200.946 244.957 198.189 244.625 196.045H244.618Z" fill="white" stroke="#263238" stroke-linecap="round" stroke-linejoin="round"/>
<path d="M240.007 197.284C239.295 200.477 240.183 202.602 237.344 204.55C239.295 204.726 243.205 202.067 243.916 201.357C244.334 200.94 244.96 198.183 244.628 196.039C244.556 195.576 244.386 195.146 244.19 194.768L243.916 194.794C243.916 194.794 240.718 194.084 240.013 197.277L240.007 197.284Z" fill="#263238" stroke="#263238" stroke-linecap="round" stroke-linejoin="round"/>
<path d="M210.354 147.817L220.829 142.675" stroke="white" stroke-linecap="round" stroke-linejoin="round"/>
<path d="M215.148 145.516L224.201 144.271" stroke="white" stroke-linecap="round" stroke-linejoin="round"/>
<path d="M218.702 71.5838C215.687 71.9357 207.875 77.2604 207.339 77.7883C206.804 78.3162 204.676 79.561 203.789 80.2713C203.789 80.2713 185.501 91.618 183.902 92.6803C182.303 93.7426 179.111 95.8738 179.288 96.5776C179.464 97.288 169.876 112.89 169.876 112.89C169.876 112.89 167.037 116.612 169.7 119.981C172.363 123.351 174.85 121.044 176.09 120.333C177.33 119.623 187.1 110.407 187.1 110.407L196.113 131.882C196.113 131.882 208.586 123.527 221.9 124.061L213.024 89.3108C213.024 89.3108 225.275 80.0889 225.627 76.9019C225.98 73.7084 221.724 71.2253 218.702 71.5838Z" fill="white"/>
<mask id="mask0_517_284" style="mask-type:luminance" maskUnits="userSpaceOnUse" x="168" y="71" width="58" height="61">
<path d="M218.702 71.5832C215.687 71.9351 207.875 77.2597 207.339 77.7876C206.804 78.3155 204.676 79.5604 203.789 80.2707C203.789 80.2707 185.501 91.6174 183.902 92.6797C182.303 93.742 179.111 95.8732 179.288 96.577C179.464 97.2874 169.876 112.89 169.876 112.89C169.876 112.89 167.037 116.611 169.7 119.981C172.363 123.35 174.85 121.043 176.09 120.333C177.33 119.622 187.1 110.407 187.1 110.407L196.113 131.881C196.113 131.881 208.586 123.526 221.9 124.06L213.024 89.3102C213.024 89.3102 225.275 80.0883 225.627 76.9013C225.98 73.7078 221.724 71.2247 218.702 71.5832Z" fill="white"/>
</mask>
<g mask="url(#mask0_517_284)">
<path d="M218.698 71.5836C217.491 71.7269 215.513 72.6654 213.536 73.7734C214.208 73.6495 215.122 73.7473 215.918 74.764C217.387 76.6475 214.241 82.7086 214.241 82.7086C214.241 82.7086 212.955 74.3273 212.981 76.8495C213.014 79.3783 212.354 87.0947 212.354 87.0947C212.354 87.0947 208.164 82.0764 208.373 83.3277C208.582 84.5856 211.304 96.2972 212.981 100.683C214.658 105.076 211.721 117.413 210.051 120.972C208.373 124.53 209.424 105.91 207.538 110.511C205.652 115.113 199.366 127.873 197.904 129.125C196.495 130.331 198.368 112.076 198.89 109.69C198.25 111.678 193.923 124.315 193.923 124.315L188.056 109.254C188.056 109.254 178.005 101.094 179.049 102.56C180.093 104.027 182.612 108.628 182.612 108.628C182.612 108.628 176.536 107.37 177.587 107.794C178.631 108.211 183.239 110.511 183.239 110.511C183.239 110.511 173.814 117.205 171.093 118.039C170.355 118.267 169.585 118.384 168.848 118.449C169.03 118.951 169.291 119.46 169.69 119.961C172.352 123.331 174.839 121.024 176.079 120.313C177.319 119.603 187.09 110.388 187.09 110.388L196.103 131.862C196.103 131.862 208.576 123.507 221.89 124.041L213.014 89.2911C213.014 89.2911 225.264 80.0691 225.617 76.8821C225.969 73.6887 221.714 71.2056 218.692 71.564L218.698 71.5836Z" fill="#26DD9B"/>
<path opacity="0.5" d="M218.698 71.5836C217.491 71.7269 215.513 72.6654 213.536 73.7734C214.208 73.6495 215.122 73.7473 215.918 74.764C217.387 76.6475 214.241 82.7086 214.241 82.7086C214.241 82.7086 212.955 74.3273 212.981 76.8495C213.014 79.3783 212.354 87.0947 212.354 87.0947C212.354 87.0947 208.164 82.0764 208.373 83.3277C208.582 84.5856 211.304 96.2972 212.981 100.683C214.658 105.076 211.721 117.413 210.051 120.972C208.373 124.53 209.424 105.91 207.538 110.511C205.652 115.113 199.366 127.873 197.904 129.125C196.495 130.331 198.368 112.076 198.89 109.69C198.25 111.678 193.923 124.315 193.923 124.315L188.056 109.254C188.056 109.254 178.005 101.094 179.049 102.56C180.093 104.027 182.612 108.628 182.612 108.628C182.612 108.628 176.536 107.37 177.587 107.794C178.631 108.211 183.239 110.511 183.239 110.511C183.239 110.511 173.814 117.205 171.093 118.039C170.355 118.267 169.585 118.384 168.848 118.449C169.03 118.951 169.291 119.46 169.69 119.961C172.352 123.331 174.839 121.024 176.079 120.313C177.319 119.603 187.09 110.388 187.09 110.388L196.103 131.862C196.103 131.862 208.576 123.507 221.89 124.041L213.014 89.2911C213.014 89.2911 225.264 80.0691 225.617 76.8821C225.969 73.6887 221.714 71.2056 218.692 71.564L218.698 71.5836Z" fill="white"/>
</g>
<path d="M218.702 71.5838C215.687 71.9357 207.875 77.2604 207.339 77.7883C206.804 78.3162 204.676 79.561 203.789 80.2713C203.789 80.2713 185.501 91.618 183.902 92.6803C182.303 93.7426 179.111 95.8738 179.288 96.5776C179.464 97.288 169.876 112.89 169.876 112.89C169.876 112.89 167.037 116.612 169.7 119.981C172.363 123.351 174.85 121.044 176.09 120.333C177.33 119.623 187.1 110.407 187.1 110.407L196.113 131.882C196.113 131.882 208.586 123.527 221.9 124.061L213.024 89.3108C213.024 89.3108 225.275 80.0889 225.627 76.9019C225.98 73.7084 221.724 71.2253 218.702 71.5838Z" stroke="#263238" stroke-linecap="round" stroke-linejoin="round"/>
<path d="M196.106 131.882C196.106 131.882 195.166 125.697 196.857 117.27L196.106 131.882Z" fill="white"/>
<path d="M196.106 131.882C196.106 131.882 195.166 125.697 196.857 117.27" stroke="#263238" stroke-linecap="round" stroke-linejoin="round"/>
<path d="M194.416 121.018C194.416 121.018 194.416 118.02 197.79 108.655L194.416 121.018Z" fill="white"/>
<path d="M194.416 121.018C194.416 121.018 194.416 118.02 197.79 108.655" stroke="#263238" stroke-linecap="round" stroke-linejoin="round"/>
<path d="M180.173 102.607L187.091 110.408L179.99 105.266" fill="white"/>
<path d="M180.173 102.607L187.091 110.408L179.99 105.266" stroke="#263238" stroke-linecap="round" stroke-linejoin="round"/>
<path d="M213.018 79.3848V89.3106L215.328 76.5432" fill="white"/>
<path d="M213.018 79.3848V89.3106L215.328 76.5432" stroke="#263238" stroke-linecap="round" stroke-linejoin="round"/>
<path d="M198.959 109.482C198.94 109.521 198.92 109.606 198.9 109.704C198.979 109.463 199.005 109.372 198.959 109.482Z" fill="#263238"/>
</svg>
