<svg width="70" height="70" viewBox="0 0 90 90" fill="none" xmlns="http://www.w3.org/2000/svg">
<path d="M45.5 89.482C70.0767 89.482 90 69.6746 90 45.241C90 20.8074 70.0767 1 45.5 1C20.9233 1 1 20.8074 1 45.241C1 69.6746 20.9233 89.482 45.5 89.482Z" fill="#EDF5FF"/>
<path d="M90 45.241C90 69.6738 70.0758 89.482 45.5 89.482V1C70.0758 1 90 20.8082 90 45.241Z" fill="#D5E8FE"/>
<path d="M45.5 70.2994C59.4204 70.2994 70.7051 59.0803 70.7051 45.241C70.7051 31.4016 59.4204 20.1826 45.5 20.1826C31.5796 20.1826 20.2949 31.4016 20.2949 45.241C20.2949 59.0803 31.5796 70.2994 45.5 70.2994Z" fill="#D5E8FE"/>
<path d="M70.7051 45.241C70.7051 59.0812 59.4212 70.2994 45.5 70.2994V20.1826C59.4212 20.1826 70.7051 31.4008 70.7051 45.241Z" fill="#B5DBFF"/>
<path d="M45.5 59.0664C53.1802 59.0664 59.4062 52.8766 59.4062 45.2411C59.4062 37.6056 53.1802 31.4158 45.5 31.4158C37.8198 31.4158 31.5938 37.6056 31.5938 45.2411C31.5938 52.8766 37.8198 59.0664 45.5 59.0664Z" fill="#EDF5FF"/>
<path d="M59.4062 45.2411C59.4062 52.877 53.1806 59.0664 45.5 59.0664V31.4158C53.1806 31.4158 59.4062 37.6052 59.4062 45.2411Z" fill="#D5E8FE"/>
<path d="M18.4884 2.03198H13.2736C13.2736 8.19116 8.2343 13.2011 2.03906 13.2011V18.3856C8.2343 18.3856 13.2736 23.3955 13.2736 29.5547H18.4884C18.4884 23.3955 23.5277 18.3856 29.7229 18.3856V13.2011C23.5277 13.2011 18.4884 8.19116 18.4884 2.03198Z" fill="#74EE9B"/>
<path d="M29.7228 13.2011V18.3856C23.5276 18.3856 18.4883 23.3955 18.4883 29.5547H15.8809V2.03198H18.4883C18.4883 8.19116 23.5276 13.2011 29.7228 13.2011Z" fill="#26DD9B"/>
</svg>
