<svg width="17" height="17" viewBox="0 0 60 60" fill="none" xmlns="http://www.w3.org/2000/svg">
<path d="M58.1138 19.5234C58.4888 20.543 58.1724 21.6797 57.3638 22.4062L52.2896 27.0234C52.4185 27.9961 52.4888 28.9922 52.4888 30C52.4888 31.0078 52.4185 32.0039 52.2896 32.9766L57.3638 37.5937C58.1724 38.3203 58.4888 39.457 58.1138 40.4766C57.5982 41.8711 56.9771 43.207 56.2622 44.4961L55.7115 45.4453C54.938 46.7344 54.0708 47.9531 53.1216 49.1016C52.4302 49.9453 51.2818 50.2266 50.2505 49.8984L43.7232 47.8242C42.1529 49.0313 40.4185 50.0391 38.5669 50.8008L37.1021 57.4922C36.8677 58.5586 36.0474 59.4023 34.9693 59.5781C33.3521 59.8477 31.688 59.9883 29.9888 59.9883C28.2896 59.9883 26.6255 59.8477 25.0083 59.5781C23.9302 59.4023 23.1099 58.5586 22.8755 57.4922L21.4107 50.8008C19.5591 50.0391 17.8247 49.0313 16.2544 47.8242L9.7388 49.9102C8.70755 50.2383 7.55911 49.9453 6.86771 49.1133C5.91849 47.9648 5.0513 46.7461 4.27786 45.457L3.72708 44.5078C3.01224 43.2187 2.39114 41.8828 1.87552 40.4883C1.50052 39.4688 1.81692 38.332 2.62552 37.6055L7.69974 32.9883C7.57083 32.0039 7.50052 31.0078 7.50052 30C7.50052 28.9922 7.57083 27.9961 7.69974 27.0234L2.62552 22.4062C1.81692 21.6797 1.50052 20.543 1.87552 19.5234C2.39114 18.1289 3.01224 16.793 3.72708 15.5039L4.27786 14.5547C5.0513 13.2656 5.91849 12.0469 6.86771 10.8984C7.55911 10.0547 8.70755 9.77344 9.7388 10.1016L16.2661 12.1758C17.8365 10.9688 19.5708 9.96094 21.4224 9.19922L22.8872 2.50781C23.1216 1.44141 23.9419 0.597656 25.02 0.421875C26.6372 0.140625 28.3013 0 30.0005 0C31.6997 0 33.3638 0.140625 34.981 0.410156C36.0591 0.585938 36.8794 1.42969 37.1138 2.49609L38.5786 9.1875C40.4302 9.94922 42.1646 10.957 43.7349 12.1641L50.2622 10.0898C51.2935 9.76172 52.4419 10.0547 53.1333 10.8867C54.0826 12.0352 54.9497 13.2539 55.7232 14.543L56.274 15.4922C56.9888 16.7812 57.6099 18.1172 58.1255 19.5117L58.1138 19.5234ZM30.0005 39.375C32.4869 39.375 34.8715 38.3873 36.6296 36.6291C38.3878 34.871 39.3755 32.4864 39.3755 30C39.3755 27.5136 38.3878 25.129 36.6296 23.3709C34.8715 21.6127 32.4869 20.625 30.0005 20.625C27.5141 20.625 25.1295 21.6127 23.3714 23.3709C21.6132 25.129 20.6255 27.5136 20.6255 30C20.6255 32.4864 21.6132 34.871 23.3714 36.6291C25.1295 38.3873 27.5141 39.375 30.0005 39.375Z" fill="#B2B2B2"/>
</svg>
