<svg width="135.2" height="41,6" viewBox="0 0 169 52" fill="none" xmlns="http://www.w3.org/2000/svg">
<path d="M68.104 40.288C66.776 40.288 65.552 40.08 64.432 39.664C63.328 39.232 62.36 38.624 61.528 37.84C60.712 37.056 60.072 36.136 59.608 35.08C59.16 34.024 58.936 32.864 58.936 31.6C58.936 30.336 59.16 29.176 59.608 28.12C60.072 27.064 60.72 26.144 61.552 25.36C62.384 24.576 63.36 23.976 64.48 23.56C65.6 23.128 66.832 22.912 68.176 22.912C69.664 22.912 71 23.16 72.184 23.656C73.384 24.152 74.392 24.872 75.208 25.816L72.712 28.12C72.104 27.48 71.44 27.008 70.72 26.704C70 26.384 69.216 26.224 68.368 26.224C67.552 26.224 66.808 26.352 66.136 26.608C65.464 26.864 64.88 27.232 64.384 27.712C63.904 28.192 63.528 28.76 63.256 29.416C63 30.072 62.872 30.8 62.872 31.6C62.872 32.384 63 33.104 63.256 33.76C63.528 34.416 63.904 34.992 64.384 35.488C64.88 35.968 65.456 36.336 66.112 36.592C66.784 36.848 67.52 36.976 68.32 36.976C69.088 36.976 69.832 36.856 70.552 36.616C71.288 36.36 72 35.936 72.688 35.344L74.896 38.152C73.984 38.84 72.92 39.368 71.704 39.736C70.504 40.104 69.304 40.288 68.104 40.288ZM71.344 37.648V31.336H74.896V38.152L71.344 37.648ZM86.1636 40V37.48L85.9236 36.928V32.416C85.9236 31.616 85.6756 30.992 85.1796 30.544C84.6996 30.096 83.9556 29.872 82.9476 29.872C82.2596 29.872 81.5796 29.984 80.9076 30.208C80.2516 30.416 79.6916 30.704 79.2276 31.072L77.8836 28.456C78.5876 27.96 79.4356 27.576 80.4276 27.304C81.4196 27.032 82.4276 26.896 83.4516 26.896C85.4196 26.896 86.9476 27.36 88.0356 28.288C89.1236 29.216 89.6676 30.664 89.6676 32.632V40H86.1636ZM82.2276 40.192C81.2196 40.192 80.3556 40.024 79.6356 39.688C78.9156 39.336 78.3636 38.864 77.9796 38.272C77.5956 37.68 77.4036 37.016 77.4036 36.28C77.4036 35.512 77.5876 34.84 77.9556 34.264C78.3396 33.688 78.9396 33.24 79.7556 32.92C80.5716 32.584 81.6356 32.416 82.9476 32.416H86.3796V34.6H83.3556C82.4756 34.6 81.8676 34.744 81.5316 35.032C81.2116 35.32 81.0516 35.68 81.0516 36.112C81.0516 36.592 81.2356 36.976 81.6036 37.264C81.9876 37.536 82.5076 37.672 83.1636 37.672C83.7876 37.672 84.3476 37.528 84.8436 37.24C85.3396 36.936 85.6996 36.496 85.9236 35.92L86.4996 37.648C86.2276 38.48 85.7316 39.112 85.0116 39.544C84.2916 39.976 83.3636 40.192 82.2276 40.192ZM93.0561 40V27.088H96.6321V30.736L96.1281 29.68C96.5121 28.768 97.1281 28.08 97.9761 27.616C98.8241 27.136 99.8561 26.896 101.072 26.896V30.352C100.912 30.336 100.768 30.328 100.64 30.328C100.512 30.312 100.376 30.304 100.232 30.304C99.2081 30.304 98.3761 30.6 97.7361 31.192C97.1121 31.768 96.8001 32.672 96.8001 33.904V40H93.0561ZM107.736 40.192C106.632 40.192 105.568 40.064 104.544 39.808C103.536 39.536 102.736 39.2 102.144 38.8L103.392 36.112C103.984 36.48 104.68 36.784 105.48 37.024C106.296 37.248 107.096 37.36 107.88 37.36C108.744 37.36 109.352 37.256 109.704 37.048C110.072 36.84 110.256 36.552 110.256 36.184C110.256 35.88 110.112 35.656 109.824 35.512C109.552 35.352 109.184 35.232 108.72 35.152C108.256 35.072 107.744 34.992 107.184 34.912C106.64 34.832 106.088 34.728 105.528 34.6C104.968 34.456 104.456 34.248 103.992 33.976C103.528 33.704 103.152 33.336 102.864 32.872C102.592 32.408 102.456 31.808 102.456 31.072C102.456 30.256 102.688 29.536 103.152 28.912C103.632 28.288 104.32 27.8 105.216 27.448C106.112 27.08 107.184 26.896 108.432 26.896C109.312 26.896 110.208 26.992 111.12 27.184C112.032 27.376 112.792 27.656 113.4 28.024L112.152 30.688C111.528 30.32 110.896 30.072 110.256 29.944C109.632 29.8 109.024 29.728 108.432 29.728C107.6 29.728 106.992 29.84 106.608 30.064C106.224 30.288 106.032 30.576 106.032 30.928C106.032 31.248 106.168 31.488 106.44 31.648C106.728 31.808 107.104 31.936 107.568 32.032C108.032 32.128 108.536 32.216 109.08 32.296C109.64 32.36 110.2 32.464 110.76 32.608C111.32 32.752 111.824 32.96 112.272 33.232C112.736 33.488 113.112 33.848 113.4 34.312C113.688 34.76 113.832 35.352 113.832 36.088C113.832 36.888 113.592 37.6 113.112 38.224C112.632 38.832 111.936 39.312 111.024 39.664C110.128 40.016 109.032 40.192 107.736 40.192ZM120.486 40.192C119.382 40.192 118.318 40.064 117.294 39.808C116.286 39.536 115.486 39.2 114.894 38.8L116.142 36.112C116.734 36.48 117.43 36.784 118.23 37.024C119.046 37.248 119.846 37.36 120.63 37.36C121.494 37.36 122.102 37.256 122.454 37.048C122.822 36.84 123.006 36.552 123.006 36.184C123.006 35.88 122.862 35.656 122.574 35.512C122.302 35.352 121.934 35.232 121.47 35.152C121.006 35.072 120.494 34.992 119.934 34.912C119.39 34.832 118.838 34.728 118.278 34.6C117.718 34.456 117.206 34.248 116.742 33.976C116.278 33.704 115.902 33.336 115.614 32.872C115.342 32.408 115.206 31.808 115.206 31.072C115.206 30.256 115.438 29.536 115.902 28.912C116.382 28.288 117.07 27.8 117.966 27.448C118.862 27.08 119.934 26.896 121.182 26.896C122.062 26.896 122.958 26.992 123.87 27.184C124.782 27.376 125.542 27.656 126.15 28.024L124.902 30.688C124.278 30.32 123.646 30.072 123.006 29.944C122.382 29.8 121.774 29.728 121.182 29.728C120.35 29.728 119.742 29.84 119.358 30.064C118.974 30.288 118.782 30.576 118.782 30.928C118.782 31.248 118.918 31.488 119.19 31.648C119.478 31.808 119.854 31.936 120.318 32.032C120.782 32.128 121.286 32.216 121.83 32.296C122.39 32.36 122.95 32.464 123.51 32.608C124.07 32.752 124.574 32.96 125.022 33.232C125.486 33.488 125.862 33.848 126.15 34.312C126.438 34.76 126.582 35.352 126.582 36.088C126.582 36.888 126.342 37.6 125.862 38.224C125.382 38.832 124.686 39.312 123.774 39.664C122.878 40.016 121.782 40.192 120.486 40.192ZM134.34 40.192C133.268 40.192 132.308 39.984 131.46 39.568C130.628 39.152 129.98 38.52 129.516 37.672C129.052 36.808 128.82 35.712 128.82 34.384V27.088H132.564V33.832C132.564 34.904 132.788 35.696 133.236 36.208C133.7 36.704 134.348 36.952 135.18 36.952C135.756 36.952 136.268 36.832 136.716 36.592C137.164 36.336 137.516 35.952 137.772 35.44C138.028 34.912 138.156 34.256 138.156 33.472V27.088H141.9V40H138.348V36.448L138.996 37.48C138.564 38.376 137.924 39.056 137.076 39.52C136.244 39.968 135.332 40.192 134.34 40.192ZM161.905 26.896C162.929 26.896 163.833 27.104 164.617 27.52C165.417 27.92 166.041 28.544 166.489 29.392C166.953 30.224 167.185 31.296 167.185 32.608V40H163.441V33.184C163.441 32.144 163.225 31.376 162.793 30.88C162.361 30.384 161.753 30.136 160.969 30.136C160.425 30.136 159.937 30.264 159.505 30.52C159.073 30.76 158.737 31.128 158.497 31.624C158.257 32.12 158.137 32.752 158.137 33.52V40H154.393V33.184C154.393 32.144 154.177 31.376 153.745 30.88C153.329 30.384 152.729 30.136 151.945 30.136C151.401 30.136 150.913 30.264 150.481 30.52C150.049 30.76 149.713 31.128 149.473 31.624C149.233 32.12 149.113 32.752 149.113 33.52V40H145.369V27.088H148.945V30.616L148.273 29.584C148.721 28.704 149.353 28.04 150.169 27.592C151.001 27.128 151.945 26.896 153.001 26.896C154.185 26.896 155.217 27.2 156.097 27.808C156.993 28.4 157.585 29.312 157.873 30.544L156.553 30.184C156.985 29.176 157.673 28.376 158.617 27.784C159.577 27.192 160.673 26.896 161.905 26.896Z" fill="#13322B"/>
<path fill-rule="evenodd" clip-rule="evenodd" d="M21.9998 52.0003C9.84983 52.0003 0 42.0651 0 29.8088C0 22.9063 3.12425 16.7402 8.02445 12.6699C-3.04043 41.4048 29.1318 52.8155 36.7959 33.2496C30.9435 35.707 25.5931 35.5735 20.6599 33.2885C29.1101 31.1883 36.6763 27.7347 42.3672 21.4075C43.4193 23.9994 44 26.8355 44 29.8088C44 42.0651 34.1502 52.0008 21.9998 52.0008" fill="#13322B"/>
<path fill-rule="evenodd" clip-rule="evenodd" d="M12.0359 35.3436C11.5414 24.0379 15.3128 12.6167 29.8198 10.5422C22.319 12.926 17.0327 17.3083 14.6421 24.0735C27.6242 24.0944 40.3247 21.4674 38.942 0.180396C12.5775 -2.21908 1.73351 19.856 12.0359 35.3436Z" fill="#26DD9B"/>
</svg>
