<svg width="68.6" height="63" viewBox="0 0 98 90" fill="none" xmlns="http://www.w3.org/2000/svg">
<path d="M45.2635 90C70.2618 90 90.5269 69.8528 90.5269 45C90.5269 20.1472 70.2618 0 45.2635 0C20.2651 0 0 20.1472 0 45C0 69.8528 20.2651 90 45.2635 90Z" fill="#EDF5FF"/>
<path d="M90.5271 45C90.5271 69.852 70.2611 90 45.2637 90V0C70.2611 0 90.5271 20.148 90.5271 45Z" fill="#D5E8FE"/>
<path d="M45.2625 70.4883C59.4217 70.4883 70.9 59.0768 70.9 45C70.9 30.9232 59.4217 19.5117 45.2625 19.5117C31.1033 19.5117 19.625 30.9232 19.625 45C19.625 59.0768 31.1033 70.4883 45.2625 70.4883Z" fill="#D5E8FE"/>
<path d="M70.9012 45C70.9012 59.0776 59.4237 70.4883 45.2637 70.4883V19.5117C59.4237 19.5117 70.9012 30.9224 70.9012 45Z" fill="#B5DBFF"/>
<path d="M45.264 59.0625C53.0759 59.0625 59.4088 52.7665 59.4088 45C59.4088 37.2335 53.0759 30.9375 45.264 30.9375C37.452 30.9375 31.1191 37.2335 31.1191 45C31.1191 52.7665 37.452 59.0625 45.264 59.0625Z" fill="#EDF5FF"/>
<path d="M59.4085 45C59.4085 52.7669 53.076 59.0625 45.2637 59.0625V30.9375C53.076 30.9375 59.4085 37.2331 59.4085 45Z" fill="#D5E8FE"/>
<path d="M17.7882 1.0498H12.4839C12.4839 7.31465 7.35816 12.4105 1.05664 12.4105V17.684C7.35816 17.684 12.4839 22.7799 12.4839 29.0447H17.7882C17.7882 22.7799 22.9139 17.684 29.2155 17.684V12.4105C22.9139 12.4105 17.7882 7.31465 17.7882 1.0498Z" fill="#74EE9B"/>
<path d="M29.2161 12.4105V17.684C22.9146 17.684 17.7889 22.7799 17.7889 29.0447H15.1367V1.0498H17.7889C17.7889 7.31465 22.9146 12.4105 29.2161 12.4105Z" fill="#26DD9B"/>
<path d="M85.9635 73.6013V81.7448C85.9635 81.7449 85.9635 81.7449 85.9635 81.745C85.9636 83.3125 84.6871 84.5747 83.123 84.5727H83.1234V83.573L83.1217 84.5727L85.9635 73.6013ZM85.9635 73.6013L94.1601 73.6018M79.0581 81.7444C79.0584 83.3119 80.3349 84.574 81.8981 84.5727L69.0215 70.7717C69.0216 71.7821 69.8454 72.6011 70.8607 72.6003L70.8607 73.6003H70.8615L79.0581 73.6008V81.7442V81.7444Z" fill="#26DD9B" stroke="#26DD9B" stroke-width="2"/>
</svg>
