<svg width="310" height="310" viewBox="0 0 427 427" fill="none" xmlns="http://www.w3.org/2000/svg">
<g filter="url(#filter0_d_332_230)">
<circle cx="213.171" cy="209.171" r="113.171" fill="white"/>
</g>
<path d="M191.345 236.567H183.532C181.375 236.567 179.626 234.818 179.626 232.66C179.626 230.503 181.375 228.754 183.532 228.754H191.345C193.503 228.754 195.252 230.503 195.252 232.66C195.252 234.818 193.503 236.567 191.345 236.567Z" fill="url(#paint0_linear_332_230)"/>
<path d="M191.345 220.941H183.532C181.375 220.941 179.626 219.192 179.626 217.034C179.626 214.877 181.375 213.128 183.532 213.128H191.345C193.503 213.128 195.252 214.877 195.252 217.034C195.252 219.192 193.503 220.941 191.345 220.941Z" fill="url(#paint1_linear_332_230)"/>
<path d="M206.971 205.315H183.532C181.375 205.315 179.626 203.566 179.626 201.408C179.626 199.251 181.375 197.502 183.532 197.502H206.971C209.129 197.502 210.878 199.251 210.878 201.408C210.878 203.566 209.129 205.315 206.971 205.315Z" fill="url(#paint2_linear_332_230)"/>
<path d="M260.572 181.739C256.003 177.17 248.568 177.17 243.999 181.739L211.324 214.413C209.683 216.055 208.575 218.126 208.119 220.402L205.821 231.894C205.565 233.174 205.966 234.498 206.889 235.422C207.801 236.333 209.12 236.75 210.418 236.49L221.91 234.192C224.186 233.737 226.257 232.628 227.898 230.987L260.572 198.312C265.142 193.743 265.142 186.308 260.572 181.739ZM255.048 192.788L222.373 225.463C221.826 226.01 221.136 226.379 220.378 226.531C220.377 226.531 220.377 226.531 220.377 226.531L214.631 227.68L215.781 221.934C215.933 221.176 216.302 220.485 216.849 219.938L249.523 187.264C251.047 185.741 253.525 185.741 255.048 187.264C256.575 188.79 256.575 191.261 255.048 192.788Z" fill="url(#paint3_linear_332_230)"/>
<path d="M230.41 239.6C228.252 239.6 226.503 241.349 226.503 243.506V248.286C226.503 250.44 224.751 252.193 222.597 252.193H175.719C173.565 252.193 171.813 250.44 171.813 248.286V179.532C171.813 177.378 173.565 175.626 175.719 175.626H179.626V179.532C179.626 181.69 181.375 183.439 183.532 183.439C185.69 183.439 187.439 181.69 187.439 179.532V175.626H195.252V179.532C195.252 181.69 197.001 183.439 199.158 183.439C201.316 183.439 203.065 181.69 203.065 179.532V175.626H210.878V179.532C210.878 181.69 212.627 183.439 214.784 183.439C216.942 183.439 218.691 181.69 218.691 179.532V175.626H222.597C224.751 175.626 226.503 177.378 226.503 179.532V180.321C226.503 182.479 228.252 184.228 230.41 184.228C232.567 184.228 234.316 182.479 234.316 180.321V179.532C234.316 173.07 229.059 167.813 222.597 167.813H218.691V163.906C218.691 161.749 216.942 160 214.784 160C212.627 160 210.878 161.749 210.878 163.906V167.813H203.065V163.906C203.065 161.749 201.316 160 199.158 160C197.001 160 195.252 161.749 195.252 163.906V167.813H187.439V163.906C187.439 161.749 185.69 160 183.532 160C181.375 160 179.626 161.749 179.626 163.906V167.813H175.719C169.257 167.813 164 173.07 164 179.532V248.286C164 254.748 169.257 260.006 175.719 260.006H222.597C229.059 260.006 234.316 254.748 234.316 248.286V243.506C234.316 241.349 232.567 239.6 230.41 239.6Z" fill="url(#paint4_linear_332_230)"/>
<defs>
<filter id="filter0_d_332_230" x="0" y="0" width="426.342" height="426.342" filterUnits="userSpaceOnUse" color-interpolation-filters="sRGB">
<feFlood flood-opacity="0" result="BackgroundImageFix"/>
<feColorMatrix in="SourceAlpha" type="matrix" values="0 0 0 0 0 0 0 0 0 0 0 0 0 0 0 0 0 0 127 0" result="hardAlpha"/>
<feOffset dy="4"/>
<feGaussianBlur stdDeviation="50"/>
<feComposite in2="hardAlpha" operator="out"/>
<feColorMatrix type="matrix" values="0 0 0 0 0 0 0 0 0 0 0 0 0 0 0 0 0 0 0.1 0"/>
<feBlend mode="normal" in2="BackgroundImageFix" result="effect1_dropShadow_332_230"/>
<feBlend mode="normal" in="SourceGraphic" in2="effect1_dropShadow_332_230" result="shape"/>
</filter>
<linearGradient id="paint0_linear_332_230" x1="191.107" y1="228.794" x2="186.956" y2="240.501" gradientUnits="userSpaceOnUse">
<stop stop-color="#26DD9B"/>
<stop offset="1" stop-color="#74EE9B"/>
</linearGradient>
<linearGradient id="paint1_linear_332_230" x1="191.107" y1="213.168" x2="186.956" y2="224.875" gradientUnits="userSpaceOnUse">
<stop stop-color="#26DD9B"/>
<stop offset="1" stop-color="#74EE9B"/>
</linearGradient>
<linearGradient id="paint2_linear_332_230" x1="202.588" y1="197.542" x2="200.323" y2="210.319" gradientUnits="userSpaceOnUse">
<stop stop-color="#26DD9B"/>
<stop offset="1" stop-color="#74EE9B"/>
</linearGradient>
<linearGradient id="paint3_linear_332_230" x1="225.26" y1="177.438" x2="224.678" y2="236.563" gradientUnits="userSpaceOnUse">
<stop stop-color="#26DD9B"/>
<stop offset="1" stop-color="#74EE9B"/>
</linearGradient>
<linearGradient id="paint4_linear_332_230" x1="187.556" y1="158.5" x2="186.134" y2="259.99" gradientUnits="userSpaceOnUse">
<stop stop-color="#26DD9B"/>
<stop offset="1" stop-color="#74EE9B"/>
</linearGradient>
</defs>
</svg>
