<svg width="298.2" height="298.2" viewBox="0 0 426 426" fill="none" xmlns="http://www.w3.org/2000/svg">
<g filter="url(#filter0_d_332_230)">
<circle cx="213" cy="209" r="113" fill="white"/>
</g>
<path d="M191.208 220.752H183.406C181.252 220.752 179.506 219.006 179.506 216.852C179.506 214.697 181.252 212.951 183.406 212.951H191.208C193.362 212.951 195.108 214.697 195.108 216.852C195.108 219.006 193.362 220.752 191.208 220.752Z" fill="url(#paint0_linear_332_230)"/>
<path d="M206.81 205.15H183.406C181.252 205.15 179.506 203.403 179.506 201.249C179.506 199.095 181.252 197.349 183.406 197.349H206.81C208.964 197.349 210.71 199.095 210.71 201.249C210.71 203.403 208.964 205.15 206.81 205.15Z" fill="url(#paint1_linear_332_230)"/>
<path d="M191.208 236.354H183.406C181.252 236.354 179.506 234.608 179.506 232.454C179.506 230.3 181.252 228.553 183.406 228.553H191.208C193.362 228.553 195.108 230.3 195.108 232.454C195.108 234.608 193.362 236.354 191.208 236.354Z" fill="url(#paint2_linear_332_230)"/>
<path d="M230.213 239.383C228.059 239.383 226.312 241.129 226.312 243.283V248.056C226.312 250.207 224.563 251.957 222.412 251.957H175.605C173.454 251.957 171.704 250.207 171.704 248.056V179.406C171.704 177.255 173.454 175.506 175.605 175.506H179.506V179.406C179.506 181.56 181.252 183.307 183.406 183.307C185.56 183.307 187.307 181.56 187.307 179.406V175.506H195.108V179.406C195.108 181.56 196.854 183.307 199.008 183.307C201.163 183.307 202.909 181.56 202.909 179.406V175.506H210.71V179.406C210.71 181.56 212.456 183.307 214.611 183.307C216.765 183.307 218.511 181.56 218.511 179.406V175.506H222.412C224.563 175.506 226.312 177.255 226.312 179.406V180.194C226.312 182.348 228.059 184.094 230.213 184.094C232.367 184.094 234.114 182.348 234.114 180.194V179.406C234.114 172.954 228.864 167.704 222.412 167.704H218.511V163.804C218.511 161.65 216.765 159.903 214.611 159.903C212.456 159.903 210.71 161.65 210.71 163.804V167.704H202.909V163.804C202.909 161.65 201.163 159.903 199.008 159.903C196.854 159.903 195.108 161.65 195.108 163.804V167.704H187.307V163.804C187.307 161.65 185.56 159.903 183.406 159.903C181.252 159.903 179.506 161.65 179.506 163.804V167.704H175.605C169.153 167.704 163.903 172.954 163.903 179.406V248.056C163.903 254.508 169.153 259.758 175.605 259.758H222.412C228.864 259.758 234.114 254.508 234.114 248.056V243.283C234.114 241.129 232.367 239.383 230.213 239.383Z" fill="url(#paint3_linear_332_230)"/>
<path d="M260.33 181.609C255.767 177.047 248.343 177.047 243.781 181.609L211.156 214.234C209.517 215.873 208.41 217.941 207.956 220.214L205.661 231.688C205.405 232.967 205.805 234.289 206.728 235.211C207.637 236.121 208.954 236.537 210.251 236.278L221.725 233.983C223.998 233.529 226.066 232.422 227.704 230.783L260.33 198.158C264.892 193.595 264.892 186.172 260.33 181.609ZM254.814 192.642L222.188 225.267C221.642 225.813 220.953 226.182 220.195 226.334C220.195 226.334 220.195 226.334 220.195 226.334L214.458 227.481L215.605 221.744C215.757 220.986 216.126 220.297 216.672 219.751L249.297 187.126C250.818 185.605 253.293 185.605 254.814 187.126C256.338 188.65 256.338 191.117 254.814 192.642Z" fill="url(#paint4_linear_332_230)"/>
<defs>
<filter id="filter0_d_332_230" x="0" y="0" width="426" height="426" filterUnits="userSpaceOnUse" color-interpolation-filters="sRGB">
<feFlood flood-opacity="0" result="BackgroundImageFix"/>
<feColorMatrix in="SourceAlpha" type="matrix" values="0 0 0 0 0 0 0 0 0 0 0 0 0 0 0 0 0 0 127 0" result="hardAlpha"/>
<feOffset dy="4"/>
<feGaussianBlur stdDeviation="50"/>
<feComposite in2="hardAlpha" operator="out"/>
<feColorMatrix type="matrix" values="0 0 0 0 0 0 0 0 0 0 0 0 0 0 0 0 0 0 0.1 0"/>
<feBlend mode="normal" in2="BackgroundImageFix" result="effect1_dropShadow_332_230"/>
<feBlend mode="normal" in="SourceGraphic" in2="effect1_dropShadow_332_230" result="shape"/>
</filter>
<linearGradient id="paint0_linear_332_230" x1="187.307" y1="212.951" x2="187.307" y2="220.752" gradientUnits="userSpaceOnUse">
<stop stop-color="#26DD9B"/>
<stop offset="1" stop-color="#6EED9B"/>
</linearGradient>
<linearGradient id="paint1_linear_332_230" x1="195.108" y1="197.349" x2="195.108" y2="205.15" gradientUnits="userSpaceOnUse">
<stop stop-color="#26DD9B"/>
<stop offset="1" stop-color="#6EED9B"/>
</linearGradient>
<linearGradient id="paint2_linear_332_230" x1="187.307" y1="228.553" x2="187.307" y2="236.354" gradientUnits="userSpaceOnUse">
<stop stop-color="#26DD9B"/>
<stop offset="1" stop-color="#6EED9B"/>
</linearGradient>
<linearGradient id="paint3_linear_332_230" x1="199.008" y1="159.903" x2="199.008" y2="259.758" gradientUnits="userSpaceOnUse">
<stop stop-color="#26DD9B"/>
<stop offset="1" stop-color="#6EED9B"/>
</linearGradient>
<linearGradient id="paint4_linear_332_230" x1="234.668" y1="178.188" x2="234.668" y2="236.354" gradientUnits="userSpaceOnUse">
<stop stop-color="#26DD9B"/>
<stop offset="1" stop-color="#6EED9B"/>
</linearGradient>
</defs>
</svg>
