<svg width="94.5" height="63" viewBox="0 0 135 91" fill="none" xmlns="http://www.w3.org/2000/svg">
<path d="M97.2057 50.9458C97.2057 64.1478 88.672 74.9515 78.2421 74.9515H67.1159C64.2258 74.9515 61.4797 74.1216 59.0228 72.6399C51.9286 68.369 48.1523 59.5069 48.1523 50.9458C48.1523 44.6748 50.4817 39.0601 54.1007 35.4211C56.1824 33.3261 57.8191 30.6741 58.9323 27.7062C59.7347 25.5696 60.2664 23.2722 60.5023 20.8953C60.595 19.9691 60.6417 19.0287 60.6417 18.0824C60.6417 9.7023 66.0598 2.84692 72.6794 2.84692C75.9899 2.84692 78.9993 4.56003 81.1811 7.3225C83.3629 10.0842 84.7163 13.8924 84.7163 18.0824C84.7163 24.8162 87.0947 31.231 91.2588 35.4211C93.0668 37.241 94.5537 39.554 95.589 42.1964C96.6235 44.8402 97.2057 47.8103 97.2057 50.9458Z" fill="#35E298"/>
<path d="M71.656 43.3357C71.5084 47.8758 70.2009 52.3232 67.968 56.3775L59.0235 72.6401C51.9286 68.3692 48.1523 59.5071 48.1523 50.946C48.1523 44.675 50.4817 39.0603 54.1015 35.4213C56.1824 33.3263 57.8191 30.6743 58.933 27.7064C59.7354 25.5698 60.2664 23.2723 60.5023 20.8955C64.0471 22.7985 67.83 26.3389 70.0927 32.911C71.2592 36.3031 71.7724 39.8257 71.656 43.3357Z" fill="#1AB975"/>
<path d="M87.3472 51.7721C87.3472 59.6635 80.9501 66.0613 73.0587 66.0613C65.1673 66.0613 58.7695 59.6635 58.7695 51.7721C58.7695 43.8807 65.1673 37.4829 73.0587 37.4829C80.9501 37.4829 87.3472 43.8807 87.3472 51.7721Z" fill="#AE583E"/>
<path d="M71.2763 37.5933C58.6639 39.1625 54.278 55.2738 64.2926 63.0562L67.9658 56.3773C70.198 52.323 71.5062 47.8756 71.6538 43.3355C71.7168 41.417 71.593 39.4955 71.2763 37.5933Z" fill="#7C3F2C"/>
<path d="M30.8356 13.323C30.0888 9.92274 26.2377 -2.39009 9.96615 0.410941C9.49226 0.492517 9.22751 1.00571 9.43442 1.44029C11.1201 4.97996 18.2691 18.0989 30.1696 14.4495C30.6509 14.3019 30.9431 13.8147 30.8356 13.323Z" fill="#1ED688"/>
<path d="M30.1679 14.4488C18.2689 18.0997 11.1199 4.98073 9.43421 1.44032C9.22805 1.005 9.49132 0.491808 9.9652 0.410973C11.3579 0.171435 12.6624 0.0416546 13.8801 0.00976562C16.3764 4.41415 21.9651 12.1023 30.3378 11.5098C30.5751 12.2381 30.7345 12.8632 30.8354 13.3238C30.9437 13.8154 30.65 14.3012 30.1679 14.4488Z" fill="#1AB975"/>
<path d="M31.6333 24.1555C30.8182 24.1555 30.1582 23.4955 30.1582 22.6805V1.61079C30.1582 0.795769 30.8182 0.135742 31.6333 0.135742C32.4483 0.135742 33.1083 0.795769 33.1083 1.61079V22.6805C33.1083 23.4955 32.4483 24.1555 31.6333 24.1555Z" fill="#C0694E"/>
<path d="M59.5596 56.3763L49.1772 75.2538C46.4918 79.653 40.3825 81.2512 35.5621 78.7371C33.0918 77.449 30.1766 77.449 27.7033 78.7371C22.9942 81.1933 16.8478 79.765 14.0905 75.2538L3.70581 56.3763C-0.547286 48.6466 -0.974449 40.3533 1.58186 32.9105C4.77223 23.6368 10.9965 20.4012 15.2963 19.2836C17.2697 18.7704 18.8397 18.7036 19.5264 18.7036C19.7697 18.7036 19.9017 18.7111 19.9017 18.7111C21.8454 18.7111 23.7083 19.0381 25.4259 19.6336C27.1412 20.2299 28.7149 21.0975 30.0817 22.1773C30.5281 22.5592 31.0813 22.7521 31.6338 22.7521C32.1871 22.7521 32.7396 22.5592 33.186 22.1773C34.5535 21.0975 36.125 20.2299 37.8425 19.6336C39.5593 19.0381 41.4208 18.7111 43.366 18.7111C43.366 18.7111 56.5124 17.8731 61.6843 32.9105C64.2607 40.4015 63.7897 48.6963 59.5596 56.3763Z" fill="#C42D2D"/>
<path d="M59.5608 56.3763L49.1783 75.2538C46.493 79.653 40.3837 81.2512 35.5633 78.7371C33.093 77.449 30.1777 77.449 27.7045 78.7371C26.3792 79.4291 24.9613 79.8021 23.576 79.9C23.4966 79.742 15.2522 61.6106 13.1498 56.9882C6.86322 43.1676 9.30087 27.7668 15.2975 19.2836C17.2709 18.7704 18.8408 18.7036 19.5276 18.7036C19.7708 18.7036 19.9028 18.7111 19.9028 18.7111C21.8466 18.7111 23.7095 19.0381 25.427 19.6336C27.1424 20.2299 28.716 21.0975 30.0828 22.1773C30.5293 22.5592 31.0825 22.7521 31.635 22.7521C32.1882 22.7521 32.7407 22.5592 33.1872 22.1773C34.5547 21.0975 36.1261 20.2299 37.8437 19.6336C39.5605 19.0381 41.4219 18.7111 43.3671 18.7111C43.3671 18.7111 56.5135 17.8731 61.6855 32.9105C64.2618 40.4015 63.7909 48.6963 59.5608 56.3763Z" fill="#F44545"/>
<path d="M12.906 61.0755C11.25 61.9491 10.616 63.9996 11.4896 65.6564C12.5152 67.5986 13.8108 69.2858 15.2443 70.746L3.93413 69.486C2.07344 69.2791 0.39668 70.6192 0.189032 72.4806C-0.0178756 74.3413 1.32294 76.018 3.18362 76.2257L14.4931 77.4857C12.7733 78.5951 11.1381 79.956 9.71047 81.6246C8.4935 83.0477 8.66036 85.188 10.0835 86.4049C11.5066 87.6219 13.6469 87.455 14.8639 86.0319C18.738 81.5022 25.7617 79.5592 31.7049 79.3649C34.064 79.2885 35.631 76.8746 34.7284 74.6891C34.3206 73.6968 33.4418 72.9189 32.3338 72.6712C32.2263 72.6467 21.4805 70.0585 17.4869 62.4912C16.6126 60.8352 14.562 60.2011 12.906 61.0755Z" fill="#1AB975"/>
<path d="M96.8274 83.2666C96.3432 87.6102 92.6744 90.8992 88.3034 90.9073C63.2417 90.9563 80.7576 90.9229 40.4204 91C32.0402 91.0156 25.5112 83.7331 26.4397 75.4063C26.6443 73.5768 27.1894 71.8748 28 70.3523C30.4035 65.8434 35.1587 62.9163 40.3736 62.9163C41.4082 62.9163 42.4627 63.0305 43.5188 63.273C79.0594 71.3928 81.8166 72.0224 84.1252 72.5497L87.0249 73.2127L90.1997 73.9387C93.6637 74.7278 96.1956 77.5303 96.7599 80.8846C96.8919 81.6536 96.9179 82.4545 96.8274 83.2666Z" fill="#FFA90B"/>
<path d="M96.7619 80.8846C95.1882 82.9425 92.7098 84.2544 89.9518 84.2581C64.8923 84.3078 82.4074 84.2744 42.0709 84.3508C34.2299 84.3649 28.0116 77.993 28.002 70.3523C30.4055 65.8434 35.1599 62.9163 40.3749 62.9163C40.9355 62.9163 41.5006 62.9496 42.0687 63.0208C42.5507 63.0779 43.0365 63.1625 43.5207 63.273L44.9706 63.603C82.5105 72.1818 49.0442 64.5337 84.1272 72.5497L87.0261 73.2127L90.2017 73.9387C93.6657 74.7278 96.1975 77.5303 96.7619 80.8846Z" fill="#FFB52D"/>
<path d="M87.0258 73.2123L85.9067 84.6159C85.8222 85.3694 85.1851 85.9278 84.4435 85.9278C84.3879 85.9278 84.333 85.9241 84.2782 85.9182C83.4676 85.8277 82.8854 85.1002 82.9737 84.2896L84.1269 72.5493L87.0258 73.2123Z" fill="#F29500"/>
<path d="M46.7356 81.6417L45.744 90.9896L42.7754 90.9956L43.8025 81.3154C43.893 80.5049 44.6205 79.9205 45.4311 80.0109C46.2416 80.1014 46.826 80.8312 46.7356 81.6417Z" fill="#F29500"/>
<path d="M73.7368 84.6493L73.0819 90.9366L70.1133 90.9425L70.8037 84.323C70.8942 83.5124 71.6239 82.9303 72.4345 83.0207C73.2428 83.1112 73.8272 83.8387 73.7368 84.6493Z" fill="#F29500"/>
<path d="M62.0562 67.508L61.6142 72.4626C61.5296 73.2161 60.8918 73.7752 60.1502 73.7752C60.0954 73.7752 60.0405 73.7708 59.9849 73.7649C59.1743 73.6744 58.5906 72.9469 58.6811 72.1363L59.155 66.845L62.0562 67.508Z" fill="#F29500"/>
<path d="M56.2617 84.9721L55.6417 90.9701L52.6738 90.9761L53.3287 84.6457C53.4191 83.8352 54.1511 83.2508 54.9594 83.3413C55.7678 83.4317 56.3522 84.1615 56.2617 84.9721Z" fill="#F29500"/>
<path d="M44.9693 63.6027L43.9482 72.7622C43.8636 73.5157 43.2244 74.0741 42.4827 74.0741C42.4279 74.0741 42.373 74.0704 42.3174 74.0645C41.5075 73.974 40.9246 73.2435 41.0151 72.4352L42.0541 63.1088C42.0578 63.0798 42.0623 63.0502 42.0682 63.0205C42.5495 63.0776 43.036 63.1622 43.5195 63.2727L44.9693 63.6027Z" fill="#F29500"/>
<path d="M112.881 66.6598L132.821 81.3565C134.683 82.7273 135.451 85.14 134.726 87.335C134 89.5299 131.945 91.0089 129.633 90.9999C128.209 90.9995 126.843 90.4365 125.833 89.4335L107.65 71.3044L105.035 67.8448L109.121 63.7585L112.881 66.6598Z" fill="#A17861"/>
<path d="M88.6897 77.3793C106.744 77.3793 121.379 62.7437 121.379 44.6897C121.379 26.6357 106.744 12 88.6897 12C70.6357 12 56 26.6357 56 44.6897C56 62.7437 70.6357 77.3793 88.6897 77.3793Z" fill="#CDD1DA"/>
<path d="M88.6906 71.931C103.736 71.931 115.932 59.7346 115.932 44.6896C115.932 29.6446 103.736 17.4482 88.6906 17.4482C73.6456 17.4482 61.4492 29.6446 61.4492 44.6896C61.4492 59.7346 73.6456 71.931 88.6906 71.931Z" fill="#74EE9B"/>
<g clip-path="url(#clip0_871_157)">
<path d="M112 46.272C112 61.8907 101.904 74.6721 89.5648 74.6721H76.4018C72.9827 74.6721 69.7338 73.6903 66.8271 71.9374C58.4343 66.8846 53.9668 56.4002 53.9668 46.272C53.9668 38.853 56.7226 32.2105 61.0041 27.9053C63.4668 25.4268 65.4032 22.2893 66.7201 18.7781C67.6694 16.2505 68.2985 13.5324 68.5775 10.7205C68.6871 9.62464 68.7424 8.51215 68.7424 7.39264C68.7424 -2.52152 75.1524 -10.6318 82.9837 -10.6318C86.9002 -10.6318 90.4606 -8.60514 93.0418 -5.33697C95.623 -2.06968 97.2241 2.43556 97.2241 7.39264C97.2241 15.3591 100.038 22.9482 104.964 27.9053C107.103 30.0583 108.862 32.7948 110.087 35.9209C111.311 39.0487 112 42.5625 112 46.272Z" fill="#35E298"/>
<path d="M81.773 37.2687C81.5984 42.6399 80.0516 47.9015 77.4098 52.698L66.828 71.9376C58.4343 66.8849 53.9668 56.4004 53.9668 46.2722C53.9668 38.8532 56.7226 32.2108 61.005 27.9055C63.4668 25.427 65.4032 22.2896 66.721 18.7784C67.6703 16.2507 68.2985 13.5326 68.5775 10.7207C72.7712 12.972 77.2467 17.1605 79.9235 24.9357C81.3036 28.9487 81.9107 33.1162 81.773 37.2687Z" fill="#1AB975"/>
<path d="M100.336 47.2495C100.336 56.5854 92.7683 64.1544 83.4323 64.1544C74.0963 64.1544 66.5273 56.5854 66.5273 47.2495C66.5273 37.9135 74.0963 30.3445 83.4323 30.3445C92.7683 30.3445 100.336 37.9135 100.336 47.2495Z" fill="#AE583E"/>
<path d="M81.3245 30.4751C66.4032 32.3316 61.2145 51.3922 73.0624 60.5992L77.4079 52.6977C80.0488 47.9012 81.5965 42.6397 81.771 37.2685C81.8456 34.9988 81.6991 32.7255 81.3245 30.4751Z" fill="#7C3F2C"/>
<path d="M67.4625 52.6964L55.1795 75.0296C52.0026 80.2341 44.7749 82.1248 39.072 79.1506C36.1496 77.6266 32.7007 77.6266 29.7747 79.1506C24.2034 82.0564 16.9319 80.3666 13.6699 75.0296L1.38419 52.6964C-3.64747 43.5517 -4.15283 33.7402 -1.12857 24.935C2.64583 13.9636 10.0095 10.1357 15.0964 8.81351C17.4311 8.20638 19.2885 8.12742 20.1009 8.12742C20.3887 8.12742 20.5448 8.13619 20.5448 8.13619C22.8444 8.13619 25.0483 8.52311 27.0803 9.22763C29.1096 9.93302 30.9714 10.9595 32.5884 12.237C33.1165 12.6888 33.771 12.9169 34.4247 12.9169C35.0792 12.9169 35.7328 12.6888 36.261 12.237C37.8788 10.9595 39.738 9.93302 41.7699 9.22763C43.801 8.52311 46.0032 8.13619 48.3045 8.13619C48.3045 8.13619 63.8575 7.14477 69.9762 24.935C73.0241 33.7972 72.467 43.6105 67.4625 52.6964Z" fill="#C42D2D"/>
<path d="M67.4644 52.6964L55.1814 75.0296C52.0045 80.2341 44.7768 82.1248 39.0739 79.1506C36.1514 77.6266 32.7025 77.6266 29.7765 79.1506C28.2087 79.9691 26.5312 80.4104 24.8923 80.5263C24.7984 80.3394 15.0448 58.8888 12.5575 53.4202C5.12011 37.0698 8.00399 18.8496 15.0983 8.81351C17.433 8.20638 19.2903 8.12742 20.1028 8.12742C20.3906 8.12742 20.5467 8.13619 20.5467 8.13619C22.8463 8.13619 25.0502 8.52311 27.0822 9.22763C29.1115 9.93302 30.9733 10.9595 32.5902 12.237C33.1184 12.6888 33.7729 12.9169 34.4266 12.9169C35.0811 12.9169 35.7347 12.6888 36.2629 12.237C37.8807 10.9595 39.7398 9.93302 41.7718 9.22763C43.8029 8.52311 46.0051 8.13619 48.3064 8.13619C48.3064 8.13619 63.8593 7.14477 69.978 24.935C73.026 33.7972 72.4689 43.6105 67.4644 52.6964Z" fill="#F44545"/>
<path d="M111.553 84.5092C110.98 89.6479 106.64 93.539 101.468 93.5487C71.819 93.6066 92.5413 93.5671 44.82 93.6583C34.9058 93.6768 27.1816 85.0611 28.28 75.2101C28.5222 73.0456 29.167 71.0321 30.126 69.2309C32.9695 63.8965 38.5951 60.4336 44.7647 60.4336C45.9886 60.4336 47.2362 60.5687 48.4856 60.8556C90.5322 70.4618 93.7942 71.2067 96.5254 71.8305L99.9559 72.6149L103.712 73.4738C107.81 74.4073 110.805 77.7228 111.473 81.6911C111.629 82.601 111.66 83.5485 111.553 84.5092Z" fill="#FFA90B"/>
<path d="M111.476 81.6911C109.614 84.1258 106.682 85.6779 103.419 85.6822C73.7723 85.741 94.4938 85.7016 46.7733 85.7919C37.497 85.8086 30.1403 78.2703 30.1289 69.2309C32.9724 63.8965 38.5972 60.4336 44.7668 60.4336C45.4301 60.4336 46.0986 60.4731 46.7707 60.5573C47.3409 60.6249 47.9156 60.7249 48.4885 60.8556L50.2038 61.246C94.6157 71.3953 55.0231 62.3471 96.5284 71.8305L99.958 72.6149L103.715 73.4738C107.813 74.4073 110.808 77.7228 111.476 81.6911Z" fill="#FFB52D"/>
<path d="M99.9587 72.6147L98.6347 86.1058C98.5347 86.9972 97.781 87.6579 96.9037 87.6579C96.8379 87.6579 96.773 87.6535 96.708 87.6465C95.7491 87.5394 95.0604 86.6788 95.1648 85.7198L96.5291 71.8303L99.9587 72.6147Z" fill="#F29500"/>
<path d="M70.4179 65.8661L69.895 71.7278C69.7949 72.6192 69.0404 73.2807 68.1631 73.2807C68.0981 73.2807 68.0332 73.2754 67.9674 73.2684C67.0084 73.1614 66.318 72.3007 66.425 71.3417L66.9856 65.0818L70.4179 65.8661Z" fill="#F29500"/>
</g>
<path d="M88.6906 71.931C103.736 71.931 115.932 59.7346 115.932 44.6896C115.932 29.6446 103.736 17.4482 88.6906 17.4482C73.6456 17.4482 61.4492 29.6446 61.4492 44.6896C61.4492 59.7346 73.6456 71.931 88.6906 71.931Z" fill="#B2B2B2" fill-opacity="0.4"/>
<defs>
<clipPath id="clip0_871_157">
<rect x="61" y="17" width="55" height="55" rx="27.5" fill="white"/>
</clipPath>
</defs>
</svg>
