<svg width="60" height="60" viewBox="0 0 60 60" fill="none" xmlns="http://www.w3.org/2000/svg">
<path d="M43.2028 35.9204C43.2028 41.7882 39.4099 46.59 34.7742 46.59H29.829C28.5445 46.59 27.3239 46.2212 26.2319 45.5626C23.0788 43.6644 21.4004 39.7255 21.4004 35.9204C21.4004 33.1332 22.4357 30.6377 24.0442 29.0202C24.9695 28.0891 25.6969 26.9104 26.1917 25.5913C26.5483 24.6416 26.7847 23.6205 26.8895 22.5641C26.9307 22.1524 26.9514 21.7344 26.9514 21.3138C26.9514 17.5892 29.3596 14.5422 32.3017 14.5422C33.7731 14.5422 35.1107 15.3036 36.0805 16.5315C37.0502 17.7589 37.6517 19.4515 37.6517 21.3138C37.6517 24.3068 38.7088 27.1579 40.5596 29.0202C41.3632 29.8291 42.0241 30.8572 42.4842 32.0316C42.944 33.2067 43.2028 34.5268 43.2028 35.9204Z" fill="#35E298"/>
<path d="M31.8469 32.5378C31.7813 34.5557 31.2002 36.5324 30.2077 38.3344L26.2322 45.5625C23.0788 43.6643 21.4004 39.7254 21.4004 35.9203C21.4004 33.1331 22.4357 30.6376 24.0446 29.0201C24.9695 28.089 25.6969 26.9103 26.192 25.5911C26.5486 24.6415 26.7847 23.6204 26.8895 22.564C28.465 23.4098 30.1464 24.9833 31.1521 27.9044C31.6705 29.412 31.8986 30.9777 31.8469 32.5378Z" fill="#1AB975"/>
<path d="M38.8228 36.2878C38.8228 39.7952 35.9795 42.6388 32.4721 42.6388C28.9647 42.6388 26.1211 39.7952 26.1211 36.2878C26.1211 32.7804 28.9647 29.9368 32.4721 29.9368C35.9795 29.9368 38.8228 32.7804 38.8228 36.2878Z" fill="#AE583E"/>
<path d="M31.6792 29.9858C26.0735 30.6833 24.1241 37.8442 28.5753 41.3032L30.2078 38.3347C31.2 36.5327 31.7814 34.556 31.847 32.538C31.875 31.6853 31.82 30.8313 31.6792 29.9858Z" fill="#7C3F2C"/>
<path d="M13.7058 19.1984C13.3738 17.6871 11.6621 12.2145 4.43006 13.4595C4.21944 13.4958 4.10176 13.7239 4.19373 13.917C4.94294 15.4903 8.12043 21.3212 13.4098 19.6991C13.6237 19.6335 13.7535 19.417 13.7058 19.1984Z" fill="#1ED688"/>
<path d="M13.409 19.6989C8.12034 21.3215 4.94285 15.4907 4.19364 13.9171C4.102 13.7236 4.21902 13.4955 4.42964 13.4596C5.04866 13.3531 5.62845 13.2954 6.16968 13.2812C7.27916 15.2388 9.76314 18.656 13.4845 18.3926C13.59 18.7163 13.6608 18.9941 13.7057 19.1988C13.7538 19.4174 13.6233 19.6333 13.409 19.6989Z" fill="#1AB975"/>
<path d="M14.0599 24.0133C13.6977 24.0133 13.4043 23.7199 13.4043 23.3577V13.993C13.4043 13.6308 13.6977 13.3374 14.0599 13.3374C14.4221 13.3374 14.7155 13.6308 14.7155 13.993V23.3577C14.7155 23.7199 14.4221 24.0133 14.0599 24.0133Z" fill="#C0694E"/>
<path d="M26.472 38.3342L21.8574 46.7245C20.6639 48.6798 17.9485 49.3901 15.806 48.2727C14.7081 47.7002 13.4124 47.7002 12.3131 48.2727C10.2201 49.3644 7.4882 48.7296 6.26269 46.7245L1.64709 38.3342C-0.243248 34.8986 -0.433106 31.2125 0.703076 27.9045C2.12108 23.7826 4.88754 22.3445 6.79865 21.8478C7.67575 21.6197 8.37355 21.59 8.67877 21.59C8.78689 21.59 8.84556 21.5933 8.84556 21.5933C9.70948 21.5933 10.5375 21.7387 11.3009 22.0034C12.0633 22.2684 12.7627 22.654 13.3702 23.134C13.5686 23.3037 13.8145 23.3894 14.0601 23.3894C14.306 23.3894 14.5515 23.3037 14.75 23.134C15.3578 22.654 16.0562 22.2684 16.8196 22.0034C17.5827 21.7387 18.41 21.5933 19.2746 21.5933C19.2746 21.5933 25.1177 21.2209 27.4164 27.9045C28.5615 31.2339 28.3522 34.9207 26.472 38.3342Z" fill="#C42D2D"/>
<path d="M26.4726 38.3342L21.858 46.7245C20.6645 48.6798 17.9491 49.3901 15.8066 48.2727C14.7086 47.7002 13.4129 47.7002 12.3137 48.2727C11.7246 48.5802 11.0944 48.746 10.4787 48.7895C10.4434 48.7193 6.77909 40.6606 5.84464 38.6061C3.05049 32.4634 4.13393 25.6183 6.7992 21.8478C7.67631 21.6197 8.3741 21.59 8.67932 21.59C8.78744 21.59 8.84611 21.5933 8.84611 21.5933C9.71003 21.5933 10.538 21.7387 11.3014 22.0034C12.0638 22.2684 12.7633 22.654 13.3707 23.134C13.5692 23.3037 13.8151 23.3894 14.0606 23.3894C14.3065 23.3894 14.5521 23.3037 14.7505 23.134C15.3583 22.654 16.0568 22.2684 16.8202 22.0034C17.5832 21.7387 18.4105 21.5933 19.2751 21.5933C19.2751 21.5933 25.1182 21.2209 27.4169 27.9045C28.562 31.2339 28.3527 34.9207 26.4726 38.3342Z" fill="#F44545"/>
<path d="M5.73582 40.4227C4.99979 40.8109 4.71797 41.7223 5.10625 42.4587C5.56211 43.322 6.13795 44.0718 6.7751 44.7208L1.74814 44.1608C0.921132 44.0689 0.175873 44.6645 0.0835804 45.4918C-0.00838219 46.3188 0.587562 47.0641 1.41457 47.1564L6.4412 47.7164C5.67682 48.2095 4.95002 48.8143 4.31551 49.556C3.77461 50.1885 3.84877 51.1398 4.4813 51.6807C5.11384 52.2216 6.0651 52.1474 6.606 51.5149C8.32791 49.5016 11.4497 48.638 14.0912 48.5516C15.1397 48.5177 15.8362 47.4448 15.4351 46.4734C15.2538 46.0324 14.8632 45.6866 14.3707 45.5765C14.3229 45.5656 9.54683 44.4153 7.77185 41.0519C7.38323 40.3159 6.47185 40.034 5.73582 40.4227Z" fill="#1AB975"/>
<path d="M43.0348 50.2857C42.8196 52.2162 41.189 53.6781 39.2462 53.6817C28.1072 53.7035 35.8924 53.6886 17.964 53.7229C14.2393 53.7298 11.3374 50.493 11.7501 46.7921C11.8411 45.9789 12.0833 45.2225 12.4436 44.5458C13.5119 42.5417 15.6254 41.2407 17.9432 41.2407C18.403 41.2407 18.8718 41.2915 19.3411 41.3993C35.1376 45.0082 36.3631 45.2881 37.3892 45.5224L38.678 45.8171L40.0891 46.1398C41.6287 46.4905 42.754 47.7361 43.0048 49.227C43.0635 49.5688 43.0751 49.9248 43.0348 50.2857Z" fill="#FFA90B"/>
<path d="M43.0066 49.227C42.3071 50.1416 41.2055 50.7247 39.9797 50.7264C28.8417 50.7485 36.6265 50.7336 18.6984 50.7676C15.2134 50.7738 12.4496 47.9418 12.4453 44.5458C13.5136 42.5417 15.6268 41.2407 17.9446 41.2407C18.1938 41.2407 18.445 41.2556 18.6975 41.2872C18.9117 41.3126 19.1276 41.3502 19.3428 41.3993L19.9872 41.5459C36.6723 45.3589 21.7978 41.9596 37.3909 45.5224L38.6794 45.8171L40.0908 46.1398C41.6304 46.4905 42.7557 47.7361 43.0066 49.227Z" fill="#FFB52D"/>
<path d="M38.6799 45.8171L38.1826 50.8856C38.145 51.2205 37.8618 51.4687 37.5322 51.4687C37.5075 51.4687 37.4831 51.4671 37.4587 51.4644C37.0985 51.4242 36.8397 51.1009 36.8789 50.7406L37.3915 45.5225L38.6799 45.8171Z" fill="#F29500"/>
<path d="M20.7699 49.5636L20.3292 53.7184L19.0098 53.7211L19.4663 49.4186C19.5065 49.0583 19.8298 48.7986 20.1901 48.8388C20.5504 48.879 20.8101 49.2034 20.7699 49.5636Z" fill="#F29500"/>
<path d="M32.7726 50.9006L32.4816 53.695L31.1621 53.6977L31.469 50.7555C31.5092 50.3953 31.8335 50.1365 32.1938 50.1767C32.5531 50.2169 32.8128 50.5403 32.7726 50.9006Z" fill="#F29500"/>
<path d="M27.5804 43.2817L27.3839 45.4839C27.3463 45.8188 27.0629 46.0673 26.7332 46.0673C26.7089 46.0673 26.6845 46.0653 26.6597 46.0627C26.2995 46.0225 26.0401 45.6991 26.0803 45.3389L26.2909 42.9871L27.5804 43.2817Z" fill="#F29500"/>
<path d="M25.0068 51.0439L24.7312 53.7098L23.4121 53.7124L23.7032 50.8988C23.7434 50.5386 24.0687 50.2788 24.428 50.319C24.7873 50.3593 25.047 50.6836 25.0068 51.0439Z" fill="#F29500"/>
<path d="M19.9862 41.5459L19.5324 45.6169C19.4948 45.9518 19.2106 46.2 18.881 46.2C18.8566 46.2 18.8322 46.1984 18.8075 46.1957C18.4476 46.1555 18.1885 45.8309 18.2287 45.4716L18.6905 41.3263C18.6922 41.3135 18.6941 41.3003 18.6968 41.2871C18.9107 41.3125 19.1269 41.3501 19.3418 41.3992L19.9862 41.5459Z" fill="#F29500"/>
<path d="M50.1706 42.9045L59.0335 49.4366C59.8609 50.0459 60.2024 51.1183 59.8799 52.0938C59.5573 53.0694 58.6438 53.7268 57.6163 53.7228C56.9835 53.7226 56.3764 53.4724 55.9273 53.0266L47.8459 44.9688L46.6836 43.4312L48.4998 41.615L50.1706 42.9045Z" fill="#A17861"/>
<path d="M39.418 47.6688C47.4423 47.6688 53.9474 41.1638 53.9474 33.1394C53.9474 25.1151 47.4423 18.6101 39.418 18.6101C31.3937 18.6101 24.8887 25.1151 24.8887 33.1394C24.8887 41.1638 31.3937 47.6688 39.418 47.6688Z" fill="#CDD1DA"/>
<path d="M39.4183 45.2473C46.1053 45.2473 51.5261 39.8265 51.5261 33.1395C51.5261 26.4526 46.1053 21.0317 39.4183 21.0317C32.7314 21.0317 27.3105 26.4526 27.3105 33.1395C27.3105 39.8265 32.7314 45.2473 39.4183 45.2473Z" fill="#74EE9B"/>
<g clip-path="url(#clip0_952_212)">
<path d="M49.7798 33.8429C49.7798 40.7849 45.2926 46.4657 39.8083 46.4657H33.9578C32.4382 46.4657 30.9942 46.0293 29.7023 45.2502C25.972 43.0045 23.9863 38.3445 23.9863 33.8429C23.9863 30.5454 25.2112 27.5931 27.1141 25.6796C28.2087 24.578 29.0694 23.1835 29.6547 21.6229C30.0766 20.4995 30.3562 19.2914 30.4802 18.0416C30.529 17.5545 30.5535 17.0601 30.5535 16.5625C30.5535 12.156 33.4025 8.55127 36.8833 8.55127C38.624 8.55127 40.2065 9.45206 41.3537 10.9046C42.5009 12.3568 43.2126 14.3592 43.2126 16.5625C43.2126 20.1033 44.4632 23.4764 46.6528 25.6796C47.6035 26.6365 48.3854 27.8528 48.9297 29.2422C49.4737 30.6324 49.7798 32.1942 49.7798 33.8429Z" fill="#35E298"/>
<path d="M36.3451 29.8411C36.2675 32.2284 35.58 34.567 34.4059 36.6988L29.7027 45.2501C25.972 43.0044 23.9863 38.3445 23.9863 33.8428C23.9863 30.5454 25.2112 27.593 27.1145 25.6795C28.2087 24.5779 29.0694 23.1834 29.6551 21.6228C30.077 20.4994 30.3562 19.2913 30.4802 18.0415C32.3442 19.0421 34.3334 20.9038 35.5231 24.3595C36.1365 26.1432 36.4064 27.9955 36.3451 29.8411Z" fill="#1AB975"/>
<path d="M44.5952 34.2773C44.5952 38.4268 41.2315 41.7909 37.082 41.7909C32.9325 41.7909 29.5684 38.4268 29.5684 34.2773C29.5684 30.1278 32.9325 26.7637 37.082 26.7637C41.2315 26.7637 44.5952 30.1278 44.5952 34.2773Z" fill="#AE583E"/>
<path d="M36.1456 26.8218C29.5136 27.6469 27.2074 36.1187 32.4734 40.2108L34.4048 36.6989C35.5786 34.567 36.2665 32.2285 36.3441 29.8412C36.3772 28.8324 36.3121 27.822 36.1456 26.8218Z" fill="#7C3F2C"/>
<path d="M29.984 36.6982L24.5246 46.6245C23.1126 48.9377 19.9002 49.7781 17.3655 48.4561C16.0665 47.7788 14.5336 47.7788 13.2331 48.4561C10.7569 49.7476 7.525 48.9966 6.07515 46.6245L0.614624 36.6982C-1.62176 32.6337 -1.84637 28.2729 -0.502204 24.3593C1.17538 19.4829 4.44826 17.7816 6.70921 17.1939C7.74688 16.9241 8.57241 16.889 8.93351 16.889C9.06141 16.889 9.13083 16.8929 9.13083 16.8929C10.1529 16.8929 11.1325 17.0648 12.0356 17.378C12.9376 17.6915 13.765 18.1477 14.4837 18.7155C14.7185 18.9163 15.0094 19.0177 15.2999 19.0177C15.5908 19.0177 15.8813 18.9163 16.1161 18.7155C16.8351 18.1477 17.6615 17.6915 18.5646 17.378C19.4673 17.0648 20.4461 16.8929 21.469 16.8929C21.469 16.8929 28.3817 16.4522 31.1012 24.3593C32.4559 28.2982 32.2083 32.6599 29.984 36.6982Z" fill="#C42D2D"/>
<path d="M29.9844 36.6982L24.5251 46.6245C23.113 48.9377 19.9006 49.7781 17.3659 48.4561C16.067 47.7788 14.534 47.7788 13.2336 48.4561C12.5367 48.8199 11.7911 49.0161 11.0627 49.0676C11.021 48.9845 6.68584 39.4505 5.58032 37.0199C2.27468 29.7528 3.55646 21.6546 6.70962 17.1939C7.74729 16.9241 8.57282 16.889 8.93392 16.889C9.06183 16.889 9.13124 16.8929 9.13124 16.8929C10.1533 16.8929 11.1329 17.0648 12.036 17.378C12.938 17.6915 13.7654 18.1477 14.4841 18.7155C14.7189 18.9163 15.0098 19.0177 15.3003 19.0177C15.5912 19.0177 15.8817 18.9163 16.1165 18.7155C16.8356 18.1477 17.6619 17.6915 18.565 17.378C19.4677 17.0648 20.4465 16.8929 21.4694 16.8929C21.4694 16.8929 28.3821 16.4522 31.1016 24.3593C32.4563 28.2982 32.2087 32.6599 29.9844 36.6982Z" fill="#F44545"/>
<path d="M49.5795 50.8379C49.3249 53.1219 47.3958 54.8513 45.0974 54.8556C31.9193 54.8814 41.1296 54.8638 19.9192 54.9044C15.5127 54.9126 12.0796 51.0832 12.5678 46.7048C12.6754 45.7428 12.9621 44.8478 13.3883 44.0473C14.6521 41.6764 17.1525 40.1372 19.8947 40.1372C20.4386 40.1372 20.9932 40.1973 21.5484 40.3248C40.2366 44.5944 41.6864 44.9255 42.9004 45.2027L44.4251 45.5513L46.0945 45.9331C47.916 46.348 49.2473 47.8216 49.544 49.5854C49.6134 49.9898 49.6271 50.4109 49.5795 50.8379Z" fill="#FFA90B"/>
<path d="M49.5464 49.5854C48.7189 50.6675 47.4157 51.3573 45.9654 51.3593C32.7885 51.3854 41.9984 51.3679 20.7884 51.408C16.6655 51.4155 13.3957 48.065 13.3906 44.0473C14.6545 41.6764 17.1545 40.1372 19.8966 40.1372C20.1914 40.1372 20.4886 40.1548 20.7873 40.1922C21.0407 40.2222 21.2962 40.2667 21.5508 40.3248L22.3132 40.4983C42.0526 45.0093 24.4552 40.9877 42.9027 45.2027L44.427 45.5513L46.0968 45.9331C47.9183 46.348 49.2496 47.8216 49.5464 49.5854Z" fill="#FFB52D"/>
<path d="M44.4264 45.5513L43.8379 51.5476C43.7935 51.9438 43.4585 52.2374 43.0686 52.2374C43.0393 52.2374 43.0105 52.2355 42.9816 52.2323C42.5554 52.1848 42.2493 51.8022 42.2957 51.376L42.902 45.2026L44.4264 45.5513Z" fill="#F29500"/>
<path d="M31.2971 42.5517L31.0647 45.157C31.0203 45.5532 30.6849 45.8472 30.2949 45.8472C30.2661 45.8472 30.2372 45.8449 30.208 45.8418C29.7818 45.7942 29.4749 45.4117 29.5224 44.9854L29.7716 42.2031L31.2971 42.5517Z" fill="#F29500"/>
</g>
<path d="M39.4183 45.2473C46.1053 45.2473 51.5261 39.8265 51.5261 33.1395C51.5261 26.4526 46.1053 21.0317 39.4183 21.0317C32.7314 21.0317 27.3105 26.4526 27.3105 33.1395C27.3105 39.8265 32.7314 45.2473 39.4183 45.2473Z" fill="#B2B2B2" fill-opacity="0.4"/>
<defs>
<clipPath id="clip0_952_212">
<rect x="27.1113" y="20.8325" width="24.4455" height="24.4455" rx="12.2227" fill="white"/>
</clipPath>
</defs>
</svg>
