<svg width="298.2" height="298.2" viewBox="0 0 426 426" fill="none" xmlns="http://www.w3.org/2000/svg">
<g filter="url(#filter0_d_332_229)">
<circle cx="213" cy="209" r="113" fill="white"/>
</g>
<path d="M181.24 236.061V181.598C181.24 179.091 179.208 177.059 176.702 177.059C174.195 177.059 172.163 179.091 172.163 181.598V236.061C172.163 238.567 174.195 240.599 176.702 240.599C179.208 240.599 181.24 238.567 181.24 236.061Z" fill="url(#paint0_linear_332_229)"/>
<path d="M194.856 177.059C192.349 177.059 190.317 179.091 190.317 181.598V217.906C190.317 220.413 192.349 222.445 194.856 222.445C197.363 222.445 199.395 220.413 199.395 217.906V181.598C199.395 179.091 197.363 177.059 194.856 177.059Z" fill="url(#paint1_linear_332_229)"/>
<path d="M213.01 177.059C210.504 177.059 208.472 179.091 208.472 181.598V236.061C208.472 238.567 210.504 240.599 213.01 240.599C215.517 240.599 217.549 238.567 217.549 236.061V181.598C217.549 179.091 215.517 177.059 213.01 177.059Z" fill="url(#paint2_linear_332_229)"/>
<path d="M231.166 177.059C228.659 177.059 226.627 179.091 226.627 181.598V217.906C226.627 220.413 228.659 222.445 231.166 222.445C233.672 222.445 235.704 220.413 235.704 217.906V181.598C235.704 179.091 233.672 177.059 231.166 177.059Z" fill="url(#paint3_linear_332_229)"/>
<path d="M249.32 240.599C251.827 240.599 253.858 238.567 253.858 236.061V181.598C253.858 179.091 251.827 177.059 249.32 177.059C246.813 177.059 244.781 179.091 244.781 181.598V236.061C244.781 238.567 246.813 240.599 249.32 240.599Z" fill="url(#paint4_linear_332_229)"/>
<path d="M177.61 158.905H168.533C161.025 158.905 154.917 165.013 154.917 172.521V181.598C154.917 184.104 156.949 186.136 159.456 186.136C161.962 186.136 163.994 184.104 163.994 181.598V172.521C163.994 170.018 166.03 167.982 168.533 167.982H177.61C180.117 167.982 182.149 165.95 182.149 163.443C182.149 160.937 180.117 158.905 177.61 158.905Z" fill="url(#paint5_linear_332_229)"/>
<path d="M257.489 158.905H248.412C245.905 158.905 243.873 160.937 243.873 163.443C243.873 165.95 245.905 167.982 248.412 167.982H257.489C259.991 167.982 262.027 170.018 262.027 172.521V181.598C262.027 184.104 264.059 186.136 266.566 186.136C269.073 186.136 271.105 184.104 271.105 181.598V172.521C271.105 165.013 264.997 158.905 257.489 158.905Z" fill="url(#paint6_linear_332_229)"/>
<path d="M266.566 231.522C264.059 231.522 262.027 233.554 262.027 236.061V245.138C262.027 247.64 259.991 249.676 257.489 249.676H248.412C245.905 249.676 243.873 251.708 243.873 254.215C243.873 256.722 245.905 258.754 248.412 258.754H257.489C264.997 258.754 271.105 252.645 271.105 245.138V236.061C271.105 233.554 269.073 231.522 266.566 231.522Z" fill="url(#paint7_linear_332_229)"/>
<path d="M177.61 249.676H168.533C166.03 249.676 163.994 247.64 163.994 245.138V236.061C163.994 233.554 161.962 231.522 159.456 231.522C156.949 231.522 154.917 233.554 154.917 236.061V245.138C154.917 252.645 161.025 258.754 168.533 258.754H177.61C180.117 258.754 182.149 256.722 182.149 254.215C182.149 251.708 180.117 249.676 177.61 249.676Z" fill="url(#paint8_linear_332_229)"/>
<path d="M231.166 240.599C233.672 240.599 235.704 238.567 235.704 236.061C235.704 233.554 233.672 231.522 231.166 231.522C228.659 231.522 226.627 233.554 226.627 236.061C226.627 238.567 228.659 240.599 231.166 240.599Z" fill="url(#paint9_linear_332_229)"/>
<path d="M194.856 240.599C197.363 240.599 199.395 238.567 199.395 236.061C199.395 233.554 197.363 231.522 194.856 231.522C192.349 231.522 190.317 233.554 190.317 236.061C190.317 238.567 192.349 240.599 194.856 240.599Z" fill="url(#paint10_linear_332_229)"/>
<defs>
<filter id="filter0_d_332_229" x="0" y="0" width="426" height="426" filterUnits="userSpaceOnUse" color-interpolation-filters="sRGB">
<feFlood flood-opacity="0" result="BackgroundImageFix"/>
<feColorMatrix in="SourceAlpha" type="matrix" values="0 0 0 0 0 0 0 0 0 0 0 0 0 0 0 0 0 0 127 0" result="hardAlpha"/>
<feOffset dy="4"/>
<feGaussianBlur stdDeviation="50"/>
<feComposite in2="hardAlpha" operator="out"/>
<feColorMatrix type="matrix" values="0 0 0 0 0 0 0 0 0 0 0 0 0 0 0 0 0 0 0.1 0"/>
<feBlend mode="normal" in2="BackgroundImageFix" result="effect1_dropShadow_332_229"/>
<feBlend mode="normal" in="SourceGraphic" in2="effect1_dropShadow_332_229" result="shape"/>
</filter>
<linearGradient id="paint0_linear_332_229" x1="176.961" y1="239.646" x2="176.961" y2="169.117" gradientUnits="userSpaceOnUse">
<stop stop-color="#41E39B"/>
<stop offset="1" stop-color="#74EE9B"/>
</linearGradient>
<linearGradient id="paint1_linear_332_229" x1="195.115" y1="221.764" x2="195.115" y2="171.386" gradientUnits="userSpaceOnUse">
<stop stop-color="#41E39B"/>
<stop offset="1" stop-color="#74EE9B"/>
</linearGradient>
<linearGradient id="paint2_linear_332_229" x1="213.269" y1="239.646" x2="213.269" y2="169.117" gradientUnits="userSpaceOnUse">
<stop stop-color="#41E39B"/>
<stop offset="1" stop-color="#74EE9B"/>
</linearGradient>
<linearGradient id="paint3_linear_332_229" x1="231.424" y1="221.764" x2="231.424" y2="171.386" gradientUnits="userSpaceOnUse">
<stop stop-color="#41E39B"/>
<stop offset="1" stop-color="#74EE9B"/>
</linearGradient>
<linearGradient id="paint4_linear_332_229" x1="249.579" y1="239.646" x2="249.579" y2="169.117" gradientUnits="userSpaceOnUse">
<stop stop-color="#41E39B"/>
<stop offset="1" stop-color="#74EE9B"/>
</linearGradient>
<linearGradient id="paint5_linear_332_229" x1="169.309" y1="185.728" x2="169.309" y2="155.501" gradientUnits="userSpaceOnUse">
<stop stop-color="#41E39B"/>
<stop offset="1" stop-color="#74EE9B"/>
</linearGradient>
<linearGradient id="paint6_linear_332_229" x1="258.265" y1="185.728" x2="258.265" y2="155.501" gradientUnits="userSpaceOnUse">
<stop stop-color="#41E39B"/>
<stop offset="1" stop-color="#74EE9B"/>
</linearGradient>
<linearGradient id="paint7_linear_332_229" x1="258.265" y1="258.345" x2="258.265" y2="228.118" gradientUnits="userSpaceOnUse">
<stop stop-color="#41E39B"/>
<stop offset="1" stop-color="#74EE9B"/>
</linearGradient>
<linearGradient id="paint8_linear_332_229" x1="169.309" y1="258.345" x2="169.309" y2="228.118" gradientUnits="userSpaceOnUse">
<stop stop-color="#41E39B"/>
<stop offset="1" stop-color="#74EE9B"/>
</linearGradient>
<linearGradient id="paint9_linear_332_229" x1="231.424" y1="240.463" x2="231.424" y2="230.387" gradientUnits="userSpaceOnUse">
<stop stop-color="#41E39B"/>
<stop offset="1" stop-color="#74EE9B"/>
</linearGradient>
<linearGradient id="paint10_linear_332_229" x1="195.115" y1="240.463" x2="195.115" y2="230.387" gradientUnits="userSpaceOnUse">
<stop stop-color="#41E39B"/>
<stop offset="1" stop-color="#74EE9B"/>
</linearGradient>
</defs>
</svg>
