<svg width="60" height="60" viewBox="0 0 60 60" fill="none" xmlns="http://www.w3.org/2000/svg">
<g clip-path="url(#clip0_952_209)">
<path d="M44.4269 60.2678H5.63254C3.51526 60.2678 1.79883 58.5513 1.79883 56.4341V8.89524C1.79883 6.77796 3.51526 5.06152 5.63254 5.06152H54.8326C56.9498 5.06152 58.6663 6.77796 58.6663 8.89524V46.0283C58.6663 47.0451 56.3487 48.0202 55.6297 48.7392L47.1377 57.2312C46.4189 57.9502 45.4437 60.2678 44.4269 60.2678Z" fill="#F9F3F1"/>
<path d="M44.4104 60.2675C45.4272 60.2675 46.4023 59.8636 47.1213 59.1446L57.5448 48.7211C58.2638 48.002 58.6678 47.027 58.6678 46.0102V44.457C58.6678 46.1918 57.2615 47.5981 55.5267 47.5981H49.1396C47.4048 47.5981 45.9985 49.0044 45.9985 50.7392V57.1263C45.9985 58.8611 44.5922 60.2674 42.8574 60.2674H44.4104V60.2675Z" fill="#EFE2DD"/>
<path d="M58.6654 8.88861V18.7351H1.79883V8.88861C1.79883 6.77592 3.5122 5.06128 5.62616 5.06128H54.838C56.952 5.06128 58.6654 6.77592 58.6654 8.88861Z" fill="#74EE9B"/>
<path d="M12.6357 11.7412C11.9057 11.7412 11.2859 11.7408 10.7577 11.7408C9.15278 11.7408 7.84766 10.4356 7.84766 8.83199V5.06079H9.76132V8.83199C9.76132 9.38058 10.2078 9.8271 10.7577 9.8271C11.2859 9.8271 13.1638 11.7412 12.6357 11.7412Z" fill="#60B37B"/>
<path d="M47.395 11.7412C47.395 11.7412 46.0456 11.7408 45.5162 11.7408C43.9125 11.7408 42.6074 10.4356 42.6074 8.83199V5.06079H44.5211V8.83199C44.5211 9.38058 44.9676 9.8271 45.5162 9.8271C46.0456 9.8271 47.395 11.213 47.395 11.7412Z" fill="#60B37B"/>
<path d="M14.0695 5.06161V2.64185C14.0695 2.09262 13.6228 1.64585 13.0735 1.64585H12.6343C12.0851 1.64585 11.6383 2.09262 11.6383 2.64185V8.83192C11.6383 9.38115 12.0851 9.82792 12.6343 9.82792C13.1627 9.82792 13.5911 10.2563 13.5911 10.7848C13.5911 11.3132 13.1627 11.7416 12.6343 11.7416C11.0299 11.7416 9.72461 10.4363 9.72461 8.83192V2.64185C9.72461 1.03743 11.0299 -0.267822 12.6343 -0.267822H13.0735C14.6779 -0.267822 15.9832 1.03743 15.9832 2.64185V5.06161H14.0695Z" fill="#727272"/>
<path d="M48.8312 5.06161V2.64185C48.8312 2.09262 48.3845 1.64585 47.8352 1.64585H47.396C46.8468 1.64585 46.4 2.09262 46.4 2.64185V8.83192C46.4 9.38115 46.8468 9.82792 47.396 9.82792C47.9244 9.82792 48.3528 10.2563 48.3528 10.7848C48.3528 11.3132 47.9244 11.7416 47.396 11.7416C45.7916 11.7416 44.4863 10.4363 44.4863 8.83192V2.64185C44.4863 1.03743 45.7916 -0.267822 47.396 -0.267822H47.8352C49.4397 -0.267822 50.7449 1.03743 50.7449 2.64185V5.06161H48.8312Z" fill="#727272"/>
<path d="M13.0067 30.853H8.45035C7.94706 30.853 7.53906 30.445 7.53906 29.9417V25.3854C7.53906 24.8821 7.94706 24.4741 8.45035 24.4741H13.0067C13.51 24.4741 13.918 24.8821 13.918 25.3854V29.9417C13.918 30.445 13.51 30.853 13.0067 30.853Z" fill="#26DD9B"/>
<path d="M26.0106 30.853H21.4543C20.951 30.853 20.543 30.445 20.543 29.9417V25.3854C20.543 24.8821 20.951 24.4741 21.4543 24.4741H26.0106C26.5139 24.4741 26.9219 24.8821 26.9219 25.3854V29.9417C26.9219 30.445 26.5139 30.853 26.0106 30.853Z" fill="#26DD9B"/>
<path d="M39.0086 30.853H34.4523C33.949 30.853 33.541 30.445 33.541 29.9417V25.3854C33.541 24.8821 33.949 24.4741 34.4523 24.4741H39.0086C39.5119 24.4741 39.9199 24.8821 39.9199 25.3854V29.9417C39.9199 30.445 39.5119 30.853 39.0086 30.853Z" fill="#26DD9B"/>
<path d="M52.0125 30.853H47.4562C46.9529 30.853 46.5449 30.445 46.5449 29.9417V25.3854C46.5449 24.8821 46.9529 24.4741 47.4562 24.4741H52.0125C52.5158 24.4741 52.9238 24.8821 52.9238 25.3854V29.9417C52.9238 30.445 52.5158 30.853 52.0125 30.853Z" fill="#26DD9B"/>
<path d="M13.0067 42.6887H8.45035C7.94706 42.6887 7.53906 42.2807 7.53906 41.7774V37.2211C7.53906 36.7178 7.94706 36.3098 8.45035 36.3098H13.0067C13.51 36.3098 13.918 36.7178 13.918 37.2211V41.7774C13.918 42.2807 13.51 42.6887 13.0067 42.6887Z" fill="#26DD9B"/>
<path d="M26.0106 42.6887H21.4543C20.951 42.6887 20.543 42.2807 20.543 41.7774V37.2211C20.543 36.7178 20.951 36.3098 21.4543 36.3098H26.0106C26.5139 36.3098 26.9219 36.7178 26.9219 37.2211V41.7774C26.9219 42.2807 26.5139 42.6887 26.0106 42.6887Z" fill="#26DD9B"/>
<path d="M39.0086 42.6887H34.4523C33.949 42.6887 33.541 42.2807 33.541 41.7774V37.2211C33.541 36.7178 33.949 36.3098 34.4523 36.3098H39.0086C39.5119 36.3098 39.9199 36.7178 39.9199 37.2211V41.7774C39.9199 42.2807 39.5119 42.6887 39.0086 42.6887Z" fill="#26DD9B"/>
<path d="M52.0145 42.9729H47.4582C46.9549 42.9729 46.5469 42.5649 46.5469 42.0616V37.5053C46.5469 37.002 46.9549 36.594 47.4582 36.594H52.0145C52.5178 36.594 52.9258 37.002 52.9258 37.5053V42.0616C52.9258 42.5649 52.5178 42.9729 52.0145 42.9729Z" fill="#26DD9B"/>
<path d="M13.0067 54.5249H8.45035C7.94706 54.5249 7.53906 54.1169 7.53906 53.6136V49.0573C7.53906 48.554 7.94706 48.146 8.45035 48.146H13.0067C13.51 48.146 13.918 48.554 13.918 49.0573V53.6136C13.918 54.1169 13.51 54.5249 13.0067 54.5249Z" fill="#26DD9B"/>
<path d="M26.0106 54.5249H21.4543C20.951 54.5249 20.543 54.1169 20.543 53.6136V49.0573C20.543 48.554 20.951 48.146 21.4543 48.146H26.0106C26.5139 48.146 26.9219 48.554 26.9219 49.0573V53.6136C26.9219 54.1169 26.5139 54.5249 26.0106 54.5249Z" fill="#26DD9B"/>
<path d="M39.0086 54.5249H34.4523C33.949 54.5249 33.541 54.1169 33.541 53.6136V49.0573C33.541 48.554 33.949 48.146 34.4523 48.146H39.0086C39.5119 48.146 39.9199 48.554 39.9199 49.0573V53.6136C39.9199 54.1169 39.5119 54.5249 39.0086 54.5249Z" fill="#26DD9B"/>
</g>
<defs>
<clipPath id="clip0_952_209">
<rect width="60" height="60" fill="white"/>
</clipPath>
</defs>
</svg>
