<svg width="63" height="63" viewBox="0 0 90 90" fill="none" xmlns="http://www.w3.org/2000/svg">
<path d="M16.0718 51.4292H6.42907C4.6539 51.4292 3.21484 52.8683 3.21484 54.6434V86.7857C3.21484 88.5609 4.6539 89.9999 6.42907 89.9999H16.0718C17.8469 89.9999 19.286 88.5609 19.286 86.7857V54.6434C19.286 52.8683 17.8469 51.4292 16.0718 51.4292Z" fill="#74EE9B"/>
<path d="M38.5718 45.001H28.9291C27.1539 45.001 25.7148 46.44 25.7148 48.2152V86.7859C25.7148 88.5611 27.1539 90.0002 28.9291 90.0002H38.5718C40.3469 90.0002 41.786 88.5611 41.786 86.7859V48.2152C41.786 46.44 40.3469 45.001 38.5718 45.001Z" fill="#26DD9B"/>
<path d="M61.0718 38.5725H51.4291C49.6539 38.5725 48.2148 40.0116 48.2148 41.7867V86.7859C48.2148 88.5611 49.6539 90.0001 51.4291 90.0001H61.0718C62.8469 90.0001 64.286 88.5611 64.286 86.7859V41.7867C64.286 40.0116 62.8469 38.5725 61.0718 38.5725Z" fill="#74EE9B"/>
<path d="M83.5698 19.2871H73.9271C72.1519 19.2871 70.7129 20.7262 70.7129 22.5013V86.7859C70.7129 88.5611 72.1519 90.0001 73.9271 90.0001H83.5698C85.345 90.0001 86.784 88.5611 86.784 86.7859V22.5013C86.784 20.7262 85.345 19.2871 83.5698 19.2871Z" fill="#26DD9B"/>
<path d="M2.89317 38.5566C41.0711 42.3745 61.7344 23.2164 85.4724 5.80846C86.1601 5.30397 86.6192 4.54698 86.7487 3.70402C86.8782 2.86105 86.6675 2.00117 86.163 1.31353C85.6585 0.625884 84.9015 0.166814 84.0586 0.0373054C83.2156 -0.0922029 82.3557 0.11846 81.6681 0.622949C57.8381 18.1 39.0285 35.6992 3.53602 32.1597C2.68773 32.0744 1.84032 32.3296 1.18021 32.8692C0.520103 33.4087 0.101366 34.1884 0.0161197 35.0367C-0.0691269 35.885 0.1861 36.7324 0.725652 37.3925C1.2652 38.0526 2.04489 38.4714 2.89317 38.5566Z" fill="#37917D"/>
<path d="M86.7841 90H3.21423C2.36176 90 1.54421 89.6613 0.941425 89.0586C0.338641 88.4558 0 87.6382 0 86.7858C0 85.9333 0.338641 85.1157 0.941425 84.513C1.54421 83.9102 2.36176 83.5715 3.21423 83.5715H86.7841C87.6366 83.5715 88.4542 83.9102 89.0569 84.513C89.6597 85.1157 89.9984 85.9333 89.9984 86.7858C89.9984 87.6382 89.6597 88.4558 89.0569 89.0586C88.4542 89.6613 87.6366 90 86.7841 90Z" fill="#37917D"/>
</svg>
