<svg width="298.2" height="298.2" viewBox="0 0 426 426" fill="none" xmlns="http://www.w3.org/2000/svg">
<g filter="url(#filter0_d_332_271)">
<circle cx="213" cy="209" r="113" fill="white"/>
</g>
<path d="M251.318 224.275C251.318 223.864 251.318 193.788 251.318 193.384C251.318 186.997 246.121 181.8 239.734 181.8C238.226 181.8 236.787 182.093 235.464 182.619C234.124 177.703 229.623 174.077 224.288 174.077C222.781 174.077 221.341 174.37 220.019 174.896C218.679 169.981 214.178 166.355 208.843 166.355C203.51 166.355 199.007 169.978 197.665 174.892C196.344 174.366 194.904 174.077 193.398 174.077C187.01 174.077 181.814 179.274 181.814 185.661V193.384C181.814 193.387 181.814 193.391 181.814 193.394C177.128 196.92 174.091 202.526 174.091 208.829V224.275C174.091 234.775 180.196 244.27 189.536 248.703V252.226C185.042 253.82 181.814 258.112 181.814 263.146V270.869C181.814 273.001 183.542 274.73 185.675 274.73H239.734C241.866 274.73 243.595 273.001 243.595 270.869V263.146C243.595 258.112 240.367 253.82 235.872 252.226V248.703C245.213 244.27 251.318 234.775 251.318 224.275ZM235.872 193.384C235.872 191.255 237.605 189.523 239.734 189.523C241.863 189.523 243.595 191.255 243.595 193.384V201.107C243.595 203.236 241.863 204.968 239.734 204.968C237.605 204.968 235.872 203.236 235.872 201.107V193.384ZM220.427 185.661C220.427 183.532 222.159 181.8 224.289 181.8C226.418 181.8 228.15 183.532 228.15 185.661C228.15 187.298 228.15 199.47 228.15 201.107C228.15 203.236 226.418 204.968 224.289 204.968C222.159 204.968 220.427 203.236 220.427 201.107V185.661ZM204.982 177.939C204.982 175.81 206.714 174.077 208.843 174.077C210.972 174.077 212.704 175.81 212.704 177.939C212.704 180.761 212.704 187.809 212.704 190.187C211.496 189.758 210.197 189.523 208.843 189.523H204.982V177.939ZM189.536 185.661C189.536 183.532 191.269 181.8 193.398 181.8C195.527 181.8 197.259 183.532 197.259 185.661V189.523H193.398C192.076 189.523 190.784 189.657 189.536 189.911V185.661ZM235.872 267.007H189.536V263.146C189.536 261.017 191.269 259.284 193.398 259.284H232.011C234.14 259.284 235.872 261.017 235.872 263.146V267.007ZM230.724 242.484C229.181 243.029 228.149 244.488 228.149 246.125V251.562H197.259V246.125C197.259 244.488 196.227 243.029 194.684 242.484C186.986 239.763 181.814 232.445 181.814 224.275V208.829C181.814 202.442 187.01 197.245 193.398 197.245H208.843C210.972 197.245 212.704 198.978 212.704 201.107C212.704 203.236 210.972 204.968 208.843 204.968H193.398C191.265 204.968 189.537 206.697 189.537 208.829C189.537 210.962 191.265 212.691 193.398 212.691C204.043 212.691 212.704 221.352 212.704 231.998C212.704 234.13 214.433 235.859 216.566 235.859C218.698 235.859 220.427 234.13 220.427 231.998C220.427 224.233 217.136 217.223 211.876 212.288C213.64 211.809 215.262 210.904 216.566 209.732C218.617 211.57 221.324 212.691 224.288 212.691C227.253 212.691 229.96 211.57 232.011 209.732C234.062 211.57 236.769 212.691 239.734 212.691C241.087 212.691 242.386 212.455 243.595 212.027V224.275C243.595 232.445 238.422 239.763 230.724 242.484Z" fill="url(#paint0_linear_332_271)"/>
<path d="M216.566 142.929C214.433 142.929 212.704 144.658 212.704 146.791V158.632C212.704 160.764 214.433 162.493 216.566 162.493C218.698 162.493 220.427 160.764 220.427 158.632V146.791C220.427 144.658 218.698 142.929 216.566 142.929Z" fill="url(#paint1_linear_332_271)"/>
<path d="M250.187 152.04C248.679 150.532 246.234 150.532 244.726 152.04L237.003 159.763C235.496 161.271 235.496 163.716 237.003 165.224C238.511 166.732 240.956 166.732 242.464 165.224L250.187 157.501C251.695 155.993 251.695 153.548 250.187 152.04Z" fill="url(#paint2_linear_332_271)"/>
<path d="M270.625 197.245H262.902C260.769 197.245 259.041 198.974 259.041 201.107C259.041 203.239 260.769 204.968 262.902 204.968H270.625C272.757 204.968 274.486 203.239 274.486 201.107C274.486 198.974 272.757 197.245 270.625 197.245Z" fill="url(#paint3_linear_332_271)"/>
<path d="M162.507 197.245H154.784C152.652 197.245 150.923 198.974 150.923 201.107C150.923 203.239 152.652 204.968 154.784 204.968H162.507C164.639 204.968 166.368 203.239 166.368 201.107C166.368 198.974 164.639 197.245 162.507 197.245Z" fill="url(#paint4_linear_332_271)"/>
<path d="M196.128 159.763L188.405 152.04C186.898 150.532 184.453 150.532 182.945 152.04C181.437 153.548 181.437 155.993 182.945 157.501L190.667 165.224C192.175 166.732 194.62 166.732 196.128 165.224C197.636 163.716 197.636 161.271 196.128 159.763Z" fill="url(#paint5_linear_332_271)"/>
<path d="M171.955 170.623L164.233 166.762C162.326 165.809 160.006 166.581 159.052 168.489C158.098 170.396 158.871 172.715 160.779 173.67L168.502 177.531C170.41 178.485 172.729 177.711 173.682 175.804C174.636 173.897 173.863 171.577 171.955 170.623Z" fill="url(#paint6_linear_332_271)"/>
<path d="M266.356 168.489C265.403 166.582 263.084 165.809 261.176 166.763L253.453 170.624C251.546 171.578 250.773 173.897 251.726 175.805C252.68 177.713 255 178.485 256.907 177.531L264.63 173.67C266.537 172.716 267.31 170.397 266.356 168.489Z" fill="url(#paint7_linear_332_271)"/>
<defs>
<filter id="filter0_d_332_271" x="0" y="0" width="426" height="426" filterUnits="userSpaceOnUse" color-interpolation-filters="sRGB">
<feFlood flood-opacity="0" result="BackgroundImageFix"/>
<feColorMatrix in="SourceAlpha" type="matrix" values="0 0 0 0 0 0 0 0 0 0 0 0 0 0 0 0 0 0 127 0" result="hardAlpha"/>
<feOffset dy="4"/>
<feGaussianBlur stdDeviation="50"/>
<feComposite in2="hardAlpha" operator="out"/>
<feColorMatrix type="matrix" values="0 0 0 0 0 0 0 0 0 0 0 0 0 0 0 0 0 0 0.1 0"/>
<feBlend mode="normal" in2="BackgroundImageFix" result="effect1_dropShadow_332_271"/>
<feBlend mode="normal" in="SourceGraphic" in2="effect1_dropShadow_332_271" result="shape"/>
</filter>
<linearGradient id="paint0_linear_332_271" x1="212.829" y1="142.929" x2="212.829" y2="274.73" gradientUnits="userSpaceOnUse">
<stop stop-color="#26DD9B"/>
<stop offset="1" stop-color="#74EE9B"/>
</linearGradient>
<linearGradient id="paint1_linear_332_271" x1="212.829" y1="142.929" x2="212.829" y2="274.73" gradientUnits="userSpaceOnUse">
<stop stop-color="#26DD9B"/>
<stop offset="1" stop-color="#74EE9B"/>
</linearGradient>
<linearGradient id="paint2_linear_332_271" x1="212.829" y1="142.929" x2="212.829" y2="274.73" gradientUnits="userSpaceOnUse">
<stop stop-color="#26DD9B"/>
<stop offset="1" stop-color="#74EE9B"/>
</linearGradient>
<linearGradient id="paint3_linear_332_271" x1="212.829" y1="142.929" x2="212.829" y2="274.73" gradientUnits="userSpaceOnUse">
<stop stop-color="#26DD9B"/>
<stop offset="1" stop-color="#74EE9B"/>
</linearGradient>
<linearGradient id="paint4_linear_332_271" x1="212.829" y1="142.929" x2="212.829" y2="274.73" gradientUnits="userSpaceOnUse">
<stop stop-color="#26DD9B"/>
<stop offset="1" stop-color="#74EE9B"/>
</linearGradient>
<linearGradient id="paint5_linear_332_271" x1="212.829" y1="142.929" x2="212.829" y2="274.73" gradientUnits="userSpaceOnUse">
<stop stop-color="#26DD9B"/>
<stop offset="1" stop-color="#74EE9B"/>
</linearGradient>
<linearGradient id="paint6_linear_332_271" x1="212.829" y1="142.929" x2="212.829" y2="274.73" gradientUnits="userSpaceOnUse">
<stop stop-color="#26DD9B"/>
<stop offset="1" stop-color="#74EE9B"/>
</linearGradient>
<linearGradient id="paint7_linear_332_271" x1="212.829" y1="142.929" x2="212.829" y2="274.73" gradientUnits="userSpaceOnUse">
<stop stop-color="#26DD9B"/>
<stop offset="1" stop-color="#74EE9B"/>
</linearGradient>
</defs>
</svg>
