<svg width="65.8" height="70" viewBox="0 0 94 100" fill="none" xmlns="http://www.w3.org/2000/svg">
<path d="M70.4181 99.9999H6.33298C2.83541 99.9999 0 97.1645 0 93.6669V15.1367C0 11.6391 2.83541 8.80371 6.33298 8.80371H87.6074C91.1049 8.80371 93.9403 11.6391 93.9403 15.1367V76.4775C93.9403 78.1571 90.1119 79.7679 88.9241 80.9557L74.8961 94.9837C73.7087 96.1714 72.0978 99.9999 70.4181 99.9999Z" fill="#F9F3F1"/>
<path d="M70.3897 99.9999C72.0693 99.9999 73.6801 99.3327 74.8678 98.1449L92.0866 80.9262C93.2744 79.7384 93.9416 78.1276 93.9416 76.448V73.8823C93.9416 76.7481 91.6185 79.0712 88.7528 79.0712H78.2019C75.3361 79.0712 73.013 81.3942 73.013 84.26V94.8109C73.013 97.6766 70.69 99.9997 67.8242 99.9997H70.3897V99.9999Z" fill="#EFE2DD"/>
<path d="M93.9389 15.1254V31.391H0V15.1254C0 11.6354 2.83035 8.80298 6.32244 8.80298H87.6164C91.1085 8.80298 93.9389 11.6354 93.9389 15.1254Z" fill="#74EE9B"/>
<path d="M17.9035 19.8384C16.6976 19.8384 15.6738 19.8378 14.8013 19.8378C12.1501 19.8378 9.99414 17.6818 9.99414 15.0327V8.80298H13.1554V15.0327C13.1554 15.9389 13.893 16.6765 14.8013 16.6765C15.6738 16.6765 18.776 19.8384 17.9035 19.8384Z" fill="#60B37B"/>
<path d="M75.3228 19.8384C75.3228 19.8384 73.0937 19.8378 72.2191 19.8378C69.57 19.8378 67.4141 17.6818 67.4141 15.0327V8.80298H70.5753V15.0327C70.5753 15.9389 71.3129 16.6765 72.2191 16.6765C73.0937 16.6765 75.3228 18.9659 75.3228 19.8384Z" fill="#60B37B"/>
<path d="M20.2732 8.80379V4.80653C20.2732 3.89926 19.5351 3.16122 18.6278 3.16122H17.9022C16.995 3.16122 16.2569 3.89926 16.2569 4.80653V15.032C16.2569 15.9393 16.995 16.6773 17.9022 16.6773C18.7752 16.6773 19.4828 17.385 19.4828 18.258C19.4828 19.1309 18.7752 19.8386 17.9022 19.8386C15.2519 19.8386 13.0957 17.6824 13.0957 15.032V4.80653C13.0957 2.15616 15.2519 0 17.9022 0H18.6278C21.2782 0 23.4344 2.15616 23.4344 4.80653V8.80379H20.2732Z" fill="#727272"/>
<path d="M77.695 8.80379V4.80653C77.695 3.89926 76.957 3.16122 76.0497 3.16122H75.3241C74.4168 3.16122 73.6788 3.89926 73.6788 4.80653V15.032C73.6788 15.9393 74.4168 16.6773 75.3241 16.6773C76.197 16.6773 76.9047 17.385 76.9047 18.258C76.9047 19.1309 76.197 19.8386 75.3241 19.8386C72.6737 19.8386 70.5176 17.6824 70.5176 15.032V4.80653C70.5176 2.15616 72.6737 0 75.3241 0H76.0497C78.7001 0 80.8562 2.15616 80.8562 4.80653V8.80379H77.695Z" fill="#727272"/>
<path d="M18.5164 51.4092H10.9897C10.1583 51.4092 9.48438 50.7353 9.48438 49.9039V42.3772C9.48438 41.5458 10.1583 40.8718 10.9897 40.8718H18.5164C19.3478 40.8718 20.0218 41.5458 20.0218 42.3772V49.9039C20.0218 50.7353 19.3478 51.4092 18.5164 51.4092Z" fill="#26DD9B"/>
<path d="M39.9949 51.4092H32.4683C31.6369 51.4092 30.9629 50.7353 30.9629 49.9039V42.3772C30.9629 41.5458 31.6369 40.8718 32.4683 40.8718H39.9949C40.8263 40.8718 41.5003 41.5458 41.5003 42.3772V49.9039C41.5003 50.7353 40.8263 51.4092 39.9949 51.4092Z" fill="#26DD9B"/>
<path d="M61.4715 51.4092H53.9448C53.1134 51.4092 52.4395 50.7353 52.4395 49.9039V42.3772C52.4395 41.5458 53.1134 40.8718 53.9448 40.8718H61.4715C62.3029 40.8718 62.9769 41.5458 62.9769 42.3772V49.9039C62.9769 50.7353 62.3029 51.4092 61.4715 51.4092Z" fill="#26DD9B"/>
<path d="M82.952 51.4092H75.4253C74.5939 51.4092 73.9199 50.7353 73.9199 49.9039V42.3772C73.9199 41.5458 74.5939 40.8718 75.4253 40.8718H82.952C83.7834 40.8718 84.4573 41.5458 84.4573 42.3772V49.9039C84.4573 50.7353 83.7834 51.4092 82.952 51.4092Z" fill="#26DD9B"/>
<path d="M18.5164 70.961H10.9897C10.1583 70.961 9.48438 70.287 9.48438 69.4556V61.929C9.48438 61.0976 10.1583 60.4236 10.9897 60.4236H18.5164C19.3478 60.4236 20.0218 61.0976 20.0218 61.929V69.4556C20.0218 70.287 19.3478 70.961 18.5164 70.961Z" fill="#26DD9B"/>
<path d="M39.9949 70.961H32.4683C31.6369 70.961 30.9629 70.287 30.9629 69.4556V61.929C30.9629 61.0976 31.6369 60.4236 32.4683 60.4236H39.9949C40.8263 60.4236 41.5003 61.0976 41.5003 61.929V69.4556C41.5003 70.287 40.8263 70.961 39.9949 70.961Z" fill="#26DD9B"/>
<path d="M61.4715 70.961H53.9448C53.1134 70.961 52.4395 70.287 52.4395 69.4556V61.929C52.4395 61.0976 53.1134 60.4236 53.9448 60.4236H61.4715C62.3029 60.4236 62.9769 61.0976 62.9769 61.929V69.4556C62.9769 70.287 62.3029 70.961 61.4715 70.961Z" fill="#26DD9B"/>
<path d="M82.952 71.4305H75.4253C74.5939 71.4305 73.9199 70.7565 73.9199 69.9251V62.3984C73.9199 61.567 74.5939 60.8931 75.4253 60.8931H82.952C83.7834 60.8931 84.4573 61.567 84.4573 62.3984V69.9251C84.4573 70.7565 83.7834 71.4305 82.952 71.4305Z" fill="#26DD9B"/>
<path d="M18.5164 90.513H10.9897C10.1583 90.513 9.48438 89.839 9.48438 89.0076V81.481C9.48438 80.6496 10.1583 79.9756 10.9897 79.9756H18.5164C19.3478 79.9756 20.0218 80.6496 20.0218 81.481V89.0076C20.0218 89.839 19.3478 90.513 18.5164 90.513Z" fill="#26DD9B"/>
<path d="M39.9949 90.513H32.4683C31.6369 90.513 30.9629 89.839 30.9629 89.0076V81.481C30.9629 80.6496 31.6369 79.9756 32.4683 79.9756H39.9949C40.8263 79.9756 41.5003 80.6496 41.5003 81.481V89.0076C41.5003 89.839 40.8263 90.513 39.9949 90.513Z" fill="#26DD9B"/>
<path d="M61.4715 90.513H53.9448C53.1134 90.513 52.4395 89.839 52.4395 89.0076V81.481C52.4395 80.6496 53.1134 79.9756 53.9448 79.9756H61.4715C62.3029 79.9756 62.9769 80.6496 62.9769 81.481V89.0076C62.9769 89.839 62.3029 90.513 61.4715 90.513Z" fill="#26DD9B"/>
</svg>
