<svg width="310" height="310" viewBox="0 0 427 427" fill="none" xmlns="http://www.w3.org/2000/svg">
<g filter="url(#filter0_d_332_229)">
<circle cx="213.171" cy="209.171" r="113.171" fill="white"/>
</g>
<path d="M181.363 236.273V181.727C181.363 179.217 179.328 177.182 176.818 177.182C174.307 177.182 172.272 179.217 172.272 181.727V236.273C172.272 238.783 174.307 240.818 176.818 240.818C179.328 240.818 181.363 238.783 181.363 236.273Z" fill="url(#paint0_linear_332_229)"/>
<path d="M195 177.182C192.489 177.182 190.454 179.217 190.454 181.727V218.091C190.454 220.601 192.489 222.636 195 222.636C197.51 222.636 199.545 220.601 199.545 218.091V181.727C199.545 179.217 197.51 177.182 195 177.182Z" fill="url(#paint1_linear_332_229)"/>
<path d="M213.181 177.182C210.671 177.182 208.636 179.217 208.636 181.727V236.273C208.636 238.783 210.671 240.818 213.181 240.818C215.692 240.818 217.727 238.783 217.727 236.273V181.727C217.727 179.217 215.692 177.182 213.181 177.182Z" fill="url(#paint2_linear_332_229)"/>
<path d="M231.364 177.182C228.853 177.182 226.818 179.217 226.818 181.727V218.091C226.818 220.601 228.853 222.636 231.364 222.636C233.874 222.636 235.909 220.601 235.909 218.091V181.727C235.909 179.217 233.874 177.182 231.364 177.182Z" fill="url(#paint3_linear_332_229)"/>
<path d="M249.545 240.818C252.056 240.818 254.091 238.783 254.091 236.273V181.727C254.091 179.217 252.056 177.182 249.545 177.182C247.035 177.182 245 179.217 245 181.727V236.273C245 238.783 247.035 240.818 249.545 240.818Z" fill="url(#paint4_linear_332_229)"/>
<path d="M177.727 159H168.636C161.117 159 155 165.117 155 172.636V181.727C155 184.238 157.035 186.273 159.545 186.273C162.056 186.273 164.091 184.238 164.091 181.727V172.636C164.091 170.13 166.13 168.091 168.636 168.091H177.727C180.238 168.091 182.273 166.056 182.273 163.545C182.273 161.035 180.238 159 177.727 159Z" fill="url(#paint5_linear_332_229)"/>
<path d="M257.727 159H248.636C246.126 159 244.091 161.035 244.091 163.545C244.091 166.056 246.126 168.091 248.636 168.091H257.727C260.234 168.091 262.273 170.13 262.273 172.636V181.727C262.273 184.238 264.308 186.273 266.818 186.273C269.329 186.273 271.364 184.238 271.364 181.727V172.636C271.364 165.117 265.246 159 257.727 159Z" fill="url(#paint6_linear_332_229)"/>
<path d="M266.818 231.727C264.308 231.727 262.273 233.762 262.273 236.273V245.363C262.273 247.87 260.234 249.909 257.727 249.909H248.636C246.126 249.909 244.091 251.944 244.091 254.454C244.091 256.965 246.126 259 248.636 259H257.727C265.246 259 271.364 252.883 271.364 245.363V236.273C271.364 233.762 269.329 231.727 266.818 231.727Z" fill="url(#paint7_linear_332_229)"/>
<path d="M177.727 249.909H168.636C166.13 249.909 164.091 247.87 164.091 245.363V236.273C164.091 233.762 162.056 231.727 159.545 231.727C157.035 231.727 155 233.762 155 236.273V245.363C155 252.883 161.117 259 168.636 259H177.727C180.238 259 182.273 256.965 182.273 254.454C182.273 251.944 180.238 249.909 177.727 249.909Z" fill="url(#paint8_linear_332_229)"/>
<path d="M231.364 240.818C233.874 240.818 235.909 238.783 235.909 236.273C235.909 233.762 233.874 231.727 231.364 231.727C228.853 231.727 226.818 233.762 226.818 236.273C226.818 238.783 228.853 240.818 231.364 240.818Z" fill="url(#paint9_linear_332_229)"/>
<path d="M195 240.818C197.51 240.818 199.545 238.783 199.545 236.273C199.545 233.762 197.51 231.727 195 231.727C192.489 231.727 190.454 233.762 190.454 236.273C190.454 238.783 192.489 240.818 195 240.818Z" fill="url(#paint10_linear_332_229)"/>
<defs>
<filter id="filter0_d_332_229" x="0" y="0" width="426.342" height="426.342" filterUnits="userSpaceOnUse" color-interpolation-filters="sRGB">
<feFlood flood-opacity="0" result="BackgroundImageFix"/>
<feColorMatrix in="SourceAlpha" type="matrix" values="0 0 0 0 0 0 0 0 0 0 0 0 0 0 0 0 0 0 127 0" result="hardAlpha"/>
<feOffset dy="4"/>
<feGaussianBlur stdDeviation="50"/>
<feComposite in2="hardAlpha" operator="out"/>
<feColorMatrix type="matrix" values="0 0 0 0 0 0 0 0 0 0 0 0 0 0 0 0 0 0 0.1 0"/>
<feBlend mode="normal" in2="BackgroundImageFix" result="effect1_dropShadow_332_229"/>
<feBlend mode="normal" in="SourceGraphic" in2="effect1_dropShadow_332_229" result="shape"/>
</filter>
<linearGradient id="paint0_linear_332_229" x1="177.077" y1="239.864" x2="177.077" y2="169.227" gradientUnits="userSpaceOnUse">
<stop stop-color="#41E39B"/>
<stop offset="1" stop-color="#74EE9B"/>
</linearGradient>
<linearGradient id="paint1_linear_332_229" x1="195.259" y1="221.954" x2="195.259" y2="171.5" gradientUnits="userSpaceOnUse">
<stop stop-color="#41E39B"/>
<stop offset="1" stop-color="#74EE9B"/>
</linearGradient>
<linearGradient id="paint2_linear_332_229" x1="213.44" y1="239.864" x2="213.44" y2="169.227" gradientUnits="userSpaceOnUse">
<stop stop-color="#41E39B"/>
<stop offset="1" stop-color="#74EE9B"/>
</linearGradient>
<linearGradient id="paint3_linear_332_229" x1="231.623" y1="221.954" x2="231.623" y2="171.5" gradientUnits="userSpaceOnUse">
<stop stop-color="#41E39B"/>
<stop offset="1" stop-color="#74EE9B"/>
</linearGradient>
<linearGradient id="paint4_linear_332_229" x1="249.805" y1="239.864" x2="249.805" y2="169.227" gradientUnits="userSpaceOnUse">
<stop stop-color="#41E39B"/>
<stop offset="1" stop-color="#74EE9B"/>
</linearGradient>
<linearGradient id="paint5_linear_332_229" x1="169.414" y1="185.864" x2="169.414" y2="155.591" gradientUnits="userSpaceOnUse">
<stop stop-color="#41E39B"/>
<stop offset="1" stop-color="#74EE9B"/>
</linearGradient>
<linearGradient id="paint6_linear_332_229" x1="258.505" y1="185.864" x2="258.505" y2="155.591" gradientUnits="userSpaceOnUse">
<stop stop-color="#41E39B"/>
<stop offset="1" stop-color="#74EE9B"/>
</linearGradient>
<linearGradient id="paint7_linear_332_229" x1="258.505" y1="258.591" x2="258.505" y2="228.318" gradientUnits="userSpaceOnUse">
<stop stop-color="#41E39B"/>
<stop offset="1" stop-color="#74EE9B"/>
</linearGradient>
<linearGradient id="paint8_linear_332_229" x1="169.414" y1="258.591" x2="169.414" y2="228.318" gradientUnits="userSpaceOnUse">
<stop stop-color="#41E39B"/>
<stop offset="1" stop-color="#74EE9B"/>
</linearGradient>
<linearGradient id="paint9_linear_332_229" x1="231.623" y1="240.682" x2="231.623" y2="230.591" gradientUnits="userSpaceOnUse">
<stop stop-color="#41E39B"/>
<stop offset="1" stop-color="#74EE9B"/>
</linearGradient>
<linearGradient id="paint10_linear_332_229" x1="195.259" y1="240.682" x2="195.259" y2="230.591" gradientUnits="userSpaceOnUse">
<stop stop-color="#41E39B"/>
<stop offset="1" stop-color="#74EE9B"/>
</linearGradient>
</defs>
</svg>
