<svg width="70" height="70" viewBox="0 0 90 90" fill="none" xmlns="http://www.w3.org/2000/svg">
<g clip-path="url(#clip0_952_214)">
<path d="M16.0756 51.429H6.43297C4.65781 51.429 3.21875 52.868 3.21875 54.6432V86.7854C3.21875 88.5606 4.65781 89.9996 6.43297 89.9996H16.0756C17.8508 89.9996 19.2899 88.5606 19.2899 86.7854V54.6432C19.2899 52.868 17.8508 51.429 16.0756 51.429Z" fill="#74EE9B"/>
<path d="M38.5756 45.0005H28.933C27.1578 45.0005 25.7188 46.4395 25.7188 48.2147V86.7854C25.7188 88.5606 27.1578 89.9996 28.933 89.9996H38.5756C40.3508 89.9996 41.7899 88.5606 41.7899 86.7854V48.2147C41.7899 46.4395 40.3508 45.0005 38.5756 45.0005Z" fill="#26DD9B"/>
<path d="M61.0756 38.5718H51.433C49.6578 38.5718 48.2188 40.0108 48.2188 41.786V86.7851C48.2188 88.5603 49.6578 89.9993 51.433 89.9993H61.0756C62.8508 89.9993 64.2899 88.5603 64.2899 86.7851V41.786C64.2899 40.0108 62.8508 38.5718 61.0756 38.5718Z" fill="#74EE9B"/>
<path d="M83.5756 19.2866H73.933C72.1578 19.2866 70.7188 20.7257 70.7188 22.5008V86.7853C70.7188 88.5605 72.1578 89.9995 73.933 89.9995H83.5756C85.3508 89.9995 86.7899 88.5605 86.7899 86.7853V22.5008C86.7899 20.7257 85.3508 19.2866 83.5756 19.2866Z" fill="#26DD9B"/>
<path d="M2.89317 38.5566C41.0711 42.3744 61.7343 23.2164 85.4723 5.80846C86.16 5.30397 86.6191 4.54698 86.7486 3.70401C86.8781 2.86105 86.6674 2.00117 86.1629 1.31352C85.6584 0.625883 84.9014 0.166814 84.0585 0.0373054C83.2155 -0.0922028 82.3556 0.118459 81.668 0.622948C57.8381 18.1 39.0284 35.6991 3.53602 32.1596C2.68773 32.0744 1.84032 32.3296 1.18021 32.8692C0.520102 33.4087 0.101366 34.1884 0.0161197 35.0367C-0.0691268 35.885 0.1861 36.7324 0.725651 37.3925C1.2652 38.0526 2.04488 38.4713 2.89317 38.5566Z" fill="#37917D"/>
<path d="M86.784 89.9995H3.21422C2.36176 89.9995 1.54421 89.6609 0.941424 89.0581C0.33864 88.4553 0 87.6377 0 86.7853C0 85.9328 0.33864 85.1153 0.941424 84.5125C1.54421 83.9097 2.36176 83.571 3.21422 83.571H86.784C87.6365 83.571 88.454 83.9097 89.0568 84.5125C89.6596 85.1153 89.9982 85.9328 89.9982 86.7853C89.9982 87.6377 89.6596 88.4553 89.0568 89.0581C88.454 89.6609 87.6365 89.9995 86.784 89.9995Z" fill="#37917D"/>
</g>
<defs>
<clipPath id="clip0_952_214">
<rect width="90" height="90" fill="white"/>
</clipPath>
</defs>
</svg>
