<svg width="18" height="20" viewBox="0 0 23 26" fill="none" xmlns="http://www.w3.org/2000/svg">
<path fill-rule="evenodd" clip-rule="evenodd" d="M11.3153 21.859V23.1547C11.3153 24.1938 10.8027 25.0909 9.91203 25.6104C9.48349 25.8603 9.00519 25.9997 8.50929 26C8.01294 26.0003 7.53479 25.8606 7.10595 25.6104L1.4033 22.284C0.512483 21.7644 0 20.8676 0 19.8284V2.83552C0 1.27192 1.25899 0 2.80659 0H15.3659C16.9136 0 18.1727 1.27181 18.1727 2.83552V6.41757C18.1727 6.93142 17.7597 7.34864 17.2511 7.34864C16.7423 7.34864 16.3297 6.93148 16.3297 6.41757V2.83552C16.3297 2.29861 15.8973 1.86174 15.3659 1.86174H4.36068L9.91203 5.10041C10.8024 5.6199 11.3153 6.51669 11.3153 7.55552V19.9971H15.3659C15.8973 19.9971 16.3297 19.5604 16.3297 19.0235V15.8834C16.3297 15.3692 16.7421 14.9523 17.2511 14.9523C17.7599 14.9523 18.1727 15.3693 18.1727 15.8834V19.0235C18.1727 20.5872 16.9136 21.859 15.3659 21.859H11.3153ZM19.8542 11.8603L18.8393 12.8857C18.4795 13.2492 18.4796 13.8386 18.8393 14.2022C19.0125 14.3773 19.2459 14.4746 19.4909 14.4746C19.7361 14.4746 19.9692 14.3775 20.1427 14.2022L22.7302 11.5875C23.0899 11.2241 23.09 10.635 22.7302 10.2715L20.1427 7.65729C19.7828 7.2937 19.1994 7.29385 18.8394 7.65724C18.4796 8.02043 18.4797 8.61005 18.8394 8.97333L19.8542 9.9984H13.0556C12.5465 9.9984 12.1342 10.4152 12.1342 10.9295C12.1342 11.4438 12.5465 11.8604 13.0556 11.8604H19.8542V11.8603Z" fill="white"/>
</svg>
