<svg width="672" height="756" viewBox="0 0 960 1080" fill="none" xmlns="http://www.w3.org/2000/svg">
<g clip-path="url(#clip0_341_678)">
<path d="M965.647 878.377H891.762V878.935H965.647V878.377Z" fill="#EBEBEB"/>
<path d="M700.892 884.445H681.506V885.003H700.892V884.445Z" fill="#EBEBEB"/>
<path d="M889.532 857.675H846.723V858.233H889.532V857.675Z" fill="#EBEBEB"/>
<path d="M175.381 861.423H79.0312V861.981H175.381V861.423Z" fill="#EBEBEB"/>
<path d="M209.379 861.423H195.258V861.981H209.379V861.423Z" fill="#EBEBEB"/>
<path d="M464.271 870.837H255.287V871.395H464.271V870.837Z" fill="#EBEBEB"/>
<path d="M493.828 742.988H63.0564C56.0293 742.988 50.3184 737.278 50.3184 730.25V124.738C50.3184 117.711 56.0293 112 63.0564 112H493.828C500.855 112 506.566 117.711 506.566 124.738V730.25C506.566 737.278 500.855 742.988 493.828 742.988ZM63.0564 112.558C56.3416 112.558 50.8761 118.023 50.8761 124.738V730.25C50.8761 736.965 56.3416 742.431 63.0564 742.431H493.828C500.543 742.431 506.009 736.965 506.009 730.25V124.738C506.009 118.023 500.543 112.558 493.828 112.558H63.0564Z" fill="#EBEBEB"/>
<path d="M976.358 742.988H545.586C538.559 742.988 532.848 737.278 532.848 730.25V124.738C532.848 117.711 538.559 112 545.586 112H976.358C983.385 112 989.096 117.711 989.096 124.738V730.25C989.096 737.278 983.385 742.988 976.358 742.988ZM545.586 112.558C538.871 112.558 533.405 118.023 533.405 124.738V730.25C533.405 736.965 538.871 742.431 545.586 742.431H976.358C983.072 742.431 988.538 736.965 988.538 730.25V124.738C988.538 118.023 983.072 112.558 976.358 112.558H545.586Z" fill="#EBEBEB"/>
<path d="M1077.41 842.483H-38V843.041H1077.41V842.483Z" fill="#EBEBEB"/>
<path d="M742.95 829.545H955.279V547.011H742.95V829.545Z" fill="#F5F5F5"/>
<path d="M702.439 829.545H742.951V547.011H702.439V829.545Z" fill="#E6E6E6"/>
<path d="M756.737 636.579H940.4V567.959H756.737V636.579Z" fill="#FAFAFA"/>
<path d="M872.514 567.959L871.711 577.105C871.443 580.117 868.922 582.437 865.888 582.437H831.221C828.187 582.437 825.666 580.117 825.399 577.105L824.596 567.959H872.491H872.514Z" fill="#EBEBEB"/>
<path d="M756.737 712.672H940.4V644.052H756.737V712.672Z" fill="#FAFAFA"/>
<path d="M872.514 644.074L871.711 653.221C871.443 656.232 868.922 658.553 865.888 658.553H831.221C828.187 658.553 825.666 656.232 825.399 653.221L824.596 644.074H872.491H872.514Z" fill="#EBEBEB"/>
<path d="M756.737 788.788H940.4V720.168H756.737V788.788Z" fill="#FAFAFA"/>
<path d="M872.514 720.168L871.711 729.315C871.443 732.326 868.922 734.646 865.888 734.646H831.221C828.187 734.646 825.666 732.326 825.399 729.315L824.596 720.168H872.491H872.514Z" fill="#EBEBEB"/>
<path d="M756.734 843.622H938.167L940.398 829.501H756.734V843.622Z" fill="#E6E6E6"/>
<path d="M718.813 843.622H756.737V829.501H716.582L718.813 843.622Z" fill="#E0E0E0"/>
<path d="M842.023 547.301H914.525L906.494 455.369H833.992L842.023 547.301Z" fill="#FAFAFA"/>
<path d="M842.021 547.301H838.563L830.51 455.369H833.99L842.021 547.301Z" fill="#EBEBEB"/>
<path d="M848.602 537.932H906.313L899.911 464.738H842.199L848.602 537.932Z" fill="#F0F0F0"/>
<path d="M852.817 531.908H901.025L895.693 470.761H847.463L852.817 531.908Z" fill="#E6E6E6"/>
<path d="M821.65 547.301L826.624 490.393H754.457L749.482 547.301H821.65Z" fill="#F0F0F0"/>
<path d="M821.648 547.301L826.623 490.393H830.505L825.53 547.301H821.648Z" fill="#E0E0E0"/>
<path d="M814.798 541.501L818.769 496.193H761.303L757.332 541.501H814.798Z" fill="#EBEBEB"/>
<path d="M810.383 537.776L813.707 499.918H765.7L762.398 537.776H810.383Z" fill="#F5F5F5"/>
<path d="M654.993 805.385C654.993 820.465 652.629 830.214 648.635 836.483C645.646 841.19 640.247 843.844 634.67 843.844H612.831C607.254 843.844 601.877 841.19 598.866 836.483C594.872 830.214 592.508 820.465 592.508 805.385C592.508 783.5 602.033 766.011 605.157 752.024C606.272 746.982 602.547 731.567 602.547 731.567H644.932C644.932 731.567 641.207 747.004 642.322 752.024C645.445 766.011 654.971 783.523 654.971 805.385H654.993Z" fill="#EBEBEB"/>
<path d="M727.182 716.843C727.182 697.859 697.401 705.734 689.905 676.265C687.072 665.11 711.277 639.835 711.277 639.835H635.763C635.763 639.835 659.99 665.11 657.134 676.265C649.639 705.734 619.857 697.837 619.857 716.843C619.857 737.768 661.864 781.314 663.872 830.348C664.05 834.72 655.974 843.822 655.974 843.822H691.043C691.043 843.822 682.967 834.742 683.146 830.348C685.176 781.314 727.16 737.746 727.16 716.843H727.182Z" fill="#F5F5F5"/>
<path d="M704.36 766.211C708.755 756.975 699.676 725.588 699.676 725.588H732.402C732.402 725.588 723.322 756.975 727.717 766.211C730.818 772.725 737.867 776.897 737.867 784.593V830.927C737.867 842.929 728.052 843.821 716.05 843.821C704.048 843.821 694.232 842.929 694.232 830.927V784.593C694.232 776.874 701.282 772.725 704.383 766.211H704.36Z" fill="#F0F0F0"/>
<path d="M330.428 492.534C311.622 484.391 300.914 467.214 306.514 454.231C312.135 441.247 331.99 437.321 350.796 445.464C369.602 453.606 380.332 470.783 374.71 483.767C369.088 496.75 349.234 500.676 330.428 492.534ZM345.397 457.979C336.585 454.164 327.283 456.015 324.65 462.083C322.018 468.173 327.037 476.204 335.849 480.019C344.661 483.834 353.963 481.982 356.596 475.914C359.228 469.824 354.209 461.793 345.397 457.979Z" fill="#E6E6E6"/>
<path d="M352.558 458.692L343.635 454.833L397.621 330.041C398.691 327.565 401.547 326.449 404.023 327.498C406.499 328.568 407.615 331.424 406.566 333.9L352.58 458.692H352.558Z" fill="#E6E6E6"/>
<path d="M410.671 345.969L393.516 338.473L397.397 329.55L414.53 337.023L410.671 345.969Z" fill="#E6E6E6"/>
<path d="M402.217 355.963L389.947 350.631L393.807 341.685L406.076 347.017L402.217 355.963Z" fill="#E6E6E6"/>
<path d="M388.814 358.728L384.949 367.654L398.706 373.61L402.571 364.684L388.814 358.728Z" fill="#E6E6E6"/>
<path d="M356.016 445.374L351.108 443.255C348.654 442.206 347.539 439.351 348.587 436.919V436.852C349.68 434.398 352.513 433.283 354.967 434.331L359.875 436.451C362.329 437.499 363.444 440.355 362.396 442.786V442.853C361.303 445.307 358.47 446.422 356.016 445.374Z" fill="#E6E6E6"/>
<path d="M739.384 402.475C754.286 412.402 758.123 432.904 747.951 448.163C737.778 463.421 717.388 467.771 702.486 457.867C687.584 447.939 683.747 427.438 693.92 412.179C704.093 396.921 724.482 392.57 739.384 402.498V402.475ZM712.28 443.143C719.262 447.783 728.81 445.753 733.584 438.592C738.358 431.431 736.551 421.839 729.569 417.176C722.586 412.536 713.038 414.566 708.264 421.727C703.49 428.888 705.297 438.481 712.28 443.143Z" fill="#E6E6E6"/>
<path d="M708.69 439.172L717.926 445.33L651.871 546.43C650.176 548.974 646.718 549.665 644.175 547.97C641.632 546.274 640.94 542.839 642.636 540.273L708.69 439.172Z" fill="#E6E6E6"/>
<path d="M643.037 518.233L662.468 531.283L652.764 545.851L633.288 532.778C630.5 530.904 629.741 527.112 631.615 524.323L634.538 519.929C636.412 517.118 640.226 516.359 643.037 518.233Z" fill="#E6E6E6"/>
<path d="M469.608 209.264L459.346 235.833C458.431 238.22 455.732 239.425 453.345 238.488C450.958 237.573 449.753 234.874 450.69 232.487L460.952 205.918C464.254 197.329 459.971 187.67 451.404 184.346L441.901 180.687C433.312 177.386 423.653 181.669 420.329 190.235L416.135 201.077L407.457 197.731L411.651 186.889C416.804 173.526 431.885 166.856 445.225 172.009L454.728 175.668C468.091 180.821 474.761 195.901 469.608 209.264Z" fill="#F0F0F0"/>
<path d="M467.982 213.458C467.29 212.588 466.375 211.852 465.26 211.428L413.505 191.44C412.345 190.994 411.14 190.904 410.003 191.128C407.928 191.529 406.099 192.957 405.296 195.076L385.307 246.831C384.036 250.111 385.664 253.769 388.944 255.041L440.699 275.029C443.978 276.3 447.637 274.672 448.908 271.393L468.896 219.637C469.722 217.496 469.32 215.154 467.982 213.458ZM428.675 253.457L412.256 247.121L420.934 231.974C419.84 229.765 419.64 227.133 420.599 224.657C422.406 219.972 427.671 217.63 432.378 219.437C437.085 221.244 439.405 226.531 437.598 231.215C436.639 233.692 434.72 235.499 432.422 236.391L428.675 253.457Z" fill="#E6E6E6"/>
<path d="M116.265 813.616H529.258V591.359H116.265V813.616Z" fill="#E6E6E6"/>
<path d="M496.154 842.438H522.121V822.829H496.154V842.438Z" fill="#E6E6E6"/>
<path d="M84.7442 842.438H110.711L110.711 574.806H84.7442L84.7442 842.438Z" fill="#E6E6E6"/>
<path d="M110.398 574.806V842.438H124.252V827.447H522.119V842.438H535.973V574.806H110.398ZM124.252 599.033H316.259V691.991H124.252V599.033ZM522.119 803.22H330.112V599.033H522.119V803.22ZM124.252 803.22V705.822H316.259V803.22H124.252Z" fill="#F0F0F0"/>
<path d="M330.089 803.22H509.135V609.027H330.089V803.22Z" fill="#F5F5F5"/>
<path d="M338.205 700.312C338.205 704.908 341.931 708.633 346.526 708.633C351.122 708.633 354.847 704.908 354.847 700.312C354.847 695.717 351.122 691.991 346.526 691.991C341.931 691.991 338.205 695.717 338.205 700.312Z" fill="#FAFAFA"/>
<path d="M346.526 708.634C349.872 708.634 352.75 706.626 354.066 703.77C354.557 704.819 354.847 706.001 354.847 707.228C354.847 711.824 351.122 715.549 346.526 715.549C341.931 715.549 338.205 711.824 338.205 707.228C338.205 705.979 338.495 704.819 338.986 703.77C340.302 706.626 343.18 708.634 346.526 708.634Z" fill="#E0E0E0"/>
<path d="M439.71 803.22H396.99L376.578 609.027H419.298L439.71 803.22Z" fill="#FAFAFA"/>
<path d="M386.058 803.22H377.536L357.146 609.027H365.646L386.058 803.22Z" fill="#FAFAFA"/>
<path d="M273.001 691.902H289.91V608.848H273.001V691.902Z" fill="#FAFAFA"/>
<path d="M202.842 691.902H219.752V608.848H202.842V691.902Z" fill="#F5F5F5"/>
<path d="M256.071 691.902H272.98V614.671H256.071V691.902Z" fill="#F5F5F5"/>
<path d="M219.752 691.902H236.662V614.671H219.752V691.902Z" fill="#FAFAFA"/>
<path d="M236.68 691.902H247.611V608.848H236.68V691.902Z" fill="#EBEBEB"/>
<path d="M247.59 691.902H256.045V614.671H247.59V691.902Z" fill="#FAFAFA"/>
<path d="M185.93 691.902H202.84V608.848H185.93V691.902Z" fill="#EBEBEB"/>
<path d="M168.999 691.902H185.908V614.671H168.999V691.902Z" fill="#E6E6E6"/>
<path d="M132.684 691.902H149.594V614.671H132.684V691.902Z" fill="#E6E6E6"/>
<path d="M149.618 691.902H160.549V608.848H149.618V691.902Z" fill="#FAFAFA"/>
<path d="M160.545 691.902H169V614.671H160.545V691.902Z" fill="#EBEBEB"/>
<path d="M124.229 691.88H132.684V610.789H124.229L124.229 691.88Z" fill="#EBEBEB"/>
<path d="M141.136 720.167H124.227V803.22H141.136V720.167Z" fill="#EBEBEB"/>
<path d="M211.277 720.167H194.367V803.22H211.277V720.167Z" fill="#FAFAFA"/>
<path d="M158.046 725.989H141.137V803.22H158.046V725.989Z" fill="#FAFAFA"/>
<path d="M194.369 725.989H177.459V803.22H194.369V725.989Z" fill="#EBEBEB"/>
<path d="M177.456 720.167H166.525V803.22H177.456V720.167Z" fill="#FAFAFA"/>
<path d="M166.523 725.989H158.068V803.22H166.523V725.989Z" fill="#F5F5F5"/>
<path d="M228.207 720.167H211.297V803.22H228.207V720.167Z" fill="#EBEBEB"/>
<path d="M245.119 725.989H228.209V803.22H245.119V725.989Z" fill="#F5F5F5"/>
<path d="M281.433 725.989H264.523V803.22H281.433V725.989Z" fill="#E6E6E6"/>
<path d="M264.523 720.167H253.592V803.22H264.523V720.167Z" fill="#FAFAFA"/>
<path d="M300.841 720.167H289.91V803.22H300.841V720.167Z" fill="#FAFAFA"/>
<path d="M253.594 725.989H245.139V803.22H253.594V725.989Z" fill="#EBEBEB"/>
<path d="M289.89 722.13H281.436V803.22H289.89V722.13Z" fill="#EBEBEB"/>
<path d="M143.103 431.767C143.103 431.767 140.269 433.083 138.976 435.715C137.682 438.348 141.697 443.233 141.697 443.233C141.697 443.233 145.088 445.598 148.434 444.059L151.803 442.542C151.803 442.542 146.07 432.57 143.281 432.481L143.125 431.789L143.103 431.767Z" fill="#E6E6E6"/>
<path d="M157.491 431.677C157.893 436.407 154.97 442.363 150.754 442.742C146.538 443.099 142.612 437.745 142.21 433.016C141.809 428.286 145.199 427.818 149.438 427.461C153.654 427.104 157.09 426.97 157.514 431.7L157.491 431.677Z" fill="#E6E6E6"/>
<path d="M145.109 430.294C145.109 430.294 148.344 432.86 154.992 431.365C154.992 431.365 144.507 438.347 145.109 430.294Z" fill="#E6E6E6"/>
<path d="M147.963 429.357C147.963 429.357 151.688 428.71 151.733 430.272C151.733 430.272 154.878 430.094 154.455 428.777C154.008 427.461 147.963 429.38 147.963 429.38V429.357Z" fill="#E6E6E6"/>
<g opacity="0.2">
<path d="M145.111 430.294C145.111 430.294 148.346 432.859 154.993 431.365C154.993 431.365 144.509 438.347 145.111 430.294Z" fill="#FAFAFA"/>
</g>
<g opacity="0.2">
<path d="M147.965 429.357C147.965 429.357 151.69 428.71 151.735 430.272C151.735 430.272 154.88 430.094 154.457 428.777C154.01 427.461 147.965 429.38 147.965 429.38V429.357Z" fill="#FAFAFA"/>
</g>
<path d="M143.658 444.237C144.997 446.423 147.741 447.538 150.284 447.226C152.827 446.914 155.102 445.33 156.575 443.233C158.047 441.136 158.739 438.57 158.895 436.027C158.939 435.358 158.984 433.707 158.114 433.462C157.311 433.239 156.82 434.354 156.463 434.867C155.392 436.362 154.277 437.767 152.916 439.016C151.6 440.221 150.15 441.292 148.588 442.162C148.142 442.407 143.904 444.616 143.658 444.237Z" fill="#E6E6E6"/>
<path d="M161.778 434.801C162.581 436.719 162.291 439.039 161.042 440.713C160.216 441.806 159.056 442.586 157.896 443.278C157.093 443.769 156.045 444.237 155.241 443.724C154.371 443.166 154.461 441.917 154.661 440.891C154.974 439.352 155.308 437.812 155.688 436.273C156 435.024 156.201 432.927 156.937 431.856C157.628 430.852 158.61 431.455 159.658 432.169C160.595 432.815 161.354 433.73 161.8 434.779L161.778 434.801Z" fill="#E6E6E6"/>
<g opacity="0.2">
<path d="M144.728 441.604C143.1 441.537 141.561 440.422 140.958 438.905C140.512 437.79 140.534 434.934 141.984 434.555C142.631 437.098 143.189 439.396 144.728 441.582V441.604Z" fill="#FAFAFA"/>
</g>
<g opacity="0.2">
<path d="M155.729 441.492C157.269 441.046 158.54 439.797 159.009 438.258C159.276 437.41 158.942 433.082 157.648 434.911C157.224 435.514 157.313 437.41 157.09 438.168C156.756 439.329 156.309 440.444 155.707 441.492H155.729Z" fill="#FAFAFA"/>
</g>
<g opacity="0.2">
<path d="M149.842 444.17C151.024 445.174 152.942 445.241 154.169 444.282C154.013 445.107 151.381 445.821 150.555 446.067C148.436 446.691 147.321 445.754 145.246 444.884C145.246 444.884 148.503 445.375 149.819 444.17H149.842Z" fill="#FAFAFA"/>
</g>
<path d="M146.154 531.06L146.355 466.701L149.657 447.114L150.906 447.337L147.627 466.813L147.381 532.287L146.154 531.06Z" fill="#E0E0E0"/>
<path d="M147.494 466.366L146.49 467.147C145.486 465.831 144.572 464.113 143.523 462.128C141.895 459.049 140.043 455.569 137.232 452.491L138.169 451.643C141.092 454.855 142.966 458.402 144.639 461.548C145.665 463.489 146.557 465.162 147.494 466.389V466.366Z" fill="#E0E0E0"/>
<path d="M148.276 457.733C149.994 457.287 151.533 456.194 152.514 454.722C153.63 453.049 154.031 451.018 154.388 449.033C152.158 449.702 149.771 448.609 147.473 448.877C145.644 449.078 143.926 450.215 142.989 451.799C141.784 453.874 141.293 456.216 142.364 457.176C143.234 457.956 145.978 458.336 148.276 457.733Z" fill="#E6E6E6"/>
<path d="M139.709 453.294C137.656 454.588 135.024 454.922 132.704 454.164C130.384 453.405 129.715 449.947 128.822 447.672C130.919 447.248 136.229 447.538 137.433 447.672C138.638 447.784 139.865 448.341 140.512 449.367C141.159 450.394 141.047 451.933 140.066 452.624C139.999 452.58 139.709 453.294 139.709 453.294Z" fill="#E6E6E6"/>
<path d="M129.158 457.042C130.563 455.324 134.043 454.097 136.229 454.499C138.416 454.9 140.267 456.395 141.048 458.18C140.468 459.563 138.929 460.344 137.434 460.455C135.939 460.567 134.467 460.12 133.039 459.674C131.612 459.228 130.139 458.804 128.645 458.894L129.18 457.042H129.158Z" fill="#E6E6E6"/>
<path d="M172.108 445.976C172.108 445.976 174.428 448.051 174.896 450.973C175.365 453.874 170.078 457.354 170.078 457.354C170.078 457.354 166.152 458.603 163.385 456.171L160.619 453.717C160.619 453.717 169.029 445.887 171.729 446.601L172.086 445.976H172.108Z" fill="#E6E6E6"/>
<path d="M158.365 441.671C156.581 446.066 157.629 452.624 161.555 454.231C165.482 455.837 170.791 451.844 172.576 447.449C174.36 443.054 171.237 441.604 167.311 440.02C163.385 438.436 160.128 437.299 158.365 441.693V441.671Z" fill="#E6E6E6"/>
<path d="M170.614 443.991C170.614 443.991 166.777 445.508 160.865 442.117C160.865 442.117 168.829 451.888 170.614 443.991Z" fill="#E6E6E6"/>
<path d="M168.162 442.251C168.162 442.251 164.793 440.533 164.28 442.005C164.28 442.005 161.313 440.912 162.116 439.775C162.92 438.637 168.14 442.251 168.14 442.251H168.162Z" fill="#E6E6E6"/>
<g opacity="0.2">
<path d="M170.612 443.991C170.612 443.991 166.775 445.508 160.863 442.117C160.863 442.117 168.827 451.888 170.612 443.991Z" fill="#FAFAFA"/>
</g>
<g opacity="0.2">
<path d="M168.16 442.251C168.16 442.251 164.791 440.533 164.278 442.005C164.278 442.005 161.311 440.912 162.114 439.774C162.918 438.637 168.138 442.251 168.138 442.251H168.16Z" fill="#FAFAFA"/>
</g>
<path d="M167.892 457.733C165.973 459.428 163.029 459.674 160.686 458.648C158.344 457.621 156.626 455.413 155.845 452.981C155.065 450.55 155.154 447.895 155.734 445.396C155.89 444.75 156.314 443.166 157.229 443.166C158.054 443.166 158.21 444.393 158.411 444.995C158.991 446.735 159.66 448.408 160.575 450.014C161.467 451.554 162.56 453.004 163.787 454.297C164.122 454.654 167.557 458.023 167.892 457.733Z" fill="#E6E6E6"/>
<path d="M153.37 443.389C152.054 444.995 151.63 447.293 152.344 449.256C152.812 450.55 153.682 451.621 154.597 452.647C155.222 453.361 156.092 454.097 157.006 453.851C157.988 453.584 158.278 452.335 158.389 451.331C158.546 449.769 158.679 448.185 158.746 446.624C158.813 445.33 159.237 443.277 158.858 442.028C158.501 440.868 157.386 441.136 156.181 441.537C155.088 441.894 154.106 442.519 153.37 443.411V443.389Z" fill="#E6E6E6"/>
<g opacity="0.2">
<path d="M167.646 454.922C169.23 455.346 171.015 454.743 172.041 453.45C172.8 452.513 173.625 449.769 172.331 449.01C170.97 451.241 169.766 453.271 167.646 454.922Z" fill="#FAFAFA"/>
</g>
<g opacity="0.2">
<path d="M157.163 451.576C155.825 450.706 154.955 449.122 154.977 447.516C154.977 446.623 156.561 442.608 157.252 444.705C157.475 445.396 156.851 447.181 156.829 447.984C156.806 449.189 156.918 450.393 157.163 451.576Z" fill="#FAFAFA"/>
</g>
<g opacity="0.2">
<path d="M162.004 455.859C160.577 456.484 158.725 455.971 157.833 454.699C157.743 455.547 160.063 456.997 160.755 457.465C162.607 458.692 163.945 458.112 166.176 457.911C166.176 457.911 162.897 457.421 162.004 455.881V455.859Z" fill="#FAFAFA"/>
</g>
<path d="M144.334 521.445L145.137 518.813L146.208 515.266L147.457 511.117L157.474 478.167L158.723 468.709L159.838 460.321L160.061 458.581L160.686 458.648V458.67L161.333 458.737L161.311 458.893L161.087 460.544L159.905 469.512L158.924 476.807L158.723 478.413L158.634 478.68L147.457 515.489L146.186 519.616L145.606 521.535L144.825 524.145L144.334 521.445Z" fill="#E0E0E0"/>
<path d="M157.721 477.765L158.457 478.791C159.818 477.832 161.178 476.449 162.785 474.865C165.239 472.411 168.027 469.623 171.619 467.503L170.972 466.41C167.246 468.619 164.391 471.474 161.892 473.973C160.331 475.534 158.992 476.873 157.743 477.765H157.721Z" fill="#E0E0E0"/>
<path d="M159.525 469.289C158.03 468.352 156.87 466.857 156.357 465.162C155.777 463.243 156 461.169 156.223 459.183C158.142 460.477 160.752 460.142 162.871 461.079C164.567 461.815 165.861 463.399 166.284 465.184C166.82 467.526 166.597 469.913 165.303 470.493C164.232 470.984 161.51 470.538 159.503 469.289H159.525Z" fill="#E6E6E6"/>
<path d="M169.005 467.571C170.588 469.422 173.02 470.516 175.429 470.471C177.861 470.426 179.534 467.303 181.051 465.407C179.177 464.381 174.002 463.109 172.819 462.864C171.637 462.618 170.298 462.775 169.384 463.578C168.469 464.359 168.135 465.875 168.848 466.835C168.915 466.812 169.005 467.571 169.005 467.571Z" fill="#E6E6E6"/>
<path d="M177.994 474.263C177.146 472.211 174.179 470.003 171.993 469.757C169.785 469.49 167.576 470.382 166.305 471.854C166.439 473.349 167.688 474.553 169.093 475.089C170.499 475.624 172.038 475.647 173.533 475.647C175.027 475.647 176.566 475.647 177.972 476.204L178.017 474.263H177.994Z" fill="#E6E6E6"/>
<path d="M126.908 443.411C126.908 443.411 124.342 445.218 123.539 448.029C122.736 450.862 127.577 454.945 127.577 454.945C127.577 454.945 131.325 456.662 134.359 454.543L137.393 452.446C137.393 452.446 129.942 443.679 127.198 444.081L126.908 443.411Z" fill="#E6E6E6"/>
<path d="M141.051 440.757C142.3 445.33 140.493 451.732 136.411 452.848C132.329 453.963 127.51 449.39 126.261 444.817C125.011 440.243 128.268 439.173 132.373 438.057C136.478 436.942 139.824 436.183 141.073 440.779L141.051 440.757Z" fill="#E6E6E6"/>
<path d="M128.627 441.604C128.627 441.604 132.263 443.545 138.532 440.89C138.532 440.89 129.475 449.658 128.627 441.604Z" fill="#E6E6E6"/>
<path d="M131.258 440.177C131.258 440.177 134.805 438.86 135.139 440.4C135.139 440.4 138.218 439.664 137.549 438.437C136.879 437.21 131.258 440.177 131.258 440.177Z" fill="#E6E6E6"/>
<g opacity="0.2">
<path d="M128.627 441.604C128.627 441.604 132.263 443.545 138.532 440.89C138.532 440.89 129.475 449.658 128.627 441.604Z" fill="#FAFAFA"/>
</g>
<g opacity="0.2">
<path d="M131.258 440.177C131.258 440.177 134.805 438.861 135.139 440.4C135.139 440.4 138.218 439.664 137.549 438.437C136.879 437.21 131.258 440.177 131.258 440.177Z" fill="#FAFAFA"/>
</g>
<path d="M129.698 455.591C131.416 457.487 134.316 458.112 136.747 457.354C139.201 456.595 141.165 454.632 142.213 452.312C143.284 449.992 143.507 447.337 143.195 444.794C143.128 444.147 142.86 442.496 141.968 442.407C141.142 442.318 140.852 443.5 140.585 444.08C139.804 445.753 138.956 447.337 137.841 448.81C136.77 450.237 135.521 451.531 134.16 452.691C133.78 453.004 129.988 455.948 129.676 455.614L129.698 455.591Z" fill="#E6E6E6"/>
<path d="M145.826 443.032C146.963 444.772 147.097 447.114 146.16 448.966C145.558 450.193 144.554 451.152 143.528 452.067C142.814 452.691 141.877 453.338 140.985 452.981C140.048 452.58 139.892 451.33 139.914 450.304C139.914 448.72 140.003 447.159 140.115 445.575C140.204 444.281 140.003 442.184 140.539 441.002C141.029 439.886 142.1 440.31 143.26 440.823C144.286 441.292 145.201 442.05 145.826 443.01V443.032Z" fill="#E6E6E6"/>
<g opacity="0.2">
<path d="M130.3 452.802C128.693 453.025 126.976 452.222 126.106 450.839C125.481 449.813 124.968 447.002 126.329 446.378C127.422 448.765 128.381 450.928 130.277 452.802H130.3Z" fill="#FAFAFA"/>
</g>
<g opacity="0.2">
<path d="M141.094 450.728C142.521 450.014 143.57 448.542 143.748 446.958C143.86 446.088 142.745 441.894 141.808 443.902C141.495 444.571 141.919 446.423 141.852 447.203C141.741 448.408 141.473 449.59 141.094 450.728Z" fill="#FAFAFA"/>
</g>
<g opacity="0.2">
<path d="M135.786 454.409C137.147 455.19 139.021 454.9 140.07 453.74C140.07 454.587 137.593 455.747 136.835 456.127C134.85 457.13 133.6 456.394 131.414 455.926C131.414 455.926 134.716 455.837 135.786 454.409Z" fill="#FAFAFA"/>
</g>
<path d="M147.748 540.541L136.393 477.186L136.125 457.354L137.397 457.331L137.664 477.097L149.198 541.523L147.748 540.541Z" fill="#E0E0E0"/>
<path d="M137.462 476.672L136.614 477.609C135.387 476.494 134.182 474.977 132.777 473.192C130.613 470.47 128.181 467.37 124.857 464.826L125.638 463.823C129.074 466.455 131.572 469.623 133.781 472.411C135.142 474.129 136.302 475.624 137.462 476.672Z" fill="#E0E0E0"/>
<path d="M136.659 468.039C138.266 467.281 139.582 465.942 140.296 464.314C141.099 462.462 141.121 460.388 141.121 458.38C139.046 459.428 136.503 458.804 134.295 459.473C132.532 460.008 131.038 461.414 130.413 463.154C129.61 465.407 129.543 467.816 130.748 468.552C131.752 469.155 134.496 469.043 136.659 468.039Z" fill="#E6E6E6"/>
<path d="M127.444 465.206C125.66 466.857 123.116 467.66 120.707 467.325C118.298 466.991 117.004 463.712 115.732 461.637C117.718 460.834 123.005 460.187 124.21 460.075C125.414 459.964 126.708 460.298 127.533 461.191C128.359 462.083 128.515 463.6 127.667 464.492C127.6 464.47 127.422 465.206 127.422 465.206H127.444Z" fill="#E6E6E6"/>
<path d="M117.741 470.805C118.812 468.865 122.024 467.035 124.233 467.035C126.441 467.035 128.538 468.173 129.631 469.802C129.319 471.274 127.936 472.322 126.486 472.679C125.036 473.036 123.496 472.88 122.024 472.702C120.529 472.523 119.013 472.367 117.562 472.724L117.741 470.805Z" fill="#E6E6E6"/>
<path d="M152.403 501.68H139.063C138.059 501.68 137.167 502.305 136.877 503.264C135.784 506.722 133.441 515.824 133.441 530.168C133.441 545.917 137.546 566.82 138.84 573C139.063 574.048 139.978 574.784 141.026 574.784H150.306C151.377 574.784 152.27 574.026 152.493 573C153.787 566.82 157.891 545.917 157.891 530.168C157.891 515.824 155.549 506.744 154.456 503.264C154.166 502.349 153.34 501.725 152.381 501.68H152.403Z" fill="#F0F0F0"/>
<path d="M519.705 942C758.587 942 952.24 930.694 952.24 916.747C952.24 902.8 758.587 891.494 519.705 891.494C280.823 891.494 87.1709 902.8 87.1709 916.747C87.1709 930.694 280.823 942 519.705 942Z" fill="#F5F5F5"/>
<path d="M231.445 829.924C230.686 829.879 230.084 829.232 230.106 828.474C231.757 762.91 235.148 655.362 235.326 654.759C235.549 654.001 236.352 653.599 237.089 653.8C237.847 654.023 238.271 654.826 238.048 655.563C238.003 655.696 234.59 763.624 232.962 828.518C232.962 829.299 232.292 829.924 231.511 829.901C231.511 829.901 231.467 829.901 231.445 829.901V829.924Z" fill="#263238"/>
<path d="M222.639 610.99C223.197 616.032 229.243 633.544 234.284 633.009C239.326 632.451 241.467 614.069 240.932 609.005C240.374 603.963 235.846 600.305 230.804 600.862C225.762 601.42 222.104 605.949 222.662 610.99H222.639Z" fill="#26DD9B"/>
<path d="M247.156 666.203C246.598 661.161 240.553 643.649 235.511 644.207C230.469 644.765 228.328 663.147 228.863 668.211C229.421 673.252 233.95 676.911 238.991 676.353C244.033 675.795 247.691 671.267 247.134 666.225L247.156 666.203Z" fill="#26DD9B"/>
<path d="M207.29 650.855C212.332 650.297 229.844 644.252 229.286 639.21C228.729 634.168 210.347 632.027 205.283 632.562C200.241 633.12 196.582 637.648 197.14 642.69C197.698 647.732 202.226 651.39 207.268 650.832L207.29 650.855Z" fill="#26DD9B"/>
<path d="M262.503 626.338C257.461 626.896 239.949 632.942 240.485 637.983C241.042 643.025 259.424 645.166 264.488 644.631C269.53 644.073 273.189 639.545 272.631 634.503C272.073 629.461 267.545 625.803 262.503 626.361V626.338Z" fill="#26DD9B"/>
<path d="M206.71 627.744C210.681 630.934 227.323 639.032 230.513 635.061C233.703 631.09 222.192 616.567 218.244 613.4C214.295 610.209 208.495 610.856 205.305 614.805C202.115 618.753 202.762 624.554 206.71 627.744Z" fill="#26DD9B"/>
<path d="M263.083 649.449C259.135 646.259 242.47 638.161 239.28 642.132C236.09 646.081 247.601 660.603 251.55 663.793C255.498 666.984 261.299 666.337 264.489 662.388C267.679 658.439 267.032 652.639 263.083 649.449Z" fill="#26DD9B"/>
<path d="M224.044 666.783C227.234 662.834 235.331 646.17 231.361 642.98C227.412 639.79 212.889 651.301 209.699 655.25C206.509 659.198 207.156 664.998 211.105 668.188C215.053 671.378 220.853 670.731 224.044 666.783Z" fill="#26DD9B"/>
<path d="M245.751 610.41C242.561 614.359 234.463 631.023 238.434 634.213C242.383 637.403 256.905 625.892 260.095 621.944C263.285 617.995 262.639 612.195 258.69 609.005C254.741 605.815 248.941 606.462 245.751 610.41Z" fill="#26DD9B"/>
<g opacity="0.6">
<path d="M222.639 610.99C223.197 616.032 229.243 633.544 234.284 633.009C239.326 632.451 241.467 614.069 240.932 609.005C240.374 603.963 235.846 600.305 230.804 600.862C225.762 601.42 222.104 605.949 222.662 610.99H222.639Z" fill="white"/>
<path d="M247.156 666.203C246.598 661.161 240.553 643.649 235.511 644.207C230.469 644.765 228.328 663.147 228.863 668.211C229.421 673.252 233.95 676.911 238.991 676.353C244.033 675.795 247.691 671.267 247.134 666.225L247.156 666.203Z" fill="white"/>
<path d="M207.29 650.855C212.332 650.297 229.844 644.252 229.286 639.21C228.729 634.168 210.347 632.027 205.283 632.562C200.241 633.12 196.582 637.648 197.14 642.69C197.698 647.732 202.226 651.39 207.268 650.832L207.29 650.855Z" fill="white"/>
<path d="M262.503 626.338C257.461 626.896 239.949 632.942 240.485 637.983C241.042 643.025 259.424 645.166 264.488 644.631C269.53 644.073 273.189 639.545 272.631 634.503C272.073 629.461 267.545 625.803 262.503 626.361V626.338Z" fill="white"/>
<path d="M206.71 627.744C210.681 630.934 227.323 639.032 230.513 635.061C233.703 631.09 222.192 616.567 218.244 613.4C214.295 610.209 208.495 610.856 205.305 614.805C202.115 618.753 202.762 624.554 206.71 627.744Z" fill="white"/>
<path d="M263.083 649.449C259.135 646.259 242.47 638.161 239.28 642.132C236.09 646.081 247.601 660.603 251.55 663.793C255.498 666.984 261.299 666.337 264.489 662.388C267.679 658.439 267.032 652.639 263.083 649.449Z" fill="white"/>
<path d="M224.044 666.783C227.234 662.834 235.331 646.17 231.361 642.98C227.412 639.79 212.889 651.301 209.699 655.25C206.509 659.198 207.156 664.998 211.105 668.188C215.053 671.378 220.853 670.731 224.044 666.783Z" fill="white"/>
<path d="M245.751 610.41C242.561 614.359 234.463 631.023 238.434 634.213C242.383 637.403 256.905 625.892 260.095 621.944C263.285 617.995 262.639 612.195 258.69 609.005C254.741 605.815 248.941 606.462 245.751 610.41Z" fill="white"/>
</g>
<path d="M224.064 639.768C224.711 645.747 230.087 650.074 236.066 649.428C242.044 648.781 246.372 643.404 245.725 637.426C245.078 631.447 239.702 627.119 233.724 627.766C227.745 628.413 223.417 633.789 224.064 639.768Z" fill="#26DD9B"/>
<path d="M225.132 781.894C212.573 782.162 191.068 770.561 182.591 759.229C174.002 747.74 198.095 754.812 195.596 745.777C193.098 736.742 163.45 743.501 157.94 730.563C152.43 717.624 173.846 720.524 172.976 713.921C172.106 707.295 149.931 708.7 142.77 694.959C135.61 681.194 155.129 688.868 152.051 683.158C148.972 677.447 124.455 653.488 134.673 648.446C144.89 643.404 167.867 668.367 175.564 671.133C183.26 673.9 185 656.611 195.016 664.843C205.033 673.074 197.649 709.258 209.427 713.988C218.195 717.512 214.425 700.982 224.53 705.131C242.198 712.381 230.241 781.782 225.132 781.894Z" fill="#74EE9B"/>
<g opacity="0.2">
<path d="M225.132 781.894C212.573 782.162 191.068 770.561 182.591 759.229C174.002 747.74 198.095 754.812 195.596 745.777C193.098 736.742 163.45 743.501 157.94 730.563C152.43 717.624 173.846 720.524 172.976 713.921C172.106 707.295 149.931 708.7 142.77 694.959C135.61 681.194 155.129 688.868 152.051 683.158C148.972 677.447 124.455 653.488 134.673 648.446C144.89 643.404 167.867 668.367 175.564 671.133C183.26 673.9 185 656.611 195.016 664.843C205.033 673.074 197.649 709.258 209.427 713.988C218.195 717.512 214.425 700.982 224.53 705.131C242.198 712.381 230.241 781.782 225.132 781.894Z" fill="white"/>
</g>
<path d="M243.195 765.943C243.395 766.3 241.522 768.085 247.723 768.33C263.004 768.955 290.02 767.929 300.17 754.031C314.648 734.199 281.252 736.006 284.487 725.075C287.744 714.144 323.638 723.067 330.643 707.451C337.648 691.835 311.547 694.892 312.752 686.838C313.956 678.807 341.351 689.225 350.386 672.65C359.421 656.075 335.484 664.954 339.365 658.083C343.247 651.212 373.631 622.635 361.317 616.277C349.003 609.919 320.47 639.746 311.056 642.936C301.642 646.126 299.456 616.88 287.097 626.651C274.716 636.444 282.836 680.614 268.403 686.08C257.65 690.162 263.517 674.346 250.244 674.948C232.219 675.773 226.307 737.701 243.172 765.921L243.195 765.943Z" fill="#74EE9B"/>
<g opacity="0.3">
<path d="M243.195 765.943C243.395 766.3 241.522 768.085 247.723 768.33C263.004 768.955 290.02 767.929 300.17 754.031C314.648 734.199 281.252 736.006 284.487 725.075C287.744 714.144 323.638 723.067 330.643 707.451C337.648 691.835 311.547 694.892 312.752 686.838C313.956 678.807 341.351 689.225 350.386 672.65C359.421 656.075 335.484 664.954 339.365 658.083C343.247 651.212 373.631 622.635 361.317 616.277C349.003 609.919 320.47 639.746 311.056 642.936C301.642 646.126 299.456 616.88 287.097 626.651C274.716 636.444 282.836 680.614 268.403 686.08C257.65 690.162 263.517 674.346 250.244 674.948C232.219 675.773 226.307 737.701 243.172 765.921L243.195 765.943Z" fill="white"/>
</g>
<path d="M231.758 820.019C231.758 820.019 231.713 820.019 231.668 820.019C231.133 819.952 230.731 819.461 230.798 818.903C243.336 716.241 302.475 674.524 303.077 674.123C303.523 673.81 304.148 673.922 304.46 674.368C304.772 674.814 304.661 675.439 304.215 675.751C303.635 676.153 245.209 717.423 232.784 819.148C232.717 819.662 232.271 820.041 231.758 820.019Z" fill="#263238"/>
<path d="M289.602 688.378C289.201 688.378 288.821 688.088 288.687 687.686C288.509 687.173 288.799 686.593 289.334 686.437C289.691 686.326 298.503 683.537 312.936 686.593C313.472 686.705 313.806 687.24 313.695 687.776C313.583 688.311 313.048 688.668 312.513 688.534C298.637 685.589 290.026 688.289 289.937 688.311C289.825 688.356 289.714 688.356 289.58 688.356L289.602 688.378Z" fill="#263238"/>
<path d="M278.692 700.848C278.156 700.848 277.755 700.402 277.733 699.866C277.42 668.813 295.401 644.564 295.579 644.319C295.914 643.873 296.538 643.783 296.962 644.118C297.408 644.453 297.498 645.077 297.163 645.501C296.985 645.746 279.406 669.482 279.718 699.822C279.718 700.379 279.272 700.826 278.736 700.826H278.692V700.848Z" fill="#263238"/>
<path d="M261.072 727.127C260.827 727.127 260.581 727.015 260.38 726.815C260.001 726.413 260.023 725.789 260.425 725.409C260.559 725.275 273.855 712.984 291.277 719.23C291.79 719.408 292.058 719.988 291.88 720.501C291.701 721.015 291.121 721.282 290.608 721.104C274.323 715.259 261.897 726.748 261.786 726.859C261.585 727.038 261.317 727.149 261.072 727.127Z" fill="#263238"/>
<path d="M251.861 745.442C251.482 745.442 251.147 745.197 250.991 744.84C250.701 744.193 244.187 728.577 247.779 706.336C247.868 705.8 248.359 705.421 248.916 705.51C249.452 705.6 249.831 706.113 249.742 706.648C246.239 728.287 252.753 743.903 252.82 744.059C253.043 744.572 252.82 745.152 252.285 745.353C252.151 745.42 251.995 745.442 251.861 745.442Z" fill="#263238"/>
<path d="M232.135 856.694C231.622 856.694 231.198 856.248 231.175 855.735L229.882 828.541C226.067 738.148 164.072 676.644 163.448 676.042C163.046 675.663 163.046 675.038 163.448 674.637C163.827 674.235 164.452 674.235 164.853 674.637C165.478 675.261 228.052 737.256 231.889 828.496L233.183 855.69C233.183 856.248 232.759 856.694 232.224 856.716C232.202 856.716 232.179 856.716 232.157 856.716L232.135 856.694Z" fill="#263238"/>
<path d="M189.035 709.995C189.035 709.995 188.923 709.995 188.878 709.995C188.789 709.995 188.678 709.928 188.588 709.883L188.276 709.75C180.156 706.381 171.099 704.619 162.733 704.819C162.176 704.842 161.729 704.396 161.707 703.838C161.707 703.28 162.131 702.834 162.689 702.812C171.3 702.633 180.669 704.418 189.035 707.898L189.369 708.032C189.369 708.032 189.481 708.077 189.548 708.121C189.927 708.322 190.172 708.768 190.061 709.214C189.972 709.705 189.525 710.017 189.057 709.995H189.035Z" fill="#263238"/>
<path d="M197.801 721.64C197.801 721.64 197.779 721.64 197.757 721.64C197.221 721.595 196.798 721.104 196.865 720.569C199.274 693.888 185.443 671.937 185.309 671.714C185.019 671.245 185.153 670.643 185.621 670.331C186.09 670.041 186.692 670.175 187.004 670.643C187.138 670.866 201.326 693.375 198.872 720.747C198.828 721.283 198.359 721.662 197.846 721.662L197.801 721.64Z" fill="#263238"/>
<path d="M206.861 737.099C206.616 737.099 206.37 736.988 206.192 736.809C206.08 736.698 196.019 726.771 181.273 730.697C180.738 730.853 180.203 730.518 180.047 729.983C179.913 729.447 180.225 728.912 180.76 728.756C196.644 724.517 207.151 734.958 207.597 735.404C207.976 735.805 207.976 736.43 207.597 736.809C207.396 737.01 207.129 737.099 206.861 737.099Z" fill="#263238"/>
<path d="M218.346 762.575C218.212 762.575 218.056 762.531 217.922 762.464C217.431 762.218 217.253 761.616 217.498 761.125C217.565 760.991 224.391 747.651 222.83 728.399C222.785 727.841 223.187 727.373 223.744 727.328C224.302 727.261 224.771 727.685 224.815 728.243C226.421 748.097 219.55 761.482 219.26 762.04C219.082 762.397 218.703 762.598 218.346 762.575Z" fill="#263238"/>
<path d="M288.061 860.977C288.061 892.677 273.806 918.398 230.618 918.398C187.429 918.398 173.174 892.677 173.174 860.977C173.174 849.02 176.855 837.888 183.101 828.697H278.156C284.403 837.888 288.084 849.02 288.084 860.977H288.061Z" fill="#26DD9B"/>
<path opacity="0.7" d="M288.061 860.977C288.061 892.677 273.806 918.398 230.618 918.398C187.429 918.398 173.174 892.677 173.174 860.977C173.174 849.02 176.855 837.888 183.101 828.697H278.156C284.403 837.888 288.084 849.02 288.084 860.977H288.061Z" fill="white"/>
<path d="M618.075 890.357L640.294 887.122L634.694 835.122L612.453 838.379L618.075 890.357Z" fill="#E8BFBF"/>
<path d="M657.387 887.903C659.328 887.769 661.135 886.966 662.562 885.65C663.165 884.891 663.366 883.865 663.076 882.928C662.942 882.348 662.518 881.857 661.96 881.679C658.993 880.608 650.873 886.609 649.958 887.278C649.78 887.412 649.713 887.657 649.758 887.881C649.824 888.081 650.025 888.238 650.248 888.238C652.635 888.349 655.022 888.238 657.387 887.903ZM660.51 882.683C660.845 882.594 661.202 882.616 661.514 882.705C661.737 882.772 661.916 882.973 661.982 883.218C662.161 883.843 662.049 884.512 661.648 885.003C660.51 886.431 656.874 887.234 651.81 887.234C654.442 885.226 657.409 883.664 660.555 882.638H660.488L660.51 882.683Z" fill="#1FB881"/>
<path d="M650.381 888.237L650.56 888.148C653.036 886.52 657.475 880.876 656.627 878.422C656.382 877.864 655.914 877.173 654.419 877.262C653.348 877.262 652.322 877.753 651.608 878.578C649.199 881.344 649.69 887.434 649.69 887.68C649.69 887.858 649.756 888.037 649.913 888.148C650.047 888.26 650.203 888.282 650.381 888.237ZM654.107 878.377L654.397 878.243C655.378 878.199 655.49 878.556 655.512 878.689C656.025 880.162 653.08 884.512 650.627 886.52C650.403 883.954 650.983 881.389 652.322 879.203C652.79 878.712 653.437 878.399 654.129 878.355H654.084L654.107 878.377Z" fill="#1FB881"/>
<path d="M638.021 877.909L618.322 882.593C617.43 882.772 616.828 883.597 616.917 884.512L617.564 913.022C617.832 915.03 619.683 916.413 621.669 916.145C621.802 916.145 621.936 916.1 622.07 916.056C630.614 913.936 634.63 912.486 645.494 909.988C652.142 908.449 673.223 906.865 681.856 903.028C690.49 899.191 687.121 890.424 683.195 891.271C670.524 893.993 654.261 888.572 645.025 880.318C643.776 879.693 639.381 877.574 638.043 877.909H638.021Z" fill="#263238"/>
<path opacity="0.2" d="M634.694 835.122L637.572 861.936L615.353 865.193L612.453 838.401L634.694 835.122Z" fill="black"/>
<path d="M646.564 850.893L605.45 858.567C605.45 858.567 585.484 830.057 581.714 809.824C577.788 788.743 581.982 716.999 581.714 716.04C570.092 676.778 538.481 575.052 523.244 537.619C514.789 516.872 508.855 502.907 508.855 502.907L513.116 501.948L546.668 488.206L571.118 492.824C571.118 492.824 645.426 643.092 653.234 699.621C659.057 741.828 646.542 850.893 646.542 850.893H646.564Z" fill="#1FB881"/>
<path opacity="0.3" d="M646.564 850.893L605.45 858.567C605.45 858.567 585.484 830.057 581.714 809.824C577.788 788.743 581.982 716.999 581.714 716.04C570.092 676.778 538.481 575.052 523.244 537.619C514.789 516.872 508.855 502.907 508.855 502.907L513.116 501.948L546.668 488.206L571.118 492.824C571.118 492.824 645.426 643.092 653.234 699.621C659.057 741.828 646.542 850.893 646.542 850.893H646.564Z" fill="white"/>
<path opacity="0.2" d="M572.031 682.065C560.408 642.802 536.94 583.261 521.681 545.828L511.576 510.157L509.635 503.286L513.182 509.778L553.002 598.007C570.581 631.782 572.299 683.024 572.031 682.087V682.065Z" fill="black"/>
<path d="M391.588 878.11L411.398 886.453L432.523 841.123L412.736 832.779L391.588 878.11Z" fill="#E8BFBF"/>
<path d="M424.286 895.956C425.847 896.938 427.721 897.361 429.551 897.138C430.443 896.893 431.179 896.224 431.469 895.331C431.692 894.818 431.648 894.194 431.313 893.725C429.618 891.227 419.958 891.249 418.887 891.271C418.664 891.271 418.486 891.427 418.397 891.606C418.33 891.807 418.397 892.03 418.575 892.164C420.36 893.591 422.256 894.863 424.264 895.934L424.286 895.956ZM429.64 893.703C429.952 893.837 430.22 894.037 430.398 894.305C430.532 894.484 430.555 894.751 430.465 894.952C430.265 895.532 429.796 895.978 429.194 896.157C427.498 896.603 424.264 895.175 420.337 892.32C423.505 892.253 426.673 892.721 429.685 893.725H429.618L429.64 893.703Z" fill="#26DD9B"/>
<path d="M418.689 892.275L418.867 892.32C421.678 892.454 428.326 890.602 429.062 888.238C429.174 887.68 429.218 886.877 428.013 886.096C427.166 885.494 426.117 885.293 425.113 885.516C421.7 886.297 418.622 891.249 418.488 891.45C418.376 891.584 418.332 891.785 418.399 891.941C418.443 892.097 418.555 892.208 418.711 892.275H418.689ZM427.143 886.765L427.456 886.832C428.237 887.345 428.125 887.702 428.08 887.814C427.657 889.241 422.927 890.937 419.893 891.115C421.165 889.018 423.083 887.368 425.336 886.431C425.983 886.319 426.653 886.431 427.21 886.81H427.166L427.143 886.765Z" fill="#26DD9B"/>
<path d="M414.989 877.307L397.12 869.789C396.34 869.432 395.403 869.722 394.956 870.48L379.341 892.856C378.426 894.551 379.051 896.67 380.746 897.585C380.858 897.652 380.992 897.697 381.103 897.763C388.889 900.954 392.815 902.114 402.631 906.307C408.631 908.895 425.809 919.559 434.643 921.477C443.477 923.396 445.819 914.74 442.317 913.134C431.007 908.07 421.503 894.707 419.027 883.107C418.402 881.925 416.216 877.798 414.989 877.307Z" fill="#263238"/>
<path opacity="0.2" d="M433.393 841.657L421.926 864.746L402.34 855.957L413.762 832.846L433.393 841.657Z" fill="black"/>
<path d="M437.521 866.822L398.08 845.807C398.08 845.807 390.517 817.721 398.08 799.808C412.625 765.341 450.504 714.657 450.75 713.698C460.855 674.012 478.568 565.37 484.636 525.394C488.004 503.242 489.967 498.468 489.967 498.468L494.139 499.829L554.483 499.94C554.483 499.94 565.86 591.337 522.225 732.838C511.361 768.041 493.18 797.309 463.242 836.929C451.887 851.964 437.499 866.822 437.499 866.822H437.521Z" fill="#26DD9B"/>
<path opacity="0.3" d="M437.521 866.822L398.08 845.807C398.08 845.807 390.517 817.721 398.08 799.808C412.625 765.341 450.504 714.657 450.75 713.698C460.855 674.011 478.568 565.37 484.636 525.394C488.004 503.242 489.967 498.468 489.967 498.468L494.139 499.829L554.483 499.94C554.483 499.94 565.86 591.337 522.225 732.838C511.361 768.041 493.18 797.309 463.242 836.929C451.887 851.964 437.499 866.822 437.499 866.822H437.521Z" fill="white"/>
<path d="M607.951 425.275C608.397 418.493 612.881 409.77 616.763 405.733C618.012 404.439 622.719 402.476 625.374 400.736C638.469 392.147 664.703 381.417 664.703 381.417L672.801 388.466C672.801 388.466 656.829 403.903 647.325 411.31C645.451 412.76 643.287 414.522 641.012 416.396C636.885 419.854 617.432 432.681 613.707 435.893L607.951 425.252V425.275Z" fill="#E8BFBF"/>
<path d="M687.771 377.446L672.802 388.511L664.414 382.331C664.414 382.331 667.85 377.959 671.352 374.59C672.891 373.096 673.739 371.066 673.761 368.924C673.784 365.622 674.297 361.808 676.081 358.997C676.126 358.93 676.148 358.863 676.193 358.818C679.428 353.933 687.035 355.405 688.552 361.049L690.715 369.036C691.563 372.181 690.403 375.527 687.771 377.468V377.446Z" fill="#E8BFBF"/>
<path d="M612.729 428.263L608.781 431.877C607.554 430.896 605.591 429.312 603.137 427.282C583.907 411.309 535.699 372.604 554.929 361.54C571.392 352.059 588.904 381.059 597.627 389.759C599.411 391.566 604.274 397.166 608.201 404.215C612.305 411.599 615.339 420.545 612.729 428.263Z" fill="#263238"/>
<path d="M608.176 400.758C601.35 405.755 595.528 412.09 591.133 419.318C594.301 429.803 602.265 438.905 612.303 443.277C617.814 430.517 620.357 416.775 619.286 402.922C615.806 402.163 611.656 401.516 608.176 400.758Z" fill="#263238"/>
<path d="M502.322 359.287C495.451 361.495 487.576 359.733 483.159 365.444C478.742 371.155 477.426 378.717 477.426 385.945C477.426 395.984 479.724 405.889 482.021 415.66C484.787 427.528 487.554 439.396 490.342 451.264C492.238 459.384 490.253 497.085 492.261 497.732C492.261 497.732 555.326 496.505 571.143 494.274C571.143 494.274 572.526 455.502 573.775 442.296C574.065 439.373 578.504 426.925 579.017 423.802C581.471 409.079 576.653 398.683 571.544 384.651C571.544 384.651 560.368 362.165 554.925 361.562C545.221 360.469 521.485 353.13 502.322 359.309V359.287Z" fill="#263238"/>
<path d="M499.669 377.892C499.446 376.576 488.248 353.978 477.517 369.772C462.593 391.768 461.589 419.385 461.589 419.385C461.589 419.385 452.421 446.244 458.801 452.111C465.203 457.979 472.096 461.749 476.558 458.425C481.02 455.101 483.92 448.453 483.92 448.453C483.92 448.453 503.573 400.914 499.669 377.892Z" fill="#263238"/>
<path d="M498.937 350.899C494.23 354.58 494.855 363.079 500.03 366.046C498.737 370.597 500.254 375.862 503.801 379.007C507.348 382.153 512.746 383.045 517.119 381.216C515.222 384.607 517.364 389.068 520.621 391.165C523.878 393.262 527.916 393.642 531.753 394.155C535.59 394.668 539.65 395.493 542.461 398.192C546.432 392.481 550.402 386.748 554.396 381.037C555.935 378.807 557.541 376.42 557.675 373.72C557.786 371.021 555.734 368.032 553.035 368.232C555.779 365.377 555.846 360.335 553.146 357.413C550.469 354.491 545.45 354.111 542.349 356.61C542.907 354.312 541.568 351.881 539.628 350.542C537.687 349.204 535.277 348.735 532.935 348.512L498.937 350.921V350.899Z" fill="#263238"/>
<path d="M506.091 321.786C509.192 333.163 512.962 354.155 505.422 362.454C505.422 362.454 526.726 370.976 541.851 388.086C548.901 381.238 548.164 373.541 546.001 367.92C544.327 363.569 540.736 360.335 536.43 358.505C528.132 354.981 528.065 346.816 529.448 339.008L506.069 321.786H506.091Z" fill="#E8BFBF"/>
<path opacity="0.2" d="M510.738 341.172L518.568 343.292C521.915 344.206 525.439 344.407 528.875 343.894C528.853 345.589 528.54 349.159 529.611 351.055C525.105 353.219 517.498 351.747 514.151 347.776C512.768 346.236 511.519 343.091 510.761 341.15L510.738 341.172Z" fill="black"/>
<path d="M490.9 312.105C499.199 329.595 502.322 337.179 515.105 342.756C534.334 351.167 553.965 337.113 551.043 317.504C548.433 299.858 535.293 274.203 514.881 274.114C500.292 273.98 488.357 285.67 488.201 300.259C488.156 304.364 489.071 308.424 490.878 312.127L490.9 312.105Z" fill="#E8BFBF"/>
<path d="M500.004 278.687C493.958 275.876 486.463 278.174 481.421 282.591C476.312 287.097 473.189 293.388 470.2 299.523C468.572 302.847 466.943 306.238 466.185 309.852C465.426 313.488 465.649 317.459 467.568 320.626C469.442 323.727 472.944 325.78 476.558 325.98C478.633 326.092 481.064 327.609 481.756 329.572C482.38 331.401 482.09 333.387 481.8 335.283C481.51 337.135 481.243 339.053 481.823 340.815C482.782 343.76 485.927 345.545 489.028 345.857C492.107 346.147 495.163 345.255 498.152 344.385C500.026 343.827 501.922 344.139 503.395 345.456C503.752 345.79 504.064 346.169 504.287 346.616C505.202 348.378 507.879 348.088 508.659 346.259C511.359 339.834 507.432 329.594 501.588 321.764C498.487 317.615 498.643 318.663 497.438 313.622C496.412 309.428 497.951 305.055 499.848 301.174C502.346 295.998 505.581 290.934 504.577 284.755C504.153 282.145 502.458 279.802 500.071 278.687H500.004Z" fill="#263238"/>
<path d="M491.411 329.996C494.155 332.918 497.97 334.636 501.985 334.77C507.317 334.881 508.656 329.795 506.09 325.467C503.77 321.563 498.193 316.812 493.374 318.686C488.556 320.582 488.065 326.337 491.411 329.996Z" fill="#E8BFBF"/>
<path d="M524.228 308.981C524.852 310.521 526.057 311.324 527.016 310.922C527.975 310.521 528.221 309.071 527.685 307.576C527.15 306.081 525.856 305.256 524.897 305.635C523.938 306.014 523.648 307.509 524.228 308.981Z" fill="#263238"/>
<path d="M540.56 301.954C541.162 303.493 542.389 304.297 543.348 303.917C544.285 303.538 544.553 302.066 544.017 300.571C543.482 299.076 542.188 298.251 541.229 298.608C540.27 298.965 539.98 300.482 540.56 301.954Z" fill="#263238"/>
<path d="M540.809 298.898L543.909 296.467C543.909 296.467 543.24 299.924 540.809 298.898Z" fill="#263238"/>
<path d="M536.324 305.234C540.117 308.981 542.972 309.651 547.077 312.238C546.965 315.875 543.53 316.722 543.53 316.722L536.324 305.256V305.234Z" fill="#ED847E"/>
<path d="M541.788 323.861C542.502 323.594 543.171 323.281 543.84 322.902C544.064 322.791 544.13 322.523 544.019 322.3C543.885 322.077 543.617 322.01 543.394 322.099C539.936 324.107 535.72 324.33 532.062 322.701C531.839 322.59 531.549 322.657 531.437 322.902C531.326 323.125 531.392 323.415 531.638 323.527C534.85 324.999 538.509 325.133 541.81 323.884L541.788 323.861Z" fill="#263238"/>
<path d="M523.629 296.846C523.607 297.269 523.317 297.626 522.915 297.738C518.632 299.01 516.736 304.43 516.736 304.475C516.558 304.988 516.022 305.256 515.509 305.077C514.996 304.899 514.728 304.364 514.907 303.85C515.063 303.65 517.138 297.426 522.358 295.864C522.871 295.73 523.406 296.02 523.562 296.511C523.607 296.623 523.629 296.712 523.652 296.823L523.629 296.846Z" fill="#263238"/>
<path d="M543.373 294.213C543.016 294.437 542.57 294.392 542.236 294.124C538.756 291.336 533.201 292.875 533.179 292.875C532.665 293.031 532.13 292.741 531.974 292.228C531.818 291.715 532.108 291.18 532.621 291.023C532.889 291.023 539.18 289.194 543.44 292.585C543.842 292.92 543.909 293.522 543.596 293.946C543.552 294.035 543.463 294.124 543.373 294.191V294.213Z" fill="#263238"/>
<path d="M524.521 305.903L527.622 303.493C527.622 303.493 526.908 306.951 524.521 305.903Z" fill="#263238"/>
<path d="M501.343 275.765C496.48 276.144 491.84 278.932 489.207 283.037C487.445 285.803 486.82 289.997 489.43 291.96C490.657 292.875 492.286 293.054 493.803 293.187C500.585 293.79 508.972 288.547 508.972 288.547C506.362 277.46 529.608 268.871 541.074 286.049C544.442 291.09 543.528 294.749 549.127 297.091C551.76 298.184 555.24 297.894 556.935 300.192C559.746 304.007 554.347 310.476 557.783 313.756C560.125 316.009 565.435 315.139 565.747 318.373C565.903 319.89 564.899 322.077 566.372 322.523C567.175 322.768 567.911 322.032 568.446 321.363C569.718 319.757 571.012 318.083 571.436 316.098C571.859 314.113 571.168 311.703 569.294 310.856C567.866 310.209 564.096 310.923 564.364 312.484C564.676 314.336 563.07 305.212 563.784 301.776C564.408 298.765 567.264 296.177 566.394 293.232C565.457 290.087 561.731 288.837 558.497 288.369C555.262 287.9 551.581 287.499 549.596 284.911C547.387 282.011 548.391 277.862 547.677 274.292C546.763 269.741 542.97 266.194 538.709 264.343C525.771 258.744 505.782 259.524 501.321 275.787L501.343 275.765Z" fill="#263238"/>
<path d="M538.076 335.283L493.482 357.68C478.825 365.042 472.177 382.376 478.178 397.657L499.683 452.513C505.684 467.794 522.326 476.003 538.098 471.452L586.061 457.621C604.041 452.446 613.656 432.926 606.83 415.503L581.956 352.059C575.13 334.636 554.807 326.85 538.098 335.261L538.076 335.283ZM530.714 429.513C520.765 433.417 509.544 428.509 505.64 418.559C501.736 408.61 506.643 397.389 516.593 393.507C526.542 389.603 537.763 394.511 541.667 404.461C545.571 414.41 540.664 425.631 530.714 429.513Z" fill="#26DD9B"/>
<path d="M538.076 335.283L493.482 357.68C478.825 365.042 472.177 382.376 478.178 397.657L499.683 452.513C505.684 467.794 522.326 476.003 538.098 471.452L586.061 457.621C604.041 452.446 613.656 432.926 606.83 415.503L581.956 352.059C575.13 334.636 554.807 326.85 538.098 335.261L538.076 335.283ZM530.714 429.513C520.765 433.417 509.544 428.509 505.64 418.559C501.736 408.61 506.643 397.389 516.593 393.507C526.542 389.603 537.763 394.511 541.667 404.461C545.571 414.41 540.664 425.631 530.714 429.513Z" fill="#26DD9B"/>
<path opacity="0.1" d="M606.811 415.548L581.915 352.104C575.089 334.681 554.766 326.895 538.057 335.283L525.096 341.797L516.396 346.17L493.463 357.703C478.784 365.065 472.159 382.398 478.137 397.679L499.642 452.535C505.643 467.817 522.285 476.026 538.057 471.475L586.042 457.644C589.968 456.506 593.493 454.677 596.549 452.335C598.914 450.528 600.989 448.431 602.706 446.088C608.997 437.634 610.983 426.189 606.811 415.548ZM530.673 429.513C520.746 433.417 509.503 428.509 505.621 418.56C501.717 408.633 506.625 397.389 516.574 393.508C526.501 389.604 537.745 394.512 541.626 404.439C545.508 414.388 540.623 425.609 530.673 429.491V429.513Z" fill="white"/>
<path d="M538.525 339.455L496.697 360.469C482.933 367.384 476.731 383.625 482.33 397.947L502.497 449.39C508.119 463.711 523.735 471.43 538.525 467.147L583.521 454.163C600.386 449.3 609.398 431.008 602.996 414.678L579.661 355.182C573.259 338.852 554.185 331.535 538.525 339.432V339.455ZM505.62 418.537C501.716 408.588 506.624 397.367 516.574 393.485C526.523 389.581 537.744 394.489 541.648 404.438C545.552 414.388 540.644 425.609 530.695 429.491C520.745 433.395 509.524 428.487 505.62 418.537Z" fill="#26DD9B"/>
<path opacity="0.1" d="M538.525 339.455L496.697 360.469C482.933 367.384 476.731 383.625 482.33 397.947L502.497 449.39C508.119 463.711 523.735 471.43 538.525 467.147L583.521 454.163C600.386 449.3 609.398 431.008 602.996 414.678L579.661 355.182C573.259 338.852 554.185 331.535 538.525 339.432V339.455ZM505.62 418.537C501.716 408.588 506.624 397.367 516.574 393.485C526.523 389.581 537.744 394.489 541.648 404.438C545.552 414.388 540.644 425.609 530.695 429.491C520.745 433.395 509.524 428.487 505.62 418.537Z" fill="#26DD9B"/>
<path d="M746.392 319.623L745.121 321.965L744.407 323.259L742.399 326.94L743.247 336.376C743.291 336.778 743.247 337.179 743.113 337.558C742.845 338.384 742.221 339.053 741.395 339.388L723.772 346.281C722.946 346.616 722.032 346.526 721.273 346.102C721.028 345.969 720.805 345.79 720.604 345.589L710.632 335.461H710.61L696.444 340.972L698.497 346.214L684.331 351.769L687.722 360.402L677.281 364.484C676.434 364.819 675.474 364.752 674.694 364.351C674.426 364.217 674.203 364.038 673.98 363.837L667.957 358.171L653.791 363.726L657.182 372.359L642.28 378.204L645.671 386.86C646.228 388.265 645.537 389.871 644.109 390.429L603.285 406.402L585.572 361.227L733.23 303.427L735.551 304.609L743.046 308.446C747.129 310.543 748.668 315.585 746.482 319.6L746.392 319.623Z" fill="#26DD9B"/>
<g opacity="0.1">
<path d="M746.394 319.623L745.123 321.965L744.409 323.259L742.401 326.94L743.249 336.376C743.293 336.778 743.249 337.179 743.115 337.558C742.847 338.384 742.223 339.053 741.397 339.388L723.774 346.281C722.948 346.616 722.034 346.526 721.275 346.102C721.03 345.969 720.807 345.79 720.606 345.589L710.634 335.461H710.612L696.446 340.972L698.499 346.214L684.333 351.769L687.724 360.402L677.283 364.484C676.436 364.819 675.476 364.752 674.696 364.351C674.428 364.217 674.205 364.038 673.982 363.837L667.959 358.171L653.793 363.726L657.184 372.359L642.282 378.204L645.673 386.86C646.23 388.265 645.539 389.871 644.111 390.429L603.287 406.402L585.574 361.227L733.232 303.427L735.553 304.609L743.048 308.446C747.13 310.543 748.67 315.585 746.484 319.6L746.394 319.623Z" fill="white"/>
</g>
<path d="M745.816 314.469L587.963 376.263L583.367 364.663L733.881 305.747L741.376 309.584C744.232 311.056 745.86 312.395 745.838 314.469H745.816Z" fill="#26DD9B"/>
<path opacity="0.1" d="M745.816 314.469L587.963 376.263L583.367 364.663L733.881 305.747L741.376 309.584C744.232 311.056 745.86 312.395 745.838 314.469H745.816Z" fill="black"/>
<path d="M742.69 323.192L741.173 326.627C741.173 326.627 741.128 326.739 741.151 326.806L741.998 336.153C742.021 336.488 741.998 336.822 741.909 337.157C741.887 337.268 741.798 337.358 741.686 337.402L722.523 344.942C722.523 344.942 722.3 344.987 722.211 344.92C722.033 344.809 721.854 344.675 721.698 344.496L710.745 333.476C710.745 333.476 710.499 333.342 710.365 333.387L694.794 339.521C694.616 339.588 694.526 339.811 694.593 339.99L696.445 344.675C696.512 344.853 696.445 345.076 696.244 345.143L682.971 350.363C682.792 350.43 682.703 350.653 682.77 350.832L685.96 358.93C686.027 359.108 685.96 359.331 685.759 359.398L676.033 363.235C676.033 363.235 675.81 363.28 675.721 363.235C675.52 363.124 675.319 362.967 675.141 362.811L668.024 356.253C668.024 356.253 667.779 356.141 667.645 356.186L652.185 362.276C652.007 362.343 651.918 362.566 651.985 362.744L655.264 371.043C655.331 371.221 655.264 371.445 655.063 371.511L595.701 394.868C595.523 394.935 595.299 394.868 595.232 394.667L589.299 379.81C589.232 379.632 589.299 379.409 589.499 379.342L744.185 318.462C744.475 318.351 744.787 318.641 744.653 318.953L742.712 323.236L742.69 323.192Z" fill="#26DD9B"/>
<path opacity="0.1" d="M742.69 323.192L741.173 326.627C741.173 326.627 741.128 326.739 741.151 326.806L741.998 336.153C742.021 336.488 741.998 336.822 741.909 337.157C741.887 337.268 741.798 337.358 741.686 337.402L722.523 344.942C722.523 344.942 722.3 344.987 722.211 344.92C722.033 344.809 721.854 344.675 721.698 344.496L710.745 333.476C710.745 333.476 710.499 333.342 710.365 333.387L694.794 339.521C694.616 339.588 694.526 339.811 694.593 339.99L696.445 344.675C696.512 344.853 696.445 345.076 696.244 345.143L682.971 350.363C682.792 350.43 682.703 350.653 682.77 350.832L685.96 358.93C686.027 359.108 685.96 359.331 685.759 359.398L676.033 363.235C676.033 363.235 675.81 363.28 675.721 363.235C675.52 363.124 675.319 362.967 675.141 362.811L668.024 356.253C668.024 356.253 667.779 356.141 667.645 356.186L652.185 362.276C652.007 362.343 651.918 362.566 651.985 362.744L655.264 371.043C655.331 371.221 655.264 371.445 655.063 371.511L595.701 394.868C595.523 394.935 595.299 394.868 595.232 394.667L589.299 379.81C589.232 379.632 589.299 379.409 589.499 379.342L744.185 318.462C744.475 318.351 744.787 318.641 744.653 318.953L742.712 323.236L742.69 323.192Z" fill="black"/>
<path opacity="0.3" d="M515.393 388.666C502.923 393.552 496.765 407.628 501.651 420.098C506.536 432.569 520.613 438.726 533.106 433.84C545.576 428.955 551.733 414.878 546.847 402.408C541.962 389.938 527.885 383.781 515.393 388.666ZM530.696 429.49C520.747 433.394 509.526 428.486 505.622 418.537C501.718 408.587 506.626 397.366 516.575 393.485C526.525 389.581 537.746 394.489 541.65 404.438C545.554 414.388 540.646 425.609 530.696 429.49Z" fill="white"/>
<path opacity="0.1" d="M602.713 446.065C600.973 448.408 598.921 450.527 596.556 452.312L516.403 346.147L516.336 346.058C516.336 346.058 523.408 342.511 524.992 341.462C524.992 341.551 525.036 341.663 525.103 341.797C528.605 349.315 591.604 431.119 602.713 446.088V446.065Z" fill="white"/>
<path opacity="0.1" d="M591.132 455.658C590.619 455.903 567.284 462.997 567.284 462.997L541.25 428.531C547.988 421.928 550.508 411.711 546.85 402.386C541.964 389.916 527.888 383.759 515.395 388.644C514.302 389.068 513.276 389.559 512.272 390.139L489.25 359.643C489.25 359.643 509.484 350.006 511.737 348.601C512.339 352.884 591.132 454.766 591.132 455.68V455.658Z" fill="white"/>
<path d="M495.592 288.213C492.982 291.313 491.911 295.664 492.804 299.612C493.674 303.561 496.484 307.041 500.165 308.758C502.061 309.651 504.158 310.075 506.055 310.989C507.929 311.926 509.691 313.555 509.892 315.652C510.115 317.972 508.419 320.113 508.575 322.433C508.732 324.553 510.382 326.226 512.056 327.542C513.729 328.858 515.603 330.085 516.517 332.004C517.432 333.922 516.852 336.755 514.799 337.313C514.376 337.982 514.197 339.566 514.755 340.124C515.313 340.682 516.272 340.815 516.941 340.392C520.086 338.451 522.25 334.815 522.273 331.111C522.295 327.408 519.975 323.817 516.606 322.3C516.004 321.073 516.473 319.511 516.986 318.239C518.012 315.696 519.038 313.131 520.042 310.588C520.443 309.584 520.086 307.755 519.395 306.929C518.703 306.104 517.677 305.635 516.673 305.211L510.092 302.401C507.616 301.33 500.232 291.47 508.977 288.592C507.839 286.049 505.854 285.268 503.132 284.755C500.411 284.242 497.399 286.138 495.614 288.257L495.592 288.213Z" fill="#263238"/>
<path d="M507.526 277.594C507.303 280.181 507.08 282.791 506.879 285.379C509.065 281.81 513.103 274.872 512.947 275.14C511.229 276.077 509.244 276.657 507.526 277.594Z" fill="#263238"/>
<path d="M510.469 281.855C513.525 279.044 516.559 276.211 519.615 273.4C517.273 272.53 514.417 273.177 512.7 275.006C512.744 274.806 511.339 279.133 510.491 281.855H510.469Z" fill="#263238"/>
<path d="M491.886 492.913C479.996 507.681 483.944 518.991 467.525 545.136C488.227 560.484 510.937 563.027 539.179 560.841C542.526 554.93 544.199 548.772 547.545 542.861C552.319 548.795 556.178 553.792 560.952 559.726C575.743 557.406 593.322 553.256 605.011 545.716C594.682 533.871 588.258 519.08 581.654 506.008C578.553 499.873 579.847 497.307 571.616 489.276C545.403 490.481 519.414 491.128 493.202 492.333C493.894 492.377 491.194 492.89 491.886 492.913Z" fill="#263238"/>
<path d="M495.143 490.437L493.492 497.33C493.246 497.865 493.893 498.378 494.786 498.334L567.02 495.144C567.711 495.144 568.269 494.742 568.291 494.318L568.671 487.47C568.671 487.001 568.068 486.622 567.31 486.667L496.325 489.79C495.834 489.79 495.388 490.013 495.12 490.414L495.143 490.437Z" fill="#26DD9B"/>
<path d="M495.143 490.437L493.492 497.33C493.246 497.865 493.893 498.378 494.786 498.334L567.02 495.144C567.711 495.144 568.269 494.742 568.291 494.318L568.671 487.47C568.671 487.001 568.068 486.622 567.31 486.667L496.325 489.79C495.834 489.79 495.388 490.013 495.12 490.414L495.143 490.437Z" fill="#26DD9B"/>
<path d="M511.072 498.356L508.975 498.445C508.573 498.445 508.239 498.267 508.261 498.021L508.819 489.12C508.819 488.875 509.175 488.652 509.599 488.63L511.696 488.518C512.098 488.518 512.432 488.697 512.41 488.964L511.852 497.843C511.83 498.088 511.473 498.334 511.072 498.356Z" fill="#263238"/>
<path d="M563.23 496.103L561.133 496.192C560.731 496.192 560.397 496.014 560.419 495.768L560.977 486.89C560.977 486.622 561.334 486.399 561.735 486.377L563.832 486.287C564.234 486.287 564.568 486.466 564.546 486.711L563.988 495.59C563.988 495.858 563.654 496.081 563.23 496.103Z" fill="#263238"/>
<path d="M520.389 455.033C520.523 455.68 526.144 464.626 530.539 464.001C530.584 464.001 530.606 464.001 530.65 464.001C531.922 463.823 533.216 464.336 533.997 465.362C535.759 467.66 536.83 468.976 538.012 470.493C539.953 472.947 543.322 473.727 546.132 472.411C546.98 472.032 547.806 471.586 548.631 471.162C551.353 469.712 552.736 466.589 551.999 463.599C551.196 460.32 549.925 457.152 548.252 454.208C547.672 453.204 547.025 452.2 546.021 451.62C545.017 451.04 535.335 448.118 531.587 448.229C527.683 448.363 523.958 453.471 520.389 455.055V455.033Z" fill="#E8BFBF"/>
<path d="M531.701 447.917C531.701 447.917 472.405 429.959 459.6 441.916C452.083 448.943 455.63 455.591 459.846 459.852C462.969 463.042 469.795 462.261 474.235 462.038L520.948 457.465L531.701 447.917Z" fill="#E8BFBF"/>
<path d="M497.617 439.708C497.305 436.495 494.806 433.841 491.929 432.391C489.051 430.963 485.772 430.517 482.582 430.115C475.131 429.178 467.68 428.219 460.229 427.282C456.436 432.056 453.715 438.637 453.848 444.749C453.96 450.839 456.258 456.885 460.229 461.525C463.798 454.632 468.505 447.538 475.465 444.102C482.425 440.689 490.01 438.325 497.64 439.708H497.617Z" fill="#263238"/>
<path opacity="0.1" d="M482.335 331.402C482.268 331.268 482.268 331.201 482.335 331.179C482.805 331.044 482.738 331.134 482.335 331.402Z" fill="white"/>
<path d="M629.66 235.387L646.191 266.017L713.606 208.774C714.208 208.261 713.517 207.346 712.87 207.792L649.671 249.509L639.922 230.502L629.66 235.387Z" fill="#26DD9B"/>
<path d="M736.025 235.543C736.025 262.849 707.359 284.978 672.023 284.978C658.46 284.978 645.878 281.744 635.527 276.144L597.938 292.474L621.651 266.061C613.107 257.695 607.998 247.099 607.998 235.566C607.998 208.26 636.665 186.13 672.001 186.13C707.337 186.13 736.003 208.26 736.003 235.566L736.025 235.543Z" stroke="#26DD9B" stroke-width="1.3" stroke-miterlimit="10"/>
</g>
<defs>
<clipPath id="clip0_341_678">
<rect width="960" height="1080" fill="white"/>
</clipPath>
</defs>
</svg>
