<svg width="672" height="756" viewBox="0 0 960 1080" fill="none" xmlns="http://www.w3.org/2000/svg">
<path d="M875.436 239.999H752.072V368.459H875.436V239.999Z" fill="#E0E0E0"/>
<path d="M867.096 239.999H743.732V368.459H867.096V239.999Z" fill="#FAFAFA"/>
<path d="M867.132 368.495H743.697V239.964H867.132V368.495ZM743.769 368.424H867.061V240.035H743.769V368.424Z" fill="#E0E0E0"/>
<path d="M850.503 257.27H760.307V351.189H850.503V257.27Z" fill="white"/>
<path d="M760.308 351.813C760.308 351.813 759.522 352.883 758.075 354.4C756.628 355.917 754.61 357.968 752.342 360.199C750.073 362.429 747.984 364.427 746.448 365.837C744.912 367.246 743.912 368.085 743.84 368.013C743.769 367.942 744.608 366.961 746.055 365.444C747.502 363.927 749.52 361.858 751.806 359.628C754.074 357.38 756.164 355.399 757.718 353.99C759.254 352.58 760.236 351.742 760.308 351.831V351.813Z" fill="#E0E0E0"/>
<path d="M850.504 351.581C850.504 351.581 851.576 352.366 853.094 353.811C854.612 355.256 856.666 357.273 858.898 359.538C861.131 361.804 863.131 363.892 864.542 365.426C865.953 366.961 866.793 367.96 866.721 368.031C866.65 368.102 865.668 367.264 864.149 365.819C862.631 364.374 860.559 362.357 858.327 360.074C856.094 357.808 854.094 355.72 852.683 354.168C851.272 352.634 850.432 351.652 850.522 351.581H850.504Z" fill="#E0E0E0"/>
<path d="M850.252 257.52C850.252 257.52 851.038 256.449 852.485 254.933C853.931 253.416 855.949 251.364 858.218 249.134C860.486 246.904 862.576 244.906 864.112 243.496C865.648 242.087 866.648 241.248 866.719 241.319C866.791 241.391 865.951 242.372 864.505 243.889C863.058 245.405 861.04 247.475 858.754 249.705C856.485 251.953 854.396 253.933 852.842 255.343C851.306 256.752 850.323 257.591 850.252 257.502V257.52Z" fill="#E0E0E0"/>
<path d="M760.058 257.752C760.058 257.752 758.986 256.967 757.468 255.521C755.95 254.076 753.896 252.06 751.663 249.794C749.43 247.528 747.43 245.441 746.019 243.906C744.608 242.372 743.769 241.373 743.84 241.302C743.912 241.23 744.894 242.069 746.412 243.514C747.93 244.959 750.002 246.975 752.235 249.259C754.467 251.525 756.468 253.612 757.879 255.165C759.29 256.699 760.129 257.68 760.04 257.752H760.058Z" fill="#E0E0E0"/>
<path d="M850.255 351.188C850.255 351.188 850.255 351.028 850.237 350.724C850.237 350.403 850.237 349.975 850.219 349.422C850.219 348.244 850.201 346.549 850.184 344.355C850.166 339.912 850.13 333.436 850.094 325.211C850.059 308.761 849.987 285.335 849.916 257.27L850.255 257.609C824 257.609 793.155 257.644 760.309 257.662L760.702 257.27C760.684 291.74 760.666 323.998 760.648 351.188L760.309 350.849C787.261 350.921 809.711 350.974 825.447 351.028C833.305 351.063 839.485 351.099 843.736 351.117C845.843 351.117 847.451 351.153 848.576 351.153C849.112 351.153 849.523 351.153 849.826 351.171C850.112 351.171 850.255 351.171 850.255 351.188C850.255 351.188 850.13 351.188 849.862 351.206C849.558 351.206 849.166 351.206 848.648 351.224C847.54 351.224 845.951 351.242 843.879 351.26C839.646 351.278 833.484 351.313 825.661 351.349C809.872 351.385 787.35 351.456 760.309 351.527H759.97V351.188C759.97 323.998 759.934 291.74 759.916 257.27V256.877H760.309C793.155 256.895 824 256.913 850.255 256.931H850.612V257.27C850.541 285.424 850.469 308.939 850.434 325.443C850.398 333.632 850.362 340.073 850.344 344.498C850.344 346.674 850.309 348.334 850.309 349.493C850.309 350.029 850.309 350.457 850.291 350.76C850.291 351.046 850.291 351.188 850.273 351.171L850.255 351.188Z" fill="#E0E0E0"/>
<path d="M820.46 289.207H790.365V319.27H820.46V289.207Z" fill="#EBEBEB"/>
<path d="M875.436 417.845H752.072V546.305H875.436V417.845Z" fill="#E0E0E0"/>
<path d="M867.096 417.845H743.732V546.305H867.096V417.845Z" fill="#FAFAFA"/>
<path d="M867.132 546.358H743.697V417.827H867.132V546.358ZM743.769 546.287H867.061V417.898H743.769V546.287Z" fill="#E0E0E0"/>
<path d="M850.503 435.115H760.307V529.034H850.503V435.115Z" fill="white"/>
<path d="M760.308 529.677C760.308 529.677 759.522 530.747 758.075 532.264C756.628 533.78 754.61 535.832 752.342 538.062C750.073 540.292 747.984 542.291 746.448 543.7C744.912 545.11 743.912 545.948 743.84 545.877C743.769 545.805 744.608 544.824 746.055 543.308C747.502 541.791 749.52 539.721 751.806 537.491C754.074 535.261 756.164 533.263 757.718 531.853C759.254 530.444 760.236 529.605 760.308 529.694V529.677Z" fill="#E0E0E0"/>
<path d="M850.504 529.445C850.504 529.445 851.576 530.23 853.094 531.675C854.612 533.12 856.666 535.136 858.898 537.402C861.131 539.668 863.131 541.756 864.542 543.29C865.953 544.824 866.793 545.823 866.721 545.895C866.65 545.966 865.668 545.128 864.149 543.683C862.631 542.237 860.559 540.221 858.327 537.937C856.094 535.672 854.094 533.584 852.683 532.032C851.272 530.497 850.432 529.516 850.522 529.445H850.504Z" fill="#E0E0E0"/>
<path d="M850.252 435.365C850.252 435.365 851.038 434.295 852.485 432.778C853.931 431.262 855.949 429.21 858.218 426.98C860.486 424.75 862.576 422.751 864.112 421.342C865.648 419.932 866.648 419.094 866.719 419.165C866.791 419.236 865.951 420.218 864.505 421.734C863.058 423.251 861.04 425.32 858.754 427.551C856.485 429.781 854.396 431.779 852.842 433.189C851.306 434.598 850.323 435.437 850.252 435.348V435.365Z" fill="#E0E0E0"/>
<path d="M760.058 435.597C760.058 435.597 758.986 434.812 757.468 433.367C755.95 431.922 753.896 429.906 751.663 427.64C749.43 425.374 747.43 423.286 746.019 421.752C744.608 420.218 743.769 419.218 743.84 419.147C743.912 419.076 744.894 419.914 746.412 421.359C747.93 422.805 750.002 424.821 752.235 427.104C754.467 429.37 756.468 431.458 757.879 433.01C759.29 434.544 760.129 435.526 760.04 435.597H760.058Z" fill="#E0E0E0"/>
<path d="M850.255 529.034C850.255 529.034 850.255 528.874 850.237 528.57C850.237 528.249 850.237 527.821 850.219 527.268C850.219 526.09 850.201 524.395 850.184 522.201C850.166 517.758 850.13 511.282 850.094 503.057C850.059 486.607 849.987 463.181 849.916 435.116L850.255 435.455C824 435.455 793.155 435.49 760.309 435.508L760.702 435.116C760.684 469.586 760.666 501.844 760.648 529.034L760.309 528.695C787.261 528.767 809.711 528.82 825.447 528.874C833.305 528.909 839.485 528.945 843.736 528.963C845.843 528.963 847.451 528.999 848.576 528.999C849.112 528.999 849.523 528.999 849.826 529.016C850.112 529.016 850.255 529.016 850.255 529.034C850.255 529.034 850.13 529.034 849.862 529.052C849.558 529.052 849.166 529.052 848.648 529.07C847.54 529.07 845.951 529.088 843.879 529.106C839.646 529.123 833.484 529.159 825.661 529.195C809.872 529.231 787.35 529.302 760.309 529.373H759.97V529.034C759.97 501.844 759.934 469.586 759.916 435.116V434.723H760.309C793.155 434.741 824 434.759 850.255 434.777H850.612V435.116C850.541 463.27 850.469 486.785 850.434 503.289C850.398 511.478 850.362 517.919 850.344 522.344C850.344 524.52 850.309 526.18 850.309 527.339C850.309 527.875 850.309 528.303 850.291 528.606C850.291 528.892 850.291 529.034 850.273 529.016L850.255 529.034Z" fill="#E0E0E0"/>
<path d="M820.46 467.052H790.365V497.115H820.46V467.052Z" fill="#EBEBEB"/>
<path d="M231.65 551.426H134.346V652.767H231.65V551.426Z" fill="#E0E0E0"/>
<path d="M225.059 551.426H127.754V652.767H225.059V551.426Z" fill="#FAFAFA"/>
<path d="M225.095 652.784H127.719V551.39H225.095V652.784ZM127.79 652.731H225.041V551.461H127.79V652.731Z" fill="#E0E0E0"/>
<path d="M212.002 565.057H140.846V639.153H212.002V565.057Z" fill="white"/>
<path d="M140.845 639.635C140.845 639.635 140.22 640.473 139.094 641.669C137.951 642.864 136.362 644.488 134.576 646.254C132.79 648.02 131.147 649.59 129.932 650.696C128.717 651.803 127.932 652.463 127.878 652.409C127.824 652.356 128.485 651.571 129.628 650.375C130.771 649.18 132.361 647.556 134.165 645.79C135.969 644.024 137.612 642.454 138.827 641.33C140.041 640.223 140.809 639.563 140.881 639.635H140.845Z" fill="#E0E0E0"/>
<path d="M211.984 639.456C211.984 639.456 212.823 640.081 214.02 641.205C215.217 642.347 216.842 643.935 218.61 645.719C220.378 647.503 221.95 649.144 223.057 650.358C224.165 651.571 224.826 652.356 224.772 652.409C224.718 652.463 223.933 651.803 222.736 650.661C221.539 649.519 219.914 647.931 218.146 646.129C216.377 644.345 214.806 642.686 213.681 641.472C212.573 640.259 211.912 639.492 211.984 639.421V639.456Z" fill="#E0E0E0"/>
<path d="M211.79 565.253C211.79 565.253 212.415 564.414 213.54 563.219C214.683 562.024 216.273 560.4 218.059 558.634C219.845 556.867 221.488 555.297 222.702 554.191C223.917 553.085 224.703 552.425 224.756 552.478C224.81 552.532 224.149 553.317 223.006 554.512C221.863 555.708 220.273 557.331 218.469 559.098C216.683 560.864 215.022 562.434 213.808 563.558C212.593 564.664 211.825 565.324 211.754 565.253H211.79Z" fill="#E0E0E0"/>
<path d="M140.649 565.431C140.649 565.431 139.809 564.807 138.613 563.683C137.416 562.541 135.791 560.953 134.022 559.169C132.254 557.385 130.682 555.743 129.575 554.53C128.468 553.317 127.807 552.532 127.86 552.478C127.914 552.425 128.7 553.085 129.897 554.227C131.093 555.369 132.719 556.957 134.487 558.759C136.255 560.561 137.827 562.202 138.952 563.415C140.059 564.629 140.72 565.396 140.649 565.467V565.431Z" fill="#E0E0E0"/>
<path d="M211.789 639.135C211.789 639.135 211.789 639.01 211.789 638.778C211.789 638.529 211.789 638.19 211.789 637.744C211.789 636.816 211.771 635.478 211.753 633.747C211.753 630.232 211.718 625.13 211.682 618.653C211.646 605.682 211.593 587.198 211.539 565.057L211.807 565.324C191.089 565.324 166.762 565.342 140.864 565.36L141.186 565.039C141.186 592.229 141.15 617.672 141.15 639.135L140.882 638.868C162.136 638.921 179.854 638.975 192.249 639.01C198.447 639.046 203.323 639.064 206.681 639.082C208.342 639.082 209.61 639.1 210.503 639.117C210.914 639.117 211.253 639.117 211.485 639.117C211.7 639.117 211.825 639.117 211.825 639.117C211.825 639.117 211.718 639.117 211.503 639.117C211.271 639.117 210.95 639.117 210.539 639.117C209.664 639.117 208.413 639.117 206.77 639.153C203.43 639.153 198.572 639.189 192.392 639.224C179.944 639.26 162.172 639.314 140.847 639.367H140.579V639.1C140.579 617.636 140.543 592.212 140.543 565.003V564.682H140.864C166.78 564.682 191.106 564.718 211.807 564.718H212.075V564.985C212.021 587.198 211.968 605.736 211.932 618.76C211.896 625.219 211.878 630.304 211.86 633.801C211.86 635.513 211.843 636.834 211.825 637.744C211.825 638.172 211.825 638.511 211.825 638.743C211.825 638.975 211.825 639.082 211.825 639.064L211.789 639.135Z" fill="#E0E0E0"/>
<path d="M188.284 590.231H164.547V613.943H188.284V590.231Z" fill="#EBEBEB"/>
<path d="M862.681 598.634C843.552 608.536 828.889 625.575 818.351 644.327C807.813 663.078 801.008 683.668 794.275 704.114L788.381 809.523C810.635 771.699 828.496 727.255 833.318 683.65C828.389 683.204 823.441 682.776 818.512 682.33C828.442 680.813 836.783 673.623 842.07 665.112C847.375 656.584 850.107 646.771 852.768 637.083C846.749 637.975 840.73 638.867 834.694 639.759C848.839 630.321 859.091 615.245 862.663 598.634H862.681Z" fill="#E0E0E0"/>
<path d="M785.096 834.216C785.096 834.216 736.801 776.462 737.355 721.332H756.859C756.859 721.332 735.658 707.415 737.337 699.618C739.016 691.821 739.569 662.311 739.569 662.311L757.412 666.772C757.412 666.772 744.035 660.081 742.356 649.501C740.677 638.921 746.249 589.91 746.249 589.91C746.249 589.91 767.986 612.747 774.683 636.137C781.381 659.528 798.938 686.808 793.776 758.085C788.615 829.363 785.078 834.216 785.078 834.216H785.096Z" fill="#EBEBEB"/>
<path d="M809.582 839.675C809.582 839.675 861.913 804.848 873.54 760.405L857.859 756.141C857.859 756.141 877.952 749.575 878.309 742.938C878.666 736.301 884.685 712.446 884.685 712.446L869.361 712.125C869.361 712.125 881.578 709.681 885.239 701.527C888.901 693.374 895.152 652.766 895.152 652.766C895.152 652.766 872.665 666.379 862.163 683.721C851.661 701.063 831.568 719.155 820.101 777.604C808.635 836.053 809.582 839.657 809.582 839.657V839.675Z" fill="#EBEBEB"/>
<path d="M759.467 640.259C759.467 640.259 759.538 640.455 759.646 640.865C759.753 641.311 759.896 641.9 760.074 642.65C760.432 644.273 760.949 646.575 761.61 649.501C762.289 652.48 763.057 656.12 763.896 660.366C764.754 664.613 765.754 669.448 766.736 674.8C768.808 685.505 770.987 698.316 773.238 712.553C775.417 726.809 777.596 742.509 779.525 759.031C781.418 775.57 782.882 791.36 784.025 805.74C785.097 820.121 785.883 833.092 786.312 843.975C786.58 849.417 786.705 854.359 786.847 858.677C786.99 863.012 787.062 866.741 787.097 869.792C787.133 872.79 787.151 875.145 787.169 876.804C787.169 877.571 787.169 878.178 787.169 878.624C787.169 879.034 787.169 879.248 787.133 879.248C787.133 879.248 787.097 879.034 787.08 878.624C787.062 878.16 787.026 877.553 786.99 876.804C786.937 875.145 786.847 872.79 786.74 869.792C786.651 866.741 786.526 863.012 786.329 858.695C786.151 854.377 785.972 849.435 785.669 843.993C785.151 833.11 784.293 820.157 783.186 805.794C782.007 791.431 780.507 775.659 778.614 759.138C776.685 742.617 774.541 726.934 772.398 712.678C770.201 698.441 768.076 685.63 766.093 674.925C765.147 669.555 764.2 664.72 763.379 660.473C762.575 656.209 761.86 652.552 761.235 649.572C760.646 646.628 760.199 644.309 759.878 642.685C759.735 641.936 759.628 641.347 759.539 640.883C759.467 640.473 759.449 640.277 759.449 640.259H759.467Z" fill="#E0E0E0"/>
<path d="M778.399 869.578C778.399 869.578 734.194 819.479 720.477 789.202L730.836 784.777C723.334 786.008 715.637 782.796 709.814 777.89C703.991 773.001 699.723 766.56 695.525 760.209L709.171 757.907C696.758 754.428 685.827 745.971 679.344 734.838C695.454 737.478 710.028 746.328 722.031 757.372C731.747 766.311 739.981 776.694 747.893 787.31C751.751 792.484 755.126 797.997 757.93 803.814C765.361 819.158 778.417 851.201 778.399 869.596V869.578Z" fill="#EBEBEB"/>
<path d="M874.237 681.955C874.237 681.955 874.184 682.133 874.041 682.472C873.862 682.847 873.648 683.329 873.362 683.935C872.719 685.256 871.826 687.129 870.665 689.502C868.29 694.319 864.95 701.313 860.878 709.984C856.805 718.655 852.108 729.075 847.071 740.69C842.07 752.34 836.748 765.204 831.461 778.853C826.192 792.502 821.459 805.616 817.315 817.588C813.207 829.577 809.671 840.425 806.849 849.596C804.009 858.748 801.777 866.188 800.294 871.327C799.544 873.842 798.955 875.823 798.544 877.25C798.347 877.892 798.187 878.392 798.062 878.785C797.955 879.124 797.883 879.302 797.865 879.302C797.865 879.302 797.883 879.124 797.972 878.767C798.08 878.374 798.205 877.857 798.365 877.214C798.74 875.787 799.276 873.789 799.955 871.255C801.33 866.081 803.473 858.606 806.242 849.435C808.992 840.246 812.475 829.363 816.53 817.356C820.637 805.348 825.353 792.235 830.622 778.568C835.926 764.919 841.267 752.037 846.321 740.404C851.411 728.789 856.162 718.406 860.306 709.752C864.45 701.099 867.897 694.141 870.361 689.377C871.576 687.04 872.523 685.202 873.201 683.9C873.523 683.311 873.773 682.847 873.969 682.49C874.148 682.169 874.237 682.009 874.255 682.026L874.237 681.955Z" fill="#E0E0E0"/>
<path d="M782.149 891.06C782.149 891.06 782.042 890.739 781.935 890.132C781.81 889.418 781.667 888.544 781.506 887.474C781.167 885.154 780.595 881.818 779.774 877.732C778.988 873.628 777.845 868.793 776.398 863.459C774.898 858.142 773.076 852.361 770.844 846.402C768.575 840.443 766.128 834.894 763.735 829.916C761.306 824.956 758.948 820.585 756.823 816.981C754.715 813.377 752.947 810.487 751.679 808.524C751.108 807.614 750.625 806.847 750.25 806.24C749.929 805.705 749.768 805.42 749.804 805.402C749.822 805.384 750.036 805.634 750.411 806.133C750.84 806.722 751.358 807.436 751.983 808.328C753.358 810.219 755.215 813.074 757.394 816.642C759.591 820.21 762.002 824.582 764.503 829.542C766.95 834.519 769.433 840.086 771.719 846.081C773.969 852.076 775.791 857.892 777.238 863.244C778.649 868.615 779.72 873.486 780.435 877.607C781.167 881.729 781.649 885.101 781.881 887.42C781.989 888.491 782.078 889.383 782.149 890.096C782.203 890.703 782.203 891.042 782.185 891.042L782.149 891.06Z" fill="#E0E0E0"/>
<path d="M840.466 879.266H743.732V898.981H840.466V879.266Z" fill="#E0E0E0"/>
<path d="M752.947 898.981L762.878 955.504H821.336L831.623 898.981H752.947Z" fill="#E0E0E0"/>
<path d="M834.535 898.981C834.535 899.231 816.228 899.445 793.67 899.445C771.112 899.445 752.787 899.231 752.787 898.981C752.787 898.731 771.076 898.517 793.67 898.517C816.264 898.517 834.535 898.731 834.535 898.981Z" fill="#EBEBEB"/>
<path d="M266.387 229.651H109.285V484.537H266.387V229.651Z" fill="#E0E0E0"/>
<path d="M261.172 229.651H104.07V484.537H261.172V229.651Z" fill="#EBEBEB"/>
<path d="M254.476 234.825H110.752V479.381H254.476V234.825Z" fill="white"/>
<path d="M226.488 266.601H138.113V447.605H226.488V266.601Z" fill="#EBEBEB"/>
<path d="M138.113 383.553C137.917 366.639 153.42 350.136 170.494 347.781C178.639 346.657 187.301 348.245 194.91 345.176C208.502 339.716 212.824 322.017 226.488 316.772L227.113 447.587H138.113V383.536V383.553Z" fill="#E0E0E0"/>
<path d="M895.851 956.289C895.851 956.539 717.906 956.753 498.452 956.753C278.999 956.753 101 956.539 101 956.289C101 956.039 278.91 955.825 498.452 955.825C717.995 955.825 895.851 956.039 895.851 956.289Z" fill="#263238"/>
<path d="M678.382 746.27H318.472C308.738 746.27 300.844 738.117 300.844 728.054V178.459C300.826 168.396 308.72 160.242 318.454 160.242H678.382C688.116 160.242 696.028 168.396 696.028 178.477V728.054C696.028 738.117 688.134 746.288 678.382 746.288V746.27Z" fill="#263238"/>
<path d="M505.311 719.615C505.311 728.696 497.81 736.047 488.558 736.047C479.306 736.047 471.805 728.678 471.805 719.615C471.805 710.551 479.306 703.183 488.558 703.183C497.81 703.183 505.311 710.551 505.311 719.615Z" fill="#455A64"/>
<path d="M538.926 191.216H458.214C455.106 191.216 452.588 188.611 452.588 185.399C452.588 182.188 455.106 179.583 458.214 179.583H538.926C542.034 179.583 544.552 182.188 544.552 185.399C544.552 188.611 542.034 191.216 538.926 191.216Z" fill="#455A64"/>
<path d="M683.222 202.045H312.953V691.461H683.222V202.045Z" fill="white"/>
<path d="M683.562 202.045H313.293V691.461H683.562V202.045Z" fill="#EBEBEB"/>
<path d="M634.874 241.957H361.964C352.238 241.957 344.354 249.833 344.354 259.549V633.689C344.354 643.405 352.238 651.281 361.964 651.281H634.874C644.6 651.281 652.485 643.405 652.485 633.689V259.549C652.485 249.833 644.6 241.957 634.874 241.957Z" fill="white"/>
<path d="M576.076 521.679H433.352C428.637 521.679 424.814 525.497 424.814 530.208V545.819C424.814 550.529 428.637 554.347 433.352 554.347H576.076C580.791 554.347 584.613 550.529 584.613 545.819V530.208C584.613 525.497 580.791 521.679 576.076 521.679Z" fill="#74EE9B"/>
<path d="M486.951 345.225H382.556C379.458 345.225 376.947 347.733 376.947 350.827V362.246C376.947 365.34 379.458 367.848 382.556 367.848H486.951C490.048 367.848 492.559 365.34 492.559 362.246V350.827C492.559 347.733 490.048 345.225 486.951 345.225Z" fill="#EBEBEB"/>
<path d="M612.19 393.255H382.556C379.458 393.255 376.947 395.763 376.947 398.857V410.276C376.947 413.37 379.458 415.878 382.556 415.878H612.19C615.287 415.878 617.798 413.37 617.798 410.276V398.857C617.798 395.763 615.287 393.255 612.19 393.255Z" fill="#EBEBEB"/>
<path d="M612.19 441.427H382.556C379.458 441.427 376.947 443.935 376.947 447.03V458.448C376.947 461.542 379.458 464.05 382.556 464.05H612.19C615.287 464.05 617.798 461.542 617.798 458.448V447.03C617.798 443.935 615.287 441.427 612.19 441.427Z" fill="#EBEBEB"/>
<path d="M612.171 345.225H509.901C506.804 345.225 504.293 347.733 504.293 350.827V362.246C504.293 365.34 506.804 367.848 509.901 367.848H612.171C615.269 367.848 617.779 365.34 617.779 362.246V350.827C617.779 347.733 615.269 345.225 612.171 345.225Z" fill="#EBEBEB"/>
<path d="M387.469 477.021H381.575C380.598 477.021 379.807 477.812 379.807 478.788V484.675C379.807 485.651 380.598 486.442 381.575 486.442H387.469C388.445 486.442 389.237 485.651 389.237 484.675V478.788C389.237 477.812 388.445 477.021 387.469 477.021Z" fill="#74EE9B"/>
<path d="M607.026 485.8H399.467C397.538 485.8 395.984 484.247 395.984 482.32C395.984 480.394 397.538 478.841 399.467 478.841H607.026C608.954 478.841 610.508 480.394 610.508 482.32C610.508 484.247 608.954 485.8 607.026 485.8Z" fill="#E0E0E0"/>
<path d="M433.602 498.806H400.524C398.595 498.806 397.041 497.254 397.041 495.327C397.041 493.4 398.595 491.848 400.524 491.848H433.602C435.531 491.848 437.085 493.4 437.085 495.327C437.085 497.254 435.531 498.806 433.602 498.806Z" fill="#E0E0E0"/>
<path d="M650.589 266.024C660.141 262.101 664.701 251.186 660.774 241.644C656.847 232.102 645.919 227.547 636.368 231.471C626.816 235.394 622.256 246.309 626.183 255.851C630.11 265.393 641.038 269.948 650.589 266.024Z" fill="#74EE9B"/>
<path d="M651.039 243.959L648.273 241.196L635.909 253.547L638.675 256.31L651.039 243.959Z" fill="white"/>
<path d="M638.68 241.186L635.914 243.948L648.278 256.3L651.044 253.537L638.68 241.186Z" fill="white"/>
<path d="M233.313 797.445L221.721 796.053C214.38 800.942 205.486 803.743 195.877 803.493C173.194 802.922 154.315 784.866 152.726 762.261C150.886 736.141 171.89 714.035 198.288 714.713C220.703 715.284 239.421 732.929 241.35 755.249C242.297 766.329 239.135 776.695 233.188 784.973H233.206L233.313 797.445Z" fill="white"/>
<path d="M233.312 797.445C233.312 797.445 233.294 797.141 233.276 796.606C233.276 796.035 233.24 795.232 233.222 794.197C233.187 792.056 233.115 788.97 233.044 784.955L233.312 785.08C233.312 785.08 233.312 785.08 233.294 785.08C233.222 785.134 233.115 785.134 233.061 785.062C233.008 785.009 233.008 784.92 233.061 784.866C236.223 780.388 239.723 773.751 240.867 765.08C241.456 760.762 241.385 756.016 240.491 751.056C239.563 746.114 237.687 741.029 234.758 736.212C231.793 731.43 227.757 726.97 222.756 723.384C217.773 719.815 211.843 717.032 205.342 715.872C198.858 714.659 191.893 714.909 185.195 716.747C178.462 718.549 172.103 722.206 166.834 727.184C164.102 729.646 161.905 732.572 159.886 735.534C158.993 737.086 158.065 738.638 157.297 740.226L156.243 742.671L155.725 743.884L155.332 745.151C153.099 751.823 152.599 758.835 153.51 765.419C154.385 772.02 156.975 778.122 160.369 783.278C163.798 788.452 168.138 792.681 172.853 795.839C177.586 798.979 182.641 801.049 187.588 802.155C188.839 802.369 190.053 802.583 191.268 802.797C192.482 802.975 193.679 803.011 194.858 803.118C197.215 803.297 199.483 803.19 201.662 802.993C210.396 802.137 217.13 798.872 221.666 795.91C221.702 795.892 221.738 795.874 221.774 795.892C225.453 796.374 228.328 796.749 230.311 797.016C231.275 797.141 232.008 797.248 232.561 797.32C233.079 797.391 233.347 797.445 233.347 797.445C233.347 797.445 233.115 797.445 232.615 797.391C232.079 797.338 231.347 797.266 230.4 797.159C228.382 796.945 225.471 796.624 221.738 796.213H221.845C217.326 799.229 210.539 802.601 201.716 803.529C199.519 803.743 197.215 803.868 194.84 803.707C193.643 803.6 192.429 803.582 191.196 803.404C189.982 803.19 188.731 802.975 187.463 802.761C182.462 801.655 177.301 799.586 172.496 796.428C167.709 793.252 163.28 788.952 159.779 783.706C156.314 778.461 153.671 772.288 152.76 765.561C151.831 758.871 152.331 751.734 154.6 744.936L154.993 743.652L155.511 742.403C155.868 741.582 156.225 740.744 156.582 739.923C157.368 738.299 158.297 736.729 159.208 735.141C161.262 732.126 163.494 729.129 166.281 726.631C171.639 721.564 178.122 717.835 184.981 716.015C191.821 714.142 198.894 713.91 205.485 715.159C212.111 716.354 218.13 719.209 223.185 722.848C228.257 726.506 232.347 731.038 235.33 735.909C238.295 740.797 240.17 745.971 241.099 750.985C241.974 756.016 242.01 760.816 241.402 765.187C240.188 773.947 236.598 780.62 233.347 785.098L233.115 784.884H233.133C233.204 784.831 233.312 784.83 233.365 784.902C233.383 784.938 233.401 784.973 233.401 785.009C233.401 789.059 233.401 792.181 233.401 794.34C233.401 795.357 233.401 796.142 233.401 796.713C233.401 797.248 233.383 797.498 233.383 797.498L233.312 797.445Z" fill="#263238"/>
<path d="M177.443 761.833L183.016 755.873L194.465 765.365L215.576 743.652L221.113 749.218L194.018 776.498L177.443 761.833Z" fill="#74EE9B"/>
<path d="M304.398 661.294C305.487 657.797 308.327 654.889 311.81 653.712C313.221 653.23 314.864 652.927 315.685 651.66C316.275 650.768 316.257 649.626 316.507 648.591C317.293 645.415 321.151 643.399 324.223 644.559C324.973 644.844 325.687 645.308 326.509 645.326C329.778 645.415 330.26 639.153 333.51 639.278C332.635 640.348 331.849 641.579 331.724 642.953C331.599 644.327 332.385 645.861 333.707 646.218C337.172 647.164 338.833 640.455 342.405 640.901C344.334 641.133 345.745 643.524 347.638 643.096C348.37 642.935 348.942 642.382 349.567 641.972C351.692 640.634 354.854 641.347 356.193 643.488C357.336 645.308 357.515 648.127 359.587 648.716C360.873 649.073 362.159 648.288 363.266 647.521C364.106 649.305 364.534 651.267 364.499 653.23C368.517 653.498 371.875 657.494 371.446 661.491C373.554 661.937 375.715 662.436 377.501 663.649C379.287 664.863 380.609 667.004 380.234 669.127C380.144 669.609 379.984 670.09 380.037 670.572C380.091 671.107 380.395 671.571 380.716 671.982C381.966 673.605 383.609 674.961 384.449 676.817C385.288 678.672 384.913 681.366 383.002 682.098C382.556 682.276 382.02 682.365 381.77 682.758C381.591 683.061 381.645 683.454 381.734 683.811C382.127 685.22 383.109 686.398 383.931 687.611C384.753 688.824 385.449 690.269 385.199 691.714C384.949 693.16 383.324 694.409 382.002 693.784C383.52 695.568 385.056 697.37 386.574 699.154C387.485 700.225 388.45 701.563 388.003 702.883C387.414 704.614 384.86 704.721 383.306 703.758C381.752 702.794 380.662 701.188 379.073 700.261C378.43 699.886 377.698 699.636 377.144 699.137C376.697 698.744 376.358 698.191 375.769 698.048C374.608 697.763 373.911 699.547 374.536 700.546C375.161 701.545 376.412 701.956 377.483 702.455C378.555 702.955 379.68 703.865 379.591 705.06C379.537 705.631 379.216 706.148 379.18 706.719C379.073 708.7 382.091 709.092 383.234 710.734C384.074 711.947 383.699 713.588 383.216 714.962C382.627 716.657 380.877 718.655 379.448 717.549C378.948 717.175 378.751 716.514 378.305 716.086C377.787 715.587 377.019 715.444 376.322 715.23C374.59 714.73 373 713.713 371.839 712.322C374.018 713.339 376.519 714.855 376.501 717.246C376.501 718.245 376.019 719.173 375.697 720.136C375.09 722.01 375.143 724.044 374.554 725.917C373.983 727.79 372.411 729.646 370.446 729.539C371.804 730.966 372.036 733.357 370.946 735.016C369.857 736.675 367.571 737.425 365.713 736.747C365.195 736.568 364.695 736.265 364.159 736.319C363.57 736.354 363.088 736.765 362.623 737.122C359.801 739.209 355.765 739.494 352.657 737.853C353.086 737.407 353.532 736.961 353.961 736.533C350.657 737.639 347.209 738.781 343.762 738.263C340.315 737.746 336.922 735.052 336.886 731.573C336.886 730.056 337.368 728.272 336.243 727.255C335.475 726.559 334.296 726.631 333.26 726.756C328.938 727.255 324.616 727.755 320.276 728.272C318.168 728.522 315.953 728.736 314.042 727.844C312.131 726.952 310.792 724.49 311.863 722.652C310.167 721.367 308.113 720.564 306.005 720.386C303.63 720.172 301.236 720.725 298.843 720.636C296.45 720.529 293.842 719.53 292.913 717.335C292.002 715.123 294.146 712.036 296.378 712.875C294.503 709.788 288.662 712.393 286.591 709.449C284.912 707.04 287.591 704.061 288.323 701.242C287.537 700.51 286.323 700.386 285.519 699.672C283.822 698.191 284.84 695.372 286.251 693.588C287.662 691.821 289.466 689.841 288.948 687.647C288.412 685.399 285.555 683.953 285.751 681.652C285.876 680.367 287.126 679.314 288.412 679.422C288.073 674.979 296.45 674.354 296.807 669.93C296.842 669.573 296.807 669.198 296.61 668.913C296.45 668.663 296.182 668.485 295.896 668.36C294.592 667.735 293.074 667.807 291.663 667.503C290.252 667.218 288.734 666.308 288.609 664.863C288.484 663.418 290.806 662.347 291.413 663.649C292.163 661.83 294.896 661.241 296.325 662.615C296.682 661.08 298.45 660.242 300.022 660.367C301.593 660.492 302.987 661.348 304.326 662.169" fill="#263238"/>
<path d="M342.101 693.748C338.225 689.074 332.117 686.808 326.133 685.755C323.615 685.309 320.989 685.06 318.56 685.862C316.149 686.665 314.006 688.771 313.881 691.322L316.149 694.926C318.775 701.171 326.026 703.811 331.134 708.254C333.349 710.199 335.653 712.714 338.6 712.5C340.136 712.393 341.547 711.501 342.601 710.377C346.78 705.97 345.976 698.405 342.101 693.713V693.748Z" fill="#FF725E"/>
<path d="M357.033 721.171C358.069 714.909 353.836 708.218 347.746 706.434C348.46 702.509 345.388 698.691 341.709 697.174C338.029 695.657 333.886 695.872 329.903 696.104C323.83 689.003 311.756 688.2 304.791 694.426C297.325 690.537 287.93 694.337 281.929 700.243C280.465 701.688 279.071 703.276 277.268 704.239C275.928 704.953 274.446 705.274 273.035 705.809C265.265 708.718 260.818 717.674 261.622 725.917C261.747 727.237 261.997 728.575 261.765 729.878C261.479 731.591 260.425 733.071 259.728 734.659C258.192 738.085 258.246 742.189 259.889 745.579C261.282 748.451 263.783 750.949 263.961 754.143C264.051 755.748 263.533 757.354 263.801 758.924C264.533 763.509 270.945 765.151 272.302 769.576C272.588 770.486 272.624 771.431 272.82 772.359C273.231 774.25 274.374 775.963 275.928 777.105C277.143 777.979 278.643 778.568 279.429 779.852C280.018 780.816 280.09 782.011 280.411 783.082C281.215 785.74 291.342 792.181 294.11 792.377L356.229 759.763C360.391 756.301 361.927 750.021 359.819 745.025C359.462 744.187 359.016 743.33 359.176 742.438C359.301 741.689 359.855 741.082 360.284 740.44C363.124 736.176 360.659 730.449 357.819 726.185C357.426 725.578 357.015 724.971 356.837 724.276C356.587 723.259 356.89 722.206 357.051 721.171H357.033Z" fill="#263238"/>
<path d="M339.367 730.77C333.67 719.744 320.06 710.859 306.307 711.34C297.645 711.644 292.287 714.498 288.464 716.015C279.891 719.405 275.533 726.898 275.533 726.898C272.551 729.521 266.21 747.648 272.229 760.387C278.909 774.554 287.625 791.575 294.876 800.888C309.468 819.622 326.65 813.555 326.65 813.555C326.65 813.52 334.313 829.399 334.313 829.399L355.781 847.562L374.91 816.41L379.071 809.684L339.367 730.77Z" fill="#AE7461"/>
<path d="M322.293 781.583C321.668 780.62 320.65 779.995 319.632 779.71C317.578 779.157 315.399 780.066 314.345 781.886C313.309 783.706 313.988 785.633 315.274 787.524C316.721 788.309 317.935 789.184 319.489 788.595C319.721 788.506 319.971 788.399 320.186 788.292C321.293 787.721 322.258 786.793 322.704 785.562C323.169 784.331 323.061 782.761 322.293 781.565V781.583Z" fill="#6F4439"/>
<path d="M287.803 774.446C288.517 775.856 290.321 776.427 291.804 775.695C293.304 774.982 293.929 773.251 293.215 771.824C292.5 770.414 290.696 769.843 289.214 770.557C287.714 771.271 287.089 773.019 287.803 774.429V774.446Z" fill="#263238"/>
<path d="M281.266 765.668C281.784 765.829 282.963 763.26 285.803 761.707C288.625 760.12 291.5 760.423 291.625 759.906C291.697 759.674 291.018 759.228 289.75 759.067C288.5 758.906 286.624 759.103 284.856 760.084C283.088 761.065 281.963 762.528 281.48 763.67C280.98 764.812 281.016 765.597 281.266 765.668Z" fill="#263238"/>
<path d="M310.201 778.907C310.13 778.746 308.201 779.406 305.129 780.62C304.361 780.941 303.593 781.173 303.2 780.745C302.735 780.316 302.61 779.371 302.503 778.336C302.217 776.213 301.914 773.983 301.61 771.645C300.253 762.171 298.86 754.535 298.467 754.589C298.092 754.642 298.877 762.385 300.217 771.859C300.574 774.179 300.896 776.409 301.217 778.532C301.396 779.514 301.432 780.691 302.414 781.583C302.914 782.011 303.646 782.118 304.182 781.994C304.718 781.886 305.129 781.654 305.504 781.494C308.469 780.067 310.255 779.103 310.183 778.925L310.201 778.907Z" fill="#263238"/>
<path d="M326.633 813.555C326.633 813.555 341.046 806.794 350.209 791.021C350.209 791.021 350.87 809.523 329.24 818.926L326.651 813.555H326.633Z" fill="#6F4439"/>
<path d="M277.446 759.709C278.304 760.137 280.215 758.478 282.876 757.301C285.483 756.034 288.002 755.623 288.216 754.696C288.305 754.25 287.645 753.732 286.377 753.518C285.126 753.304 283.269 753.482 281.465 754.321C279.661 755.16 278.339 756.462 277.696 757.55C277.053 758.657 277.053 759.477 277.428 759.691L277.446 759.709Z" fill="#263238"/>
<path d="M319.274 758.3C320.042 759.691 319.489 761.493 318.042 762.314C316.595 763.135 314.809 762.671 314.059 761.279C313.291 759.888 313.845 758.086 315.291 757.265C316.738 756.444 318.524 756.908 319.292 758.3H319.274Z" fill="#263238"/>
<path d="M320.685 745.436C320.525 745.953 317.738 745.471 314.845 746.934C311.934 748.344 310.559 750.913 310.076 750.717C309.844 750.646 309.862 749.843 310.451 748.701C311.023 747.577 312.255 746.149 314.059 745.24C315.863 744.347 317.721 744.24 318.935 744.49C320.168 744.722 320.793 745.204 320.703 745.454L320.685 745.436Z" fill="#263238"/>
<path d="M314.683 734.249C314.451 735.195 311.861 735.641 309.164 736.943C306.432 738.174 304.431 739.869 303.556 739.459C303.163 739.245 303.181 738.406 303.86 737.282C304.521 736.176 305.914 734.838 307.771 733.964C309.647 733.089 311.54 732.875 312.808 733.089C314.094 733.286 314.755 733.803 314.665 734.249H314.683Z" fill="#263238"/>
<path d="M346.78 752.055C345.94 750.521 345.726 745.953 347.101 744.883C350.798 742.028 358.246 738.353 363.962 748.558C371.767 762.51 356.139 767.47 355.889 767.078C355.692 766.774 349.673 757.354 346.78 752.073V752.055Z" fill="#AE7461"/>
<path d="M356.89 759.816C356.89 759.816 357.229 759.852 357.747 759.816C358.247 759.781 359.015 759.513 359.587 758.835C360.765 757.461 360.694 754.428 359.354 751.877C358.676 750.592 357.729 749.522 356.729 748.772C355.729 747.987 354.675 747.648 353.853 747.934C353.014 748.183 352.746 748.915 352.782 749.397C352.817 749.896 353.068 750.128 352.996 750.182C352.978 750.235 352.567 750.11 352.353 749.486C352.264 749.183 352.228 748.754 352.407 748.308C352.585 747.845 352.996 747.434 353.55 747.202C354.675 746.667 356.193 747.131 357.3 747.952C358.479 748.737 359.569 749.914 360.319 751.359C361.801 754.214 361.837 757.657 360.14 759.37C359.301 760.173 358.319 760.334 357.711 760.245C357.086 760.137 356.836 759.87 356.872 759.816H356.89Z" fill="#6F4439"/>
<path d="M269.211 762.296C271.068 758.978 271.551 755.57 269.532 752.34C271.711 751.859 272.301 748.397 272.497 746.185C272.694 743.955 273.587 742.403 272.426 740.494C272.194 740.119 271.944 739.726 271.944 739.28C271.944 738.585 272.497 738.049 272.979 737.55C275.462 734.98 276.48 731.091 275.569 727.63C279.302 727.291 282.928 726.006 286.053 723.936C288.661 725.239 291.947 725.114 294.43 723.597C296.931 722.081 298.556 719.244 298.592 716.318C300.396 717.603 302.842 717.728 304.986 717.174C307.129 716.621 309.076 715.444 310.969 714.302C312.201 718.53 316.952 721.385 321.275 720.493C321.864 720.368 322.525 720.208 323.007 720.547C323.507 720.903 323.561 721.617 323.65 722.224C324.186 726.095 328.544 728.968 332.312 727.951C330.991 730.984 333.491 734.963 336.796 735.105C337.474 735.141 338.349 735.141 338.582 735.766C338.671 735.997 338.635 736.283 338.599 736.533C338.314 738.495 338.117 740.583 338.939 742.367C339.76 744.169 342.011 745.471 343.779 744.579C343.315 745.882 343.029 747.398 343.69 748.629C344.333 749.86 346.262 750.414 347.155 749.361C347.53 748.915 353.763 743.705 353.835 743.116C354.835 735.551 346.583 732.358 342.511 725.899C338.439 719.44 332.563 714.266 326.043 710.305C323.311 708.646 320.435 707.183 317.345 706.291C313.845 705.274 310.165 705.06 306.522 704.864C301.771 704.614 296.913 704.418 292.323 705.684C283.785 708.057 277.427 715.123 272.176 722.259C270.175 724.971 268.229 727.772 267.032 730.93C265.585 734.695 265.264 738.799 265.228 742.831C265.174 748.665 265.746 754.606 268.05 759.959" fill="#263238"/>
<path d="M263.763 758.906C263.763 758.906 263.585 758.246 263.692 756.997C263.728 756.373 263.853 755.588 263.871 754.678C263.871 753.768 263.692 752.715 263.228 751.627C262.763 750.539 262.049 749.415 261.263 748.201C260.477 746.988 259.602 745.632 259.084 743.973C258.548 742.349 258.316 740.494 258.512 738.549C258.602 737.586 258.816 736.586 259.155 735.623C259.477 734.642 259.977 733.696 260.459 732.768C260.942 731.823 261.424 730.841 261.585 729.771C261.745 728.7 261.584 727.559 261.459 726.399C261.192 724.062 261.299 721.582 261.888 719.119C262.478 716.657 263.478 714.177 265.032 711.965C265.764 710.823 266.71 709.824 267.711 708.843C268.764 707.933 269.89 707.058 271.176 706.398C271.801 706.059 272.479 705.792 273.14 705.506C273.819 705.256 274.516 705.06 275.194 704.828C276.57 704.4 277.838 703.74 278.945 702.776C280.07 701.849 281.053 700.707 282.16 699.69C283.249 698.637 284.482 697.692 285.75 696.817C287.036 695.943 288.411 695.194 289.84 694.534C291.287 693.891 292.805 693.392 294.377 693.035C297.502 692.393 300.949 692.464 303.986 693.82C304.289 693.963 304.593 694.088 304.879 694.23L304.611 694.266C308.326 690.965 313.38 689.681 318.024 690.091C322.704 690.484 327.151 692.571 330.062 695.979L329.866 695.907C332.009 695.783 334.117 695.675 336.206 695.8C338.278 695.943 340.35 696.336 342.189 697.192C344.029 698.066 345.601 699.404 346.673 701.028C347.744 702.652 348.28 704.632 347.923 706.505L347.78 706.273C350.888 707.183 353.352 709.289 354.96 711.697C356.567 714.106 357.389 716.871 357.317 719.458C357.317 720.101 357.228 720.743 357.139 721.35C357.032 721.956 356.907 722.545 356.853 723.134C356.817 723.705 356.889 724.276 357.103 724.775C357.317 725.293 357.639 725.739 357.943 726.203C359.157 728.058 360.086 729.878 360.711 731.609C361.318 733.339 361.622 734.981 361.55 736.408C361.497 737.835 361.086 739.013 360.622 739.869C360.157 740.744 359.621 741.279 359.407 741.725C359.175 742.171 359.139 742.439 359.121 742.421C359.121 742.421 359.121 742.153 359.354 741.689C359.55 741.225 360.086 740.654 360.515 739.798C360.961 738.942 361.336 737.782 361.372 736.372C361.425 734.963 361.122 733.357 360.497 731.644C359.872 729.949 358.925 728.147 357.71 726.327C357.407 725.864 357.085 725.4 356.835 724.864C356.585 724.329 356.496 723.687 356.549 723.08C356.585 722.474 356.71 721.867 356.817 721.26C356.889 720.654 356.996 720.047 356.978 719.405C357.032 716.889 356.21 714.195 354.638 711.858C353.067 709.521 350.655 707.487 347.655 706.612L347.476 706.559L347.512 706.381C347.833 704.632 347.333 702.759 346.297 701.206C345.262 699.654 343.743 698.352 341.993 697.531C340.207 696.71 338.207 696.318 336.17 696.193C334.117 696.068 332.027 696.175 329.884 696.3H329.776L329.705 696.229C326.883 692.928 322.543 690.894 317.988 690.519C313.452 690.127 308.522 691.376 304.932 694.587L304.807 694.694L304.646 694.623C304.361 694.498 304.075 694.355 303.771 694.23C300.824 692.91 297.502 692.839 294.448 693.463C292.912 693.802 291.43 694.302 290.019 694.926C288.608 695.586 287.25 696.3 286 697.174C284.75 698.048 283.535 698.958 282.464 699.993C281.356 701.01 280.374 702.134 279.213 703.098C278.641 703.579 278.016 704.025 277.355 704.382C276.695 704.739 275.998 705.007 275.301 705.239C274.605 705.471 273.926 705.667 273.265 705.917C272.622 706.184 271.962 706.434 271.354 706.773C270.104 707.397 269.015 708.254 267.979 709.128C267.014 710.074 266.085 711.055 265.353 712.161C263.817 714.32 262.835 716.746 262.245 719.173C261.656 721.599 261.531 724.026 261.799 726.327C261.924 727.487 262.085 728.647 261.906 729.789C261.727 730.931 261.227 731.948 260.727 732.893C260.227 733.839 259.745 734.749 259.423 735.694C259.102 736.64 258.888 737.603 258.78 738.549C258.584 740.44 258.798 742.26 259.316 743.866C259.816 745.472 260.656 746.828 261.424 748.041C262.192 749.272 262.924 750.396 263.371 751.52C263.853 752.626 264.014 753.714 263.996 754.642C263.96 755.57 263.835 756.337 263.763 756.962C263.692 757.586 263.692 758.068 263.71 758.389C263.71 758.71 263.746 758.871 263.746 758.871L263.763 758.906Z" fill="#455A64"/>
<path d="M296.502 694.962C296.502 694.962 296.02 694.962 295.145 694.997C294.288 695.033 293.02 695.194 291.591 695.782C290.18 696.353 288.572 697.37 287.34 698.976C286.108 700.582 285.268 702.741 285.215 705.078C285.215 705.756 285.25 706.434 285.393 707.04C285.536 707.647 285.822 708.236 286.304 708.468L286.911 708.753L286.25 708.896C284.447 709.306 283.018 710.484 282.196 711.786C281.357 713.107 281.16 714.534 281.232 715.676C281.321 716.836 281.66 717.71 281.946 718.281C282.232 718.852 282.446 719.137 282.41 719.155C282.41 719.155 282.339 719.101 282.232 718.977C282.125 718.852 281.964 718.638 281.803 718.37C281.464 717.817 281.053 716.907 280.928 715.711C280.803 714.516 280.964 713 281.839 711.572C282.696 710.163 284.197 708.896 286.143 708.432L286.09 708.878C285.393 708.539 285.072 707.808 284.911 707.147C284.768 706.47 284.714 705.774 284.732 705.06C284.768 702.616 285.679 700.35 286.983 698.708C288.287 697.031 289.965 696.014 291.448 695.461C292.93 694.908 294.234 694.801 295.109 694.801C295.556 694.801 295.895 694.837 296.127 694.872C296.36 694.908 296.467 694.944 296.467 694.944L296.502 694.962Z" fill="#455A64"/>
<path d="M328.08 698.602C328.08 698.602 328.044 698.887 327.866 699.369C327.687 699.851 327.384 700.546 326.883 701.331C326.365 702.116 325.633 703.009 324.544 703.704C323.472 704.382 322.007 704.846 320.489 704.561L320.775 704.347C320.739 704.614 320.704 704.882 320.686 705.15C320.632 705.417 320.561 705.685 320.507 705.97C320.061 707.594 319.203 709.021 318.203 710.074C317.203 711.144 316.096 711.876 315.095 712.322C314.095 712.768 313.22 712.946 312.613 713.036C312.006 713.089 311.666 713.071 311.666 713.036C311.648 712.929 313.041 712.964 314.953 712.019C315.899 711.555 316.953 710.805 317.882 709.771C318.828 708.754 319.632 707.398 320.061 705.845C320.114 705.578 320.186 705.328 320.221 705.078C320.257 704.828 320.293 704.561 320.311 704.329L320.346 704.061L320.596 704.115C321.972 704.382 323.329 703.972 324.347 703.365C325.383 702.759 326.115 701.92 326.651 701.171C327.687 699.672 328.044 698.566 328.116 698.602H328.08Z" fill="#455A64"/>
<path d="M342.618 707.54C342.618 707.54 342.672 707.629 342.725 707.826C342.761 708.022 342.815 708.307 342.779 708.682C342.743 709.413 342.333 710.502 341.332 711.412C340.35 712.339 338.778 712.893 337.082 713.16C336.224 713.303 335.349 713.446 334.385 713.499C333.456 713.535 332.366 713.463 331.473 712.803C331.402 712.75 331.33 712.678 331.259 712.625L331.652 712.536C330.884 714.338 329.991 716.015 328.866 717.299C327.758 718.62 326.383 719.476 325.151 719.869C323.918 720.279 322.829 720.243 322.114 720.101C321.757 720.029 321.489 719.94 321.328 719.851C321.15 719.779 321.061 719.726 321.078 719.708C321.078 719.672 321.453 719.815 322.15 719.904C322.829 719.994 323.865 719.976 325.043 719.548C326.222 719.137 327.49 718.299 328.544 717.014C329.616 715.747 330.473 714.106 331.223 712.339L331.348 712.036L331.598 712.25C331.598 712.25 331.705 712.339 331.777 712.393C332.491 712.946 333.474 713.035 334.367 713C335.278 712.964 336.171 712.821 337.01 712.696C338.689 712.447 340.154 711.947 341.1 711.126C342.065 710.306 342.475 709.306 342.583 708.628C342.69 707.933 342.547 707.54 342.6 707.522L342.618 707.54Z" fill="#455A64"/>
<path d="M330.224 649.269C330.224 649.269 329.992 649.412 329.617 649.751C329.26 650.09 328.813 650.696 328.599 651.624C328.385 652.534 328.438 653.712 329.01 654.871C329.546 656.067 330.528 657.209 331.635 658.404L331.814 658.6L331.582 658.725C329.974 659.546 328.456 660.955 327.545 662.864C326.617 664.756 326.474 667.182 327.581 669.234C328.528 671.125 330.314 672.481 332.189 672.784L332.868 672.891L332.261 673.213C330.082 674.372 328.706 676.46 328.224 678.458C327.724 680.474 328.135 682.365 328.796 683.739C329.456 685.131 330.332 686.023 330.957 686.576C331.6 687.129 332.011 687.343 331.993 687.379C331.993 687.379 331.885 687.343 331.689 687.236C331.493 687.129 331.207 686.951 330.867 686.701C330.189 686.184 329.26 685.291 328.528 683.864C327.813 682.472 327.331 680.492 327.831 678.351C328.313 676.246 329.724 674.051 332.046 672.784L332.118 673.213C330.082 672.891 328.17 671.428 327.17 669.43C326.599 668.342 326.313 667.129 326.349 665.951C326.349 664.773 326.688 663.649 327.152 662.65C328.117 660.652 329.742 659.189 331.421 658.35L331.368 658.672C330.278 657.458 329.296 656.263 328.742 654.996C328.17 653.747 328.153 652.481 328.403 651.553C328.653 650.607 329.153 649.965 329.564 649.644C329.76 649.483 329.939 649.376 330.064 649.323C330.189 649.269 330.242 649.233 330.26 649.251L330.224 649.269Z" fill="#455A64"/>
<path d="M371.91 665.951C371.91 665.951 371.875 666.04 371.75 666.219C371.625 666.379 371.482 666.629 371.232 666.915C370.749 667.503 369.946 668.306 368.749 669.109C367.57 669.894 365.981 670.644 364.052 671C362.141 671.375 359.854 671.304 357.622 670.501L357.925 670.305C357.818 673.034 356.604 676.174 353.978 678.084C351.192 680.1 347.334 680.046 344.959 678.191L345.316 677.976C345.494 679.136 345.316 680.296 344.941 681.277C344.548 682.276 343.976 683.133 343.351 683.829C342.065 685.256 340.565 686.059 339.333 686.612C338.082 687.165 337.046 687.468 336.332 687.682C335.618 687.879 335.225 687.968 335.225 687.95C335.225 687.932 335.6 687.789 336.278 687.54C336.975 687.29 337.993 686.951 339.208 686.362C340.404 685.773 341.851 684.953 343.065 683.579C344.244 682.223 345.227 680.207 344.869 678.03L344.78 677.477L345.227 677.816C347.423 679.529 351.085 679.564 353.692 677.673C356.175 675.871 357.354 672.892 357.461 670.269V669.966L357.765 670.073C359.908 670.858 362.105 670.965 363.962 670.626C365.838 670.322 367.392 669.609 368.57 668.877C370.946 667.379 371.803 665.88 371.875 665.951H371.91Z" fill="#455A64"/>
<path d="M368.426 694.498C368.426 694.498 368.462 694.623 368.409 694.837C368.355 695.051 368.159 695.354 367.801 695.622C367.105 696.139 365.944 696.621 364.426 696.799C362.925 696.978 361.014 696.781 359.228 695.782C357.46 694.801 355.853 693.035 355.138 690.769V690.715L355.549 690.787C354.209 692.731 352.245 693.998 350.352 694.64C348.44 695.301 346.583 695.336 345.083 695.14C343.582 694.944 342.421 694.533 341.653 694.194C340.885 693.855 340.492 693.606 340.51 693.588C340.546 693.481 342.189 694.48 345.136 694.801C346.601 694.944 348.387 694.89 350.227 694.23C352.048 693.588 353.906 692.357 355.174 690.519L355.442 690.126L355.603 690.59V690.626C356.299 692.749 357.799 694.444 359.46 695.39C361.139 696.353 362.961 696.585 364.408 696.46C365.872 696.335 367.033 695.889 367.712 695.461C368.409 694.997 368.409 694.462 368.444 694.48L368.426 694.498Z" fill="#455A64"/>
<path d="M299.825 666.558C299.932 666.522 299.932 668.574 301.557 671.215C302.361 672.517 303.611 673.909 305.362 674.926C307.112 675.925 309.344 676.496 311.666 676.317C312.97 676.21 314.22 675.889 315.328 675.39L315.596 675.265L315.649 675.55C316.024 677.388 316.757 679.029 317.614 680.35C318.489 681.67 319.454 682.722 320.364 683.472C320.811 683.847 321.24 684.186 321.633 684.417C322.026 684.649 322.418 684.703 322.686 684.578C322.972 684.453 323.115 684.257 323.151 684.096C323.186 683.936 323.169 683.847 323.186 683.847C323.186 683.847 323.258 683.936 323.222 684.114C323.204 684.293 323.061 684.56 322.74 684.721C322.418 684.899 321.936 684.846 321.508 684.614C321.079 684.382 320.65 684.078 320.168 683.704C319.221 682.972 318.185 681.92 317.275 680.581C316.364 679.225 315.578 677.548 315.185 675.639L315.506 675.8C314.363 676.335 313.059 676.674 311.684 676.781C309.255 676.96 306.915 676.353 305.112 675.282C303.29 674.194 302.039 672.713 301.236 671.357C300.432 670.001 300.075 668.735 299.914 667.878C299.843 667.45 299.807 667.111 299.789 666.879C299.789 666.647 299.789 666.522 299.789 666.522L299.825 666.558Z" fill="#455A64"/>
<path d="M320.131 777.676C319.685 777.783 320.596 780.727 318.72 783.599C316.863 786.472 313.612 787.114 313.719 787.542C313.719 787.738 314.595 787.899 315.934 787.524C317.256 787.167 319.024 786.168 320.167 784.402C321.31 782.653 321.435 780.727 321.167 779.495C320.899 778.229 320.346 777.604 320.149 777.676H320.131Z" fill="#263238"/>
<path d="M333.953 828.186C333.953 828.186 346.545 911.471 361.762 926.065C378.051 941.677 407.307 949.366 407.307 949.366C407.307 949.366 446.261 964.746 459.799 961.392L484.286 877.536C484.286 877.536 483.197 872.701 477.642 872.504C475.213 872.415 468.211 875.68 465.05 874.913C452.369 871.862 422.649 826.437 422.649 826.437C422.649 826.437 394.411 787.56 370.335 791.057C353.832 793.466 346.991 800.799 340.776 817.427C339.276 821.441 336.972 825.135 333.953 828.186Z" fill="#74EE9B"/>
<path d="M333.953 828.186L322.969 883.727L272.209 869.328L263.439 898.928L349.313 937.662L366.21 867.437L333.953 828.186Z" fill="#74EE9B"/>
<path d="M448.762 926.154C448.53 926.065 452.263 915.663 457.103 902.924C461.943 890.185 466.069 879.944 466.319 880.034C466.551 880.123 462.819 890.524 457.978 903.263C453.138 916.002 449.012 926.244 448.762 926.154Z" fill="#263238"/>
<path d="M447.814 914.504C447.582 914.415 449.672 908.134 452.494 900.498C455.316 892.844 457.799 886.724 458.031 886.813C458.263 886.903 456.173 893.165 453.351 900.819C450.529 908.473 448.047 914.593 447.814 914.504Z" fill="#263238"/>
<path d="M332.632 844.261C332.9 844.261 333.078 850.077 333.364 857.25C333.507 860.836 333.668 864.083 333.811 866.42C333.954 868.758 334.079 870.203 333.954 870.238C333.829 870.256 333.471 868.829 333.168 866.492C332.846 864.154 332.596 860.889 332.453 857.285C332.31 853.681 332.293 850.434 332.346 848.079C332.4 845.724 332.507 844.261 332.65 844.261H332.632Z" fill="#263238"/>
<g opacity="0.3">
<path d="M304.682 917.519L323.596 909.312L333.955 872.665L326.9 917.822L312.969 921.266L304.682 917.519Z" fill="black"/>
</g>
<g opacity="0.3">
<path d="M462.565 887.241C461.315 886.51 459.708 887.045 458.69 888.098C457.654 889.151 457.064 890.631 456.493 892.059C452.76 901.515 449.009 910.953 445.276 920.409C444.741 921.765 444.205 923.192 444.348 924.655C444.508 926.119 445.651 927.564 446.973 927.367C448.206 927.189 448.938 925.815 449.474 924.602C454.796 912.63 459.351 900.23 463.066 887.527" fill="black"/>
</g>
<path d="M193.57 876.75C193.57 876.75 200.411 867.633 204.43 865.671C207.627 864.119 226.648 860.764 228.97 861.21C231.292 861.656 272.211 870.613 272.211 870.613L266.906 888.472L264.298 887.259C264.298 887.259 256.029 891.399 249.742 889.418C243.455 887.438 235.382 881.889 235.382 881.889L229.756 883.994C229.756 883.994 235.936 885.921 236.4 888.49C236.864 891.06 233.346 891.327 233.346 891.327L233.096 892.451C232.649 894.414 230.72 895.681 228.738 895.27C225.112 894.539 219.879 893.308 218.7 892.005C218.218 891.47 215.735 886.92 215.735 886.92C211.913 884.226 211.967 881.55 212.181 879.908C212.61 876.643 216.093 872.968 216.093 872.968L209.198 872.593C209.198 872.593 198.071 883.976 193.606 876.75H193.57Z" fill="#AE7461"/>
<path d="M251.044 873.753C242.738 873.753 234.862 872.647 228.682 874.181C227.057 874.591 225.396 875.18 224.217 876.376C223.038 877.571 222.502 879.534 223.342 880.979C224.074 882.228 225.592 882.781 227.021 882.87C228.45 882.959 229.897 882.656 231.325 882.62C234.79 882.531 238.077 883.994 241.149 885.582C244.221 887.188 247.239 888.99 250.633 889.703C254.008 890.435 261.956 889.793 264.296 887.241" fill="#AE7461"/>
<path d="M264.299 887.259C264.299 887.259 264.156 887.491 263.781 887.848C263.388 888.169 262.727 888.597 261.816 888.954C259.994 889.668 257.208 890.292 253.725 890.328C251.993 890.364 250.01 890.096 248.081 889.382C246.134 888.686 244.188 887.687 242.187 886.617C240.169 885.564 238.079 884.458 235.757 883.744C234.596 883.387 233.4 883.156 232.167 883.102C230.935 883.031 229.685 883.245 228.327 883.334C226.988 883.423 225.523 883.298 224.291 882.549C223.023 881.853 222.273 880.283 222.505 878.909C222.683 877.535 223.469 876.322 224.487 875.555C225.505 874.77 226.666 874.324 227.774 874.003C232.292 872.772 236.49 873.021 239.919 873.111C243.241 873.289 245.992 873.45 248.063 873.557C249.992 873.664 251.046 873.717 251.046 873.789C251.046 873.824 250.778 873.842 250.278 873.878C249.778 873.914 249.028 873.931 248.063 873.931C246.134 873.931 243.348 873.842 239.901 873.789C236.49 873.789 232.328 873.628 228.024 874.859C226.97 875.18 225.916 875.608 225.041 876.286C224.166 876.964 223.559 877.946 223.416 879.052C223.255 880.14 223.773 881.229 224.773 881.8C225.755 882.388 227.006 882.531 228.274 882.442C229.542 882.37 230.864 882.139 232.203 882.21C233.525 882.263 234.811 882.531 236.025 882.906C238.454 883.655 240.598 884.815 242.598 885.885C246.563 888.098 250.296 889.828 253.743 889.686C257.154 889.739 259.905 889.222 261.709 888.633C263.531 888.044 264.263 887.223 264.317 887.277L264.299 887.259Z" fill="#6F4439"/>
<path d="M224.486 871.844C224.522 871.951 223.718 872.343 222.325 872.593C220.932 872.861 219.003 873.039 216.878 873.093C212.609 873.2 209.18 872.861 209.18 872.611C209.18 872.343 212.627 872.272 216.842 872.165C218.949 872.111 220.861 872.04 222.236 871.933C223.611 871.844 224.451 871.701 224.486 871.844Z" fill="#6F4439"/>
<path d="M233.63 891.327C233.684 891.541 229.254 892.255 223.985 890.845C218.717 889.489 215.198 886.688 215.359 886.528C215.502 886.278 219.145 888.651 224.218 889.953C229.29 891.309 233.612 891.042 233.63 891.327Z" fill="#6F4439"/>
<path d="M222.2 882.014C222.235 881.764 224.093 881.799 226.308 882.353C228.522 882.906 230.183 883.762 230.076 883.994C229.987 884.244 228.219 883.798 226.076 883.262C223.932 882.727 222.164 882.281 222.2 882.031V882.014Z" fill="#6F4439"/>
<path d="M138.201 896.02L183.264 873.985C183.996 873.628 184.871 873.7 185.55 874.164L235.095 905.618C236.238 906.421 236.452 908.063 235.559 909.133L209.376 944.139L138.201 896.02Z" fill="#263238"/>
<path d="M143.811 897.643L204.465 937.537L232.024 906.849L184.283 877.232L143.811 897.643Z" fill="white"/>
<path d="M167.387 885.743L219.45 920.837L204.465 937.537L143.811 897.643L167.387 885.743Z" fill="#E0E0E0"/>
<path d="M193.998 886.778L186.033 893.236C185.515 893.665 184.729 893.575 184.3 893.058C183.871 892.523 183.961 891.756 184.479 891.327L192.445 884.869C192.963 884.44 193.748 884.53 194.177 885.047C194.606 885.582 194.516 886.35 193.998 886.778Z" fill="#E0E0E0"/>
<path d="M197.608 889.704L189.642 896.162C189.106 896.591 188.338 896.501 187.909 895.984C187.481 895.449 187.57 894.682 188.088 894.253L196.054 887.795C196.59 887.366 197.358 887.456 197.786 887.973C198.215 888.508 198.126 889.276 197.608 889.704Z" fill="#E0E0E0"/>
<path d="M201.463 893.147L193.497 899.606C192.962 900.034 192.194 899.945 191.765 899.427C191.336 898.892 191.426 898.125 191.944 897.697L199.909 891.238C200.427 890.81 201.213 890.899 201.642 891.416C202.071 891.952 201.981 892.719 201.463 893.147Z" fill="#E0E0E0"/>
<path d="M203.038 897.804L198.519 901.461C198.001 901.889 197.215 901.8 196.786 901.283C196.358 900.765 196.447 899.98 196.965 899.552L201.484 895.895C202.02 895.466 202.788 895.556 203.216 896.073C203.645 896.608 203.556 897.375 203.038 897.804Z" fill="#E0E0E0"/>
<path d="M214.379 903.281L209.842 907.813C209.36 908.295 208.592 908.295 208.11 907.813C207.627 907.331 207.627 906.564 208.11 906.082L212.646 901.551C213.129 901.069 213.897 901.069 214.379 901.551C214.861 902.032 214.861 902.799 214.379 903.281Z" fill="#74EE9B"/>
<path d="M209.359 944.139C208.18 945.994 205.715 946.529 203.858 945.352L137.613 903.014C135.755 901.836 135.219 899.374 136.398 897.518C137.577 895.663 140.042 895.127 141.899 896.305L208.144 938.643C210.002 939.821 210.538 942.283 209.359 944.139Z" fill="#263238"/>
<path d="M718.099 814.394L720.028 767.257C720.028 767.257 768.341 756.801 769.537 748.13L678.484 737.693L672.465 811.022L718.117 814.412L718.099 814.394Z" fill="#455A64"/>
<g opacity="0.6">
<path d="M691.467 769.023C689.735 768.398 688.663 766.329 689.217 764.562C689.771 762.814 691.878 761.708 693.611 762.296C695.361 762.885 696.718 765.347 695.968 767.024C695.236 768.702 692.682 769.861 691.128 768.88" fill="white"/>
</g>
<path d="M678.484 737.675L677.877 745.061L766.162 752.091C766.162 752.091 769.234 751.145 770.091 747.506L678.502 737.675H678.484Z" fill="#263238"/>
<path d="M721.474 767.827C721.492 767.381 719.277 767.007 717.188 765.401C715.062 763.849 714.08 761.832 713.651 761.975C713.24 762.029 713.687 764.741 716.259 766.65C718.795 768.559 721.546 768.238 721.474 767.827Z" fill="#263238"/>
<path d="M731.353 764.598C731.496 764.17 729.621 763.26 728.246 761.262C726.817 759.299 726.585 757.229 726.138 757.211C725.727 757.104 725.209 759.691 726.96 762.154C728.692 764.616 731.3 765.008 731.336 764.58L731.353 764.598Z" fill="#263238"/>
<path d="M737.692 753.554C737.3 753.429 736.496 755.606 737.46 758.139C738.407 760.673 740.425 761.797 740.639 761.44C740.925 761.101 739.657 759.674 738.907 757.586C738.103 755.516 738.121 753.625 737.675 753.554H737.692Z" fill="#263238"/>
<path d="M719.831 778.514C719.671 778.086 717.581 778.55 715.08 778.193C712.562 777.872 710.669 776.891 710.401 777.248C710.115 777.551 711.901 779.353 714.866 779.728C717.831 780.138 720.028 778.889 719.831 778.514Z" fill="#263238"/>
<g opacity="0.3">
<path d="M718.099 814.394L720.028 767.257C720.028 767.257 768.341 756.801 769.537 748.13L678.484 737.693L672.465 811.022L718.117 814.412L718.099 814.394Z" fill="black"/>
</g>
<path d="M725.745 779.817C725.013 781.28 719.529 918.161 719.529 918.161L672.359 899.57C672.359 899.57 664.019 884.012 665.483 862.709C666.948 841.406 679.45 776.034 679.45 776.034L725.745 779.817Z" fill="#263238"/>
<path d="M713.17 817.391L690.362 776.07C690.362 776.07 726.243 742.117 722.779 734.07L639.477 772.269L672.358 838.105L713.152 817.373L713.17 817.391Z" fill="#455A64"/>
<g opacity="0.6">
<path d="M666.858 792.377C665.054 792.752 663.072 791.521 662.625 789.736C662.179 787.952 663.411 785.918 665.215 785.526C667.001 785.133 669.448 786.525 669.68 788.345C669.912 790.165 668.34 792.484 666.501 792.43" fill="white"/>
</g>
<path d="M639.494 772.269L642.816 778.906L721.957 739.209C721.957 739.209 724.082 736.818 722.939 733.267L639.494 772.269Z" fill="#263238"/>
<path d="M691.898 775.802C691.683 775.409 689.594 776.23 686.986 775.945C684.361 775.73 682.485 774.499 682.182 774.856C681.86 775.124 683.646 777.211 686.825 777.497C689.987 777.818 692.166 776.123 691.898 775.802Z" fill="#263238"/>
<path d="M698.686 767.934C698.579 767.506 696.507 767.702 694.292 766.685C692.06 765.739 690.791 764.098 690.399 764.312C689.988 764.437 690.899 766.917 693.667 768.112C696.435 769.325 698.864 768.309 698.686 767.934Z" fill="#263238"/>
<path d="M698.364 755.212C697.954 755.319 698.418 757.585 700.543 759.245C702.669 760.922 704.991 760.833 704.991 760.422C705.044 759.976 703.24 759.423 701.508 758.031C699.74 756.675 698.775 755.052 698.364 755.212Z" fill="#263238"/>
<path d="M696.058 785.811C695.701 785.526 694.147 787.006 691.825 787.988C689.503 789.023 687.378 789.147 687.342 789.593C687.253 790.004 689.718 790.61 692.45 789.415C695.201 788.237 696.433 786.025 696.076 785.811H696.058Z" fill="#263238"/>
<g opacity="0.3">
<path d="M708.652 809.202L704.598 801.833L664.572 822.494L667.948 829.274L708.652 809.202Z" fill="black"/>
</g>
<path d="M484.286 877.535L497.467 873.343C497.467 873.343 521.74 853.877 548.941 856.446C576.143 859.016 598.201 871.79 598.201 871.79L626.51 887.295L699.31 906.76L657.391 807.971L698.774 790.825C698.774 790.825 740.139 857.374 752.642 876.108C765.144 894.842 774.646 913.754 776.129 929.187C777.593 944.62 765.984 966.226 733.995 969.884C702.007 973.559 565.105 964.424 565.105 964.424L459.781 961.391L484.268 877.535H484.286Z" fill="#263238"/>
<path d="M484.286 877.535C484.286 877.535 484.161 878.035 483.893 878.981C483.625 879.944 483.214 881.354 482.697 883.227C481.625 886.974 480.035 892.487 477.963 899.659C473.802 914.004 467.729 934.968 460.049 961.463L459.799 961.124C481.518 961.73 506.88 962.426 535.26 963.211C563.659 963.532 595.004 966.119 628.796 967.69C645.693 968.528 663.196 969.295 681.235 969.831C690.255 970.08 699.399 970.277 708.669 970.294C713.313 970.277 717.974 970.294 722.654 970.098C724.994 970.045 727.351 969.973 729.691 969.759C732.049 969.599 734.406 969.438 736.728 969.01C746.034 967.636 755.357 964.246 762.751 958.019C770.145 951.917 775.307 942.747 775.736 932.934C775.861 931.721 775.682 930.49 775.664 929.276C775.504 928.063 775.396 926.832 775.164 925.619C774.736 923.192 774.2 920.766 773.485 918.375C772.11 913.593 770.288 908.919 768.199 904.334C764.019 895.181 758.84 886.403 753.214 877.839C743.479 863.119 734.263 848.346 725.119 833.859C716.046 819.336 707.115 805.045 698.364 791.039L698.917 791.217C684.825 797.052 671.019 802.761 657.534 808.345L657.766 807.757C672.68 842.958 686.718 876.09 699.632 906.564L699.953 907.313L699.167 907.099C672.859 900.052 648.532 893.522 626.385 887.58H626.35L626.314 887.545C618.759 883.405 611.489 879.409 604.488 875.573C600.97 873.682 597.594 871.701 594.2 870.006C590.789 868.311 587.36 866.795 583.966 865.457C570.392 860.122 557.318 857.035 545.566 856.482C539.69 856.304 534.189 857.053 529.206 858.213C524.222 859.426 519.757 861.085 515.757 862.798C507.791 866.313 501.754 870.167 497.467 873.378V873.396C492.984 874.788 489.698 875.823 487.501 876.501C485.322 877.179 484.233 877.482 484.233 877.482C484.233 877.482 485.251 877.125 487.43 876.411C489.626 875.698 492.913 874.645 497.396 873.182H497.36C501.647 869.935 507.666 866.028 515.631 862.477C519.632 860.729 524.115 859.051 529.116 857.803C534.135 856.607 539.672 855.84 545.584 856.001C557.407 856.518 570.535 859.569 584.181 864.904C587.592 866.259 591.021 867.758 594.468 869.453C597.915 871.166 601.291 873.129 604.792 875.02C611.793 878.838 619.08 882.817 626.635 886.956L626.564 886.92C648.711 892.826 673.055 899.32 699.364 906.332L698.899 906.867C685.95 876.394 671.894 843.279 656.945 808.096L656.766 807.685L657.177 807.507C670.68 801.922 684.468 796.195 698.56 790.361L698.917 790.218L699.114 790.539C707.865 804.527 716.796 818.819 725.887 833.342C735.031 847.829 744.247 862.602 753.982 877.304C759.625 885.885 764.823 894.699 769.02 903.923C771.11 908.527 772.949 913.255 774.343 918.09C775.057 920.498 775.611 922.96 776.039 925.44C776.272 926.671 776.379 927.92 776.539 929.169C776.539 930.436 776.736 931.685 776.611 932.952C776.164 943.068 770.842 952.453 763.287 958.697C755.732 965.067 746.248 968.475 736.817 969.866C734.46 970.312 732.084 970.455 729.709 970.633C727.333 970.847 724.976 970.919 722.636 970.972C717.939 971.169 713.259 971.133 708.616 971.151C699.328 971.133 690.166 970.919 681.146 970.669C663.107 970.134 645.603 969.331 628.707 968.475C594.897 966.887 563.587 964.246 535.189 963.871C506.808 963.015 481.464 962.266 459.746 961.605H459.406L459.496 961.266C467.301 934.754 473.463 913.79 477.678 899.445C479.785 892.308 481.428 886.813 482.518 883.084C483.072 881.247 483.482 879.855 483.768 878.891C484.054 877.946 484.215 877.482 484.215 877.482L484.286 877.535Z" fill="#455A64"/>
<path d="M694.291 905.172C694.291 905.172 694.916 905.19 695.988 905.386C697.059 905.582 698.613 905.921 700.524 906.385C704.311 907.349 709.598 908.758 715.027 911.381C720.493 913.932 724.779 917.59 727.208 920.694C727.851 921.444 728.351 922.193 728.78 922.835C729.226 923.478 729.584 924.049 729.834 924.548C730.352 925.512 730.62 926.065 730.566 926.1C730.405 926.19 729.262 924.049 726.708 921.123C724.19 918.179 719.992 914.735 714.634 912.22C709.294 909.65 704.096 908.134 700.364 907.028C696.613 905.957 694.273 905.315 694.309 905.172H694.291Z" fill="#455A64"/>
<path d="M239.72 936.288C239.72 936.288 221.056 925.69 217.413 925.476C212.233 925.155 189.353 925.94 186.549 925.762C184.049 925.601 182.995 928.242 184.067 930.026C185.121 931.81 187.71 934.701 194.783 934.522C201.856 934.344 205.928 935.575 207.696 936.288C209.465 937.002 208.964 939.161 208.964 939.161C208.964 939.161 198.695 939.696 195.712 939C191.622 938.037 178.066 928.848 178.066 928.848L172.654 925.387C172.654 925.387 170.385 928.135 173.922 933.273C177.458 938.394 181.888 942.997 181.888 942.997C181.888 942.997 177.03 946.048 181.28 950.722C181.28 950.722 178.155 956.61 185.263 960.036C185.263 960.036 186.835 964.157 189.907 966.601C192.068 968.332 197.534 968.011 200.891 968.207C204.714 968.439 213.09 967.618 215.859 967.03C223.521 965.424 229.022 963.551 229.022 963.551L245.918 964.514L247.454 935.735L239.72 936.271V936.288Z" fill="#AE7461"/>
<path d="M192.656 948.956C192.567 949.188 189.549 948.26 186.137 946.405C182.726 944.567 180.279 942.569 180.422 942.373C180.583 942.158 183.208 943.782 186.566 945.584C189.924 947.386 192.728 948.706 192.639 948.938L192.656 948.956Z" fill="#6F4439"/>
<path d="M190.409 955.415C190.338 955.647 187.873 955.111 185.14 953.666C182.408 952.239 180.55 950.508 180.711 950.33C180.872 950.116 182.908 951.472 185.569 952.845C188.212 954.237 190.481 955.165 190.409 955.415Z" fill="#6F4439"/>
<path d="M190.818 962.319C190.765 962.551 188.568 962.248 186.121 961.035C183.692 959.822 182.12 958.252 182.281 958.055C182.442 957.841 184.21 959.037 186.55 960.196C188.871 961.374 190.89 962.052 190.818 962.319Z" fill="#6F4439"/>
<g opacity="0.3">
<path d="M377.59 936.966C387.127 924.531 392.021 909.044 394.022 893.522C396.004 877.982 395.54 863.227 394.772 847.58C391.468 879.195 385.806 908.509 377.59 936.984V936.966Z" fill="black"/>
</g>
<path d="M396.413 829.452C396.573 831.04 396.448 825.991 396.413 827.757C395.966 849.078 383.374 939.964 367.05 957.645C354.583 971.151 237.703 965.406 237.703 965.406L238.989 935.004C238.989 935.004 242.15 934.094 263.137 931.471C284.123 928.848 326.917 917.84 326.917 917.84L341.33 822.744" fill="#74EE9B"/>
<path d="M341.312 822.726C341.312 822.726 341.259 823.315 341.116 824.439C340.955 825.599 340.723 827.258 340.419 829.435C339.776 833.841 338.83 840.282 337.633 848.525C335.168 865.082 331.614 888.847 327.292 917.876L327.256 918.126L327.024 918.179C314.503 921.373 300.804 924.691 286.087 927.796C278.729 929.33 271.12 930.829 263.208 931.882C255.349 932.916 247.187 933.844 239.132 935.414L239.453 935.004C239.042 944.692 238.614 954.951 238.185 965.406L237.738 964.924C245.99 965.299 254.742 965.584 263.618 965.799C280.336 966.191 296.678 966.28 312.432 965.852C320.308 965.62 328.042 965.263 335.597 964.657C343.134 964.014 350.546 963.212 357.547 961.499C359.28 961.053 360.995 960.553 362.638 959.875C364.245 959.197 365.853 958.412 366.942 957.145C369.21 954.54 370.889 951.472 372.318 948.385C375.176 942.194 377.23 935.842 379.052 929.687C382.642 917.341 385.142 905.601 387.25 894.86C391.375 873.361 393.715 855.787 395.073 843.619C395.751 837.535 396.144 832.789 396.305 829.577C396.341 828.774 396.376 828.061 396.412 827.454V827.383C396.412 827.383 396.412 827.329 396.501 827.311C396.555 827.311 396.537 827.329 396.555 827.347C396.555 827.401 396.555 827.383 396.555 827.401V827.525L396.573 827.74C396.573 827.882 396.573 828.007 396.573 828.15C396.573 828.4 396.573 828.632 396.573 828.846C396.537 829.256 396.627 829.577 396.484 829.791C396.43 829.559 396.448 829.47 396.448 829.47C396.448 829.47 396.466 829.577 396.501 829.774C396.466 829.595 396.501 829.256 396.466 828.864C396.466 828.65 396.466 828.418 396.43 828.168C396.43 828.043 396.43 827.9 396.412 827.757V827.543L396.394 827.436C396.376 827.418 396.394 827.436 396.519 827.418V827.472C396.501 828.096 396.484 828.792 396.466 829.595C396.359 832.824 396.019 837.57 395.412 843.672C394.162 855.858 391.911 873.468 387.875 895.003C385.821 905.761 383.338 917.519 379.784 929.919C377.962 936.11 375.926 942.479 373.05 948.76C371.622 951.882 369.925 955.004 367.567 957.752C366.335 959.179 364.62 960 362.959 960.696C361.28 961.392 359.53 961.909 357.762 962.355C350.671 964.104 343.241 964.906 335.686 965.567C328.113 966.191 320.362 966.566 312.467 966.798C296.678 967.244 280.336 967.155 263.601 966.762C254.724 966.548 245.972 966.262 237.703 965.87H237.238L237.256 965.388C237.703 954.933 238.131 944.674 238.56 934.986V934.629L238.881 934.558C243.043 933.666 247.079 933.166 251.134 932.577C255.17 932.042 259.171 931.525 263.1 931.025C270.959 929.99 278.568 928.492 285.908 926.975C300.608 923.906 314.325 920.606 326.827 917.465L326.559 917.769C331.024 888.776 334.686 865.011 337.222 848.472C338.508 840.247 339.526 833.806 340.205 829.417C340.562 827.258 340.83 825.599 341.009 824.439C341.205 823.315 341.33 822.744 341.33 822.744L341.312 822.726Z" fill="#263238"/>
</svg>
