<svg width="788" height="714.2" viewBox="0 0 1136 1026" fill="none" xmlns="http://www.w3.org/2000/svg">
<path d="M817.747 179.651H703.848V344.743H817.747V179.651Z" fill="#E0E0E0"/>
<path d="M812.048 179.651H698.148V344.743H812.048V179.651Z" fill="#F5F5F5"/>
<path d="M797.897 197.526H712.297V326.87H797.897V197.526Z" fill="white"/>
<path d="M797.898 326.847C797.898 326.847 797.898 326.62 797.898 326.211C797.898 325.78 797.898 325.167 797.898 324.372C797.898 322.736 797.898 320.374 797.853 317.286C797.853 311.085 797.807 302.046 797.784 290.645C797.739 267.842 797.694 235.546 797.648 197.504L797.943 197.799C771.802 197.799 742.822 197.799 712.366 197.822L712.684 197.504C712.661 246.289 712.638 291.281 712.615 326.824L712.366 326.575C738.439 326.62 759.81 326.666 774.664 326.711C782.091 326.734 787.905 326.756 791.879 326.779C793.855 326.779 795.354 326.779 796.399 326.802C797.421 326.802 797.966 326.824 797.966 326.824C797.966 326.824 797.466 326.825 796.467 326.847C795.445 326.847 793.946 326.847 791.993 326.87C788.041 326.87 782.25 326.915 774.846 326.938C759.947 326.961 738.529 327.006 712.388 327.074H712.138V326.824C712.138 291.258 712.093 246.289 712.07 197.504V197.186H712.388C742.845 197.186 771.825 197.186 797.966 197.209H798.261V197.504C798.193 235.614 798.148 267.978 798.125 290.826C798.102 302.205 798.057 311.222 798.057 317.399C798.057 320.465 798.034 322.827 798.011 324.44C798.011 325.212 798.011 325.825 798.011 326.234C798.011 326.643 798.011 326.824 798.011 326.824L797.898 326.847Z" fill="#E0E0E0"/>
<path d="M812.366 179.652C812.366 179.652 811.662 180.833 810.345 182.604C809.028 184.376 807.143 186.783 805.008 189.372C802.873 191.984 800.851 194.278 799.375 195.913C797.899 197.549 796.922 198.525 796.877 198.48C796.809 198.412 797.649 197.344 799.057 195.641C800.579 193.779 802.464 191.507 804.531 188.986C806.597 186.465 808.483 184.194 810.004 182.332C811.412 180.628 812.321 179.606 812.389 179.652H812.366Z" fill="#E0E0E0"/>
<path d="M798.328 326.437C802.575 333.205 807.595 339.473 813.25 345.106L798.328 326.437Z" fill="white"/>
<path d="M813.251 345.106C813.251 345.106 812.183 344.288 810.639 342.744C809.117 341.2 807.073 338.974 805.006 336.385C802.94 333.796 801.214 331.32 800.055 329.503C798.897 327.663 798.261 326.482 798.329 326.437C798.397 326.391 799.17 327.482 800.419 329.253C801.668 331.025 803.439 333.432 805.506 335.999C807.573 338.565 809.526 340.813 810.98 342.426C812.433 344.039 813.319 345.038 813.274 345.083L813.251 345.106Z" fill="#E0E0E0"/>
<path d="M698.125 344.607C703.099 338.475 708.073 332.343 713.047 326.211L698.125 344.607Z" fill="white"/>
<path d="M713.047 326.188C713.183 326.302 709.958 330.503 705.824 335.591C701.714 340.678 698.262 344.698 698.125 344.607C697.989 344.494 701.214 340.292 705.348 335.205C709.458 330.117 712.911 326.097 713.047 326.188Z" fill="#E0E0E0"/>
<path d="M698.149 179.652C698.285 179.538 701.533 183.422 705.394 188.305C709.255 193.188 712.276 197.231 712.139 197.344C712.003 197.458 708.755 193.574 704.894 188.691C701.033 183.808 698.013 179.765 698.149 179.652Z" fill="#E0E0E0"/>
<path d="M771.236 223.781H742.574V305.157H771.236V223.781Z" fill="#E0E0E0"/>
<path d="M591.181 641.608C580.734 644.652 572.285 652.874 567.357 662.549C562.406 672.247 560.68 683.285 560.521 694.163C560.225 715.217 569.355 737.656 579.939 755.848C599.358 742.812 606.739 716.739 609.669 703.271C614.279 681.99 609.714 640.7 591.181 641.608Z" fill="#F5F5F5"/>
<path d="M555.271 787.531C559.563 776.153 556.315 762.684 548.344 753.509C540.372 744.333 528.221 739.36 516.093 738.746C510.483 738.474 504.26 739.314 500.513 743.493C496.992 747.399 496.561 753.395 498.401 758.324C500.217 763.252 503.965 767.227 508.03 770.565C521.953 781.989 537.533 790.484 555.316 787.531" fill="#F5F5F5"/>
<path d="M569.851 838.133C570.123 838.088 570.078 832.819 569.215 824.234C568.783 819.941 567.648 814.808 565.74 809.426C563.809 804.088 561.811 798.161 558.767 792.233C552.84 780.355 544.345 771.338 537.146 766.478C533.557 764.002 530.355 762.503 528.152 761.572C525.881 760.732 524.586 760.368 524.541 760.527C524.382 760.913 529.424 762.73 536.169 767.84C542.915 772.905 550.886 781.763 556.678 793.323C559.608 799.024 561.674 804.929 563.696 810.175C565.694 815.444 566.921 820.282 567.557 824.483C568.829 832.909 569.465 838.201 569.828 838.156L569.851 838.133Z" fill="#E0E0E0"/>
<path d="M591.879 673.36C591.72 673.337 591.175 675.767 590.312 680.218C589.449 684.67 588.291 691.097 586.906 699.069C584.18 715.013 580.637 737.089 577.344 761.572C574.051 786.055 571.689 808.312 570.303 824.438C569.622 832.5 569.145 839.041 568.895 843.561C568.645 848.081 568.577 850.579 568.759 850.602C568.918 850.602 569.281 848.126 569.826 843.652C570.371 838.746 571.098 832.341 571.984 824.619C573.778 808.54 576.39 786.373 579.683 761.912C583.113 737.679 586.224 715.785 588.564 699.364C589.631 691.665 590.539 685.283 591.221 680.4C591.811 675.903 592.061 673.428 591.902 673.382L591.879 673.36Z" fill="#E0E0E0"/>
<path d="M580.614 798.842C591.085 775.472 613.524 757.847 638.734 753.191C645.138 752.01 653.042 752.237 656.585 757.734C660.128 763.23 657.017 770.543 653.133 775.812C636.985 797.684 606.733 808.04 580.592 800.636" fill="#F5F5F5"/>
<path d="M629.856 770.111C629.81 769.952 628.516 770.248 626.222 770.883C623.928 771.497 620.68 772.61 616.683 774.108C608.847 777.243 597.787 782.058 588.021 791.006C583.183 795.458 579.345 800.545 576.62 805.564C573.849 810.584 572.395 815.557 571.419 819.714C570.578 823.915 570.147 827.345 570.147 829.752C570.079 832.137 570.101 833.454 570.283 833.454C570.76 833.5 570.942 828.208 573.054 820.122C574.212 816.125 575.779 811.378 578.55 806.632C581.275 801.885 584.977 797.07 589.656 792.778C599.036 784.17 609.756 779.173 617.342 775.698C625.064 772.337 629.992 770.52 629.856 770.157V770.111Z" fill="#E0E0E0"/>
<path d="M1024.07 243.563C1024.07 243.563 1000.26 236.545 990.634 291.281C981.004 346.039 980.232 376.132 980.232 376.132C980.232 376.132 976.893 388.01 968.081 383.604C959.269 379.198 944.302 363.663 933.741 370.522C922.771 377.631 922.93 392.257 931.265 411.267C939.6 430.276 956.316 472.566 957.815 476.404C959.292 480.174 958.815 486.51 952.342 484.466C945.869 482.422 904.579 457.576 893.95 477.88C883.321 498.184 915.231 547.31 918.615 552.738C921.999 558.166 921.613 561.05 919.251 563.39C916.889 565.706 903.807 556.054 891.77 549.467C879.732 542.881 864.629 537.362 859.496 549.581C854.341 561.8 864.129 602.999 922.68 656.848L951.433 680.014L986.25 667.205C1059.09 635.249 1081.68 599.433 1080.78 586.192C1079.87 572.951 1063.79 573.292 1050.27 575.631C1036.76 577.971 1021.25 582.854 1019.77 579.901C1018.3 576.949 1018.86 574.087 1023.82 570.044C1028.79 566.001 1074.87 529.867 1071.4 507.224C1067.92 484.58 1020.82 494.709 1014.03 494.55C1007.24 494.369 1008.85 488.214 1011.46 485.148C1014.12 482.014 1043.64 447.401 1057.68 432.139C1071.71 416.854 1076.6 403.068 1068.53 392.802C1060.77 382.877 1041.55 392.734 1031.81 394.051C1022.07 395.368 1022.75 383.036 1022.75 383.036C1022.75 383.036 1031.76 354.306 1040.4 299.389C1049.03 244.472 1023.59 243.495 1023.59 243.495" fill="#F5F5F5"/>
<path d="M1015.34 292.575C1015.34 292.575 1015.34 292.961 1015.23 293.733C1015.12 294.551 1014.96 295.663 1014.75 297.117C1014.3 300.138 1013.66 304.521 1012.82 310.131C1011.14 321.419 1008.55 337.748 1005.31 357.894C998.811 398.207 989.385 453.805 978.756 515.172C968.127 576.562 958.543 632.137 951.843 672.405C948.504 692.505 945.824 708.789 943.939 720.1C943.008 725.687 942.281 730.048 941.782 733.068C941.532 734.499 941.327 735.635 941.191 736.43C941.055 737.179 940.941 737.565 940.941 737.565C940.941 737.565 940.941 737.179 941.055 736.407C941.168 735.589 941.327 734.476 941.532 733.023C941.986 730.002 942.622 725.619 943.462 720.032C945.143 708.744 947.732 692.414 950.98 672.269C957.475 631.956 966.901 576.358 977.53 514.968C988.159 453.601 997.743 398.025 1004.44 357.757C1007.78 337.657 1010.46 321.373 1012.35 310.063C1013.28 304.476 1014 300.115 1014.5 297.094C1014.75 295.663 1014.96 294.528 1015.1 293.733C1015.23 292.984 1015.34 292.597 1015.34 292.597V292.575Z" fill="#E0E0E0"/>
<path d="M953.793 393.143C953.793 393.143 954.452 393.847 955.428 395.255C956.428 396.663 957.79 398.73 959.471 401.296C962.81 406.452 967.238 413.674 971.962 421.759C976.573 429.731 980.752 436.931 983.977 442.495C985.408 444.948 986.634 447.037 987.656 448.764C988.519 450.24 988.973 451.08 988.905 451.126C988.837 451.171 988.247 450.422 987.247 449.036C986.248 447.628 984.885 445.561 983.227 442.972C979.934 437.794 975.619 430.503 970.895 422.418C966.216 414.492 961.992 407.315 958.744 401.796C957.291 399.343 956.064 397.253 955.042 395.55C954.179 394.074 953.747 393.233 953.816 393.165L953.793 393.143Z" fill="#E0E0E0"/>
<path d="M992.336 450.74C992.154 450.445 1006.67 440.679 1024.75 428.891C1042.85 417.104 1057.65 407.792 1057.84 408.087C1058.02 408.383 1043.53 418.149 1025.43 429.936C1007.35 441.701 992.517 451.035 992.336 450.74Z" fill="#E0E0E0"/>
<path d="M971.76 544.266C971.76 544.266 972.645 543.857 974.326 543.335C976.257 542.745 978.619 542.018 981.412 541.177C987.385 539.338 995.652 536.794 1004.65 533.637C1013.66 530.503 1021.73 527.391 1027.54 525.12C1030.27 524.053 1032.56 523.144 1034.44 522.418C1036.08 521.782 1037.01 521.486 1037.03 521.555C1037.08 521.623 1036.22 522.1 1034.63 522.872C1033.06 523.644 1030.74 524.689 1027.88 525.938C1022.13 528.436 1014.09 531.684 1005.06 534.818C996.016 537.975 987.703 540.405 981.639 542.018C978.619 542.813 976.143 543.426 974.44 543.789C972.736 544.175 971.782 544.334 971.76 544.266Z" fill="#E0E0E0"/>
<path d="M925.427 499.842C925.427 499.842 926.199 500.319 927.426 501.387C928.652 502.431 930.424 503.976 932.559 505.929C936.874 509.79 942.756 515.195 949.206 521.237C955.656 527.255 961.448 532.774 965.604 536.817C967.671 538.838 969.352 540.474 970.465 541.632C971.6 542.79 972.191 543.471 972.122 543.517C972.054 543.585 971.35 543.04 970.124 541.973C968.897 540.928 967.126 539.383 964.991 537.43C960.698 533.569 954.793 528.164 948.343 522.122C941.893 516.104 936.102 510.585 931.945 506.565C929.879 504.544 928.198 502.908 927.085 501.75C925.95 500.592 925.359 499.91 925.427 499.865V499.842Z" fill="#E0E0E0"/>
<path d="M896.789 580.105C896.789 580.105 897.743 580.764 899.333 582.104C901.082 583.625 903.285 585.579 905.942 587.895C911.484 592.824 919.092 599.682 927.427 607.336C935.762 614.99 943.28 621.963 948.663 627.05C951.206 629.48 953.319 631.524 954.999 633.137C956.476 634.59 957.271 635.431 957.202 635.499C957.134 635.567 956.248 634.84 954.659 633.5C952.91 631.979 950.707 630.025 948.05 627.709C942.508 622.78 934.899 615.899 926.564 608.268C918.229 600.614 910.734 593.641 905.329 588.554C902.785 586.124 900.673 584.08 898.992 582.467C897.516 581.013 896.721 580.173 896.789 580.105Z" fill="#E0E0E0"/>
<path d="M956.111 633.751C956.111 633.751 957.224 633.229 959.336 632.479C961.653 631.684 964.651 630.64 968.239 629.413C975.734 626.824 986.091 623.213 997.424 618.92C1008.76 614.628 1018.91 610.494 1026.25 607.451C1029.74 605.997 1032.67 604.794 1034.94 603.862C1037.01 603.022 1038.15 602.591 1038.19 602.681C1038.24 602.749 1037.15 603.34 1035.15 604.317C1033.15 605.293 1030.24 606.656 1026.61 608.268C1019.36 611.516 1009.23 615.809 997.878 620.101C986.545 624.416 976.12 627.891 968.535 630.276C964.742 631.457 961.653 632.366 959.518 632.956C957.383 633.547 956.179 633.842 956.157 633.751H956.111Z" fill="#E0E0E0"/>
<path d="M225.18 728.64C277.622 698.729 294.655 635.84 297.949 578.22C298.494 568.613 300.492 558.597 296.699 549.762C292.907 540.928 282.8 534.205 273.829 537.453C266.402 540.155 262.541 548.15 257.931 554.645C251.798 563.276 243.213 570.089 233.47 574.064C227.065 576.676 219.343 577.925 213.62 574.064C205.762 568.749 205.83 557.235 206.761 547.696C208.51 529.935 210.236 512.174 211.985 494.414C212.916 484.875 213.847 475.154 211.712 465.82C209.577 456.508 203.786 447.492 194.951 444.107C186.116 440.746 174.42 444.948 171.649 454.101C170.491 457.916 170.922 462.027 170.286 465.956C169.65 469.885 167.402 474.11 163.541 474.859C159.634 475.631 156.069 472.565 153.479 469.522C144.508 458.984 138.967 445.97 133.857 433.07C128.746 420.169 123.841 406.974 115.869 395.663C107.897 384.353 96.3141 374.882 82.7324 372.861C69.1508 370.839 53.8204 377.926 49.1418 391.03C44.4405 404.158 51.0496 418.511 58.5899 430.185C69.7641 447.492 83.4365 463.14 99.0395 476.494C101.856 478.902 104.899 481.514 105.717 485.148C107.216 491.689 100.607 497.457 94.1337 498.979C86.7978 500.705 79.1667 499.252 71.6491 499.433C64.1316 499.638 55.7736 502.159 52.3215 508.949C47.5293 518.329 54.7289 529.299 62.1556 536.726C76.9864 551.602 94.3608 563.866 113.28 572.815C120.071 576.017 127.225 578.947 132.448 584.398C137.649 589.849 140.284 598.729 136.241 605.134C132.199 611.538 123.227 612.901 116.005 610.857C108.783 608.813 102.582 604.225 95.8144 600.955C83.164 594.8 66.1529 594.164 56.7275 604.725C50.5272 611.675 49.0964 621.986 51.0723 631.116C53.0482 640.246 57.9994 648.399 63.3594 656.008C82.0965 682.58 107.17 704.883 136.605 718.215C166.039 731.547 193.952 736.975 225.18 728.685" fill="#F5F5F5"/>
<path d="M222.022 771.315C222.022 748.377 219.501 721.032 213.641 691.302C207.85 661.527 198.788 629.435 188.159 596.185C185.479 587.896 182.822 579.674 180.187 571.589C177.552 563.526 174.941 555.532 171.92 547.855C165.924 532.502 158.974 518.193 151.956 504.816C144.938 491.439 137.807 478.993 131.039 467.41C124.248 455.827 117.707 445.153 111.348 435.682C98.6746 416.672 86.6374 402.591 77.9843 393.256C73.669 388.578 70.1942 385.057 67.8321 382.695C66.6738 381.582 65.7881 380.697 65.1067 380.038C64.4935 379.448 64.1528 379.152 64.1301 379.175C64.1074 379.175 64.4027 379.538 64.9705 380.174C65.6064 380.856 66.4694 381.787 67.5596 382.968C69.8535 385.398 73.2375 389.009 77.4619 393.756C85.9334 403.227 97.7662 417.376 110.28 436.409C116.571 445.902 123.022 456.577 129.744 468.182C136.444 479.788 143.53 492.234 150.503 505.611C157.453 518.966 164.357 533.251 170.307 548.514C173.305 556.145 175.894 564.071 178.529 572.156C181.141 580.242 183.798 588.441 186.478 596.731C197.107 629.958 206.192 661.959 212.051 691.62C217.979 721.259 220.614 748.467 220.773 771.338" fill="#E0E0E0"/>
<path d="M171.424 547.741C171.538 547.763 171.992 546.355 172.719 543.766C173.468 541.177 174.422 537.407 175.512 532.705C177.738 523.326 180.35 510.289 183.189 495.89C186.028 481.491 188.822 468.522 191.184 459.21C192.342 454.554 193.318 450.784 194.045 448.195C194.749 445.606 195.067 444.152 194.954 444.107C194.84 444.062 194.295 445.447 193.387 447.991C192.478 450.534 191.297 454.236 189.98 458.87C187.3 468.136 184.302 481.127 181.463 495.526C178.692 509.744 176.194 522.599 174.286 532.41C173.4 536.839 172.651 540.586 172.038 543.584C171.515 546.219 171.288 547.695 171.402 547.718L171.424 547.741Z" fill="#E0E0E0"/>
<path d="M50.916 513.605C50.916 513.719 52.6194 514.082 55.7536 514.65C58.8651 515.218 63.3847 516.013 68.9491 517.171C80.0779 519.42 95.3174 523.053 111.965 527.8C128.613 532.57 143.489 537.544 154.141 541.45C159.478 543.358 163.771 545.038 166.746 546.151C169.721 547.287 171.379 547.877 171.424 547.764C171.47 547.65 169.903 546.855 167.018 545.515C164.134 544.175 159.91 542.336 154.595 540.269C144.011 536.045 129.158 530.889 112.442 526.097C95.7489 521.35 80.3958 517.875 69.1762 515.967C63.5664 514.968 59.0014 514.355 55.8445 513.992C52.6875 513.651 50.9387 513.515 50.916 513.651V513.605Z" fill="#E0E0E0"/>
<path d="M212.35 688.894C212.35 688.894 212.736 688.44 213.326 687.486C214.008 686.328 214.825 684.942 215.825 683.239C217.982 679.537 220.957 674.109 224.569 667.364C231.768 653.85 241.125 634.886 251.187 613.832C261.248 592.756 270.424 573.723 277.328 560.096C280.712 553.464 283.483 548.013 285.55 543.971C286.435 542.222 287.162 540.768 287.775 539.565C288.275 538.543 288.502 537.998 288.434 537.975C288.389 537.952 288.048 538.429 287.457 539.406C286.776 540.564 285.958 541.949 284.959 543.653C282.801 547.355 279.826 552.783 276.215 559.528C269.015 573.042 259.658 592.006 249.597 613.083C239.536 634.159 230.383 653.169 223.456 666.818C220.072 673.45 217.301 678.901 215.234 682.944C214.348 684.693 213.622 686.146 213.008 687.35C212.509 688.372 212.282 688.917 212.35 688.94V688.894Z" fill="#E0E0E0"/>
<path d="M54.2285 621.441C54.2285 621.441 54.7509 621.781 55.7729 622.258C56.9993 622.803 58.521 623.462 60.3607 624.28C64.6078 626.097 70.3311 628.549 77.2809 631.525C91.5666 637.657 111.212 646.333 132.902 655.962C154.592 665.592 174.351 674.109 188.773 679.946C195.995 682.876 201.832 685.17 205.92 686.669C207.805 687.35 209.372 687.918 210.621 688.372C211.712 688.735 212.279 688.917 212.302 688.849C212.302 688.781 211.78 688.508 210.758 688.031C209.531 687.486 208.01 686.828 206.17 686.01C201.923 684.193 196.199 681.74 189.25 678.765C174.964 672.633 155.318 663.957 133.606 654.305C111.916 644.675 92.1798 636.158 77.7579 630.321C70.5355 627.391 64.6986 625.097 60.6105 623.598C58.7254 622.917 57.1583 622.349 55.9092 621.895C54.819 621.532 54.2512 621.35 54.2285 621.418V621.441Z" fill="#E0E0E0"/>
<path d="M386.413 43.564V231.026H117.188L107.49 44.8812L386.413 43.564Z" fill="#E0E0E0"/>
<path d="M107.494 44.8808L107.494 230.617L376.719 230.617V44.8808L107.494 44.8808Z" fill="white"/>
<path d="M378.01 231.912H106.219V43.6094H378.01V231.912ZM108.785 229.368H375.466V46.1531H108.762V229.346L108.785 229.368Z" fill="#E0E0E0"/>
<path d="M347.549 67.9565H136.648V207.543H347.549V67.9565Z" fill="white"/>
<path d="M347.553 67.9565C347.553 67.9565 347.189 67.9792 346.508 68.0019C345.804 68.0019 344.804 68.0019 343.51 68.0473C340.83 68.0473 336.969 68.0928 331.927 68.1155C321.797 68.1609 307.058 68.2063 288.457 68.2745C251.255 68.3426 198.609 68.4562 136.629 68.5697L137.242 67.9565C137.242 110.609 137.287 157.872 137.287 207.52L136.629 206.861C216.188 206.907 289.547 206.952 347.53 206.998L347.007 207.52C347.121 165.049 347.212 130.209 347.28 105.953C347.348 93.8251 347.394 84.3543 347.416 77.8588C347.439 74.6564 347.462 72.1809 347.484 70.4775C347.484 68.7968 347.553 67.9111 347.553 67.9111C347.553 67.9111 347.598 68.7287 347.621 70.3639C347.621 72.0446 347.643 74.4748 347.689 77.6544C347.711 84.1272 347.757 93.5526 347.825 105.613C347.893 129.937 347.984 164.89 348.098 207.497V208.02H347.575C289.569 208.065 216.233 208.11 136.674 208.156H136.016V207.497C136.016 157.804 136.061 110.564 136.061 67.9111V67.2979H136.674C198.814 67.4114 251.618 67.525 288.911 67.5931C307.444 67.6612 322.138 67.7294 332.245 67.7521C337.219 67.7748 341.057 67.8202 343.714 67.8202C344.986 67.8202 345.94 67.8429 346.644 67.8656C347.303 67.8656 347.621 67.9111 347.621 67.9111L347.553 67.9565Z" fill="#E0E0E0"/>
<path d="M107.49 44.3587C107.604 44.2224 109.353 45.358 112.123 47.3566C114.872 49.3552 118.619 52.1715 122.684 55.3966C126.727 58.6443 130.293 61.7104 132.814 64.0043C135.312 66.2982 136.788 67.8199 136.675 67.9561C136.425 68.2287 129.952 62.8914 121.867 56.4413C113.781 49.9912 107.286 44.6539 107.513 44.3587H107.49Z" fill="#E0E0E0"/>
<path d="M376.717 44.8803C376.944 45.1755 370.607 50.5582 362.544 56.9402C354.482 63.3222 347.782 68.2506 347.555 67.9554C347.328 67.6601 353.664 62.2775 361.727 55.8955C369.767 49.5135 376.489 44.585 376.717 44.8803Z" fill="#E0E0E0"/>
<path d="M376.511 230.663C366.495 222.555 356.502 214.447 346.486 206.339L376.511 230.663Z" fill="white"/>
<path d="M346.485 206.317C346.713 206.021 353.617 211.245 361.907 217.968C370.196 224.69 376.737 230.368 376.488 230.641C376.261 230.936 369.356 225.712 361.066 218.99C352.777 212.267 346.236 206.589 346.485 206.317Z" fill="#E0E0E0"/>
<path d="M107.486 230.618C107.259 230.323 113.528 224.985 121.5 218.694C129.471 212.38 136.126 207.52 136.353 207.793C136.58 208.065 130.312 213.425 122.34 219.739C114.368 226.053 107.736 230.913 107.486 230.641V230.618Z" fill="#E0E0E0"/>
<path d="M179.465 111.45V158.19H312.169V111.45H179.465Z" fill="#E0E0E0"/>
<path d="M1008.09 0.00195312H864.146V208.654H1008.09V0.00195312Z" fill="#E0E0E0"/>
<path d="M1000.9 0.00195312H856.949V208.654H1000.9V0.00195312Z" fill="#F5F5F5"/>
<path d="M983.004 22.6006H874.828V186.057H983.004V22.6006Z" fill="white"/>
<path d="M983.002 186.056C983.002 186.056 983.002 185.784 983.002 185.262C983.002 184.716 983.002 183.944 983.002 182.945C983.002 180.901 982.979 177.88 982.957 173.974C982.957 166.138 982.911 154.714 982.866 140.292C982.821 111.471 982.752 70.6582 982.684 22.6002L983.048 22.9636C950.002 22.9636 913.368 22.9636 874.872 22.9863L875.258 22.6002C875.235 84.2625 875.19 141.11 875.19 186.056L874.872 185.738C907.826 185.807 934.831 185.875 953.613 185.897C963.016 185.943 970.352 185.966 975.371 185.988C977.869 185.988 979.777 186.011 981.072 186.034C982.366 186.034 983.048 186.056 983.048 186.056C983.048 186.056 982.412 186.056 981.14 186.079C979.845 186.079 977.96 186.079 975.485 186.125C970.488 186.125 963.175 186.17 953.795 186.193C934.967 186.238 907.895 186.284 874.849 186.352H874.531V186.034C874.531 141.087 874.486 84.2398 874.463 22.5775V22.1914H874.849C913.345 22.1914 949.957 22.1914 983.025 22.2141H983.388V22.5775C983.32 70.7263 983.252 111.63 983.207 140.519C983.161 154.896 983.138 166.297 983.116 174.11C983.116 177.994 983.093 180.969 983.07 183.013C983.07 184.012 983.07 184.762 983.07 185.284C983.07 185.784 983.07 186.034 983.07 186.034L983.002 186.056Z" fill="#E0E0E0"/>
<path d="M1001.28 0.00256293C1001.28 0.00256293 1000.4 1.50154 998.716 3.72728C997.035 5.95303 994.673 8.9964 991.97 12.2896C989.268 15.5828 986.724 18.4899 984.862 20.5567C982.999 22.6234 981.773 23.8499 981.705 23.7817C981.614 23.7136 982.681 22.3509 984.453 20.1933C986.383 17.854 988.768 14.9696 991.38 11.7899C993.992 8.6103 996.376 5.72591 998.307 3.38661C1000.08 1.229 1001.21 -0.0655722 1001.3 0.00256293H1001.28Z" fill="#E0E0E0"/>
<path d="M983.543 185.534C988.926 194.073 995.262 202 1002.42 209.131L983.543 185.534Z" fill="white"/>
<path d="M1002.42 209.132C1002.42 209.132 1001.05 208.087 999.123 206.134C997.193 204.18 994.626 201.387 992.015 198.116C989.403 194.846 987.222 191.712 985.746 189.395C984.27 187.078 983.475 185.58 983.543 185.534C983.634 185.466 984.611 186.874 986.2 189.1C987.79 191.326 990.016 194.369 992.628 197.639C995.24 200.887 997.715 203.749 999.532 205.77C1001.35 207.814 1002.51 209.063 1002.42 209.132Z" fill="#E0E0E0"/>
<path d="M856.928 208.496C863.219 200.751 869.487 192.984 875.778 185.239L856.928 208.496Z" fill="white"/>
<path d="M875.778 185.217C875.937 185.353 871.872 190.667 866.648 197.095C861.447 203.522 857.087 208.61 856.905 208.473C856.746 208.337 860.811 203.023 866.035 196.595C871.236 190.168 875.597 185.08 875.756 185.217H875.778Z" fill="#E0E0E0"/>
<path d="M856.95 0.00277161C857.109 -0.133499 861.22 4.77223 866.103 10.9498C870.986 17.1274 874.802 22.2375 874.643 22.3738C874.484 22.5101 870.373 17.6043 865.49 11.4268C860.607 5.24918 856.791 0.139042 856.95 0.00277161Z" fill="#E0E0E0"/>
<path d="M949.296 55.7822H913.07V158.621H949.296V55.7822Z" fill="#E0E0E0"/>
<path d="M1038.44 944.688C1038.44 945.006 817.204 945.278 544.346 945.278C271.487 945.278 50.207 945.006 50.207 944.688C50.207 944.37 271.396 944.097 544.346 944.097C817.295 944.097 1038.44 944.37 1038.44 944.688Z" fill="#263238"/>
<path d="M788.342 576.393C792.389 591.961 786.992 609.58 774.952 620.244C767.038 627.25 756.737 631.298 749.524 639.004C740.234 648.942 737.562 664.122 741.636 677.096C745.683 690.069 755.907 700.656 768.18 706.52C784.891 714.512 805.493 713.812 821.632 704.704C841.69 693.365 853.392 670.635 856.35 647.775C859.308 624.915 854.664 601.769 848.618 579.532" fill="#263238"/>
<path d="M1041.31 979.465C1062.07 976.066 1081.53 982.397 1102.08 986.964C1107.61 988.183 1113.42 989.247 1118.92 987.872C1127.82 985.614 1134.15 976.922 1135.52 967.84C1136.72 959.978 1134.67 951.727 1130.28 945.084C1128.42 942.282 1126.11 939.687 1123.17 938.026C1120.16 936.314 1116.69 935.665 1113.24 935.328C1100.73 934.108 1088.01 936.911 1076.62 942.23C1065.23 947.549 1055.14 955.359 1046.26 964.234C1041.91 968.593 1043.23 973.601 1041.31 979.465Z" fill="#263238"/>
<path d="M620.332 644.453C617.011 624.758 617.426 604.441 621.526 584.877C623.524 575.354 626.456 565.883 631.775 557.761C633.721 554.803 636.108 551.923 639.378 550.626C643.919 548.809 649.316 550.496 652.896 553.817C657.567 558.15 659.513 564.871 659.305 571.228C659.098 577.611 657.022 583.761 654.687 589.703C646.643 610.202 634.007 627.223 620.306 644.453" fill="#263238"/>
<path d="M1022.6 719.468C1027.32 722.816 1131.71 947.523 1131.71 947.523C1123.33 943.916 1114.04 943.008 1105.11 944.902L1099.46 946.407C1089.34 949.105 1079.71 953.491 1071.02 959.381L1041.28 979.516C1038.89 978.167 1037.31 975.702 1037.05 972.951L1036.97 972.095L956.096 833.275L1022.6 719.494V719.468Z" fill="#1EA571"/>
<path d="M631.074 361.857L658.89 519.957C667.842 541.234 772.256 670.142 772.256 670.142L737.719 781.043L600.612 593.57C587.871 579.948 580.943 561.914 581.307 543.284L586.652 374.364L631.074 361.857Z" fill="#FFBE9D"/>
<path d="M779.081 645.362L850.671 650.785L913.101 660.463C913.101 660.463 1022.57 689.239 1022.57 701.227C1022.57 705.223 992.657 800.425 975.998 857.458C968.811 882.083 965.93 899.572 965.93 899.572L1022.57 1025.37H753.211V910.003C753.211 910.003 735.126 758.676 738.239 737.995C741.353 717.315 779.055 645.336 779.055 645.336L779.081 645.362Z" fill="#1EA571"/>
<path d="M597.188 297.974C597.603 281.887 599.237 265.799 602.092 249.945C602.507 247.688 603.415 244.963 605.672 244.678C608.475 244.314 609.902 247.921 610.265 250.698C612.756 269.769 611.952 289.256 607.904 308.068" fill="#EB996E"/>
<path d="M629.025 632.751C659.747 605.298 660.785 557.736 658.164 519.878C657.982 517.076 657.775 514.04 659.357 511.757C662.289 507.579 669.425 509.11 672.279 513.366C675.134 517.595 674.978 523.096 674.718 528.208C676.301 523.874 683.048 523.9 686.213 527.248C689.379 530.595 689.924 535.551 690.287 540.144C690.624 544.373 690.962 548.603 691.299 552.832L781.026 638.356C781.026 638.356 783.491 630.675 790.082 635.06C796.673 639.445 800.928 648.994 800.928 648.994L737.694 787.036L620.332 644.246C620.332 644.246 624.017 637.24 629.025 632.777V632.751Z" fill="#1EA571"/>
<path d="M750.795 728.265C741.713 740.382 734.136 753.823 730.192 768.458C726.248 783.092 726.144 798.972 731.516 813.14C739.118 833.093 757.956 848.299 779.052 851.542" fill="#1EA571"/>
<path d="M1041.31 979.465L1037.91 1025.39H1104.41L1120.01 944.306C1099.74 943.164 1079.76 949.444 1063.78 961.925L1041.31 979.491V979.465Z" fill="#FFBE9D"/>
<path d="M660.262 622.579C660.262 622.579 660.703 621.23 661.715 618.947C662.753 616.663 664.154 613.29 665.737 609.086C667.345 604.883 669.006 599.797 670.589 594.089C672.094 588.354 673.495 581.971 674.507 575.199C675.467 568.426 675.96 561.887 676.142 555.971C676.271 550.029 676.142 544.684 675.778 540.195C675.467 535.706 675.078 532.1 674.741 529.609C674.429 527.118 674.299 525.716 674.377 525.69C674.481 525.69 674.766 527.04 675.259 529.505C675.752 531.97 676.297 535.602 676.738 540.117C677.206 544.606 677.439 550.003 677.387 555.997C677.257 561.991 676.816 568.556 675.856 575.406C674.844 582.231 673.391 588.666 671.808 594.426C670.148 600.186 668.383 605.272 666.645 609.45C664.932 613.627 663.401 616.949 662.208 619.18C661.04 621.412 660.366 622.631 660.262 622.605V622.579Z" fill="#263238"/>
<path d="M679.831 598.5C679.649 598.396 680.894 595.957 682.607 591.909C684.32 587.861 686.395 582.153 687.9 575.64C689.405 569.127 690.054 563.081 690.262 558.696C690.495 554.311 690.443 551.586 690.651 551.561C690.806 551.561 691.196 554.285 691.222 558.722C691.222 563.159 690.729 569.335 689.198 575.951C687.667 582.568 685.409 588.328 683.437 592.324C681.491 596.32 679.934 598.604 679.805 598.526L679.831 598.5Z" fill="#263238"/>
<path d="M785.225 670.246C785.017 670.117 786.107 668.43 786.73 665.394C787.404 662.358 787.353 657.973 786.055 653.38C784.758 648.788 782.812 644.818 781.54 641.911C780.243 639.005 779.568 637.111 779.75 637.059C779.932 636.981 780.892 638.694 782.397 641.496C783.876 644.325 785.977 648.243 787.353 653.017C788.702 657.817 788.598 662.488 787.664 665.628C786.756 668.793 785.329 670.35 785.225 670.272V670.246Z" fill="#263238"/>
<path d="M769.606 853.048C769.606 853.048 769.191 852.866 768.491 852.425C767.66 851.88 766.648 851.205 765.429 850.401C762.782 848.61 758.968 845.964 754.453 842.435C749.964 838.88 744.749 834.391 739.896 828.501C735.07 822.637 730.737 815.164 728.635 806.575C726.455 798.012 726.3 789.476 727.156 781.925C728.012 774.348 729.803 767.705 731.593 762.256C733.409 756.807 735.226 752.552 736.549 749.62C737.224 748.167 737.743 747.051 738.132 746.299C738.521 745.546 738.729 745.157 738.781 745.183C738.884 745.235 738.21 746.869 737.042 749.828C735.874 752.812 734.214 757.119 732.527 762.542C730.866 767.991 729.18 774.582 728.427 782.055C727.649 789.502 727.857 797.857 729.984 806.238C732.034 814.645 736.212 821.91 740.908 827.723C745.631 833.561 750.717 838.076 755.102 841.682C759.513 845.289 763.223 848.04 765.766 849.986C766.934 850.868 767.894 851.62 768.698 852.217C769.347 852.736 769.684 853.021 769.658 853.073L769.606 853.048Z" fill="#263238"/>
<path d="M916.601 878.71C916.601 878.71 916.212 878.891 915.46 879.125C914.681 879.332 913.566 879.721 912.087 880.007C909.129 880.682 904.795 881.382 899.372 881.538C888.63 881.927 873.139 879.462 858.998 870.51C844.856 861.558 835.982 848.636 831.726 838.75C829.547 833.794 828.301 829.565 827.653 826.607C827.289 825.154 827.134 823.96 827.004 823.181C826.874 822.403 826.848 821.988 826.874 821.962C826.978 821.962 827.341 823.571 828.146 826.451C828.95 829.331 830.325 833.483 832.583 838.335C836.994 847.987 845.842 860.572 859.698 869.368C873.554 878.113 888.708 880.708 899.346 880.578C904.691 880.552 909.025 880.007 911.983 879.488C914.941 878.969 916.575 878.606 916.601 878.71Z" fill="#263238"/>
<path d="M957.913 929.126C957.55 929.022 960.975 914.699 965.568 897.107C970.16 879.514 974.182 865.321 974.546 865.424C974.909 865.528 971.484 879.851 966.891 897.47C962.298 915.062 958.276 929.256 957.913 929.152V929.126Z" fill="#263238"/>
<path d="M994.207 898.69C993.896 898.872 983.465 881.824 970.906 860.599C958.347 839.374 948.461 822.015 948.773 821.833C949.084 821.651 959.515 838.699 972.074 859.924C984.607 881.149 994.519 898.508 994.207 898.69Z" fill="#263238"/>
<path d="M1093.69 940.699C1093.72 940.958 1089.9 941.27 1083.99 942.775C1081.03 943.501 1077.58 944.643 1073.84 946.148C1070.13 947.705 1066.16 949.703 1062.22 952.142C1058.3 954.659 1054.82 957.383 1051.81 960.056C1048.85 962.78 1046.34 965.427 1044.42 967.788C1040.53 972.485 1038.61 975.78 1038.4 975.65C1038.32 975.599 1038.74 974.742 1039.59 973.237C1040.42 971.706 1041.8 969.631 1043.67 967.166C1045.53 964.7 1048 961.95 1050.96 959.122C1053.97 956.345 1057.5 953.517 1061.49 950.974C1065.51 948.457 1069.56 946.485 1073.38 944.954C1077.19 943.475 1080.74 942.437 1083.78 941.815C1086.82 941.166 1089.28 940.829 1091.02 940.725C1092.73 940.595 1093.69 940.569 1093.69 940.673V940.699Z" fill="#263238"/>
<path d="M1106.41 925.078C1106.41 925.363 1102.23 924.844 1095.59 925.415C1092.27 925.675 1088.35 926.349 1084.07 927.439C1079.84 928.607 1075.25 930.242 1070.71 932.499C1066.17 934.808 1062.12 937.481 1058.64 940.18C1055.22 942.956 1052.33 945.68 1050.13 948.197C1045.69 953.179 1043.62 956.812 1043.38 956.656C1043.31 956.604 1043.8 955.696 1044.76 954.062C1045.23 953.231 1045.82 952.245 1046.65 951.181C1047.46 950.092 1048.29 948.82 1049.43 947.549C1051.56 944.928 1054.44 942.048 1057.89 939.194C1061.39 936.391 1065.49 933.615 1070.11 931.279C1074.75 928.996 1079.42 927.361 1083.78 926.22C1088.14 925.182 1092.16 924.585 1095.54 924.455C1097.22 924.3 1098.76 924.377 1100.1 924.403C1101.45 924.403 1102.6 924.507 1103.53 924.611C1105.4 924.818 1106.44 924.974 1106.44 925.078H1106.41Z" fill="#263238"/>
<g opacity="0.3">
<path d="M829.673 827.488C823.549 839.061 828.661 853.177 834.24 865.035C838.573 874.22 843.399 883.561 851.261 889.944C858.994 896.224 869.425 899.13 879.285 897.729C889.171 896.328 898.356 890.671 904.065 882.497C871.085 882.627 839.247 860.105 828.401 828.967" fill="black"/>
</g>
<g opacity="0.3">
<path d="M948.779 821.832C944.135 832.963 947.638 848.22 952.516 859.248C957.42 870.276 962.584 882.601 958.639 894.044C957.913 896.172 956.849 898.325 957.109 900.583C957.368 902.814 959.807 904.968 961.805 903.93C962.973 903.333 963.492 901.958 963.881 900.713C967.565 889.607 971.276 878.501 974.961 867.422" fill="black"/>
</g>
<path d="M703.339 675.255C702.975 675.203 704.169 665.939 705.985 654.6C707.828 643.261 709.618 634.102 709.981 634.154C710.344 634.205 709.151 643.469 707.335 654.808C705.492 666.147 703.702 675.307 703.339 675.255Z" fill="#FAFAFA"/>
<path d="M675.986 669.493C675.649 669.726 671.186 663.473 665.036 656.311C658.886 649.124 653.411 643.779 653.671 643.493C653.905 643.234 659.847 648.19 666.048 655.455C672.275 662.668 676.271 669.311 675.986 669.493Z" fill="#FAFAFA"/>
<path d="M699.451 602.677C699.606 602.781 698.491 604.572 696.519 607.348C694.546 610.124 691.692 613.835 688.319 617.779C684.972 621.723 681.754 625.148 679.341 627.561C676.928 629.948 675.345 631.324 675.215 631.194C674.93 630.909 680.612 624.785 687.281 616.897C693.976 609.035 699.113 602.444 699.425 602.677H699.451Z" fill="#FAFAFA"/>
<path d="M690.286 570.009C689.923 570.165 688.444 566.844 685.564 563.574C682.735 560.253 679.674 558.333 679.881 557.97C680.011 557.658 683.566 559.163 686.602 562.692C689.663 566.195 690.623 569.931 690.312 570.009H690.286Z" fill="#FAFAFA"/>
<path d="M666.646 590.144C666.698 590.508 663.688 591.286 659.9 591.909C656.112 592.506 652.998 592.687 652.946 592.324C652.894 591.961 655.904 591.182 659.692 590.559C663.481 589.963 666.594 589.781 666.646 590.144Z" fill="#FAFAFA"/>
<path d="M726.329 618.974C725.914 618.922 726.926 613.447 725.473 606.908C724.098 600.343 720.906 595.776 721.244 595.569C721.451 595.309 725.317 599.747 726.77 606.623C728.301 613.499 726.615 619.129 726.303 618.974H726.329Z" fill="#FAFAFA"/>
<path d="M758.242 653.277C757.879 653.484 755.154 647.984 749.887 642.742C744.671 637.449 739.197 634.672 739.404 634.309C739.508 633.998 745.424 636.281 750.847 641.782C756.296 647.231 758.554 653.173 758.242 653.277Z" fill="#FAFAFA"/>
<path d="M707.046 712.801C707.175 713.112 701.882 715.032 695.058 714.773C688.233 714.565 683.096 712.282 683.251 711.996C683.381 711.607 688.545 713.242 695.11 713.423C701.674 713.683 706.942 712.411 707.046 712.801Z" fill="#FAFAFA"/>
<path d="M731.072 725.125C730.709 724.995 732.733 719.002 734.419 711.425C736.132 703.848 736.858 697.595 737.248 697.621C737.585 697.621 737.455 704.056 735.717 711.736C734.004 719.417 731.383 725.281 731.072 725.125Z" fill="#FAFAFA"/>
<path d="M783.542 727.123C783.257 727.382 778.197 722.245 772.203 715.68C766.209 709.115 761.59 703.588 761.876 703.329C762.161 703.069 767.221 708.207 773.215 714.772C779.183 721.336 783.828 726.863 783.542 727.123Z" fill="#FAFAFA"/>
<path d="M808.011 787.762C807.752 788.021 803.963 784.545 799.552 779.978C795.141 775.411 791.794 771.519 792.053 771.259C792.313 771 796.101 774.477 800.512 779.044C804.923 783.61 808.271 787.503 808.011 787.762Z" fill="#FAFAFA"/>
<path d="M762.547 793.549C762.781 793.809 758.448 797.831 752.194 801.437C745.941 805.096 740.31 806.86 740.206 806.523C740.051 806.16 745.37 803.85 751.52 800.27C757.669 796.715 762.314 793.238 762.573 793.549H762.547Z" fill="#FAFAFA"/>
<path d="M783.489 851.231C783.1 851.127 784.657 844.329 785.435 835.766C786.24 827.229 785.98 820.249 786.395 820.223C786.733 820.172 787.615 827.229 786.785 835.896C786.006 844.562 783.826 851.335 783.489 851.231Z" fill="#FAFAFA"/>
<path d="M862.113 804.316C861.906 804.602 856.353 800.709 850.878 794.43C845.377 788.177 842.289 782.157 842.575 782.001C842.912 781.794 846.493 787.424 851.89 793.548C857.261 799.723 862.347 804.005 862.088 804.316H862.113Z" fill="#FAFAFA"/>
<path d="M890.859 828.812C890.548 828.578 894.492 823.181 898.877 816.253C903.314 809.325 906.531 803.513 906.895 803.669C907.206 803.824 904.508 809.974 900.019 816.98C895.582 823.986 891.119 829.045 890.859 828.812Z" fill="#FAFAFA"/>
<path d="M886.632 768.925C886.528 769.288 880.638 768.017 873.45 766.096C866.263 764.176 860.528 762.308 860.606 761.945C860.71 761.582 866.6 762.853 873.788 764.773C880.975 766.693 886.71 768.561 886.632 768.925Z" fill="#FAFAFA"/>
<path d="M865.694 874.324C865.331 874.324 865.331 868.798 865.746 862.025C866.135 855.253 866.758 849.778 867.147 849.804C867.51 849.804 867.51 855.331 867.095 862.103C866.706 868.875 866.083 874.35 865.694 874.324Z" fill="#FAFAFA"/>
<path d="M883.805 910.418C883.416 910.237 886.141 904.865 887.075 897.626C888.087 890.412 886.867 884.496 887.282 884.419C887.594 884.289 889.436 890.283 888.398 897.808C887.412 905.332 884.039 910.626 883.779 910.418H883.805Z" fill="#FAFAFA"/>
<path d="M836.866 902.452C836.529 902.504 835.725 896.406 837.152 889.037C838.553 881.668 841.563 876.296 841.848 876.478C842.212 876.634 839.824 882.135 838.475 889.296C837.074 896.458 837.256 902.426 836.866 902.452Z" fill="#FAFAFA"/>
<path d="M794.047 920.744C793.787 921.03 788.52 916.541 781.851 911.273C775.183 905.98 769.63 901.906 769.838 901.595C770.045 901.283 775.987 904.89 782.682 910.21C789.402 915.503 794.28 920.459 794.021 920.718L794.047 920.744Z" fill="#FAFAFA"/>
<path d="M823.059 869.835C823.241 870.172 816.416 874.116 807.854 878.683C799.265 883.25 792.181 886.649 792 886.338C791.818 886 798.642 882.056 807.205 877.49C815.794 872.949 822.877 869.524 823.059 869.835Z" fill="#FAFAFA"/>
<path d="M913.125 984.057C913.125 984.057 912.554 984.239 911.438 984.499C910.322 984.706 908.688 985.121 906.56 985.407C902.304 986.107 896.051 986.704 888.319 986.574C880.586 986.471 871.375 985.407 861.463 982.786C851.577 980.191 841.042 975.884 830.974 969.656C820.958 963.351 812.473 955.774 805.779 948.016C799.084 940.258 794.076 932.447 790.599 925.545C787.097 918.643 784.891 912.779 783.646 908.653C782.945 906.603 782.608 904.969 782.322 903.879C782.037 902.789 781.933 902.192 781.959 902.192C782.011 902.192 782.218 902.737 782.582 903.827C782.971 904.891 783.386 906.5 784.139 908.524C785.54 912.597 787.849 918.358 791.43 925.156C795.011 931.928 800.044 939.609 806.713 947.238C813.382 954.866 821.789 962.313 831.675 968.541C841.613 974.69 851.992 978.972 861.774 981.618C871.556 984.265 880.664 985.433 888.319 985.666C895.973 985.926 902.201 985.459 906.456 984.94C908.61 984.758 910.244 984.421 911.36 984.291C912.476 984.135 913.073 984.083 913.099 984.135L913.125 984.057Z" fill="#263238"/>
<path d="M835.595 970.643C835.284 970.747 834.298 964.96 836.815 958.369C839.254 951.779 843.795 948.042 843.95 948.328C844.262 948.613 840.37 952.583 838.06 958.837C835.673 965.064 836.01 970.617 835.569 970.617L835.595 970.643Z" fill="#FAFAFA"/>
<path d="M814.238 961.716C814.42 962.08 810.528 963.974 807.492 968.126C804.378 972.225 803.652 976.507 803.237 976.429C802.899 976.481 803.029 971.758 806.402 967.321C809.698 962.858 814.187 961.379 814.238 961.716Z" fill="#FAFAFA"/>
<path d="M896.334 1010.6C896.334 1010.94 890.418 1010.47 884.398 1006.66C878.326 1002.9 875.29 997.809 875.602 997.654C875.939 997.394 879.312 1001.94 885.125 1005.49C890.885 1009.12 896.464 1010.16 896.36 1010.58L896.334 1010.6Z" fill="#FAFAFA"/>
<path d="M909.126 938.726C909.463 938.726 908.711 944.123 904.481 949.079C900.304 954.061 895.062 955.67 895.036 955.333C894.855 954.969 899.525 952.894 903.469 948.197C907.465 943.552 908.763 938.596 909.152 938.726H909.126Z" fill="#FAFAFA"/>
<path d="M945.43 992.309C945.119 992.05 948.544 987.717 951.709 981.749C954.901 975.781 956.561 970.513 956.951 970.643C957.288 970.721 956.172 976.274 952.903 982.397C949.659 988.521 945.689 992.569 945.43 992.335V992.309Z" fill="#FAFAFA"/>
<path d="M993.381 999.392C993.537 999.781 988.814 1001.65 984.066 1005.57C979.266 1009.43 976.489 1013.69 976.152 1013.46C975.841 1013.33 978.228 1008.58 983.21 1004.53C988.192 1000.46 993.329 999.08 993.381 999.418V999.392Z" fill="#FAFAFA"/>
<path d="M956.796 937.922C956.407 938.052 954.123 930.449 949.349 922.042C944.626 913.609 939.307 907.745 939.619 907.459C939.748 907.356 941.227 908.653 943.329 911.092C945.431 913.505 948.078 917.112 950.517 921.393C952.93 925.675 954.616 929.8 955.602 932.862C956.588 935.924 956.952 937.87 956.77 937.922H956.796Z" fill="#FAFAFA"/>
<path d="M963.983 860.65C964.061 861.013 958.56 862.596 951.684 864.178C944.808 865.761 939.151 866.747 939.073 866.384C938.995 866.021 944.496 864.438 951.372 862.855C958.248 861.272 963.905 860.286 963.983 860.65Z" fill="#FAFAFA"/>
<path d="M941.903 837.583C941.617 837.816 938.063 833.716 933.963 828.475C929.863 823.208 926.801 818.744 927.087 818.537C927.372 818.303 930.927 822.377 935.027 827.645C939.127 832.912 942.188 837.375 941.903 837.583Z" fill="#FAFAFA"/>
<path d="M996.596 823.7C996.57 824.064 990.913 823.7 984.167 822.092C977.394 820.509 972.205 818.277 972.334 817.94C972.464 817.577 977.809 819.186 984.478 820.768C991.146 822.351 996.647 823.311 996.596 823.7Z" fill="#FAFAFA"/>
<path d="M1035.49 823.026C1035.16 822.844 1037.28 818.148 1039.46 812.206C1041.64 806.264 1043.05 801.308 1043.43 801.386C1043.77 801.464 1042.97 806.627 1040.74 812.673C1038.53 818.719 1035.81 823.208 1035.49 823.026Z" fill="#FAFAFA"/>
<path d="M1026.72 875.751C1026.65 876.089 1021.25 874.739 1015.41 871.236C1009.55 867.785 1005.78 863.686 1006.04 863.452C1006.3 863.167 1010.4 866.722 1016.11 870.069C1021.79 873.468 1026.85 875.362 1026.72 875.751Z" fill="#FAFAFA"/>
<path d="M1052.02 874.143C1051.66 874.065 1052.93 867.163 1054.88 858.73C1056.82 850.297 1058.69 843.524 1059.05 843.628C1059.42 843.706 1058.14 850.608 1056.2 859.041C1054.25 867.474 1052.38 874.221 1052.02 874.143Z" fill="#FAFAFA"/>
<path d="M1030.9 933.096C1030.59 933.304 1026.49 928.192 1021.71 921.679C1016.94 915.14 1013.33 909.691 1013.62 909.458C1013.93 909.25 1018.03 914.336 1022.8 920.875C1027.58 927.388 1031.18 932.863 1030.9 933.096Z" fill="#FAFAFA"/>
<path d="M1066.94 910.547C1066.58 910.703 1064.22 906.032 1060.48 900.791C1056.77 895.524 1053.14 891.735 1053.42 891.45C1053.66 891.19 1057.78 894.615 1061.6 900.013C1065.41 905.384 1067.28 910.418 1066.97 910.547H1066.94Z" fill="#FAFAFA"/>
<path d="M1100.73 905.487C1100.39 905.695 1096.99 900.609 1092.43 894.641C1087.86 888.647 1083.84 884.054 1084.12 883.769C1084.38 883.51 1088.87 887.765 1093.49 893.811C1098.11 899.857 1101.04 905.306 1100.73 905.487Z" fill="#FAFAFA"/>
<path d="M1092.79 927.881C1092.37 927.881 1092.66 923.392 1089.7 919.033C1086.84 914.596 1082.61 913.065 1082.77 912.701C1082.82 912.546 1083.96 912.701 1085.6 913.506C1087.23 914.31 1089.28 915.919 1090.84 918.28C1092.4 920.641 1093.07 923.158 1093.17 924.975C1093.28 926.791 1092.97 927.907 1092.81 927.881H1092.79Z" fill="#FAFAFA"/>
<path d="M1066.42 958.576C1066.21 958.525 1066.29 957.876 1066.08 956.968C1065.9 956.059 1065.36 954.84 1064.29 953.984C1063.23 953.153 1061.91 952.946 1060.97 952.972C1060.04 952.972 1059.42 953.205 1059.34 953.024C1059.23 952.894 1059.73 952.323 1060.84 952.012C1061.91 951.7 1063.67 951.778 1065.15 952.894C1066.6 954.036 1067.1 955.722 1067.04 956.838C1067.02 957.98 1066.58 958.602 1066.42 958.525V958.576Z" fill="#FAFAFA"/>
<path d="M796.492 1007.64C796.414 1007.96 789.668 1005.41 783.544 999.211C777.343 993.062 774.8 986.315 775.111 986.263C775.475 986.056 778.51 992.335 784.504 998.277C790.42 1004.27 796.7 1007.28 796.518 1007.64H796.492Z" fill="#FAFAFA"/>
<path d="M631.309 363.621C627.157 324.154 619.607 287.049 617.557 248.335C617.453 246.389 617.245 244.21 615.714 242.99C613.639 241.329 610.343 242.653 608.994 244.936C607.645 247.22 607.671 250.022 607.671 252.669C607.748 273.193 604.245 293.718 597.395 313.075C592.932 325.633 587.068 337.725 583.695 350.621C580.322 363.517 586.627 367.902 592.413 379.89" fill="#FFBE9D"/>
<path d="M498.819 207.313C498.586 207.599 483.977 195.715 466.229 180.795C448.455 165.849 434.261 153.524 434.495 153.238C434.729 152.953 449.337 164.811 467.085 179.757C484.834 194.677 499.053 207.028 498.819 207.313Z" fill="#263238"/>
<path d="M572.797 189.538C572.434 189.538 570.955 166.497 569.528 138.032C568.101 109.568 567.219 86.4742 567.608 86.4482C567.971 86.4482 569.45 109.49 570.877 137.954C572.304 166.419 573.187 189.513 572.797 189.538Z" fill="#263238"/>
<path d="M525.67 173.061C525.307 173.165 520.766 160.009 515.499 143.662C510.231 127.315 506.261 113.978 506.625 113.848C506.988 113.744 511.529 126.9 516.796 143.247C522.064 159.594 526.034 172.931 525.67 173.061Z" fill="#263238"/>
<path d="M483.69 231.652C483.534 231.989 474.582 228.201 463.658 223.219C452.76 218.211 444.042 213.903 444.197 213.54C444.353 213.203 453.305 216.965 464.229 221.973C475.127 226.981 483.845 231.288 483.69 231.626V231.652Z" fill="#263238"/>
<path d="M415.396 201.838C415.344 202.202 413.19 202.253 410.569 201.916C407.949 201.579 405.873 201.034 405.925 200.645C405.977 200.281 408.13 200.23 410.751 200.567C413.372 200.904 415.448 201.449 415.396 201.838Z" fill="#263238"/>
<path d="M508.317 97.1131C507.954 97.1131 507.643 94.9854 507.643 92.3646C507.643 89.7439 507.954 87.6162 508.317 87.6162C508.68 87.6162 508.992 89.7439 508.992 92.3646C508.992 94.9854 508.68 97.1131 508.317 97.1131Z" fill="#263238"/>
<path d="M664.596 133.751C664.882 134.01 652.894 147.737 637.87 164.421C622.82 181.105 610.417 194.442 610.132 194.183C609.847 193.924 621.808 180.197 636.858 163.513C651.908 146.828 664.311 133.491 664.596 133.751Z" fill="#263238"/>
<path d="M683.641 114.886C683.901 115.145 682.525 116.962 680.553 118.908C678.581 120.854 676.791 122.255 676.531 121.996C676.272 121.736 677.647 119.92 679.619 117.974C681.591 116.002 683.382 114.626 683.641 114.886Z" fill="#263238"/>
<path d="M729.883 181.313C729.883 181.313 728.663 182.143 726.354 183.414C724.045 184.686 720.671 186.476 716.442 188.578C708.009 192.833 696.229 198.386 682.917 203.887C669.606 209.388 657.359 213.825 648.381 216.783C643.892 218.262 640.259 219.404 637.716 220.13C635.174 220.857 633.772 221.22 633.746 221.142C633.721 221.064 635.07 220.519 637.561 219.637C640.259 218.677 643.814 217.406 648.07 215.875C656.944 212.683 669.113 208.116 682.398 202.616C695.658 197.115 707.49 191.718 716.027 187.696C720.126 185.75 723.5 184.141 726.094 182.921C728.482 181.806 729.805 181.209 729.857 181.287L729.883 181.313Z" fill="#263238"/>
<path d="M691.921 245.196C691.973 245.378 689.352 246.286 685.045 247.48C680.738 248.673 674.692 250.074 667.972 251.216C661.225 252.358 655.075 253.032 650.612 253.344C646.149 253.655 643.373 253.655 643.373 253.473C643.373 253.266 646.098 252.955 650.535 252.384C654.946 251.839 661.069 251.008 667.764 249.867C674.458 248.725 680.478 247.48 684.838 246.519C689.197 245.585 691.895 244.989 691.947 245.17L691.921 245.196Z" fill="#263238"/>
<path d="M726.403 238.813C726.403 239.177 723.056 239.488 718.93 239.488C714.804 239.488 711.457 239.177 711.457 238.813C711.457 238.45 714.804 238.139 718.93 238.139C723.056 238.139 726.403 238.45 726.403 238.813Z" fill="#263238"/>
<path d="M592.409 379.892C582.056 372.185 576.555 358.459 578.709 345.744C580.006 337.96 583.872 330.876 586.934 323.611C590.022 316.346 592.357 308.302 590.489 300.621C589.762 297.689 588.439 294.861 588.439 291.825C588.439 288.815 590.359 285.442 593.369 285.286C595.653 285.182 597.573 286.921 599 288.685C604.034 294.939 608.107 313.232 605.565 326.854" fill="#FFBE9D"/>
<path d="M605.594 326.854C605.465 326.854 605.854 324.752 606.01 320.964C606.139 317.176 605.984 311.675 604.686 305.032C604.038 301.711 603.078 298.13 601.573 294.471C600.82 292.655 599.938 290.787 598.666 289.204C597.421 287.621 595.76 286.038 593.788 285.909C591.816 285.753 590.104 287.492 589.455 289.541C588.728 291.591 589.195 293.927 589.87 296.21C590.571 298.493 591.427 300.958 591.686 303.553C591.946 306.148 591.842 308.795 591.401 311.389C589.585 321.924 583.98 330.435 581.126 338.842C579.673 343.046 578.79 347.197 578.816 351.141C578.816 355.085 579.439 358.744 580.425 361.936C582.423 368.371 585.718 372.911 588.209 375.688C590.752 378.49 592.491 379.71 592.387 379.813C592.361 379.839 591.92 379.554 591.116 378.957C590.285 378.36 589.17 377.4 587.82 376.051C585.148 373.327 581.671 368.786 579.491 362.221C578.427 358.952 577.701 355.189 577.675 351.115C577.597 347.042 578.479 342.708 579.932 338.401C582.786 329.786 588.313 321.275 590.026 311.13C590.467 308.613 590.545 306.096 590.311 303.657C590.078 301.192 589.299 298.909 588.573 296.547C587.872 294.212 587.327 291.539 588.184 289.074C588.599 287.881 589.247 286.739 590.233 285.883C591.193 285.001 592.517 284.508 593.814 284.611C596.461 284.845 598.225 286.739 599.549 288.426C600.898 290.19 601.78 292.136 602.559 294.004C604.064 297.767 604.946 301.451 605.568 304.799C606.762 311.545 606.788 317.124 606.477 320.938C606.295 322.832 606.113 324.311 605.906 325.297C605.698 326.283 605.594 326.802 605.543 326.776L605.594 326.854Z" fill="#EB996E"/>
<path d="M944.808 537.6C946.183 545.072 953.267 550.833 960.844 551.456C968.395 552.078 975.971 548.031 980.383 541.855C984.794 535.679 986.247 527.688 985.235 520.163C983.756 509.239 976.49 498.73 965.956 495.486C955.421 492.217 942.317 498.029 939.411 508.668L927.268 525.638L944.834 537.625L944.808 537.6Z" fill="#263238"/>
<path d="M930.458 504.307C935.388 464.944 906.924 428.981 866.964 425.167C829.288 421.586 795.816 449.635 790.185 487.026C785.229 519.824 780.973 552.933 781.129 564.947C781.596 601.196 802.796 615.311 811.41 619.567C813.382 620.527 818.779 621.643 820.959 621.954C821.089 621.954 821.192 622.11 821.166 622.239L813.123 663.86C809.464 691.131 824.695 715.444 851.914 719.414C879.237 723.384 900.592 702.444 904.744 675.147L930.484 504.281L930.458 504.307Z" fill="#FFBE9D"/>
<path d="M796.412 508.251C797.009 509.107 801.809 506.538 807.933 507.447C814.083 508.277 818.131 512.091 818.883 511.417C819.246 511.131 818.727 509.678 816.989 507.965C815.276 506.253 812.163 504.411 808.348 503.866C804.534 503.321 801.109 504.281 799.033 505.449C796.931 506.616 796.101 507.888 796.386 508.251H796.412Z" fill="#263238"/>
<path d="M851.032 520.082C851.628 520.939 856.429 518.37 862.552 519.278C868.702 520.108 872.75 523.923 873.502 523.248C873.866 522.963 873.347 521.51 871.608 519.797C869.896 518.084 866.782 516.242 862.968 515.697C859.153 515.152 855.728 516.112 853.652 517.28C851.551 518.448 850.72 519.693 851.006 520.082H851.032Z" fill="#263238"/>
<path d="M829.785 549.093C829.863 548.755 826.153 547.536 820.081 545.849C818.55 545.46 817.097 544.941 816.993 543.825C816.785 542.632 817.694 541.049 818.706 539.336C820.73 535.756 822.857 532.019 825.089 528.075C834.015 512.013 840.709 498.728 840.06 498.365C839.412 498.002 831.653 510.742 822.753 526.804C820.6 530.774 818.524 534.536 816.552 538.169C815.696 539.855 814.372 541.724 814.839 544.189C815.099 545.434 816.111 546.446 817.071 546.861C818.031 547.302 818.913 547.458 819.666 547.614C825.841 548.859 829.681 549.456 829.759 549.093H829.785Z" fill="#263238"/>
<path d="M821.193 622.006C821.193 622.006 844.598 627.403 876.851 613.91C876.851 613.91 862.943 643.88 819.039 633.215L821.219 622.006H821.193Z" fill="#EB996E"/>
<path d="M830.221 564.273C832.841 561.678 836.941 560.64 840.73 561.6C843.35 562.275 845.867 563.961 847.165 566.348C848.462 568.762 848.358 571.875 846.594 573.743C844.596 575.819 841.067 575.871 838.239 574.6C835.436 573.328 833.179 571.045 831.077 568.761C830.48 568.139 829.883 567.49 829.598 566.686C829.287 565.907 829.338 564.921 829.935 564.402" fill="#EB996E"/>
<path d="M847.243 555.969C846.257 555.761 845.271 562.43 838.888 566.322C832.505 570.24 825.499 568.449 825.317 569.384C825.162 569.799 826.718 570.914 829.702 571.433C832.635 571.952 837.072 571.641 840.964 569.254C844.856 566.867 846.932 563.208 847.554 560.509C848.203 557.759 847.71 555.995 847.243 555.969Z" fill="#263238"/>
<path d="M855.263 500.104C855.626 501.869 861.879 501.972 868.937 503.892C876.047 505.657 881.548 508.615 882.715 507.266C883.234 506.617 882.456 504.904 880.354 502.932C878.252 500.986 874.775 498.911 870.52 497.795C866.265 496.705 862.217 496.809 859.44 497.483C856.638 498.158 855.107 499.274 855.263 500.104Z" fill="#263238"/>
<path d="M802.611 489.336C803.493 490.893 807.93 490.062 813.016 490.737C818.127 491.23 822.279 493.046 823.473 491.723C824.018 491.074 823.524 489.595 821.838 487.986C820.177 486.404 817.245 484.873 813.716 484.458C810.213 484.068 806.996 484.873 805.024 486.04C803.026 487.208 802.221 488.557 802.585 489.31L802.611 489.336Z" fill="#263238"/>
<path d="M783.049 478.932C790.547 490.374 814.367 483.317 828.742 475.455C843.896 485.496 864.939 481.137 875.422 465.776C883.648 476.259 900.358 472.782 906.456 460.976C912.554 449.169 909.128 432.9 900.747 422.573C892.366 412.246 880.119 407.03 868.027 404.799C839.355 399.506 808.14 410.611 790.989 436.533C783.074 448.495 778.326 464.608 783.023 478.932" fill="#263238"/>
<path d="M862.292 408.872C862.266 409.365 855.52 408.067 844.907 409.858C834.476 411.596 819.816 417.045 808.866 429.241C798.176 441.618 793.323 456.278 791.559 466.761C789.769 477.4 791.144 484.094 790.677 484.146C790.547 484.146 790.106 482.537 789.691 479.502C789.327 476.466 789.224 471.977 789.898 466.528C791.299 455.733 795.97 440.606 807.102 427.684C818.545 414.918 833.88 409.572 844.648 408.223C850.097 407.497 854.586 407.652 857.622 408.016C860.658 408.353 862.318 408.794 862.292 408.924V408.872Z" fill="#455A64"/>
<path d="M823.525 462.17C823.395 462.17 823.084 460.743 822.954 458.096C822.824 455.449 823.032 451.557 824.122 446.913C826.172 437.727 832.814 425.013 845.658 417.384C858.554 409.859 872.904 410.197 881.933 412.869C886.526 414.167 890.029 415.879 892.286 417.28C894.544 418.682 895.66 419.642 895.582 419.771C895.348 420.212 890.548 416.632 881.518 414.504C872.696 412.324 859.047 412.324 846.852 419.46C834.708 426.673 828.118 438.609 825.731 447.38C823.214 456.306 824.018 462.222 823.525 462.222V462.17Z" fill="#455A64"/>
<path d="M892.344 449.741C889.931 459.964 887.518 470.291 887.518 480.774C887.518 491.283 890.138 502.103 896.833 510.199C906.849 522.29 923.559 525.949 938.972 528.881C947.223 508.434 949.74 485.678 946.159 463.908C944.421 453.269 940.996 442.449 933.497 434.717C922.677 423.559 903.839 421.302 890.709 429.605" fill="#263238"/>
<path d="M900.904 500.001C896.83 508.771 897.142 518.917 898.543 528.492C899.944 538.066 902.383 547.537 902.279 557.216C902.176 566.868 899.114 577.118 891.537 583.112C889.383 584.824 886.892 586.147 885.102 588.223C883.312 590.299 882.326 593.465 883.753 595.8C885.206 598.135 889.565 598.083 890.214 595.411L889.824 596.085C888.164 598.914 890.188 602.624 893.457 602.546C898.595 602.443 903.862 599.718 907.313 595.748C912.269 590.014 914.241 582.307 915.539 574.834C919.535 551.922 918.756 528.18 925.087 505.787" fill="#263238"/>
<path d="M812.914 650.446C816.469 665.989 827.03 679.819 841.12 687.292C855.209 694.791 872.568 695.803 887.462 690.068C900.903 684.879 911.723 674.759 922.206 664.873C925.943 687.292 919.715 711.19 905.548 728.964C891.38 746.738 869.454 758.103 846.75 759.479C829.573 760.516 811.072 755.249 800.278 741.86C792.727 732.519 789.665 720.116 789.795 708.102C789.925 696.088 792.987 684.308 796.567 672.839C799.655 663.031 804.481 652.029 814.419 649.356" fill="#1EA571"/>
<path d="M936.014 529.737C946.289 535.316 951.946 546.993 953.918 558.513C955.916 570.034 954.904 581.84 955.397 593.517C955.89 605.193 958.121 617.415 965.516 626.47C973.353 636.097 985.626 640.664 996.55 646.554C1020.73 659.606 1040.64 681.687 1047.93 708.18C1055.22 734.672 1048.6 765.317 1028.75 784.336C1010.69 801.643 984.38 807.715 959.393 807.637C941.541 807.585 921.976 803.797 910.845 789.863C899.843 776.085 900.362 756.391 904.358 739.239C908.38 722.088 915.385 705.377 915.645 687.759C912.998 698.631 908.328 709.01 901.945 718.221C900.128 720.842 896.989 723.696 894.16 722.191C891.021 720.531 892.214 715.834 893.667 712.591C915.178 664.769 907.679 568.373 920.419 515.57" fill="#263238"/>
<path d="M918.314 524.263C918.963 524.055 944.054 519.307 940.811 544.113C937.593 568.919 913.358 560.564 913.41 559.863C913.462 559.137 918.314 524.289 918.314 524.289V524.263Z" fill="#FFBE9D"/>
<path d="M922.207 551.43C922.207 551.43 922.596 551.793 923.297 552.208C923.972 552.623 925.165 553.012 926.514 552.701C929.265 552.078 932.015 548.212 932.716 543.749C933.079 541.492 932.872 539.286 932.301 537.418C931.782 535.498 930.77 534.097 929.472 533.681C928.201 533.214 927.163 533.863 926.774 534.538C926.359 535.186 926.437 535.705 926.307 535.731C926.229 535.783 925.84 535.238 926.151 534.252C926.307 533.785 926.696 533.214 927.319 532.825C927.967 532.41 928.876 532.28 929.784 532.514C931.678 532.903 933.183 534.875 933.806 536.951C934.532 539.053 934.818 541.544 934.402 544.06C933.598 549.042 930.433 553.376 926.722 553.947C924.906 554.18 923.53 553.454 922.856 552.779C922.155 552.078 922.103 551.507 922.207 551.456V551.43Z" fill="#EB996E"/>
<path d="M787.254 703.924C787.098 703.82 788.785 700.914 791.483 696.243C794.13 691.573 797.867 685.086 800.435 677.327C803.004 669.569 803.445 662.07 802.667 656.803C801.94 651.51 800.435 648.448 800.669 648.37C800.747 648.344 801.188 649.044 801.785 650.446C802.407 651.847 803.108 653.949 803.601 656.647C804.639 662.018 804.354 669.803 801.707 677.743C799.06 685.683 795.168 692.17 792.288 696.736C790.835 699.02 789.615 700.836 788.733 702.056C787.851 703.301 787.332 703.95 787.254 703.898V703.924Z" fill="#263238"/>
<path d="M799.913 675.303C799.549 675.381 798.823 673.202 796.617 671.697C794.438 670.14 792.128 670.218 792.102 669.854C792.076 669.699 792.647 669.387 793.659 669.387C794.671 669.387 796.098 669.699 797.396 670.607C798.693 671.515 799.497 672.734 799.835 673.694C800.172 674.655 800.094 675.303 799.939 675.329L799.913 675.303Z" fill="#FAFAFA"/>
<path d="M815.925 675.252C815.562 675.46 813.616 671.879 809.542 669.258C805.52 666.56 801.473 666.171 801.524 665.755C801.447 665.418 805.91 665.211 810.295 668.117C814.706 670.997 816.289 675.174 815.925 675.226V675.252Z" fill="#FAFAFA"/>
<path d="M826.018 727.9C825.655 727.822 826.33 723.073 827.523 717.313C828.717 711.527 829.988 706.908 830.352 706.986C830.715 707.064 830.04 711.812 828.847 717.573C827.653 723.359 826.382 727.978 826.018 727.9Z" fill="#FAFAFA"/>
<path d="M866.497 735.84C866.134 735.84 865.978 730.806 866.16 724.631C866.342 718.455 866.809 713.447 867.172 713.473C867.535 713.473 867.691 718.507 867.509 724.683C867.328 730.858 866.861 735.84 866.497 735.84Z" fill="#FAFAFA"/>
<path d="M40.0114 851.151L0 1025.39L84.6155 1025.65L123.719 872.428L40.0114 851.151Z" fill="#B78876"/>
<path d="M455.563 637.082C447.52 626.288 438.282 615.935 434.027 603.168C431.977 596.993 431.173 590.454 428.993 584.33C426.813 578.207 422.843 572.239 416.772 569.929C410.7 567.62 406.081 569.955 402.137 574.289L373.102 659.215L389.838 724.448C406.548 720.686 427.462 716.223 443.083 709.191C458.677 702.159 469.134 690.898 470.12 673.798C470.873 660.357 463.607 647.85 455.563 637.056V637.082Z" fill="#263238"/>
<path d="M191.313 622.085C191.313 622.085 90.3765 666.041 77.7659 685.839C65.1553 705.663 23.7168 847 23.7168 847L129.973 878.267L128.234 1025.39H389.009L386.855 765.991L354.135 622.604C354.135 622.604 296.557 618.894 291.238 616.273C285.918 613.652 191.339 622.085 191.339 622.085H191.313Z" fill="#26DD9B"/>
<path d="M550.01 262.397C550.841 256.455 546.689 249.916 549.673 244.701C551.334 241.821 554.655 240.42 557.769 239.226C559.378 238.603 561.012 237.98 562.725 238.032C564.437 238.084 566.254 239.018 566.799 240.627C567.447 242.521 566.228 244.571 564.801 245.972C563.374 247.399 561.635 248.619 560.883 250.487C559.871 252.978 560.805 260.788 561.843 263.254C563.607 267.509 569.886 286.451 570.431 291.018" fill="#B78876"/>
<path d="M528.709 264.447C529.072 255.443 536.39 219.947 536.753 210.943C542.851 212.811 546.379 219.298 547.521 225.577C548.663 231.857 548.066 238.318 549.156 244.597C550.609 253.03 554.994 260.633 559.405 267.95C563.816 275.267 568.435 282.688 570.407 291.017C572.379 299.347 579.93 320.909 574.066 327.137" fill="#B78876"/>
<path d="M527.024 325.165L490.957 496.627C489.686 504.36 354.135 622.578 354.135 622.578L380.913 729.508L557.487 556.878C570.227 543.256 577.155 525.222 576.792 506.591L573.808 345.716L527.024 325.165Z" fill="#B78876"/>
<path d="M520.874 265.537L527.024 325.165L573.807 345.716C573.807 345.716 574.378 341.486 576.402 320.806C578.608 297.998 554.113 288.215 543.189 271.401C538.518 264.188 539.738 250.955 536.131 234.556C535.716 232.661 533.121 221.218 531.694 215.043C530.916 211.644 528.996 208.556 526.09 206.61C523.988 205.183 521.575 204.482 519.836 206.61C518.046 208.764 520.874 265.511 520.874 265.511V265.537Z" fill="#B78876"/>
<path d="M550.015 335.181C555.334 330.692 556.476 322.648 554.504 315.98C552.532 309.311 548.043 303.706 543.476 298.439C538.909 293.172 534.109 287.956 531.306 281.573C529.334 277.084 528.426 272.18 526.247 267.795C524.067 263.41 520.097 259.388 515.219 259.18C519.137 283.856 519.033 298.05 527.051 325.165" fill="#B78876"/>
<path d="M519.965 287.282C519.965 287.282 519.784 286.607 519.472 285.31C519.135 283.727 518.72 281.859 518.227 279.653C517.137 274.489 515.71 267.821 514.101 260.244L513.945 259.518L514.698 259.466C517.786 259.232 520.977 260.581 523.416 262.735C527.49 266.212 529.358 271.09 530.733 275.216C532.083 279.419 533.25 283.156 534.833 286.036C536.26 288.994 538.258 290.81 539.4 292.341C540.542 293.846 541.009 294.755 540.957 294.806C540.879 294.858 540.23 294.054 539.011 292.679C537.817 291.329 535.612 289.539 534.003 286.503C532.264 283.597 530.967 279.757 529.566 275.605C528.139 271.505 526.322 266.939 522.56 263.721C520.303 261.749 517.474 260.555 514.802 260.737L515.398 259.959C518.486 275.579 520.536 287.282 519.965 287.256V287.282Z" fill="#7C5142"/>
<path d="M540.932 272.102C540.569 272.154 538.623 261.256 536.625 247.763C534.627 234.27 533.277 223.268 533.667 223.216C534.03 223.165 535.976 234.063 537.974 247.555C539.972 261.048 541.321 272.05 540.932 272.102Z" fill="#7C5142"/>
<path d="M555.827 274.125C555.827 274.125 556.009 274.41 556.164 275.033L555.775 275.111C554.893 272.957 552.869 266.237 551.079 258.141C549.963 253.133 549.132 248.566 548.665 245.245C548.172 241.924 548.017 239.848 548.198 239.822C548.588 239.77 550.17 247.892 552.402 257.856C554.192 265.925 555.827 272.724 556.19 275.007L555.801 275.085C555.775 274.436 555.801 274.125 555.853 274.099L555.827 274.125Z" fill="#7C5142"/>
<path d="M565.016 307.002C564.835 307.105 563.875 305.652 562.006 303.654C560.138 301.656 557.206 299.191 553.444 297.375C549.681 295.559 545.919 294.806 543.194 294.573C540.47 294.339 538.731 294.521 538.705 294.287C538.679 294.132 540.392 293.613 543.246 293.613C546.1 293.587 550.07 294.235 554.04 296.155C557.984 298.076 560.994 300.774 562.733 303.032C564.497 305.289 565.146 306.924 565.016 307.002Z" fill="#7C5142"/>
<path d="M531.255 329.888C531.099 329.94 529.854 327.293 528.193 322.83C526.532 318.367 524.508 312.113 522.822 305.056C521.135 297.998 520.097 291.485 519.552 286.763C519.008 282.04 518.93 279.108 519.111 279.082C519.319 279.082 519.734 281.962 520.513 286.633C521.291 291.303 522.459 297.712 524.145 304.744C525.832 311.75 527.674 318.03 529.101 322.518C530.528 327.033 531.462 329.81 531.281 329.888H531.255Z" fill="#7C5142"/>
<path d="M322.48 625.64C326.814 618.4 337.478 615.909 344.588 620.476C363.634 604.985 383.12 589.806 402.166 574.315C395.938 605.374 391.865 648.889 405.721 677.353C405.721 677.353 423.287 710.021 451.259 705.014L426.323 729.534L386.883 765.991" fill="#26DD9B"/>
<path d="M316.277 640.223C315.94 640.223 316.277 634.462 319.936 628.52C323.542 622.552 328.498 619.568 328.654 619.88C328.913 620.191 324.528 623.538 321.103 629.221C317.626 634.877 316.692 640.326 316.277 640.223Z" fill="#263238"/>
<path d="M336.851 659.294C336.851 659.294 335.606 657.296 334.672 653.612C333.764 649.953 333.271 644.66 334.283 638.951C335.295 633.243 337.578 628.416 339.706 625.303C341.833 622.163 343.598 620.632 343.702 620.71C343.883 620.866 342.378 622.63 340.536 625.796C338.668 628.961 336.618 633.658 335.632 639.159C334.672 644.66 334.983 649.797 335.632 653.404C336.281 657.011 337.085 659.19 336.851 659.268V659.294Z" fill="#263238"/>
<path d="M432.208 726.058C432.208 726.058 430.21 727.459 426.007 728.549C421.855 729.664 415.342 730.183 407.818 728.004C400.319 725.902 392.223 720.505 385.97 712.331C379.612 704.21 375.305 693.467 372.944 681.947C368.481 658.775 368.662 637.291 369.83 621.981C370.427 614.301 371.283 608.125 372.01 603.896C372.347 601.768 372.684 600.133 372.892 599.018C373.125 597.902 373.255 597.331 373.307 597.331C373.359 597.331 373.307 597.928 373.151 599.044C372.996 600.315 372.788 601.924 372.503 603.948C371.958 608.203 371.257 614.379 370.764 622.033C369.83 637.291 369.83 658.697 374.241 681.661C376.577 693.052 380.78 703.587 386.93 711.553C393.001 719.571 400.786 724.89 408.077 727.07C415.368 729.327 421.726 728.964 425.851 728.03C430.029 727.122 432.131 725.902 432.182 726.058H432.208Z" fill="#FAFAFA"/>
<path d="M130.544 921.936C130.181 921.936 129.869 885.039 129.869 839.552C129.869 794.066 130.181 757.168 130.544 757.168C130.907 757.168 131.218 794.04 131.218 839.552C131.218 885.065 130.907 921.936 130.544 921.936Z" fill="#263238"/>
<path d="M128.44 728.703C128.155 728.703 128.232 725.019 126.961 719.284C126.364 716.404 125.248 713.083 123.718 709.528C122.109 706.025 119.981 702.289 117.308 698.734C114.558 695.205 111.548 692.195 108.564 689.704C105.554 687.291 102.622 685.345 100.001 684.022C94.8118 681.271 91.205 680.389 91.3088 680.129C91.3088 680.052 92.217 680.233 93.8517 680.648C94.6561 680.856 95.6421 681.141 96.7319 681.582C97.8217 682.024 99.1191 682.439 100.442 683.165C103.167 684.411 106.203 686.331 109.342 688.744C112.43 691.235 115.57 694.297 118.372 697.93C121.123 701.588 123.25 705.428 124.859 709.061C126.364 712.72 127.402 716.171 127.895 719.129C128.232 720.582 128.31 721.957 128.44 723.125C128.596 724.292 128.596 725.33 128.596 726.161C128.596 727.821 128.544 728.755 128.44 728.755V728.703Z" fill="#263238"/>
<path d="M306.184 620.943C306.184 620.943 306.366 621.695 306.625 623.123C306.91 624.55 307.118 626.703 307.3 629.48C307.585 635.007 307.092 643.18 304.056 652.703C300.942 662.122 295.104 672.942 285.244 681.816C275.514 690.768 261.502 696.918 246.271 698.085C231.039 699.175 216.275 695.205 205.299 687.784C194.219 680.467 186.85 670.633 182.361 661.785C177.95 652.833 176.238 644.815 175.693 639.314C175.459 636.538 175.33 634.384 175.407 632.931C175.407 631.478 175.459 630.699 175.511 630.699C175.563 630.699 175.615 631.478 175.693 632.931C175.693 634.384 175.9 636.512 176.238 639.262C176.938 644.711 178.781 652.599 183.218 661.369C187.733 670.036 195.076 679.637 205.974 686.746C216.742 693.96 231.221 697.8 246.167 696.736C261.087 695.569 274.813 689.601 284.388 680.882C294.092 672.216 299.93 661.629 303.122 652.392C306.21 643.05 306.859 634.981 306.729 629.48C306.651 626.729 306.521 624.576 306.314 623.148C306.158 621.695 306.106 620.943 306.158 620.917L306.184 620.943Z" fill="#263238"/>
<path d="M128.289 846.066C128.159 846.43 106.752 839.657 80.4154 830.965C54.1044 822.272 32.8533 814.929 32.983 814.566C33.1128 814.202 54.5196 820.975 80.8565 829.667C107.168 838.36 128.419 845.703 128.289 846.04V846.066Z" fill="#FAFAFA"/>
<path d="M384.339 810.049C384.339 810.412 327.125 810.957 256.547 811.269C185.943 811.554 128.729 811.502 128.729 811.139C128.729 810.776 185.943 810.231 256.547 809.919C327.125 809.634 384.365 809.686 384.365 810.049H384.339Z" fill="#FAFAFA"/>
<path d="M385.637 832.651C385.637 833.014 328.111 833.326 257.196 833.326C186.281 833.326 128.729 833.014 128.729 832.651C128.729 832.288 186.229 831.977 257.196 831.977C328.163 831.977 385.637 832.288 385.637 832.651Z" fill="#FAFAFA"/>
<path d="M350.398 860.103C350.398 860.103 350.191 860.83 349.672 862.205C349.101 863.658 348.322 865.63 347.336 868.121C346.817 869.419 346.247 870.846 345.624 872.377C344.949 873.907 344.145 875.568 343.314 877.333C341.602 880.861 339.837 884.987 337.372 889.269C336.179 891.448 334.959 893.706 333.662 896.093C332.365 898.454 330.808 900.789 329.303 903.28C326.345 908.288 322.712 913.322 318.976 918.693C311.191 929.202 301.928 940.256 291.211 950.868C280.365 961.403 269.156 970.433 258.491 978.01C253.042 981.642 247.957 985.197 242.871 988.025C240.354 989.479 237.993 990.984 235.606 992.255C233.218 993.5 230.909 994.694 228.729 995.836C224.396 998.223 220.244 999.91 216.69 1001.54C214.899 1002.35 213.239 1003.13 211.682 1003.75C210.125 1004.35 208.698 1004.89 207.374 1005.38C204.883 1006.32 202.885 1007.05 201.406 1007.59C200.031 1008.08 199.305 1008.32 199.305 1008.26C199.305 1008.21 199.979 1007.9 201.329 1007.33C202.782 1006.73 204.728 1005.9 207.193 1004.89C208.49 1004.37 209.891 1003.78 211.448 1003.15C212.979 1002.48 214.614 1001.67 216.404 1000.84C219.933 999.157 224.033 997.393 228.314 994.979C230.494 993.812 232.751 992.592 235.138 991.347C237.5 990.075 239.835 988.544 242.326 987.065C247.36 984.185 252.42 980.63 257.817 976.972C268.377 969.369 279.535 960.365 290.303 949.882C300.968 939.322 310.205 928.346 318.015 917.941C321.752 912.621 325.437 907.64 328.395 902.658C329.925 900.193 331.482 897.883 332.806 895.548C334.129 893.213 335.374 890.955 336.594 888.801C339.111 884.546 340.927 880.498 342.692 876.995C343.548 875.231 344.404 873.622 345.105 872.091C345.754 870.56 346.376 869.159 346.921 867.888C347.985 865.449 348.841 863.502 349.49 862.075C350.087 860.752 350.424 860.051 350.476 860.077L350.398 860.103Z" fill="#263238"/>
<g opacity="0.3">
<path d="M339.838 882.678C322.402 903.903 304.134 919.291 278.524 929.203C266.251 933.951 253.407 937.168 241.523 942.799C229.639 948.43 218.455 956.915 213.11 968.928C208.984 978.218 210.982 992.204 220.92 994.305C224.683 995.11 228.575 993.89 232.207 992.567C282.935 974.17 316.252 927.801 339.838 882.678Z" fill="black"/>
</g>
<path d="M158.414 420.915C147.464 429.504 146.738 445.565 147.283 459.473C147.828 473.381 147.983 489.209 137.916 498.81C129.612 506.724 115.082 509.656 112.695 520.892C111.579 526.133 114.07 531.945 118.637 534.748C123.203 537.55 129.509 537.135 133.66 533.762C130.131 542.532 131.74 553.819 139.213 559.606C146.712 565.392 159.842 562.693 162.67 553.664C160.905 559.631 165.031 566.663 171.103 568.09C177.175 569.492 183.947 565.003 185.011 558.853" fill="#263238"/>
<path d="M317.321 521.617C319.604 528.649 328.219 532.853 335.173 530.336C342.127 527.819 346.045 519.074 343.295 512.198C341.141 506.827 335.614 502.753 335.355 496.941C335.043 489.935 342.386 485.291 348.847 482.566C355.308 479.816 362.885 476.235 363.923 469.281C364.909 462.586 359.149 457.033 354.296 452.285C349.47 447.537 344.826 440.323 348.225 434.459C349.963 431.449 353.362 429.84 355.646 427.22C360.68 421.433 358.656 411.703 352.843 406.695C347.031 401.687 338.702 400.623 331.099 401.609C323.497 402.595 316.231 405.398 308.784 407.214C284.212 413.26 257.148 408.382 236.234 394.136" fill="#263238"/>
<path d="M165.835 474.419L192.561 629.171C197.257 656.391 223.205 674.58 250.398 669.728C275.801 665.187 293.523 641.964 291.24 616.275C290.02 602.549 288.957 591.184 288.957 591.184C288.957 591.184 327.723 581.22 324.375 541.831C322.766 522.786 316.228 483.838 309.922 448.679C303.15 410.899 268.458 384.718 230.263 388.429L226.475 388.792C185.763 395.175 158.336 433.889 165.861 474.419H165.835Z" fill="#B78876"/>
<path d="M301.644 474.186C302.033 477.144 299.854 479.921 296.766 480.388C293.678 480.855 290.876 478.831 290.486 475.873C290.097 472.915 292.277 470.139 295.339 469.672C298.426 469.204 301.229 471.228 301.644 474.186Z" fill="#263238"/>
<path d="M303.358 468.815C302.735 469.619 298.168 466.869 292.123 467.492C286.077 468.01 281.951 471.565 281.225 470.865C280.861 470.579 281.458 469.178 283.249 467.569C285.013 465.987 288.127 464.3 291.889 463.963C295.652 463.625 298.973 464.689 300.919 465.935C302.917 467.18 303.669 468.452 303.358 468.815Z" fill="#263238"/>
<path d="M242.48 481.09C242.869 484.048 240.689 486.824 237.602 487.291C234.514 487.758 231.712 485.734 231.322 482.776C230.933 479.818 233.113 477.042 236.175 476.575C239.262 476.108 242.065 478.132 242.48 481.09Z" fill="#263238"/>
<path d="M244.011 475.718C243.388 476.522 238.822 473.772 232.776 474.394C226.73 474.913 222.604 478.468 221.852 477.768C221.489 477.482 222.059 476.081 223.876 474.472C225.64 472.889 228.754 471.203 232.516 470.865C236.279 470.528 239.6 471.592 241.546 472.838C243.544 474.083 244.297 475.354 243.985 475.718H244.011Z" fill="#263238"/>
<path d="M270.325 518.428C270.273 518.09 273.957 517.078 279.977 515.703C281.508 515.392 282.935 514.951 283.091 513.861C283.35 512.719 282.546 511.11 281.612 509.372C279.796 505.765 277.901 502.003 275.903 498.059C267.937 481.945 261.995 468.608 262.644 468.297C263.293 467.985 270.299 480.803 278.265 496.917C280.185 500.887 282.027 504.701 283.792 508.308C284.544 509.995 285.738 511.889 285.193 514.302C284.881 515.495 283.843 516.456 282.883 516.819C281.923 517.208 281.067 517.312 280.289 517.441C274.191 518.376 270.403 518.765 270.325 518.428Z" fill="#263238"/>
<path d="M243.263 451.872C242.822 453.584 236.724 453.377 229.692 454.933C222.66 456.335 217.133 458.981 216.044 457.58C215.551 456.906 216.407 455.271 218.561 453.454C220.688 451.638 224.217 449.77 228.421 448.888C232.624 448.005 236.594 448.291 239.293 449.095C241.991 449.9 243.444 451.067 243.263 451.872Z" fill="#263238"/>
<path d="M299.411 451.508C298.477 452.987 294.169 451.975 289.162 452.39C284.128 452.623 280.002 454.206 278.886 452.883C278.393 452.234 278.912 450.781 280.651 449.302C282.337 447.823 285.295 446.474 288.746 446.24C292.197 446.007 295.311 446.967 297.179 448.212C299.099 449.458 299.8 450.807 299.411 451.534V451.508Z" fill="#263238"/>
<path d="M204.367 427.091C204.367 427.091 204.237 427.221 204.159 427.272C198.373 432.825 194.922 440.402 194.61 448.42C194.61 448.705 194.61 448.965 194.584 449.224C194.143 460.589 195.519 471.98 194.974 483.371C194.429 494.737 191.652 506.517 184.102 515.054C181.014 518.557 175.176 521.333 172.01 517.882C170.79 516.559 170.427 514.664 170.116 512.874C165.367 485.966 155.637 462.639 152.912 434.304C152.186 426.598 155.092 418.995 160.93 413.883C166.457 409.057 173.255 403.946 180.158 406.411C187.086 408.902 196.816 420.396 202.421 425.145" fill="#263238"/>
<path d="M180.832 490.921C180.132 490.688 153.016 485.55 156.493 512.38C159.97 539.21 186.177 530.18 186.126 529.402C186.074 528.623 180.832 490.921 180.832 490.921Z" fill="#B78876"/>
<path d="M176.626 520.295C176.626 520.295 176.211 520.684 175.458 521.151C174.732 521.592 173.434 522.007 171.981 521.67C169.023 520.995 166.039 516.818 165.287 511.991C164.898 509.552 165.105 507.165 165.728 505.141C166.299 503.065 167.389 501.534 168.764 501.093C170.139 500.574 171.255 501.301 171.696 502.027C172.163 502.728 172.059 503.299 172.189 503.325C172.267 503.377 172.708 502.806 172.345 501.716C172.163 501.197 171.774 500.6 171.073 500.159C170.373 499.718 169.387 499.588 168.401 499.822C166.351 500.237 164.742 502.391 164.067 504.622C163.289 506.88 162.977 509.578 163.419 512.303C164.301 517.674 167.726 522.396 171.748 522.993C173.694 523.253 175.199 522.474 175.925 521.722C176.678 520.943 176.73 520.347 176.626 520.295Z" fill="#7C5142"/>
<path d="M179.664 410.691C171.983 400.572 188.642 383.342 201.512 377.867C214.382 372.392 232.493 377.167 246.142 380.255C254.756 382.201 263.423 385.262 272.167 384.043C278.031 383.239 283.429 380.54 288.8 378.023C294.171 375.506 299.776 373.119 305.692 372.937C311.608 372.756 317.965 375.299 320.715 380.54C323.466 385.781 321.001 393.566 315.266 394.941C322.324 390.115 333.611 394.448 335.635 402.751C337.659 411.054 329.641 420.084 321.183 419.098C324.737 415.829 331.069 420.032 331.043 424.859C331.043 429.685 327.047 433.577 322.843 435.938C312.101 441.958 298.867 441.673 286.88 438.896C274.892 436.12 263.527 431.086 251.591 427.998C239.681 424.936 219.649 419.28 208.492 424.469C200.266 428.31 195.362 439.13 190.328 437.34C185.476 435.601 182.051 431.034 180.624 426.078C179.197 421.122 179.43 415.855 179.664 410.717" fill="#263238"/>
<path d="M181.168 495.514C181.946 509.733 182.725 524.03 186.046 537.886C189.367 551.742 195.387 565.235 205.377 575.381C218.455 588.692 235.373 601.432 253.796 604.468C273.905 607.789 298.504 603.586 314.877 591.442C322.635 585.682 328.291 573.253 325.878 563.886C332.495 560.85 337.166 554 337.555 546.734C337.944 539.469 333.533 530.387 327.773 529.427C332.106 528.727 333.325 521.876 331.691 517.984C330.004 513.936 324.373 512.95 320.066 513.781C315.759 514.611 311.996 517.154 308.467 519.749C304.939 522.343 301.384 525.094 297.232 526.443C283.324 530.958 269.235 518.711 254.626 519.256C241.419 519.775 229.664 530.725 216.561 528.882C209.243 527.844 202.938 522.785 198.916 516.609C194.868 510.408 196.633 487.496 195.05 480.282" fill="#263238"/>
<g opacity="0.6">
<path d="M287.164 557.268C287.06 557.449 285.918 556.853 283.946 556.308C282 555.763 279.172 555.374 276.136 555.918C273.1 556.463 270.583 557.839 268.948 559.032C267.288 560.226 266.432 561.186 266.276 561.056C266.146 560.978 266.795 559.785 268.404 558.332C269.986 556.879 272.633 555.27 275.928 554.673C279.224 554.076 282.26 554.673 284.258 555.451C286.256 556.256 287.268 557.138 287.19 557.268H287.164Z" fill="#455A64"/>
</g>
<path d="M258.779 527.481C259.765 527.326 260.414 533.89 266.486 537.99C272.558 542.116 279.486 540.689 279.615 541.623C279.745 542.038 278.188 543.05 275.23 543.413C272.35 543.802 268.017 543.283 264.306 540.766C260.596 538.25 258.753 534.565 258.26 531.892C257.742 529.168 258.312 527.481 258.779 527.481Z" fill="white"/>
<path d="M239.268 600.109C239.268 600.109 239.864 600.291 240.954 600.732C242.07 601.147 243.705 601.718 245.858 602.315C250.166 603.534 256.549 604.831 264.541 605.247C268.537 605.48 272.922 605.454 277.592 604.987C282.263 604.598 287.219 603.664 292.253 602.133C297.313 600.68 302.372 598.37 307.199 595.309C312.025 592.273 316.644 588.432 320.147 583.528C324.272 577.742 326.4 570.477 325.284 564.094L325.18 563.549L325.673 563.341C328.995 561.914 331.693 559.397 333.769 556.647C334.807 555.271 335.715 553.792 336.39 552.287C337.065 550.808 337.402 549.174 337.558 547.591C338.154 541.182 335.3 535.24 331.304 531.892L330.941 531.581L331.252 531.192C333.899 527.922 334.055 523.589 332.835 520.527C331.641 517.362 329.047 515.519 326.867 514.689C324.636 513.807 322.715 513.807 321.47 513.937C320.199 514.092 319.576 514.3 319.55 514.248C319.55 514.248 320.147 513.911 321.444 513.651C322.715 513.418 324.713 513.34 327.075 514.17C329.384 514.975 332.212 516.843 333.588 520.242C334.963 523.511 334.885 528.156 332.031 531.841L331.953 531.14C336.234 534.643 339.322 540.87 338.751 547.721C338.595 549.407 338.232 551.146 337.532 552.78C336.831 554.415 335.871 555.946 334.807 557.399C332.627 560.279 329.825 562.952 326.192 564.535L326.582 563.782C327.827 570.788 325.57 578.235 321.288 584.307C317.656 589.393 312.881 593.363 307.951 596.424C303.021 599.538 297.806 601.847 292.668 603.301C287.53 604.831 282.496 605.74 277.748 606.077C273 606.518 268.563 606.466 264.541 606.181C256.471 605.636 250.062 604.183 245.78 602.808C243.627 602.133 241.992 601.458 240.928 600.965C239.864 600.42 239.319 600.135 239.345 600.083L239.268 600.109Z" fill="#455A64"/>
<path d="M121.621 531.632C121.621 531.632 121.077 531.528 120.246 530.957C119.416 530.412 118.3 529.323 117.522 527.532C116.795 525.768 116.38 523.329 116.977 520.63C117.548 517.906 119.468 515.181 122.14 513.053C124.839 510.9 128.264 509.291 132.001 507.942C135.711 506.567 139.759 505.347 143.469 503.064C147.18 500.832 150.19 497.199 152.11 492.892C154.082 488.585 155.016 483.655 155.172 478.621C155.379 468.475 153.044 458.849 152.785 449.897C152.37 440.971 154.082 432.59 158.156 426.985C162.178 421.354 167.523 418.759 171.233 418.085C173.102 417.696 174.607 417.799 175.593 417.851C176.579 418.007 177.098 418.111 177.072 418.163C177.072 418.344 174.97 417.748 171.337 418.604C167.782 419.408 162.697 422.055 158.934 427.53C155.146 432.979 153.537 441.075 154.004 449.845C154.316 458.641 156.703 468.242 156.495 478.673C156.34 483.862 155.379 488.974 153.304 493.463C151.28 497.978 148.036 501.792 144.092 504.153C140.174 506.515 136.048 507.682 132.364 509.032C128.653 510.329 125.332 511.834 122.711 513.858C120.117 515.856 118.3 518.347 117.703 520.864C117.055 523.381 117.366 525.69 117.989 527.403C119.364 530.905 121.751 531.554 121.596 531.71L121.621 531.632Z" fill="#455A64"/>
<path d="M316.147 394.396C316.147 394.396 316.537 394.188 317.341 393.851C317.73 393.669 318.249 393.487 318.846 393.332C319.469 393.15 320.169 392.968 321 392.891C324.243 392.398 329.64 393.176 334.207 397.639C337.269 401.479 339.085 407.343 338.229 413.727C337.502 420.11 333.688 426.726 327.59 431.293C321.545 435.964 313.501 438.662 305.042 439.129C296.531 439.648 287.683 438.351 278.835 436.249C264.408 432.772 251.46 426.545 240.821 419.409C235.45 415.932 230.39 412.637 225.227 410.327C220.115 407.966 214.951 406.799 210.177 406.487C200.576 405.864 192.922 408.355 188.095 410.587C183.217 412.896 180.908 414.842 180.83 414.713C180.83 414.713 183.01 412.585 187.862 410.12C192.662 407.707 200.421 405.008 210.229 405.527C215.107 405.787 220.426 406.954 225.668 409.29C230.935 411.599 236.099 414.894 241.47 418.345C252.082 425.377 264.849 431.475 279.146 434.926C287.89 437.028 296.661 438.299 304.938 437.806C313.215 437.365 321 434.796 326.864 430.333C332.78 425.948 336.464 419.669 337.217 413.571C338.125 407.473 336.438 401.817 333.584 398.106C329.355 393.825 324.139 392.891 320.974 393.28C317.73 393.643 316.121 394.525 316.07 394.37L316.147 394.396Z" fill="#455A64"/>
<path d="M302.397 371.535C302.397 371.535 302.579 373.767 301.178 377.477C299.751 381.11 296.274 386.066 290.098 389.595C287.062 391.359 283.404 392.812 279.278 393.487C275.178 394.162 270.689 394.136 266.097 393.539C256.833 392.397 247.259 388.738 237.191 385.599C227.149 382.459 216.978 380.591 208.077 382.511C199.177 384.353 192.172 389.361 187.605 394.447C182.986 399.559 180.521 404.722 179.301 408.355C178.108 412.04 177.874 414.193 177.719 414.167C177.667 414.167 177.719 413.622 177.874 412.61C177.978 411.572 178.315 410.093 178.808 408.199C179.898 404.463 182.234 399.118 186.878 393.798C191.471 388.531 198.581 383.264 207.792 381.291C217.029 379.242 227.46 381.136 237.554 384.301C247.7 387.467 257.171 391.1 266.252 392.293C270.767 392.916 275.126 392.968 279.096 392.371C283.066 391.774 286.647 390.425 289.631 388.764C295.677 385.443 299.18 380.773 300.711 377.296C302.216 373.741 302.242 371.535 302.423 371.561L302.397 371.535Z" fill="#455A64"/>
<path d="M535.967 819.751C542.394 820.591 548.118 824.679 551.888 829.926C555.681 835.172 557.702 841.531 558.769 847.913C560.836 860.268 557.497 874.327 552.91 885.978C540.305 880.073 533.582 865.379 530.652 857.702C525.996 845.597 524.974 820.864 535.967 819.728" fill="#2EFFAF"/>
<path d="M571.508 903.398C567.511 897.357 567.601 889.112 571.031 882.73C574.46 876.348 580.842 871.829 587.815 869.876C591.04 868.967 594.765 868.649 597.49 870.557C600.056 872.351 601.101 875.781 600.692 878.892C600.284 882.004 598.648 884.797 596.718 887.273C590.154 895.744 582.228 902.762 571.508 903.398Z" fill="#2EFFAF"/>
<path d="M568.307 942.553C568.307 942.553 568.057 941.622 567.876 939.942C567.694 938.261 567.49 935.831 567.331 932.81C567.035 926.792 566.786 918.32 568.762 909.19C570.76 900.037 575.189 892.497 579.504 888.136C581.639 885.933 583.615 884.434 585.091 883.548C586.545 882.663 587.408 882.299 587.453 882.367C587.612 882.595 584.206 884.343 580.231 888.818C576.234 893.201 572.077 900.582 570.124 909.485C568.171 918.388 568.262 926.769 568.307 932.765C568.398 938.783 568.512 942.531 568.307 942.531V942.553Z" fill="#263238"/>
<path d="M538.896 838.51C538.896 838.51 539.555 839.918 540.486 842.553C541.417 845.187 542.711 849.003 544.279 853.773C547.39 863.266 551.455 876.462 555.589 891.133C559.722 905.805 563.129 919.182 565.446 928.903C566.604 933.763 567.49 937.692 568.058 940.44C568.625 943.166 568.898 944.688 568.807 944.71C568.716 944.733 568.262 943.257 567.513 940.554C566.718 937.624 565.696 933.763 564.469 929.13C561.926 919.478 558.36 906.168 554.226 891.497C550.093 876.848 546.186 863.629 543.325 854.068C541.962 849.457 540.826 845.642 539.963 842.735C539.191 840.055 538.805 838.556 538.896 838.533V838.51Z" fill="#263238"/>
<path d="M554.702 915.14C548.547 901.172 535.261 890.588 520.271 887.704C516.455 886.977 511.754 887.068 509.619 890.338C507.484 893.609 509.324 897.97 511.595 901.126C521.111 914.231 539.099 920.522 554.702 916.207" fill="#2EFFAF"/>
<path d="M524.472 898.696C524.472 898.696 525.38 898.696 526.993 898.946C527.81 899.06 528.787 899.241 529.877 899.559C530.99 899.877 532.285 900.15 533.647 900.695C536.418 901.603 539.575 903.08 542.914 905.01C546.207 907.009 549.636 909.552 552.861 912.619C556.041 915.753 558.676 919.091 560.81 922.317C562.854 925.587 564.422 928.698 565.421 931.447C566.011 932.787 566.329 934.058 566.67 935.171C567.033 936.261 567.238 937.238 567.374 938.056C567.692 939.646 567.806 940.531 567.715 940.554C567.442 940.622 566.761 937.079 564.512 931.833C563.4 929.198 561.787 926.2 559.72 923.043C557.585 919.932 554.996 916.684 551.885 913.641C548.728 910.643 545.412 908.144 542.232 906.123C539.007 904.17 535.964 902.648 533.284 901.626C527.969 899.537 524.404 898.969 524.472 898.696Z" fill="#263238"/>
</svg>
