<svg width="30" height="30" viewBox="0 0 42 41" fill="none" xmlns="http://www.w3.org/2000/svg">
<path fill-rule="evenodd" clip-rule="evenodd" d="M20.9996 0.000488281C9.90882 0.000488281 0.917969 8.99134 0.917969 20.0821C0.917969 31.1729 9.90882 40.1637 20.9996 40.1637C32.0904 40.1637 41.0812 31.1729 41.0812 20.0821C41.0812 8.99134 32.0904 0.000488281 20.9996 0.000488281ZM16.5843 9.43655C17.7267 9.38456 18.0918 9.37184 21.0005 9.37184H20.9972C23.9068 9.37184 24.2705 9.38456 25.4129 9.43655C26.5531 9.48876 27.3319 9.66927 28.0147 9.93413C28.7198 10.2075 29.3155 10.5734 29.9113 11.1692C30.507 11.7645 30.873 12.362 31.1474 13.0664C31.4107 13.7474 31.5915 14.5257 31.645 15.6659C31.6963 16.8084 31.7097 17.1734 31.7097 20.0821C31.7097 22.9909 31.6963 23.355 31.645 24.4975C31.5915 25.6372 31.4107 26.4157 31.1474 27.097C30.873 27.8012 30.507 28.3987 29.9113 28.994C29.3162 29.5898 28.7195 29.9566 28.0153 30.2302C27.3339 30.495 26.5547 30.6755 25.4145 30.7278C24.2721 30.7797 23.9081 30.7925 20.9992 30.7925C18.0907 30.7925 17.7258 30.7797 16.5834 30.7278C15.4434 30.6755 14.6649 30.495 13.9835 30.2302C13.2795 29.9566 12.682 29.5898 12.0869 28.994C11.4913 28.3987 11.1254 27.8012 10.8516 27.0967C10.587 26.4157 10.4065 25.6375 10.354 24.4973C10.3023 23.3548 10.2893 22.9909 10.2893 20.0821C10.2893 17.1734 10.3027 16.8081 10.3538 15.6657C10.4051 14.526 10.5859 13.7474 10.8514 13.0662C11.1258 12.362 11.4918 11.7645 12.0875 11.1692C12.6828 10.5736 13.2804 10.2077 13.9848 9.93413C14.6658 9.66927 15.4441 9.48876 16.5843 9.43655Z" fill="white"/>
<path fill-rule="evenodd" clip-rule="evenodd" d="M20.0401 11.3015C20.2267 11.3012 20.4274 11.3013 20.644 11.3014L21.0009 11.3015C23.8606 11.3015 24.1995 11.3118 25.3288 11.3631C26.373 11.4108 26.9398 11.5853 27.3173 11.7319C27.8171 11.9261 28.1735 12.1581 28.5481 12.533C28.923 12.9078 29.155 13.2648 29.3496 13.7647C29.4962 14.1417 29.6709 14.7085 29.7185 15.7528C29.7698 16.8818 29.7809 17.221 29.7809 20.0793C29.7809 22.9376 29.7698 23.2767 29.7185 24.4058C29.6707 25.4501 29.4962 26.0168 29.3496 26.3939C29.1555 26.8937 28.923 27.2496 28.5481 27.6242C28.1733 27.9991 27.8174 28.2312 27.3173 28.4253C26.9402 28.5726 26.373 28.7466 25.3288 28.7943C24.1997 28.8457 23.8606 28.8568 21.0009 28.8568C18.1411 28.8568 17.8021 28.8457 16.6731 28.7943C15.6288 28.7461 15.0621 28.5717 14.6843 28.4251C14.1845 28.2309 13.8275 27.9989 13.4526 27.624C13.0778 27.2492 12.8457 26.893 12.6511 26.393C12.5045 26.0159 12.3298 25.4492 12.2823 24.4049C12.231 23.2759 12.2207 22.9367 12.2207 20.0766C12.2207 17.2165 12.231 16.8791 12.2823 15.7501C12.33 14.7058 12.5045 14.1391 12.6511 13.7615C12.8452 13.2617 13.0778 12.9047 13.4526 12.5298C13.8275 12.155 14.1845 11.9229 14.6843 11.7284C15.0618 11.5811 15.6288 11.407 16.6731 11.3591C17.6611 11.3144 18.044 11.3011 20.0401 11.2988V11.3015ZM26.7183 13.0798C26.0087 13.0798 25.433 13.6548 25.433 14.3646C25.433 15.0741 26.0087 15.6498 26.7183 15.6498C27.4278 15.6498 28.0035 15.0741 28.0035 14.3646C28.0035 13.655 27.4278 13.0793 26.7183 13.0793V13.0798ZM15.5007 20.0816C15.5007 17.0441 17.9633 14.5815 21.0006 14.5814C24.0381 14.5814 26.5002 17.0441 26.5002 20.0816C26.5002 23.119 24.0384 25.5806 21.0009 25.5806C17.9634 25.5806 15.5007 23.119 15.5007 20.0816Z" fill="white"/>
<path d="M21.0008 16.5122C22.9724 16.5122 24.5709 18.1105 24.5709 20.0823C24.5709 22.0539 22.9724 23.6524 21.0008 23.6524C19.029 23.6524 17.4307 22.0539 17.4307 20.0823C17.4307 18.1105 19.029 16.5122 21.0008 16.5122Z" fill="white"/>
</svg>
