<svg width="97" height="109" viewBox="0 0 97 109" fill="none" xmlns="http://www.w3.org/2000/svg">
<path fill-rule="evenodd" clip-rule="evenodd" d="M41.0449 17.7158H55.7125V44.2898H41.0449V17.7158Z" fill="#9FACBA"/>
<path fill-rule="evenodd" clip-rule="evenodd" d="M52.8926 17.7158H55.7125V44.2898H52.8926V17.7158Z" fill="#8192A5"/>
<path fill-rule="evenodd" clip-rule="evenodd" d="M26.0332 15.2998H70.7263V23.9737C70.7263 25.1841 69.7391 26.1712 68.5287 26.1712H28.2308C27.0204 26.1712 26.0332 25.1841 26.0332 23.9737V15.2998Z" fill="#8192A5"/>
<path fill-rule="evenodd" clip-rule="evenodd" d="M68.5285 15.2998H70.7261V23.9737C70.7261 25.1841 69.7389 26.1712 68.5285 26.1712H28.2308C27.0204 26.1712 26.0332 25.1841 26.0332 23.9737L66.3311 23.9734C67.5416 23.9734 68.5287 22.9863 68.5287 21.7759V15.2998H68.5285Z" fill="#65788E"/>
<path fill-rule="evenodd" clip-rule="evenodd" d="M8.9925 0H87.7661C88.9765 0 89.9637 0.987154 89.9637 2.19758V9.80715C89.9637 15.2011 85.5505 19.6141 80.1565 19.6141H16.6018C11.2081 19.6141 6.79492 15.2009 6.79492 9.80715V2.19758C6.79492 0.987154 7.78208 0 8.9925 0Z" fill="#26DD9B"/>
<path fill-rule="evenodd" clip-rule="evenodd" d="M87.7664 0C88.9769 0 89.964 0.987154 89.964 2.19758V9.80715C89.964 15.2011 85.5508 19.6141 80.1569 19.6141H16.6022C13.3475 19.6141 10.4507 18.007 8.66406 15.5474C10.2806 16.7216 12.2652 17.4163 14.4044 17.4163H77.9591C83.353 17.4163 87.7662 13.0031 87.7662 7.60934V0H87.7664Z" fill="#74EE9B"/>
<path fill-rule="evenodd" clip-rule="evenodd" d="M11.0628 109H85.6955C86.906 109 87.8931 108.013 87.8931 106.803V94.6777H8.86523V106.803C8.86523 108.013 9.85261 109 11.0628 109Z" fill="#9FACBA"/>
<path fill-rule="evenodd" clip-rule="evenodd" d="M11.0628 109H85.6955C86.906 109 87.8931 108.013 87.8931 106.803V94.6777H85.6955V104.605C85.6955 105.816 84.7084 106.803 83.4979 106.803H8.86523C8.86523 108.013 9.85261 109 11.0628 109Z" fill="#8192A5"/>
<path fill-rule="evenodd" clip-rule="evenodd" d="M17.3279 38.1099H79.4305C82.7677 38.1099 85.5696 40.4197 86.2061 43.6959L96.7142 97.7825C96.8437 98.4493 96.6846 99.0756 96.2527 99.5995C95.8207 100.123 95.2361 100.399 94.5573 100.399H2.20109C1.52204 100.399 0.937483 100.124 0.505438 99.5995C0.0733938 99.0754 -0.0857115 98.4493 0.043726 97.7825L10.5521 43.6959C11.1885 40.42 13.9905 38.1099 17.3279 38.1099Z" fill="#26DD9B"/>
<path fill-rule="evenodd" clip-rule="evenodd" d="M79.272 38.1099H79.4303C82.7675 38.1099 85.5694 40.4197 86.2058 43.6959L96.714 97.7825C96.8434 98.4493 96.6843 99.0756 96.2525 99.5995C95.8205 100.123 95.2359 100.399 94.5571 100.399H2.20109C1.52204 100.399 0.937483 100.124 0.505438 99.5995C0.0733938 99.0754 -0.0857115 98.4493 0.043726 97.7825L0.389186 96.0038H87.9641C88.6432 96.0038 89.2275 95.7282 89.6596 95.2041C90.0916 94.68 90.2507 94.0539 90.121 93.3872L79.6129 39.3003C79.5327 38.8874 79.4179 38.4896 79.272 38.1099Z" fill="#74EE9B"/>
<path d="M68.0524 70.2851C68.6499 59.4315 60.3357 50.1485 49.4821 49.551C38.6285 48.9535 29.3455 57.2676 28.748 68.1212C28.1504 78.9748 36.4646 88.2578 47.3182 88.8554C58.1718 89.4529 67.4548 81.1388 68.0524 70.2851Z" fill="#ECEFF1"/>
<path fill-rule="evenodd" clip-rule="evenodd" d="M48.3789 49.583C48.7477 49.583 49.114 49.594 49.4777 49.614C39.1244 50.184 30.9046 58.759 30.9046 69.2547C30.9046 79.7503 39.1244 88.3253 49.4777 88.8953C49.114 88.9153 48.7477 88.9265 48.3789 88.9265C37.5145 88.9265 28.707 80.1193 28.707 69.2547C28.707 58.39 37.5145 49.583 48.3789 49.583Z" fill="#D1D1D6"/>
<path fill-rule="evenodd" clip-rule="evenodd" d="M48.3789 49.583C48.9716 49.583 49.5577 49.6107 50.137 49.6621V55.2591C50.137 56.23 49.3498 57.0172 48.3789 57.0172C47.408 57.0172 46.6208 56.23 46.6208 55.2591V49.6621C47.2001 49.6107 47.7862 49.583 48.3789 49.583ZM67.9717 67.4968C68.0231 68.0761 68.0508 68.6622 68.0508 69.2549C68.0508 69.8476 68.0231 70.4337 67.9717 71.0129H62.3746C61.4037 71.0129 60.6166 70.2258 60.6166 69.2549C60.6166 68.284 61.4037 67.4968 62.3746 67.4968H67.9717ZM50.137 88.8476C49.5577 88.8988 48.9716 88.9267 48.3789 88.9267C47.7862 88.9267 47.2001 88.8991 46.6208 88.8476V83.2506C46.6208 82.2797 47.408 81.4925 48.3789 81.4925C49.3498 81.4925 50.137 82.2797 50.137 83.2506V88.8476ZM28.7861 71.0129C28.7347 70.4337 28.707 69.8476 28.707 69.2549C28.707 68.6622 28.7347 68.0761 28.7861 67.4968H34.3829C35.3538 67.4968 36.141 68.284 36.141 69.2549C36.141 70.2258 35.3538 71.0129 34.3829 71.0129H28.7861ZM49.6219 70.4978C48.9353 71.1844 47.8223 71.1844 47.1357 70.4978C46.4492 69.8113 46.4492 68.6982 47.1357 68.0117L55.3261 59.8211C56.0126 59.1346 57.1257 59.1346 57.8122 59.8211C58.4988 60.5076 58.4988 61.6207 57.8122 62.3072L49.6219 70.4978Z" fill="#9FACBA"/>
<path fill-rule="evenodd" clip-rule="evenodd" d="M48.3797 65.6309C50.381 65.6309 52.0035 67.2533 52.0035 69.2547C52.0035 71.256 50.381 72.8783 48.3797 72.8783C46.3783 72.8783 44.7559 71.2558 44.7559 69.2547C44.7559 67.2533 46.3783 65.6309 48.3797 65.6309Z" fill="#74EE9B"/>
</svg>
