<svg width="17" height="17" viewBox="0 0 60 60" fill="none" xmlns="http://www.w3.org/2000/svg">
<g clip-path="url(#clip0_678_159)">
<path d="M19.2857 16.875V22.5H40.7143V16.875C40.7143 11.6953 35.9196 7.5 30 7.5C24.0804 7.5 19.2857 11.6953 19.2857 16.875ZM10.7143 22.5V16.875C10.7143 7.55859 19.3527 0 30 0C40.6473 0 49.2857 7.55859 49.2857 16.875V22.5H51.4286C56.1562 22.5 60 25.8633 60 30V52.5C60 56.6367 56.1562 60 51.4286 60H8.57143C3.84375 60 0 56.6367 0 52.5V30C0 25.8633 3.84375 22.5 8.57143 22.5H10.7143Z" fill="#B2B2B2"/>
</g>
<defs>
<clipPath id="clip0_678_159">
<rect width="60" height="60" fill="white"/>
</clipPath>
</defs>
</svg>
