<svg width="110" height="37" viewBox="0 0 110 37" fill="none" xmlns="http://www.w3.org/2000/svg">
<g clip-path="url(#clip0_688_146)">
<path fill-rule="evenodd" clip-rule="evenodd" d="M15.4339 36.6262C6.90979 36.6262 0 29.6281 0 20.9953C0 16.1336 2.19181 11.7905 5.62954 8.92358C-2.13301 29.163 20.4374 37.2 25.8142 23.4188C21.7084 25.1498 17.9548 25.0558 14.4939 23.4463C20.4221 21.967 25.7302 19.5345 29.7227 15.0779C30.4608 16.9035 30.8682 18.9011 30.8682 20.9953C30.8682 29.6281 23.958 36.6262 15.4339 36.6262Z" fill="#26DD9B"/>
<path fill-rule="evenodd" clip-rule="evenodd" d="M8.44329 24.8942C8.09637 16.931 10.7422 8.8865 20.9195 7.42528C15.6574 9.1043 11.9488 12.191 10.2717 16.9561C19.3792 16.9708 28.2892 15.1204 27.3192 0.126975C8.82327 -1.56309 1.21532 13.9855 8.44329 24.8942Z" fill="#26DD9B"/>
<path d="M36.9204 15.4472C36.9704 15.3248 37.0485 15.227 37.1546 15.1536C37.2607 15.0802 37.3827 15.0437 37.5204 15.0437H39.1139C39.4011 15.0437 39.6073 15.1785 39.7322 15.4472L44.1564 26.1806C44.2691 26.4497 44.2691 26.6639 44.1564 26.8227C44.0441 26.982 43.8375 27.0614 43.538 27.0614H42.1318C41.819 27.0614 41.6129 26.9271 41.5134 26.6579L40.7261 24.6945H35.9081L35.1209 26.6579C35.0709 26.7803 34.9928 26.8782 34.8867 26.9515C34.7805 27.025 34.6586 27.0614 34.5208 27.0614H33.0963C32.8086 27.0614 32.6091 26.982 32.4963 26.8227C32.3841 26.6639 32.3841 26.4497 32.4963 26.1806L36.9204 15.4472ZM36.8832 22.3092H39.7516L38.3271 18.7314L36.8832 22.3092Z" fill="#26DD9B"/>
<path d="M55.7607 19.2452C55.7607 20.0526 55.5357 20.7897 55.0857 21.4563C54.6356 22.1229 53.9545 22.6337 53.0422 22.9883L55.2545 26.0522C55.4668 26.3584 55.5265 26.6025 55.4326 26.7863C55.3387 26.9695 55.0979 27.0614 54.7107 27.0614H53.0795C52.8545 27.0614 52.6795 26.9695 52.5544 26.7863L50.1171 23.4472H48.2425V26.4192C48.2425 26.615 48.1829 26.7708 48.0645 26.8871C47.9461 27.0035 47.7864 27.0614 47.5864 27.0614H46.1991C45.9991 27.0614 45.8399 27.0035 45.721 26.8871C45.6022 26.7708 45.543 26.615 45.543 26.4192V15.6859C45.543 15.4901 45.6022 15.3343 45.721 15.218C45.8399 15.1017 45.9991 15.0437 46.1991 15.0437H50.4549C51.2921 15.0437 52.0391 15.1536 52.6953 15.3738C53.3514 15.594 53.9075 15.8906 54.3637 16.2636C54.8198 16.6371 55.1668 17.08 55.4041 17.5938C55.6413 18.1077 55.7607 18.658 55.7607 19.2452ZM53.0611 19.2452C53.0611 18.6704 52.8111 18.224 52.311 17.9059C51.8111 17.5879 51.1488 17.4291 50.3237 17.4291H48.2425V21.0618H50.3237C51.1488 21.0618 51.8111 20.903 52.311 20.585C52.8106 20.2669 53.0611 19.82 53.0611 19.2452Z" fill="#26DD9B"/>
<path d="M62.2463 14.5664C63.3457 14.5664 64.3084 14.7162 65.1331 15.0159C65.9584 15.316 66.7077 15.8078 67.3828 16.4929C67.5201 16.6277 67.5827 16.7745 67.5698 16.9333C67.557 17.0926 67.4822 17.2394 67.3448 17.3737L66.2951 18.291C66.17 18.4009 66.0198 18.4563 65.845 18.4563C65.682 18.4563 65.52 18.3894 65.3575 18.2546C64.9577 17.8876 64.5077 17.579 64.0074 17.3278C63.5076 17.0771 62.9202 16.9518 62.2452 16.9518C61.5332 16.9518 60.948 17.0407 60.4924 17.2179C60.0368 17.3952 59.7894 17.7163 59.7526 18.1812C59.7274 18.4379 59.824 18.6521 60.0429 18.8233C60.2612 18.9946 60.5583 19.1474 60.9335 19.2822C61.3088 19.4171 61.7398 19.5389 62.2267 19.6492C62.7142 19.7591 63.2111 19.8849 63.717 20.0252C64.2235 20.166 64.7204 20.3314 65.2073 20.5206C65.6948 20.7103 66.1292 20.949 66.5106 21.2361C66.892 21.5238 67.1918 21.8693 67.4107 22.2728C67.629 22.6763 67.7262 23.1656 67.7016 23.7403C67.6888 24.3156 67.5486 24.8319 67.2795 25.2908C67.0109 25.7497 66.639 26.1377 66.1644 26.4558C65.6892 26.7738 65.1269 27.0155 64.477 27.1803C63.827 27.3456 63.1145 27.428 62.3395 27.428C61.2898 27.428 60.3271 27.2782 59.4527 26.9786C58.5777 26.679 57.8156 26.1806 57.1656 25.483C57.0405 25.3487 56.9841 25.2049 56.9964 25.0521C57.0087 24.8993 57.0841 24.7615 57.2215 24.6392L58.2902 23.7034C58.4153 23.5811 58.5649 23.5201 58.7402 23.5201C58.8899 23.5201 59.0462 23.5875 59.2087 23.7218C59.6213 24.1014 60.0742 24.416 60.5684 24.6666C61.0614 24.9173 61.6522 25.0426 62.3395 25.0426C62.6891 25.0426 63.0112 25.0152 63.305 24.9602C63.5981 24.9053 63.8583 24.8224 64.0833 24.7126C64.3084 24.6027 64.4859 24.4739 64.6171 24.3271C64.7484 24.1803 64.8204 24.015 64.8332 23.8317C64.8584 23.5751 64.7578 23.3638 64.5328 23.1986C64.3084 23.0333 64.0079 22.8865 63.6333 22.7581C63.258 22.6298 62.827 22.5135 62.3395 22.4096C61.8526 22.3058 61.3557 22.1864 60.8492 22.0516C60.3433 21.9173 59.8464 21.7579 59.3589 21.5747C58.8714 21.3915 58.4404 21.1528 58.0657 20.8592C57.6905 20.5655 57.3934 20.211 57.1751 19.795C56.9562 19.3796 56.8596 18.8718 56.8847 18.272C56.897 17.6973 57.0377 17.1805 57.3069 16.7216C57.5755 16.2627 57.944 15.8747 58.413 15.5566C58.8821 15.2385 59.441 14.9944 60.0909 14.8226C60.7409 14.6513 61.4595 14.5659 62.2468 14.5659L62.2463 14.5664Z" fill="#26DD9B"/>
<path d="M74.6195 14.5664C75.7189 14.5664 76.6815 14.7162 77.5063 15.0159C78.331 15.316 79.0809 15.8078 79.7554 16.4929C79.8928 16.6277 79.9559 16.7745 79.943 16.9333C79.9302 17.0926 79.8553 17.2394 79.718 17.3737L78.6677 18.291C78.5426 18.4009 78.393 18.4563 78.2176 18.4563C78.0551 18.4563 77.8927 18.3894 77.7307 18.2546C77.3304 17.8876 76.8803 17.579 76.3806 17.3278C75.8803 17.0771 75.2934 16.9518 74.6183 16.9518C73.9059 16.9518 73.3212 17.0407 72.8656 17.2179C72.4094 17.3952 72.1626 17.7163 72.1252 18.1812C72.1001 18.4379 72.1972 18.6521 72.4161 18.8233C72.6344 18.9946 72.9315 19.1474 73.3067 19.2822C73.6814 19.4171 74.1125 19.5389 74.5999 19.6492C75.0874 19.7591 75.5843 19.8849 76.0902 20.0252C76.5961 20.166 77.0931 20.3314 77.5805 20.5206C78.068 20.7103 78.5018 20.949 78.8838 21.2361C79.2646 21.5238 79.565 21.8693 79.7839 22.2728C80.0022 22.6763 80.0988 23.1656 80.0748 23.7403C80.0619 24.3156 79.9212 24.8319 79.6527 25.2908C79.3835 25.7497 79.0116 26.1377 78.537 26.4558C78.0624 26.7738 77.5001 27.0155 76.8502 27.1803C76.1997 27.3456 75.4877 27.428 74.7127 27.428C73.6624 27.428 72.7003 27.2782 71.8259 26.9786C70.9509 26.679 70.1887 26.1806 69.5382 25.483C69.4137 25.3487 69.3573 25.2049 69.3696 25.0521C69.3819 24.8993 69.4567 24.7615 69.5946 24.6392L70.6628 23.7034C70.7879 23.5811 70.9381 23.5201 71.1129 23.5201C71.2631 23.5201 71.4194 23.5875 71.5819 23.7218C71.994 24.1014 72.4474 24.416 72.941 24.6666C73.4346 24.9173 74.0253 25.0426 74.7127 25.0426C75.0622 25.0426 75.3839 25.0152 75.6781 24.9602C75.9713 24.9053 76.2309 24.8224 76.456 24.7126C76.681 24.6027 76.8591 24.4739 76.9903 24.3271C77.1215 24.1803 77.1936 24.015 77.2059 23.8317C77.231 23.5751 77.131 23.3638 76.906 23.1986C76.681 23.0333 76.3811 22.8865 76.0059 22.7581C75.6312 22.6298 75.2002 22.5135 74.7127 22.4096C74.2252 22.3058 73.7283 22.1864 73.2224 22.0516C72.716 21.9173 72.219 21.7579 71.7321 21.5747C71.2446 21.3915 70.8136 21.1528 70.4383 20.8592C70.0637 20.5655 69.7666 20.211 69.5483 19.795C69.3294 19.3796 69.2323 18.8718 69.2579 18.272C69.2702 17.6973 69.4109 17.1805 69.6801 16.7216C69.9481 16.2627 70.3172 15.8747 70.7862 15.5566C71.2547 15.2385 71.8142 14.9944 72.4641 14.8226C73.1135 14.6513 73.8327 14.5659 74.62 14.5659L74.6195 14.5664Z" fill="#26DD9B"/>
<path d="M81.6875 15.6859C81.6875 15.4901 81.7467 15.3343 81.8656 15.218C81.9846 15.1017 82.1437 15.0437 82.3436 15.0437H83.7312C83.9311 15.0437 84.0902 15.1022 84.2091 15.218C84.3281 15.3343 84.3873 15.4901 84.3873 15.6859V21.5387C84.3873 22.1259 84.4308 22.6427 84.5185 23.0891C84.6056 23.5355 84.7647 23.912 84.9964 24.2176C85.2276 24.5238 85.5425 24.7529 85.9434 24.9057C86.3432 25.059 86.8497 25.1349 87.4617 25.1349C88.0742 25.1349 88.5957 25.0585 88.9899 24.9057C89.3836 24.7529 89.6929 24.5267 89.918 24.2267C90.143 23.927 90.2988 23.551 90.387 23.0982C90.4741 22.6457 90.5177 22.1259 90.5177 21.5387V15.6859C90.5177 15.4901 90.5768 15.3343 90.6958 15.218C90.8147 15.1017 90.9738 15.0437 91.1743 15.0437H92.5613C92.7612 15.0437 92.9203 15.1022 93.0393 15.218C93.1582 15.3343 93.2174 15.4901 93.2174 15.6859V22.2358C93.2174 22.9084 93.0985 23.5386 92.8612 24.1257C92.6238 24.713 92.2676 25.2238 91.793 25.6578C91.3178 26.0922 90.7209 26.4347 90.0028 26.6854C89.2836 26.9361 88.4371 27.0614 87.4622 27.0614C86.4873 27.0614 85.6408 26.9361 84.9216 26.6854C84.203 26.4347 83.6027 26.0922 83.1225 25.6578C82.6412 25.2238 82.2816 24.713 82.0443 24.1257C81.8064 23.5386 81.6881 22.9089 81.6881 22.2358V15.6859H81.6875Z" fill="#26DD9B"/>
<path d="M95.9354 27.0614C95.7355 27.0614 95.5758 27.0035 95.4574 26.8871C95.3385 26.7708 95.2793 26.615 95.2793 26.4192V15.6859C95.2793 15.4901 95.3385 15.3343 95.4574 15.218C95.5758 15.1017 95.7355 15.0437 95.9354 15.0437H97.4536C97.7038 15.0437 97.8908 15.1476 98.0159 15.3558L102.44 22.6767L106.864 15.3558C106.989 15.1481 107.177 15.0437 107.426 15.0437H108.926C109.126 15.0437 109.285 15.1022 109.404 15.218C109.523 15.3343 109.582 15.4901 109.582 15.6859V26.4192C109.582 26.615 109.522 26.7708 109.404 26.8871C109.286 27.0035 109.126 27.0614 108.926 27.0614H107.538C107.339 27.0614 107.179 27.0035 107.06 26.8871C106.942 26.7708 106.882 26.615 106.882 26.4192V20.3647L103.433 26.0892C103.308 26.2974 103.12 26.4012 102.87 26.4012H102.008C101.758 26.4012 101.571 26.2974 101.446 26.0892L97.9779 20.3647V26.4192C97.9779 26.615 97.9187 26.7708 97.8004 26.8871C97.682 27.0035 97.5223 27.0614 97.3218 27.0614H95.9354Z" fill="#26DD9B"/>
</g>
<defs>
<clipPath id="clip0_688_146">
<rect width="110" height="37" fill="white"/>
</clipPath>
</defs>
</svg>
