<svg width="168.7" height="56" viewBox="0 0 241 80" fill="none" xmlns="http://www.w3.org/2000/svg">
<path fill-rule="evenodd" clip-rule="evenodd" d="M33.8458 80C15.1529 80 0 64.7144 0 45.8586C0 35.2395 4.80654 25.7531 12.3453 19.4912C-4.67758 63.6985 44.8181 81.2534 56.6091 51.1521C47.6054 54.9328 39.374 54.7274 31.7845 51.2121C44.7848 47.981 56.4251 42.6678 65.1804 32.9336C66.799 36.9211 67.6923 41.2843 67.6923 45.8586C67.6923 64.7144 52.5387 80 33.8458 80Z" fill="white"/>
<path fill-rule="evenodd" clip-rule="evenodd" d="M18.5169 54.3744C17.7561 36.9811 23.5582 19.4101 45.8766 16.2185C34.337 19.8859 26.2042 26.6279 22.5264 37.0359C42.4989 37.068 62.0381 33.0265 59.9108 0.277344C19.3501 -3.41415 2.66628 30.5474 18.5169 54.3744Z" fill="white"/>
<path d="M80.9646 33.7405C81.0743 33.4733 81.2454 33.2595 81.4782 33.0992C81.7109 32.9388 81.9783 32.8592 82.2804 32.8592H85.7747C86.4046 32.8592 86.8567 33.1537 87.1308 33.7405L96.8327 57.1846C97.0799 57.7724 97.0799 58.2403 96.8327 58.5872C96.5865 58.9351 96.1334 59.1085 95.4766 59.1085H92.3929C91.707 59.1085 91.255 58.8151 91.0368 58.2273L89.3104 53.9387H78.7447L77.0183 58.2273C76.9086 58.4945 76.7374 58.7083 76.5047 58.8686C76.272 59.0289 76.0046 59.1085 75.7025 59.1085H72.5785C71.9475 59.1085 71.51 58.9351 71.2627 58.5872C71.0166 58.2403 71.0166 57.7724 71.2627 57.1846L80.9646 33.7405ZM80.8829 48.7285H87.1733L84.0494 40.9139L80.884 48.7285H80.8829Z" fill="white"/>
<path d="M122.281 42.0362C122.281 43.7998 121.787 45.4096 120.8 46.8657C119.814 48.3217 118.32 49.4375 116.319 50.2119L121.171 56.9043C121.636 57.5729 121.767 58.1062 121.561 58.5076C121.355 58.9078 120.827 59.1085 119.978 59.1085H116.401C115.908 59.1085 115.524 58.9078 115.25 58.5076L109.905 51.2142H105.794V57.7059C105.794 58.1335 105.663 58.4737 105.403 58.7279C105.144 58.982 104.794 59.1085 104.355 59.1085H101.313C100.874 59.1085 100.525 58.982 100.264 58.7279C100.004 58.4737 99.8738 58.1335 99.8738 57.7059V34.2618C99.8738 33.8343 100.004 33.494 100.264 33.2398C100.525 32.9857 100.874 32.8592 101.313 32.8592H110.645C112.482 32.8592 114.12 33.0992 115.558 33.5801C116.997 34.0611 118.217 34.709 119.217 35.5237C120.218 36.3396 120.978 37.307 121.499 38.4293C122.019 39.5516 122.28 40.7535 122.28 42.0362H122.281ZM116.361 42.0362C116.361 40.7808 115.812 39.8057 114.716 39.111C113.619 38.4162 112.167 38.0694 110.358 38.0694H105.794V46.004H110.358C112.167 46.004 113.619 45.6572 114.716 44.9625C115.811 44.2677 116.361 43.2926 116.361 42.0372V42.0362Z" fill="white"/>
<path d="M136.505 31.8165C138.916 31.8165 141.028 32.1437 142.836 32.7981C144.645 33.4536 146.289 34.5279 147.769 36.0243C148.07 36.3188 148.208 36.6395 148.18 36.9863C148.152 37.3343 147.987 37.6549 147.686 37.9483L145.384 39.9519C145.11 40.1918 144.781 40.3129 144.397 40.3129C144.04 40.3129 143.684 40.1667 143.328 39.8723C142.451 39.0706 141.464 38.3966 140.368 37.8479C139.271 37.3004 137.983 37.0267 136.503 37.0267C134.941 37.0267 133.659 37.2208 132.66 37.608C131.659 37.9952 131.118 38.6965 131.036 39.7119C130.981 40.2725 131.194 40.7404 131.674 41.1145C132.153 41.4886 132.804 41.8224 133.626 42.1169C134.449 42.4114 135.394 42.6775 136.463 42.9185C137.531 43.1585 138.621 43.4333 139.731 43.7398C140.841 44.0474 141.931 44.4084 142.999 44.8217C144.068 45.2362 145.02 45.7575 145.857 46.3847C146.693 47.0129 147.351 47.7677 147.831 48.6489C148.31 49.5302 148.522 50.5991 148.468 51.8544C148.44 53.1109 148.133 54.2387 147.543 55.241C146.953 56.2433 146.138 57.0908 145.097 57.7855C144.056 58.4803 142.822 59.0082 141.397 59.3681C139.972 59.7291 138.41 59.9091 136.71 59.9091C134.407 59.9091 132.297 59.5819 130.379 58.9275C128.46 58.2731 126.789 57.1846 125.363 55.6609C125.089 55.3675 124.966 55.0534 124.993 54.7196C125.02 54.3859 125.184 54.0849 125.486 53.8177L127.829 51.7737C128.103 51.5065 128.432 51.3734 128.816 51.3734C129.145 51.3734 129.488 51.5207 129.844 51.8141C130.749 52.643 131.742 53.3301 132.825 53.8776C133.907 54.4252 135.203 54.6989 136.71 54.6989C137.476 54.6989 138.182 54.6389 138.827 54.519C139.47 54.399 140.04 54.2179 140.533 53.978C141.027 53.738 141.417 53.4566 141.705 53.136C141.992 52.8153 142.15 52.4543 142.178 52.054C142.233 51.4934 142.014 51.0321 141.52 50.6711C141.027 50.31 140.369 49.9894 139.546 49.7091C138.724 49.4288 137.779 49.1746 136.71 48.9478C135.641 48.7209 134.552 48.4602 133.442 48.1658C132.332 47.8724 131.242 47.5244 130.173 47.1242C129.105 46.7239 128.159 46.2025 127.337 45.5612C126.515 44.9199 125.863 44.1455 125.385 43.237C124.905 42.3295 124.692 41.2203 124.748 39.9104C124.775 38.655 125.084 37.5262 125.673 36.5239C126.262 35.5216 127.071 34.6741 128.099 33.9793C129.127 33.2846 130.354 32.7512 131.779 32.376C133.203 32.0019 134.78 31.8154 136.506 31.8154L136.505 31.8165Z" fill="white"/>
<path d="M163.638 31.8165C166.049 31.8165 168.161 32.1437 169.969 32.7981C171.778 33.4536 173.422 34.5279 174.902 36.0243C175.203 36.3188 175.341 36.6395 175.313 36.9863C175.285 37.3343 175.12 37.6549 174.819 37.9483L172.517 39.9519C172.243 40.1918 171.914 40.3129 171.53 40.3129C171.173 40.3129 170.817 40.1667 170.461 39.8723C169.584 39.0706 168.597 38.3966 167.501 37.8479C166.404 37.3004 165.116 37.0267 163.636 37.0267C162.074 37.0267 160.792 37.2208 159.793 37.608C158.792 37.9952 158.251 38.6965 158.169 39.7119C158.114 40.2725 158.327 40.7404 158.807 41.1145C159.286 41.4886 159.937 41.8224 160.759 42.1169C161.582 42.4114 162.527 42.6775 163.596 42.9185C164.664 43.1585 165.754 43.4333 166.864 43.7398C167.974 44.0474 169.064 44.4084 170.132 44.8217C171.201 45.2362 172.153 45.7575 172.99 46.3847C173.826 47.0129 174.484 47.7677 174.964 48.6489C175.443 49.5302 175.655 50.5991 175.601 51.8544C175.573 53.1109 175.266 54.2387 174.676 55.241C174.086 56.2433 173.271 57.0908 172.23 57.7855C171.189 58.4803 169.956 59.0082 168.53 59.3681C167.105 59.7291 165.543 59.9091 163.843 59.9091C161.54 59.9091 159.43 59.5819 157.512 58.9275C155.593 58.2731 153.922 57.1846 152.496 55.6609C152.222 55.3675 152.099 55.0534 152.126 54.7196C152.153 54.3859 152.317 54.0849 152.619 53.8177L154.962 51.7737C155.237 51.5065 155.565 51.3734 155.949 51.3734C156.278 51.3734 156.621 51.5207 156.978 51.8141C157.882 52.643 158.875 53.3301 159.958 53.8776C161.04 54.4252 162.336 54.6989 163.843 54.6989C164.61 54.6989 165.316 54.6389 165.96 54.519C166.603 54.399 167.173 54.2179 167.666 53.978C168.16 53.738 168.55 53.4566 168.838 53.136C169.125 52.8153 169.283 52.4543 169.311 52.054C169.366 51.4934 169.147 51.0321 168.653 50.6711C168.16 50.31 167.502 49.9894 166.679 49.7091C165.857 49.4288 164.912 49.1746 163.843 48.9478C162.775 48.7209 161.685 48.4602 160.575 48.1658C159.465 47.8724 158.375 47.5244 157.307 47.1242C156.238 46.7239 155.293 46.2025 154.47 45.5612C153.648 44.9199 152.997 44.1455 152.518 43.237C152.038 42.3295 151.825 41.2203 151.881 39.9104C151.908 38.655 152.217 37.5262 152.806 36.5239C153.395 35.5216 154.204 34.6741 155.232 33.9793C156.26 33.2846 157.487 32.7512 158.912 32.376C160.336 32.0019 161.913 31.8154 163.639 31.8154L163.638 31.8165Z" fill="white"/>
<path d="M179.137 34.2618C179.137 33.8343 179.267 33.494 179.528 33.2398C179.788 32.9857 180.137 32.8592 180.576 32.8592H183.618C184.057 32.8592 184.406 32.9868 184.667 33.2398C184.927 33.494 185.057 33.8343 185.057 34.2618V47.0456C185.057 48.3283 185.153 49.4571 185.345 50.4322C185.536 51.4073 185.885 52.2296 186.393 52.8971C186.9 53.5657 187.591 54.0663 188.47 54.4001C189.347 54.7349 190.457 54.9007 191.8 54.9007C193.142 54.9007 194.287 54.7338 195.151 54.4001C196.014 54.0663 196.692 53.5723 197.186 52.9168C197.679 52.2624 198.022 51.4411 198.214 50.4518C198.405 49.4637 198.502 48.3283 198.502 47.0456V34.2618C198.502 33.8343 198.632 33.494 198.892 33.2398C199.153 32.9857 199.502 32.8592 199.941 32.8592H202.983C203.421 32.8592 203.771 32.9868 204.031 33.2398C204.292 33.494 204.422 33.8343 204.422 34.2618V48.5682C204.422 50.0374 204.161 51.4138 203.641 52.6964C203.119 53.9791 202.338 55.0948 201.298 56.0426C200.256 56.9915 198.947 57.7397 197.372 58.2872C195.795 58.8348 193.939 59.1085 191.801 59.1085C189.663 59.1085 187.806 58.8348 186.23 58.2872C184.653 57.7397 183.337 56.9915 182.283 56.0426C181.228 55.0948 180.439 53.9791 179.919 52.6964C179.398 51.4138 179.138 50.0385 179.138 48.5682V34.2618H179.137Z" fill="white"/>
<path d="M210.382 59.1085C209.943 59.1085 209.594 58.982 209.334 58.7279C209.073 58.4737 208.943 58.1335 208.943 57.7059V34.2618C208.943 33.8343 209.073 33.494 209.334 33.2398C209.594 32.9857 209.943 32.8592 210.382 32.8592H213.712C214.26 32.8592 214.671 33.0861 214.945 33.5409L224.647 49.5313L234.349 33.5409C234.623 33.0872 235.033 32.8592 235.582 32.8592H238.87C239.309 32.8592 239.658 32.9868 239.918 33.2398C240.179 33.494 240.309 33.8343 240.309 34.2618V57.7059C240.309 58.1335 240.178 58.4737 239.918 58.7279C239.659 58.982 239.309 59.1085 238.87 59.1085H235.828C235.389 59.1085 235.04 58.982 234.779 58.7279C234.519 58.4737 234.389 58.1335 234.389 57.7059V44.4815L226.824 56.985C226.55 57.4398 226.138 57.6666 225.591 57.6666H223.7C223.152 57.6666 222.74 57.4398 222.467 56.985L214.862 44.4815V57.7059C214.862 58.1335 214.731 58.4737 214.472 58.7279C214.212 58.982 213.862 59.1085 213.423 59.1085H210.381H210.382Z" fill="white"/>
</svg>
