<svg width="60" height="60" viewBox="0 0 60 60" fill="none" xmlns="http://www.w3.org/2000/svg">
<g clip-path="url(#clip0_952_211)">
<path d="M16.4666 5.47326C7.37235 5.47326 -1.67595e-06 12.8456 -1.07967e-06 21.9399C-4.83384e-07 31.0341 7.37236 38.4065 16.4666 38.4065C25.5609 38.4065 32.9332 31.0341 32.9332 21.9399C32.9332 12.8456 25.5609 5.47326 16.4666 5.47326Z" fill="#74EE9B"/>
<path d="M26.1857 26.3201L17.035 13.8578C16.6304 13.3069 15.9747 13.3069 15.5701 13.8578L6.41871 26.3201C5.76624 27.2087 6.22841 28.7275 7.1508 28.7275L25.453 28.7275C26.3754 28.7275 26.8375 27.2087 26.1851 26.3201L26.1857 26.3201Z" fill="white"/>
<path d="M43.5334 46.5272C52.6276 46.5272 60 39.1549 60 30.0606C60 20.9663 52.6276 13.594 43.5334 13.594C34.4391 13.594 27.0668 20.9663 27.0668 30.0606C27.0668 39.1549 34.4391 46.5272 43.5334 46.5272Z" fill="#26DD9B"/>
<path d="M33.8143 25.6804L42.965 38.1426C43.3696 38.6936 44.0253 38.6936 44.4299 38.1426L53.5813 25.6804C54.2338 24.7918 53.7716 23.2729 52.8492 23.2729L34.547 23.2729C33.6246 23.2729 33.1625 24.7918 33.8149 25.6804L33.8143 25.6804Z" fill="white"/>
</g>
<defs>
<clipPath id="clip0_952_211">
<rect width="60" height="60" fill="white"/>
</clipPath>
</defs>
</svg>
