<svg width="32" height="35" viewBox="0 0 32 35" fill="none" xmlns="http://www.w3.org/2000/svg">
<path d="M29.9102 26.1964C31.2398 23.8632 32 21.1634 32 18.2859C32 9.44932 24.8366 2.28589 16 2.28589C7.16343 2.28589 0 9.44932 0 18.2859C0 21.1634 0.760157 23.8632 2.08984 26.1964H29.9102Z" fill="#41E39B"/>
<path d="M14.334 34.1999C14.8817 34.2566 15.4375 34.286 16.0003 34.286C16.5698 34.286 17.1322 34.2557 17.6864 34.1976V25.4697H14.334L14.334 34.1999Z" fill="#73C3F9"/>
<path d="M17.6864 25.4697H14.334V27.4858C14.8645 27.6618 15.4261 27.7554 16.0004 27.7554C16.5818 27.7554 17.1501 27.6594 17.6863 27.4792V25.4697H17.6864Z" fill="#49B1F7"/>
<path d="M19.71 23.9899L21.2893 21.5509C20.9618 21.4498 20.6286 21.3594 20.2879 21.2808C19.625 20.6178 19.4569 19.3609 19.4266 18.4814C19.0806 18.8844 18.7175 19.2216 18.3706 19.4909C17.6945 20.0159 16.8603 20.3011 16.0011 20.3011C15.142 20.3011 14.3078 20.0159 13.6318 19.4909C13.2848 19.2216 12.9217 18.8844 12.5757 18.4814C12.5454 19.3609 12.3773 20.6178 11.7144 21.2808C11.373 21.3595 11.0392 21.4502 10.7109 21.5515L12.2892 23.9895C13.1039 25.2479 14.5007 26.0076 15.9997 26.0076C17.4986 26.0077 18.8954 25.2481 19.71 23.9899Z" fill="#FFAA7B"/>
<path d="M13.6318 19.4909C13.2848 19.2215 12.9217 18.8844 12.5757 18.4814C12.5454 19.3609 12.3773 20.6178 11.7144 21.2808C11.373 21.3595 11.0392 21.4502 10.7109 21.5515L11.8048 23.2413C12.5748 23.5883 13.3996 23.766 14.1017 23.4779C15.6177 22.8557 15.9298 21.0781 15.9934 20.301C15.137 20.2992 14.3057 20.0144 13.6318 19.4909Z" fill="#FC9460"/>
<path d="M13.0106 22.4443C12.9386 22.4635 12.8644 22.4869 12.7884 22.5158C12.2554 22.7188 11.5413 23.2311 11.1387 24.519C10.7496 24.5256 8.97221 24.6196 7.81166 25.7622C7.15129 26.4124 6.81641 27.2853 6.81641 28.3566V31.3885C9.06318 32.9658 11.7339 33.9802 14.624 34.2263V23.265L13.0106 22.4443Z" fill="#6C5475"/>
<path d="M11.0547 21.4492C4.93697 23.4441 3.19214 23.8008 2.45542 25.3035C2.32455 25.5704 2.20302 25.8706 2.08984 26.1963C3.28415 28.292 4.93847 30.0912 6.91521 31.4571C6.91521 30.6263 6.91521 29.5945 6.91521 28.3566C6.91521 24.5498 11.2122 24.6167 11.2122 24.6167C11.6599 23.1112 12.5236 22.6447 13.146 22.5128L11.0547 21.4492Z" fill="#56415E"/>
<path d="M29.9102 26.1963C29.797 25.8706 29.6755 25.5704 29.5446 25.3035C28.808 23.8008 27.0631 23.4441 20.9453 21.4492L18.8398 22.52V34.0345C23.5852 33.1845 27.6045 30.2421 29.9102 26.1963Z" fill="#6C5475"/>
<path d="M22.2319 11.1732C22.6567 9.44112 23.0035 6.84575 22.0852 4.68623C20.3093 0.510325 15.4763 0.76776 14.1955 0.914828C14.061 0.93024 13.9936 1.08364 14.07 1.19525C14.8378 2.31602 11.83 1.30059 10.1952 4.72978C9.15905 6.90309 9.41942 9.46189 9.79819 11.1733L22.2319 11.1732Z" fill="#56415E"/>
<path d="M15.9295 5.4505C15.9295 5.4505 15.448 4.34331 16.6672 3.42904C17.8848 2.51593 16.0697 0.875391 16.065 0.871146C15.2484 0.819424 14.5699 0.871669 14.1955 0.914705C14.061 0.930117 13.9936 1.08352 14.07 1.19513C14.8378 2.3159 11.83 1.30047 10.1952 4.72966C9.15905 6.90297 9.41942 9.46177 9.79819 11.1732H12.6404L13.5431 10.8145L15.9295 5.4505Z" fill="#45304C"/>
<path d="M22.482 10.9538C22.2141 10.7083 21.615 10.8328 21.3843 10.9831C21.4348 11.2979 21.4377 11.62 21.394 11.9381L21.1217 13.9215C21.1217 14.0814 21.1167 14.2383 21.1074 14.3924C21.7715 14.5927 22.1667 13.9965 22.2223 13.5874C22.2462 13.4112 22.2853 13.2376 22.3395 13.0682C22.5161 12.5167 23.1534 11.5691 22.482 10.9538Z" fill="#FFAA7B"/>
<path d="M9.51749 10.9538C9.78544 10.7083 10.3845 10.8328 10.6153 10.9831C10.5647 11.2979 10.5619 11.62 10.6055 11.9381L10.8779 13.9215C10.8779 14.0814 10.8829 14.2383 10.8922 14.3924C10.2281 14.5927 9.83291 13.9965 9.77734 13.5874C9.75344 13.4112 9.71432 13.2376 9.66005 13.0682C9.4834 12.5167 8.84615 11.5691 9.51749 10.9538Z" fill="#FC9460"/>
<path d="M21.0501 9.89564C20.7483 9.42223 20.8483 9.03556 20.8532 8.5828C20.8532 8.5828 21.1078 6.49844 18.5407 5.75833C17.7975 5.54406 16.7488 5.41593 15.6742 5.45714C14.9263 5.98435 14.4339 6.75796 14.4339 7.85418C14.4339 8.35808 14.5425 8.75174 14.2334 9.26256C13.8999 9.81342 13.706 10.608 13.8161 11.453L14.0936 13.5813C14.0936 16.6409 15.6445 18.7206 16.9637 19.7995C17.1514 19.953 17.3517 20.0857 17.5606 20.1999C17.8475 20.0736 18.1196 19.9123 18.3698 19.7179C19.6649 18.7122 21.1874 16.7736 21.1874 13.9215L21.4597 11.938C21.567 11.1566 21.3808 10.4144 21.0501 9.89564Z" fill="#FFC7AB"/>
<path d="M16.9762 19.6747C15.6811 18.6156 14.1586 16.574 14.1586 13.5703L13.8862 11.481C13.778 10.6514 13.9685 9.87137 14.2958 9.33057C14.5993 8.82909 14.4927 8.44261 14.4927 7.94792C14.4927 6.76765 15.0731 5.96727 15.9293 5.45044C13.6477 5.48198 11.1467 6.25533 11.1467 8.58263C11.1467 9.0523 11.2533 9.41932 10.9498 9.89553C10.6225 10.409 10.432 11.1497 10.5402 11.9374L10.8126 13.9214C10.8126 16.7735 12.335 18.7121 13.6302 19.7178C14.3062 20.2427 15.1404 20.5279 15.9995 20.5279C16.5906 20.5279 17.1698 20.3929 17.6938 20.1378C17.4406 20.012 17.1996 19.8574 16.9762 19.6747Z" fill="#FFAA7B"/>
<path d="M17.375 34.2267C17.9767 34.1755 18.569 34.0913 19.1499 33.9753V22.4871L17.375 23.2652V34.2267Z" fill="#876D93"/>
<path d="M21.7224 21.2802C21.1691 20.6766 20.5207 20.166 19.8021 19.7693C19.7269 19.7279 19.6335 19.7713 19.6164 19.8553C19.5109 20.3718 19.0731 21.9365 17.5106 22.9709C17.1878 23.1847 17.1283 23.6346 17.383 23.9262L18.953 25.7245C19.3307 26.1595 20.0262 26.0812 20.2988 25.5737C20.7597 24.7156 21.4019 23.4095 21.8772 22.0053C21.9623 21.7539 21.9018 21.4758 21.7224 21.2802Z" fill="#A98BBC"/>
<path d="M14.491 22.9708C14.2113 22.7856 13.9683 22.5833 13.7561 22.3732C13.5663 22.3579 13.2025 22.3588 12.7898 22.5159C12.2612 22.7171 11.5547 23.223 11.1504 24.4876C11.3472 24.8966 11.5368 25.2644 11.7029 25.5735C11.9755 26.0811 12.671 26.1594 13.0487 25.7243L14.6187 23.9261C14.8733 23.6344 14.8138 23.1845 14.491 22.9708Z" fill="#876D93"/>
<path d="M13.8743 22.487C12.8075 21.5004 12.4747 20.2962 12.3848 19.8554C12.3676 19.7713 12.2741 19.7279 12.199 19.7693C11.4804 20.166 10.832 20.6765 10.2787 21.2802C10.0993 21.4758 10.0388 21.7539 10.1239 22.0053C10.4462 22.9575 10.845 23.864 11.2123 24.6168C11.961 22.0988 13.8741 22.487 13.8743 22.487Z" fill="#6C5475"/>
<path d="M26.3253 6.06421C25.5815 7.02009 24.8093 8.41821 24.8093 10.1039C24.8093 13.3555 20.7604 18.7063 24.8093 19.7533C28.1379 20.6141 29.9758 20.9976 31.2461 23.153C31.7358 21.6183 32.0004 19.9831 32.0004 18.286C32.0004 13.3847 29.7959 8.99917 26.3253 6.06421Z" fill="#26DD9B"/>
<path d="M5.67506 6.06421C6.41882 7.02009 7.19106 8.41821 7.19106 10.1039C7.19106 13.3555 11.24 18.7063 7.19106 19.7533C3.86243 20.6141 2.02447 20.9976 0.754345 23.153C0.264618 21.6183 0 19.9831 0 18.286C0 13.3847 2.20446 8.99917 5.67506 6.06421Z" fill="#26DD9B"/>
<path d="M27.8598 29.0237C27.5432 27.7149 26.736 26.9591 26.083 26.5463C25.6748 26.2882 25.1426 26.5787 25.1426 27.0617V31.4168C26.1367 30.7232 27.0482 29.9196 27.8598 29.0237Z" fill="#56415E"/>
</svg>
