<svg width="65" height="65" viewBox="0 0 65 65" fill="none" xmlns="http://www.w3.org/2000/svg">
<path d="M64.4055 9.456C64.118 8.75882 63.4371 8.30547 62.6835 8.30547H56.967V2.589C56.9671 1.8354 56.5138 1.15463 55.8166 0.866936C55.1194 0.575638 54.3184 0.739555 53.785 1.27107L46.3287 8.85165C45.9791 9.20124 45.7825 9.67447 45.7825 10.1696V16.854L29.5519 33.0848C28.8238 33.8129 28.8238 34.9927 29.5519 35.7208C30.2801 36.4489 31.4598 36.4489 32.1879 35.7208L48.4185 19.4902H55.1029C55.598 19.4902 56.0714 19.2936 56.4208 18.9441L64.0014 11.4876C64.5348 10.9542 64.695 10.1533 64.4055 9.456Z" fill="white"/>
<path d="M58.0656 22.355C57.184 22.9095 56.1685 23.2186 55.1024 23.2186H49.9617L48.7625 24.4178C50.4198 27.3758 51.3744 30.7783 51.3744 34.4031C51.3744 45.7095 42.1759 54.908 30.8694 54.908C19.563 54.908 10.3646 45.7094 10.3646 34.4031C10.3646 23.0968 19.5631 13.8982 30.8695 13.8982C34.4945 13.8982 37.8969 14.8527 40.8548 16.51L42.0541 15.3108V10.17C42.0541 9.10394 42.3631 8.08837 42.9176 7.20677C39.1487 5.53194 35.0945 4.57764 30.8695 4.57764C14.4241 4.57764 0.919922 17.9575 0.919922 34.403C0.919922 50.8485 14.424 64.3526 30.8694 64.3526C47.3148 64.3526 60.6948 50.8484 60.6948 34.403C60.6948 30.1782 59.7405 26.1239 58.0656 22.355Z" fill="white"/>
<path d="M45.966 27.2149L38.2761 34.9049C38.013 38.7842 34.8164 41.859 30.8705 41.859C26.7524 41.859 23.4142 38.5206 23.4142 34.4027C23.4142 30.4564 26.4891 27.2602 30.3683 26.9971L38.0582 19.3072C35.8713 18.2606 33.4526 17.626 30.8705 17.626C21.6193 17.626 14.0938 25.1515 14.0938 34.4027C14.0938 43.6539 21.6193 51.1794 30.8705 51.1794C40.1217 51.1794 47.6472 43.6539 47.6472 34.4027C47.6472 31.8205 47.0125 29.4019 45.966 27.2149Z" fill="white"/>
</svg>
