<svg width="137.9" height="46.2" viewBox="0 0 197 66" fill="none" xmlns="http://www.w3.org/2000/svg">
<path fill-rule="evenodd" clip-rule="evenodd" d="M27.6407 65.3333C12.3748 65.3333 0 52.8501 0 37.4512C0 28.7789 3.92534 21.0317 10.082 15.9178C-3.82002 52.0205 36.6015 66.3569 46.2308 41.7742C38.8777 44.8618 32.1554 44.6941 25.9573 41.8232C36.5742 39.1845 46.0805 34.8453 53.2306 26.8958C54.5525 30.1523 55.2821 33.7155 55.2821 37.4512C55.2821 52.8501 42.9066 65.3333 27.6407 65.3333Z" fill="#26DD9B"/>
<path fill-rule="evenodd" clip-rule="evenodd" d="M15.1221 44.4058C14.5008 30.2012 19.2392 15.8516 37.4659 13.2451C28.0419 16.2401 21.4001 21.7461 18.3966 30.246C34.7074 30.2722 50.6644 26.9716 48.9272 0.226497C15.8026 -2.78822 2.17746 24.9471 15.1221 44.4058Z" fill="#26DD9B"/>
<path d="M66.1208 27.5545C66.2104 27.3363 66.3502 27.1617 66.5402 27.0308C66.7303 26.8999 66.9487 26.8348 67.1954 26.8348H70.0491C70.5635 26.8348 70.9327 27.0753 71.1565 27.5545L79.0798 46.7006C79.2817 47.1806 79.2817 47.5628 79.0798 47.846C78.8787 48.1301 78.5087 48.2718 77.9723 48.2718H75.4539C74.8938 48.2718 74.5247 48.0322 74.3465 47.5521L72.9365 44.0498H64.3079L62.898 47.5521C62.8085 47.7703 62.6687 47.9449 62.4786 48.0758C62.2885 48.2068 62.0701 48.2718 61.8234 48.2718H59.2722C58.7569 48.2718 58.3996 48.1301 58.1976 47.846C57.9966 47.5628 57.9966 47.1806 58.1976 46.7006L66.1208 27.5545ZM66.0541 39.7948H71.1913L68.6401 33.4128L66.055 39.7948H66.0541Z" fill="#26DD9B"/>
<path d="M99.8624 34.3294C99.8624 35.7696 99.4594 37.0844 98.6535 38.2735C97.8475 39.4626 96.6277 40.3738 94.9939 41.0062L98.9559 46.4716C99.3361 47.0177 99.443 47.4532 99.2748 47.781C99.1067 48.1079 98.6754 48.2718 97.9819 48.2718H95.0606C94.6576 48.2718 94.3442 48.1079 94.1203 47.781L89.7553 41.8248H86.3981V47.1263C86.3981 47.4755 86.2912 47.7534 86.0792 47.9609C85.8672 48.1685 85.5812 48.2718 85.223 48.2718H82.7385C82.3803 48.2718 82.0952 48.1685 81.8823 47.9609C81.6694 47.7534 81.5634 47.4755 81.5634 47.1263V27.9803C81.5634 27.6311 81.6694 27.3532 81.8823 27.1457C82.0952 26.9382 82.3803 26.8348 82.7385 26.8348H90.3602C91.8596 26.8348 93.1974 27.0308 94.3725 27.4236C95.5476 27.8164 96.5436 28.3455 97.3605 29.0109C98.1774 29.6771 98.7988 30.4672 99.2237 31.3837C99.6486 32.3003 99.8615 33.2819 99.8615 34.3294H99.8624ZM95.0277 34.3294C95.0277 33.3041 94.5799 32.5078 93.6844 31.9404C92.789 31.3731 91.6029 31.0898 90.1253 31.0898H86.3981V37.5698H90.1253C91.6029 37.5698 92.789 37.2865 93.6844 36.7192C94.579 36.1518 95.0277 35.3555 95.0277 34.3302V34.3294Z" fill="#26DD9B"/>
<path d="M111.479 25.9833C113.448 25.9833 115.172 26.2505 116.649 26.785C118.127 27.3203 119.469 28.1976 120.678 29.4197C120.924 29.6602 121.036 29.9221 121.013 30.2053C120.99 30.4895 120.856 30.7513 120.61 30.9909L118.73 32.6272C118.506 32.8231 118.237 32.922 117.924 32.922C117.632 32.922 117.342 32.8027 117.051 32.5622C116.335 31.9075 115.529 31.357 114.633 30.909C113.738 30.4618 112.686 30.2383 111.477 30.2383C110.202 30.2383 109.154 30.3968 108.338 30.713C107.522 31.0292 107.079 31.602 107.013 32.4312C106.968 32.8891 107.141 33.2712 107.533 33.5767C107.924 33.8822 108.456 34.1548 109.128 34.3953C109.8 34.6358 110.572 34.8531 111.444 35.0499C112.317 35.2459 113.207 35.4704 114.113 35.7206C115.02 35.9718 115.91 36.2667 116.782 36.6042C117.655 36.9427 118.433 37.3685 119.116 37.8806C119.799 38.3937 120.336 39.0101 120.728 39.7298C121.119 40.4495 121.293 41.3224 121.249 42.3476C121.226 43.3737 120.975 44.2947 120.493 45.1133C120.012 45.9319 119.346 46.624 118.496 47.1913C117.645 47.7587 116.638 48.1898 115.474 48.4838C114.31 48.7786 113.034 48.9256 111.646 48.9256C109.766 48.9256 108.042 48.6584 106.476 48.1239C104.909 47.5895 103.544 46.7005 102.38 45.4562C102.156 45.2166 102.055 44.9601 102.077 44.6875C102.099 44.415 102.234 44.1691 102.48 43.9509L104.394 42.2817C104.618 42.0635 104.886 41.9548 105.2 41.9548C105.468 41.9548 105.748 42.075 106.039 42.3146C106.778 42.9916 107.589 43.5528 108.474 43.9999C109.357 44.447 110.415 44.6706 111.646 44.6706C112.272 44.6706 112.849 44.6216 113.375 44.5236C113.9 44.4257 114.366 44.2778 114.769 44.0818C115.172 43.8859 115.49 43.6561 115.725 43.3942C115.96 43.1323 116.089 42.8375 116.112 42.5106C116.157 42.0528 115.977 41.676 115.574 41.3812C115.172 41.0864 114.634 40.8245 113.963 40.5955C113.291 40.3666 112.519 40.1591 111.646 39.9738C110.774 39.7886 109.884 39.5757 108.977 39.3352C108.071 39.0956 107.181 38.8114 106.308 38.4845C105.435 38.1577 104.663 37.7319 103.992 37.2082C103.32 36.6844 102.788 36.052 102.397 35.31C102.005 34.5689 101.832 33.6631 101.877 32.5933C101.899 31.5681 102.151 30.6462 102.633 29.8277C103.114 29.0091 103.774 28.317 104.614 27.7496C105.454 27.1822 106.455 26.7467 107.619 26.4403C108.783 26.1347 110.07 25.9824 111.48 25.9824L111.479 25.9833Z" fill="#26DD9B"/>
<path d="M133.638 25.9833C135.607 25.9833 137.331 26.2505 138.808 26.785C140.285 27.3203 141.628 28.1976 142.836 29.4197C143.082 29.6602 143.195 29.9221 143.172 30.2053C143.149 30.4895 143.015 30.7513 142.769 30.9909L140.888 32.6272C140.664 32.8231 140.396 32.922 140.082 32.922C139.791 32.922 139.5 32.8027 139.21 32.5622C138.493 31.9075 137.687 31.357 136.792 30.909C135.896 30.4618 134.845 30.2383 133.636 30.2383C132.36 30.2383 131.313 30.3968 130.497 30.713C129.68 31.0292 129.238 31.602 129.171 32.4312C129.126 32.8891 129.3 33.2712 129.692 33.5767C130.083 33.8822 130.615 34.1548 131.287 34.3953C131.958 34.6358 132.73 34.8531 133.603 35.0499C134.476 35.2459 135.366 35.4704 136.272 35.7206C137.178 35.9718 138.068 36.2667 138.941 36.6042C139.814 36.9427 140.591 37.3685 141.275 37.8806C141.957 38.3937 142.495 39.0101 142.887 39.7298C143.278 40.4495 143.451 41.3224 143.408 42.3476C143.385 43.3737 143.133 44.2947 142.652 45.1133C142.17 45.9319 141.504 46.624 140.654 47.1913C139.804 47.7587 138.797 48.1898 137.633 48.4838C136.468 48.7786 135.193 48.9256 133.805 48.9256C131.924 48.9256 130.201 48.6584 128.635 48.1239C127.068 47.5895 125.703 46.7005 124.538 45.4562C124.315 45.2166 124.214 44.9601 124.236 44.6875C124.258 44.415 124.392 44.1691 124.639 43.9509L126.552 42.2817C126.776 42.0635 127.045 41.9548 127.358 41.9548C127.627 41.9548 127.907 42.075 128.198 42.3146C128.936 42.9916 129.748 43.5528 130.632 43.9999C131.516 44.447 132.574 44.6706 133.805 44.6706C134.431 44.6706 135.007 44.6216 135.534 44.5236C136.059 44.4257 136.524 44.2778 136.927 44.0818C137.33 43.8859 137.649 43.6561 137.884 43.3942C138.119 43.1323 138.248 42.8375 138.27 42.5106C138.315 42.0528 138.136 41.676 137.733 41.3812C137.33 41.0864 136.793 40.8245 136.121 40.5955C135.45 40.3666 134.678 40.1591 133.805 39.9738C132.932 39.7886 132.042 39.5757 131.136 39.3352C130.229 39.0956 129.339 38.8114 128.467 38.4845C127.594 38.1577 126.822 37.7319 126.15 37.2082C125.479 36.6844 124.947 36.052 124.556 35.31C124.164 34.5689 123.99 33.6631 124.036 32.5933C124.058 31.5681 124.31 30.6462 124.792 29.8277C125.272 29.0091 125.933 28.317 126.773 27.7496C127.612 27.1822 128.614 26.7467 129.778 26.4403C130.941 26.1347 132.229 25.9824 133.639 25.9824L133.638 25.9833Z" fill="#26DD9B"/>
<path d="M146.295 27.9803C146.295 27.6311 146.401 27.3532 146.614 27.1457C146.827 26.9382 147.112 26.8348 147.47 26.8348H149.955C150.313 26.8348 150.598 26.9391 150.811 27.1457C151.024 27.3532 151.13 27.6311 151.13 27.9803V38.4204C151.13 39.4679 151.208 40.3898 151.365 41.1861C151.521 41.9824 151.806 42.654 152.221 43.1991C152.635 43.7452 153.199 44.154 153.917 44.4265C154.633 44.7 155.54 44.8354 156.636 44.8354C157.733 44.8354 158.667 44.6991 159.373 44.4265C160.078 44.154 160.632 43.7505 161.035 43.2152C161.438 42.6807 161.717 42.01 161.875 41.2022C162.031 40.3952 162.109 39.4679 162.109 38.4204V27.9803C162.109 27.6311 162.215 27.3532 162.428 27.1457C162.641 26.9382 162.926 26.8348 163.285 26.8348H165.769C166.127 26.8348 166.412 26.9391 166.625 27.1457C166.838 27.3532 166.944 27.6311 166.944 27.9803V39.6639C166.944 40.8637 166.731 41.9878 166.306 43.0352C165.881 44.0827 165.243 44.9939 164.393 45.768C163.542 46.5429 162.473 47.1539 161.187 47.6011C159.899 48.0482 158.383 48.2718 156.637 48.2718C154.891 48.2718 153.375 48.0482 152.087 47.6011C150.8 47.1539 149.725 46.5429 148.865 45.768C148.003 44.9939 147.359 44.0827 146.934 43.0352C146.508 41.9878 146.296 40.8646 146.296 39.6639V27.9803H146.295Z" fill="#26DD9B"/>
<path d="M171.812 48.2718C171.454 48.2718 171.168 48.1685 170.956 47.9609C170.743 47.7534 170.637 47.4755 170.637 47.1263V27.9803C170.637 27.6311 170.743 27.3532 170.956 27.1457C171.168 26.9382 171.454 26.8348 171.812 26.8348H174.531C174.979 26.8348 175.314 27.0201 175.538 27.3915L183.461 40.4504L191.384 27.3915C191.608 27.021 191.944 26.8348 192.391 26.8348H195.077C195.435 26.8348 195.72 26.9391 195.933 27.1457C196.146 27.3532 196.252 27.6311 196.252 27.9803V47.1263C196.252 47.4755 196.145 47.7534 195.933 47.9609C195.721 48.1685 195.435 48.2718 195.077 48.2718H192.592C192.234 48.2718 191.949 48.1685 191.736 47.9609C191.523 47.7534 191.417 47.4755 191.417 47.1263V36.3263L185.239 46.5375C185.016 46.909 184.679 47.0942 184.232 47.0942H182.688C182.24 47.0942 181.904 46.909 181.681 46.5375L175.47 36.3263V47.1263C175.47 47.4755 175.364 47.7534 175.152 47.9609C174.94 48.1685 174.654 48.2718 174.295 48.2718H171.811H171.812Z" fill="#26DD9B"/>
</svg>
