<svg width="32" height="32" viewBox="0 0 44 44" fill="none" xmlns="http://www.w3.org/2000/svg">
<path fill-rule="evenodd" clip-rule="evenodd" d="M29.3334 16.5001C29.3334 18.445 28.5607 20.3103 27.1855 21.6855C25.8102 23.0608 23.9449 23.8334 22 23.8334C20.0551 23.8334 18.1898 23.0608 16.8146 21.6855C15.4393 20.3103 14.6667 18.445 14.6667 16.5001C14.6667 14.5552 15.4393 12.6899 16.8146 11.3146C18.1898 9.93936 20.0551 9.16675 22 9.16675C23.9449 9.16675 25.8102 9.93936 27.1855 11.3146C28.5607 12.6899 29.3334 14.5552 29.3334 16.5001ZM25.6667 16.5001C25.6667 17.4725 25.2804 18.4052 24.5927 19.0928C23.9051 19.7804 22.9725 20.1667 22 20.1667C21.0276 20.1667 20.0949 19.7804 19.4073 19.0928C18.7197 18.4052 18.3334 17.4725 18.3334 16.5001C18.3334 15.5276 18.7197 14.595 19.4073 13.9074C20.0949 13.2197 21.0276 12.8334 22 12.8334C22.9725 12.8334 23.9051 13.2197 24.5927 13.9074C25.2804 14.595 25.6667 15.5276 25.6667 16.5001Z" fill="#13322B"/>
<path fill-rule="evenodd" clip-rule="evenodd" d="M22 1.83337C10.8625 1.83337 1.83334 10.8625 1.83334 22C1.83334 33.1375 10.8625 42.1667 22 42.1667C33.1375 42.1667 42.1667 33.1375 42.1667 22C42.1667 10.8625 33.1375 1.83337 22 1.83337ZM5.50001 22C5.50001 25.8317 6.80718 29.359 8.99801 32.1604C10.5366 30.1399 12.5215 28.5024 14.7976 27.3759C17.0738 26.2495 19.5795 25.6645 22.1192 25.6667C24.6259 25.6643 27.1002 26.2342 29.3534 27.3328C31.6066 28.4314 33.5793 30.0299 35.1212 32.0064C36.7097 29.923 37.7792 27.4913 38.2413 24.9125C38.7034 22.3336 38.5448 19.6819 37.7786 17.1765C37.0124 14.6712 35.6606 12.3843 33.8351 10.5051C32.0096 8.62592 29.7628 7.20845 27.2807 6.36997C24.7986 5.5315 22.1525 5.29612 19.5614 5.68332C16.9703 6.07053 14.5086 7.06917 12.3801 8.59664C10.2515 10.1241 8.51733 12.1365 7.32093 14.4672C6.12453 16.798 5.50034 19.3801 5.50001 22ZM22 38.5C18.2122 38.5057 14.5388 37.2027 11.6013 34.8114C12.7837 33.1187 14.3575 31.7367 16.1887 30.783C18.0199 29.8292 20.0545 29.3319 22.1192 29.3334C24.1581 29.3317 26.1681 29.8166 27.982 30.7476C29.796 31.6787 31.3617 33.0291 32.549 34.6867C29.5887 37.1557 25.8547 38.5054 22 38.5Z" fill="#13322B"/>
</svg>
