<svg xmlns="http://www.w3.org/2000/svg" fill="none" viewBox="27.6 106.91 213.81 53.7">
<path fill-rule="evenodd" clip-rule="evenodd" d="M241.411 106.905L241.411 160.604L27.6003 160.604L27.6008 106.905L241.411 106.905Z" fill="#26DD9B"/>
<path fill-rule="evenodd" clip-rule="evenodd" d="M241.411 117.292H27.6008L27.6008 106.905L241.411 106.905L241.411 117.292Z" fill="#129564"/>
<path fill-rule="evenodd" clip-rule="evenodd" d="M53.5319 160.604L53.5313 136.356C53.5316 134.904 54.7069 133.729 56.1581 133.729C57.6088 133.729 58.7851 134.904 58.7846 136.355L58.7851 160.604L53.5319 160.604Z" fill="#129564"/>
<path fill-rule="evenodd" clip-rule="evenodd" d="M69.2012 160.604L74.4542 160.605L74.4547 148.48C74.4547 147.03 73.2791 145.853 71.8279 145.853C70.3773 145.853 69.2014 147.029 69.2012 148.48L69.2012 160.604Z" fill="#129564"/>
<path fill-rule="evenodd" clip-rule="evenodd" d="M84.8698 160.604L84.8693 136.356C84.8695 134.904 86.0456 133.728 87.4963 133.729C88.9467 133.729 90.1228 134.905 90.1233 136.356L90.123 160.605L84.8698 160.604Z" fill="#129564"/>
<path fill-rule="evenodd" clip-rule="evenodd" d="M100.54 160.604L105.793 160.604L105.793 148.479C105.793 147.028 104.617 145.853 103.166 145.853C101.716 145.852 100.539 147.029 100.539 148.479L100.54 160.604Z" fill="#129564"/>
<path fill-rule="evenodd" clip-rule="evenodd" d="M116.207 160.604L116.207 136.355C116.207 134.904 117.384 133.729 118.834 133.729C120.285 133.729 121.46 134.904 121.46 136.355L121.46 160.604L116.207 160.604Z" fill="#129564"/>
<path fill-rule="evenodd" clip-rule="evenodd" d="M131.875 160.604L137.128 160.604L137.128 148.479C137.128 147.029 135.953 145.853 134.502 145.852C133.051 145.853 131.875 147.029 131.875 148.479L131.875 160.604Z" fill="#129564"/>
<path fill-rule="evenodd" clip-rule="evenodd" d="M147.545 160.604L147.545 136.355C147.545 134.904 148.721 133.728 150.172 133.728C151.623 133.728 152.798 134.904 152.798 136.355L152.799 160.604L147.545 160.604Z" fill="#129564"/>
<path fill-rule="evenodd" clip-rule="evenodd" d="M163.214 160.604L168.467 160.604L168.467 148.48C168.467 147.029 167.29 145.853 165.84 145.853C164.389 145.853 163.213 147.029 163.213 148.48L163.214 160.604Z" fill="#129564"/>
<path fill-rule="evenodd" clip-rule="evenodd" d="M178.887 160.604L178.887 136.355C178.887 134.904 180.063 133.728 181.514 133.728C182.964 133.728 184.14 134.904 184.14 136.355L184.14 160.604H178.887Z" fill="#129564"/>
<path fill-rule="evenodd" clip-rule="evenodd" d="M194.555 160.604L199.808 160.604L199.808 148.48C199.808 147.029 198.633 145.853 197.182 145.853C195.731 145.853 194.555 147.029 194.555 148.48L194.555 160.604Z" fill="#129564"/>
<path fill-rule="evenodd" clip-rule="evenodd" d="M210.229 160.604L210.229 136.356C210.229 134.905 211.405 133.729 212.855 133.729C214.306 133.729 215.482 134.905 215.482 136.356L215.482 160.605L210.229 160.604Z" fill="#129564"/>
</svg>