<svg width="149.8" height="37.8" viewBox="0 0 214 54" fill="none" xmlns="http://www.w3.org/2000/svg">
<g clip-path="url(#clip0_647_148)">
<path fill-rule="evenodd" clip-rule="evenodd" d="M213.811 -0.00488281V53.6941H0L0.000499725 -0.00488281H213.811Z" fill="#26DD9B"/>
<path fill-rule="evenodd" clip-rule="evenodd" d="M213.81 10.3821H0V-0.00488281H213.81V10.3821Z" fill="#129564"/>
<path fill-rule="evenodd" clip-rule="evenodd" d="M25.9322 53.6938L25.9316 29.4458C25.9319 27.9938 27.1072 26.8188 28.5584 26.8188C30.0091 26.8188 31.1854 27.9938 31.1849 29.4448L31.1854 53.6938H25.9322Z" fill="#129564"/>
<path fill-rule="evenodd" clip-rule="evenodd" d="M41.6016 53.6939L46.8546 53.6949L46.8551 41.5699C46.8551 40.1199 45.6795 38.9429 44.2283 38.9429C42.7777 38.9429 41.6018 40.1189 41.6016 41.5699V53.6939Z" fill="#129564"/>
<path fill-rule="evenodd" clip-rule="evenodd" d="M57.27 53.6938L57.2695 29.4458C57.2697 27.9938 58.4458 26.8178 59.8965 26.8188C61.3469 26.8188 62.523 27.9948 62.5235 29.4458L62.5232 53.6948L57.27 53.6938Z" fill="#129564"/>
<path fill-rule="evenodd" clip-rule="evenodd" d="M72.9405 53.6939H78.1935V41.5689C78.1935 40.1179 77.0175 38.9429 75.5665 38.9429C74.1165 38.9419 72.9395 40.1189 72.9395 41.5689L72.9405 53.6939Z" fill="#129564"/>
<path fill-rule="evenodd" clip-rule="evenodd" d="M88.6074 53.6938V29.4448C88.6074 27.9938 89.7844 26.8188 91.2344 26.8188C92.6854 26.8188 93.8604 27.9938 93.8604 29.4448V53.6938H88.6074Z" fill="#129564"/>
<path fill-rule="evenodd" clip-rule="evenodd" d="M104.275 53.6939H109.528V41.5689C109.528 40.1189 108.353 38.9429 106.902 38.9419C105.451 38.9429 104.275 40.1189 104.275 41.5689V53.6939Z" fill="#129564"/>
<path fill-rule="evenodd" clip-rule="evenodd" d="M119.945 53.6939V29.4449C119.945 27.9939 121.121 26.8179 122.572 26.8179C124.023 26.8179 125.198 27.9939 125.198 29.4449L125.199 53.6939H119.945Z" fill="#129564"/>
<path fill-rule="evenodd" clip-rule="evenodd" d="M135.614 53.6939H140.867V41.5699C140.867 40.1189 139.69 38.9429 138.24 38.9429C136.789 38.9429 135.613 40.1189 135.613 41.5699L135.614 53.6939Z" fill="#129564"/>
<path fill-rule="evenodd" clip-rule="evenodd" d="M151.287 53.6939V29.4449C151.287 27.9939 152.463 26.8179 153.914 26.8179C155.364 26.8179 156.54 27.9939 156.54 29.4449V53.6939H151.287Z" fill="#129564"/>
<path fill-rule="evenodd" clip-rule="evenodd" d="M166.955 53.6939H172.208V41.5699C172.208 40.1189 171.033 38.9429 169.582 38.9429C168.131 38.9429 166.955 40.1189 166.955 41.5699V53.6939Z" fill="#129564"/>
<path fill-rule="evenodd" clip-rule="evenodd" d="M182.629 53.6938V29.4458C182.629 27.9948 183.805 26.8188 185.255 26.8188C186.706 26.8188 187.882 27.9948 187.882 29.4458V53.6948L182.629 53.6938Z" fill="#129564"/>
</g>
<defs>
<clipPath id="clip0_647_148">
<rect width="213.81" height="53.7" fill="white"/>
</clipPath>
</defs>
</svg>
