<svg width="93.1" height="63" viewBox="0 0 133 91" fill="none" xmlns="http://www.w3.org/2000/svg">
<path d="M36.5 0.000326469C16.3416 0.00032735 -2.47661e-06 16.3419 -1.59546e-06 36.5003C-7.14314e-07 56.6587 16.3416 73.0002 36.5 73.0002C56.6583 73.0002 72.9999 56.6587 72.9999 36.5003C72.9999 16.3419 56.6583 0.000325587 36.5 0.000326469Z" fill="#74EE9B"/>
<path d="M58.0434 46.209L37.7598 18.5852C36.863 17.3639 35.4096 17.3639 34.5129 18.5852L14.2278 46.209C12.7815 48.1787 13.806 51.5454 15.8505 51.5454L56.4192 51.5454C58.4638 51.5454 59.4883 48.1787 58.042 46.209L58.0434 46.209Z" fill="white"/>
<path d="M96.5 90.9999C116.658 90.9999 133 74.6583 133 54.5C133 34.3416 116.658 18 96.5 18C76.3417 18 60.0001 34.3416 60.0001 54.5C60.0001 74.6583 76.3417 90.9999 96.5 90.9999Z" fill="#26DD9B"/>
<path d="M74.9566 44.7912L95.2402 72.4151C96.1369 73.6363 97.5904 73.6363 98.4871 72.4151L118.772 44.7912C120.218 42.8216 119.194 39.4548 117.149 39.4548L76.5808 39.4548C74.5362 39.4548 73.5117 42.8216 74.958 44.7912L74.9566 44.7912Z" fill="white"/>
</svg>
