<svg width="17" height="17" viewBox="0 0 60 60" fill="none" xmlns="http://www.w3.org/2000/svg">
<path d="M30.0001 0C30.5391 0 31.0782 0.117188 31.5704 0.339844L53.6368 9.70313C56.2149 10.793 58.1368 13.3359 58.1251 16.4063C58.0665 28.0313 53.2852 49.3008 33.0938 58.9688C31.1368 59.9063 28.8633 59.9063 26.9063 58.9688C6.7149 49.3008 1.93365 28.0313 1.87505 16.4063C1.86333 13.3359 3.78521 10.793 6.36333 9.70313L28.4415 0.339844C28.9219 0.117188 29.461 0 30.0001 0ZM30.0001 7.82813V52.125C46.1719 44.2969 50.5196 26.9648 50.6251 16.5703L30.0001 7.82813Z" fill="#B2B2B2"/>
</svg>
