<svg width="158" height="158" viewBox="0 0 158 158" fill="none" xmlns="http://www.w3.org/2000/svg">
<path d="M88.2448 140.491L75.8771 142.768C67.6869 144.497 58.4265 140.565 49.9648 130.888C33.0414 111.536 26.0713 76.4937 34.5431 52.0095C38.6691 39.8635 45.9815 32.6928 54.1717 30.9638L66.5118 29.0987L88.2448 140.491Z" fill="#DEDFFB"/>
<path d="M46.8834 50.1443C55.1353 25.8524 75.5009 21.6261 92.4243 40.9787C109.348 60.3312 116.318 95.3733 108.066 119.665C99.814 143.957 79.4484 148.183 62.525 128.831C45.3817 109.671 38.6315 74.4362 46.8834 50.1443Z" fill="#F3F1FC"/>
<path d="M51.6933 55.6423C58.6524 35.1975 75.8574 31.7948 89.8961 47.8486C104.127 64.1224 109.807 93.695 102.848 114.14C95.889 134.585 78.684 137.987 64.6453 121.933C50.6066 105.88 44.7342 76.0871 51.6933 55.6423Z" fill="#26DD9B"/>
<path d="M58.6152 63.5585C63.7589 48.5821 76.3465 46.1124 86.539 57.768C96.9238 69.6434 101.067 91.2457 96.1435 106.03C90.9999 121.006 78.4122 123.476 68.2197 111.82C57.8349 99.9448 53.6915 78.3425 58.6152 63.5585Z" fill="#F3F1FC"/>
<path d="M65.1508 71.0352C68.2866 61.3074 76.6692 59.7983 83.4001 67.4954C90.1309 75.1924 92.9024 89.4566 89.5743 98.9645C86.4384 108.692 78.0558 110.201 71.3249 102.504C64.5941 94.8072 62.0149 80.763 65.1508 71.0352Z" fill="#74EE9B"/>
<path d="M98.7911 75.7728C101.291 78.6317 102.389 83.8812 101.124 87.3161C100.326 89.9542 98.4019 90.8605 96.5883 90.1179L79.9897 87.5572C77.3241 87.1716 76.748 83.4064 79.3042 82.3353L93.6797 74.8094C94.9992 73.6556 97.0603 73.7936 98.7911 75.7728Z" fill="#5094FF"/>
<path d="M93.6794 74.8093L79.3039 82.3352C76.94 83.6262 77.5437 86.9792 79.9894 87.557L96.588 90.1178L93.6794 74.8093Z" fill="#0DA06B"/>
<path d="M92.2764 77.2005C93.5416 73.7656 96.4824 73.1344 98.9824 75.9933C101.482 78.8522 102.388 83.8817 101.315 87.5365C100.05 90.9714 97.109 91.6027 94.8013 88.9637C91.889 86.0772 90.7913 80.8277 92.2764 77.2005Z" fill="#247E5E"/>
<path d="M136.496 75.3999L148.889 82.0268L135.037 84.8259L118.439 79.1597L136.496 75.3999Z" fill="#26DD9B"/>
<path d="M145.982 69.8248C147.136 71.1443 147.795 73.6728 147.052 75.4865C146.777 76.5032 146.117 77.0802 145.513 76.8326L97.6906 86.0525C97.0585 86.2172 96.4539 85.9697 95.877 85.31C94.7231 83.9905 94.0643 81.4619 94.8068 79.6483C95.082 78.6315 95.5218 78.2469 96.1539 78.0822L143.564 68.8347C144.58 69.1098 145.405 69.165 145.982 69.8248Z" fill="#4C5C75"/>
<path d="M142.629 70.427C143.151 68.8057 144.636 68.284 145.982 69.8234C147.136 71.1429 147.794 73.6714 147.052 75.4851C146.529 77.1064 145.045 77.6281 143.699 76.0887C142.545 74.7692 142.078 72.4605 142.629 70.427Z" fill="#1D2943"/>
<path d="M134.743 64.516L136.005 73.503L122.153 76.3021L116.686 68.2757L134.743 64.516Z" fill="#26DD9B"/>
</svg>
