<svg width="945" height="756" viewBox="0 0 1350 1080" fill="none" xmlns="http://www.w3.org/2000/svg">
<path d="M957.284 545.018L951.94 541.932C950.248 540.96 948.895 538.593 948.895 536.649V314.717C948.895 312.772 950.262 310.405 951.94 309.433L1100.47 223.743C1102.17 222.771 1104.89 222.771 1106.58 223.743L1111.92 226.829C1113.61 227.801 1114.98 230.168 1114.98 232.112V454.044C1114.98 455.988 1113.61 458.355 1111.92 459.328L963.388 545.032C961.697 546.004 958.975 546.004 957.284 545.032V545.018Z" fill="#455A64"/>
<path d="M1114.94 231.605C1114.73 230.027 1113.44 229.449 1111.91 230.337L963.387 316.041C962.541 316.534 961.794 317.351 961.23 318.31L949.768 311.702C950.317 310.744 951.079 309.912 951.925 309.419L1100.46 223.729C1102.14 222.757 1104.87 222.757 1106.56 223.729L1111.91 226.815C1113.46 227.702 1114.74 229.773 1114.94 231.605Z" fill="#455A64"/>
<path d="M962.869 545.258C961.177 545.976 958.809 545.892 957.286 545.018L951.928 541.918C950.25 540.946 948.883 538.579 948.883 536.635V314.703C948.883 313.731 949.221 312.66 949.771 311.702L961.234 318.31C960.67 319.268 960.331 320.353 960.331 321.325V543.257C960.331 545.004 961.431 545.807 962.869 545.258Z" fill="#263238"/>
<path d="M960.33 321.325V543.257C960.33 545.201 961.698 545.99 963.39 545.018L1111.92 459.314C1113.62 458.341 1114.98 455.974 1114.98 454.03V232.098C1114.98 230.154 1113.62 229.365 1111.92 230.337L963.39 316.041C961.698 317.013 960.33 319.38 960.33 321.325Z" fill="#37474F"/>
<path d="M925.645 405.916C923.727 404.775 914.831 399.717 914.365 399.449C912.955 398.59 912.448 396.505 913.759 395.096L948.88 357.449L960.328 364.015L925.222 401.675C923.953 403.028 924.362 404.986 925.645 405.916Z" fill="#455A64"/>
<path d="M960.33 364.029L925.209 401.675C923.447 403.563 924.941 406.62 927.507 406.409L960.316 403.704V364.015L960.33 364.029Z" fill="#37474F"/>
<path d="M1037.65 296.274C1054.96 286.285 1068.99 294.386 1068.99 314.351C1068.99 334.315 1054.96 358.619 1037.65 368.594C1020.33 378.583 1006.3 370.482 1006.3 350.503C1006.3 330.525 1020.33 306.235 1037.65 296.26V296.274Z" fill="#26DD9B"/>
<path d="M1037.44 311.997C1043.05 308.757 1047.6 311.377 1047.6 317.858C1047.6 324.339 1043.05 332.215 1037.44 335.456C1031.83 338.696 1027.27 336.076 1027.27 329.595C1027.27 323.114 1031.83 315.238 1037.44 311.997Z" fill="white"/>
<path d="M1057.47 346.544C1057.47 335.893 1049.98 331.581 1040.76 336.907L1034.99 340.232C1025.77 345.558 1018.29 358.506 1018.29 369.143V372.045C1019.95 372.595 1021.76 372.877 1023.67 372.877C1027.87 372.877 1032.63 371.496 1037.65 368.594C1045.16 364.254 1052.07 357.21 1057.47 348.996V346.53V346.544Z" fill="white"/>
<path d="M1017.8 467.499L1057.52 444.59C1059.21 443.618 1060.58 444.407 1060.58 446.351V459.13C1060.58 461.075 1059.21 463.442 1057.52 464.414L1017.8 487.323C1016.11 488.295 1014.74 487.506 1014.74 485.562V472.783C1014.74 470.838 1016.11 468.471 1017.79 467.499H1017.8Z" fill="#26DD9B"/>
<path d="M998.355 438.955L1076.93 393.616C1078.95 392.447 1080.6 393.391 1080.6 395.729V400.491C1080.6 402.83 1078.96 405.662 1076.93 406.832L998.355 452.17C996.339 453.34 994.689 452.396 994.689 450.057V445.295C994.689 442.956 996.325 440.124 998.355 438.955Z" fill="#FAFAFA"/>
<path d="M998.355 414.841L1076.93 369.502C1078.95 368.332 1080.6 369.276 1080.6 371.615V376.377C1080.6 378.716 1078.96 381.548 1076.93 382.717L998.355 428.056C996.339 429.226 994.689 428.282 994.689 425.943V421.181C994.689 418.842 996.325 416.01 998.355 414.841Z" fill="#FAFAFA"/>
<path d="M200.892 390.433C202.91 390.883 204.813 391.597 206.589 392.577C208.377 393.556 209.888 394.755 211.122 396.173C212.356 397.59 213.255 399.204 213.797 401.013C214.339 402.822 214.385 404.77 213.913 406.867C213.532 408.585 212.932 410.014 212.125 411.155C211.306 412.295 210.372 413.287 209.311 414.105C208.25 414.923 207.131 415.649 205.967 416.26C204.79 416.882 203.683 417.47 202.645 418.023C201.596 418.576 200.65 419.187 199.808 419.856C198.966 420.524 198.367 421.319 198.032 422.23C197.836 422.679 197.559 423.048 197.179 423.324C196.798 423.601 196.383 423.682 195.91 423.578L191.02 422.495C190.547 422.391 190.167 422.126 189.878 421.7C189.59 421.273 189.521 420.835 189.671 420.374C190.132 418.726 190.801 417.332 191.712 416.202C192.612 415.073 193.615 414.105 194.722 413.298C195.829 412.491 196.971 411.788 198.159 411.189C199.347 410.601 200.454 410.025 201.48 409.46C202.507 408.896 203.372 408.308 204.098 407.686C204.825 407.063 205.286 406.291 205.482 405.392C205.84 403.767 205.459 402.269 204.317 400.921C203.176 399.572 201.469 398.639 199.197 398.132C195.553 397.325 192.473 398.558 189.948 401.82C189.625 402.246 189.325 402.546 189.037 402.73C188.748 402.914 188.322 402.949 187.768 402.822L182.555 401.67C182.175 401.589 181.863 401.382 181.644 401.059C181.425 400.736 181.356 400.367 181.448 399.941C181.817 398.454 182.624 397.025 183.847 395.654C185.069 394.283 186.569 393.13 188.322 392.197C190.086 391.263 192.047 390.606 194.226 390.237C196.406 389.869 198.62 389.926 200.892 390.433ZM195.38 427.508C195.852 427.612 196.221 427.877 196.487 428.292C196.752 428.706 196.833 429.156 196.729 429.628L195.472 435.287C195.368 435.76 195.103 436.128 194.688 436.393C194.272 436.658 193.823 436.739 193.35 436.635L187.814 435.414C187.341 435.31 186.972 435.045 186.707 434.63C186.442 434.215 186.361 433.766 186.465 433.293L187.722 427.635C187.826 427.162 188.091 426.793 188.506 426.528C188.921 426.263 189.371 426.183 189.844 426.286L195.38 427.508Z" fill="#41E39B"/>
<path d="M207.052 444.495C208.459 444.265 209.854 444.23 211.25 444.403C212.645 444.576 213.926 444.956 215.079 445.544C216.232 446.143 217.224 446.95 218.031 447.964C218.85 448.978 219.369 450.223 219.611 451.686C219.807 452.885 219.784 453.957 219.553 454.902C219.323 455.847 218.977 456.711 218.504 457.518C218.031 458.313 217.501 459.062 216.912 459.754C216.324 460.445 215.759 461.102 215.229 461.736C214.698 462.358 214.248 462.992 213.879 463.637C213.51 464.283 213.337 464.94 213.349 465.608C213.349 465.954 213.257 466.253 213.084 466.53C212.911 466.807 212.657 466.968 212.334 467.026L208.92 467.579C208.586 467.636 208.274 467.556 207.986 467.36C207.698 467.164 207.536 466.899 207.513 466.565C207.386 465.389 207.467 464.329 207.756 463.372C208.044 462.416 208.436 461.54 208.932 460.733C209.428 459.926 209.981 459.189 210.593 458.509C211.204 457.829 211.769 457.172 212.276 456.55C212.784 455.927 213.199 455.328 213.499 454.74C213.799 454.153 213.902 453.542 213.799 452.92C213.614 451.79 212.98 450.926 211.907 450.35C210.835 449.773 209.497 449.612 207.917 449.877C205.38 450.292 203.708 451.871 202.935 454.602C202.843 454.959 202.727 455.224 202.589 455.42C202.45 455.616 202.185 455.743 201.805 455.801L198.172 456.4C197.907 456.446 197.653 456.4 197.434 456.25C197.215 456.1 197.076 455.881 197.03 455.582C196.892 454.533 197.03 453.415 197.468 452.217C197.907 451.029 198.564 449.9 199.452 448.851C200.34 447.803 201.436 446.881 202.727 446.085C204.03 445.29 205.472 444.76 207.052 444.507V444.495ZM213.014 469.676C213.349 469.619 213.649 469.699 213.926 469.895C214.202 470.091 214.364 470.356 214.421 470.69L215.067 474.643C215.125 474.978 215.044 475.277 214.848 475.554C214.652 475.83 214.387 475.992 214.052 476.049L210.189 476.683C209.854 476.741 209.555 476.66 209.278 476.464C209.001 476.268 208.828 476.003 208.782 475.669L208.136 471.716C208.078 471.393 208.159 471.082 208.355 470.806C208.551 470.529 208.817 470.356 209.151 470.31L213.014 469.676Z" fill="#41E39B"/>
<path d="M207.052 444.496C208.459 444.265 209.854 444.23 211.25 444.403C212.645 444.576 213.926 444.957 215.079 445.544C216.232 446.144 217.224 446.95 218.031 447.964C218.85 448.979 219.369 450.223 219.611 451.687C219.807 452.885 219.784 453.957 219.553 454.902C219.323 455.847 218.977 456.712 218.504 457.518C218.031 458.314 217.501 459.063 216.912 459.754C216.324 460.446 215.759 461.102 215.229 461.736C214.698 462.359 214.248 462.992 213.879 463.638C213.51 464.283 213.337 464.94 213.349 465.609C213.349 465.954 213.257 466.254 213.084 466.531C212.911 466.807 212.657 466.968 212.334 467.026L208.92 467.579C208.586 467.637 208.274 467.556 207.986 467.36C207.698 467.164 207.536 466.899 207.513 466.565C207.386 465.39 207.467 464.329 207.756 463.373C208.044 462.416 208.436 461.54 208.932 460.734C209.428 459.927 209.981 459.189 210.593 458.509C211.204 457.829 211.769 457.173 212.276 456.55C212.784 455.928 213.199 455.329 213.499 454.741C213.799 454.153 213.902 453.542 213.799 452.92C213.614 451.791 212.98 450.926 211.907 450.35C210.835 449.774 209.497 449.612 207.917 449.878C205.38 450.292 203.708 451.871 202.935 454.603C202.843 454.96 202.727 455.225 202.589 455.421C202.45 455.617 202.185 455.744 201.805 455.801L198.172 456.4C197.907 456.447 197.653 456.4 197.434 456.251C197.215 456.101 197.076 455.882 197.03 455.582C196.892 454.533 197.03 453.416 197.468 452.217C197.907 451.03 198.564 449.901 199.452 448.852C200.34 447.803 201.436 446.881 202.727 446.086C204.03 445.291 205.472 444.761 207.052 444.507V444.496ZM213.014 469.677C213.349 469.619 213.649 469.7 213.926 469.896C214.202 470.092 214.364 470.357 214.421 470.691L215.067 474.644C215.125 474.978 215.044 475.278 214.848 475.554C214.652 475.831 214.387 475.992 214.052 476.05L210.189 476.684C209.854 476.741 209.555 476.661 209.278 476.465C209.001 476.269 208.828 476.004 208.782 475.67L208.136 471.717C208.078 471.394 208.159 471.083 208.355 470.806C208.551 470.53 208.817 470.357 209.151 470.311L213.014 469.677Z" fill="black"/>
<path d="M239.652 450.695C239.975 450.926 240.171 451.237 240.24 451.64C240.309 452.044 240.228 452.401 239.998 452.724L237.253 456.585C237.022 456.907 236.711 457.103 236.307 457.172C235.904 457.241 235.546 457.161 235.223 456.93L231.452 454.245C231.129 454.015 230.933 453.703 230.864 453.3C230.795 452.897 230.875 452.539 231.106 452.217L233.851 448.356C234.081 448.033 234.393 447.837 234.796 447.768C235.2 447.699 235.558 447.78 235.881 448.01L239.652 450.695ZM255.625 424.523C256.997 425.503 258.208 426.644 259.234 427.946C260.261 429.248 261.022 430.631 261.506 432.095C261.991 433.558 262.141 435.057 261.979 436.589C261.818 438.122 261.218 439.609 260.203 441.038C259.373 442.213 258.462 443.101 257.481 443.7C256.501 444.299 255.486 444.749 254.425 445.025C253.364 445.313 252.292 445.498 251.219 445.59C250.135 445.682 249.12 445.774 248.151 445.855C247.183 445.936 246.283 446.097 245.43 446.339C244.576 446.57 243.884 446.985 243.342 447.561C243.054 447.837 242.719 448.022 242.35 448.114C241.981 448.206 241.635 448.137 241.312 447.907L237.98 445.532C237.657 445.302 237.449 444.979 237.368 444.576C237.288 444.161 237.368 443.815 237.633 443.504C238.51 442.409 239.456 441.58 240.494 441.015C241.532 440.45 242.593 440.047 243.688 439.782C244.772 439.517 245.868 439.355 246.952 439.286C248.036 439.217 249.051 439.136 249.997 439.044C250.942 438.952 251.796 438.779 252.534 438.537C253.272 438.295 253.872 437.869 254.31 437.258C255.106 436.151 255.279 434.895 254.852 433.512C254.425 432.129 253.433 430.885 251.888 429.79C249.397 428.027 246.687 427.969 243.746 429.617C243.365 429.836 243.042 429.963 242.766 430.009C242.489 430.055 242.166 429.94 241.785 429.675L238.222 427.151C237.956 426.966 237.795 426.713 237.726 426.402C237.657 426.09 237.726 425.791 237.945 425.491C238.706 424.489 239.756 423.659 241.116 423.025C242.477 422.38 243.965 421.988 245.591 421.849C247.217 421.7 248.901 421.838 250.666 422.253C252.418 422.668 254.079 423.417 255.625 424.523Z" fill="#41E39B"/>
<path d="M239.656 450.695C239.979 450.926 240.175 451.237 240.244 451.64C240.313 452.044 240.232 452.401 240.002 452.724L237.257 456.584C237.026 456.907 236.715 457.103 236.311 457.172C235.908 457.241 235.55 457.161 235.227 456.93L231.456 454.245C231.133 454.014 230.937 453.703 230.868 453.3C230.799 452.896 230.879 452.539 231.11 452.216L233.855 448.356C234.085 448.033 234.397 447.837 234.8 447.768C235.204 447.699 235.562 447.779 235.884 448.01L239.656 450.695ZM255.628 424.523C257.001 425.502 258.212 426.643 259.238 427.946C260.265 429.248 261.026 430.631 261.51 432.095C261.995 433.558 262.144 435.056 261.983 436.589C261.822 438.122 261.222 439.609 260.207 441.038C259.377 442.213 258.466 443.101 257.485 443.7C256.505 444.299 255.49 444.749 254.429 445.025C253.368 445.313 252.296 445.498 251.223 445.59C250.139 445.682 249.124 445.774 248.155 445.855C247.187 445.936 246.287 446.097 245.434 446.339C244.58 446.569 243.888 446.984 243.346 447.561C243.058 447.837 242.723 448.022 242.354 448.114C241.985 448.206 241.639 448.137 241.316 447.906L237.983 445.532C237.66 445.302 237.453 444.979 237.372 444.576C237.291 444.161 237.372 443.815 237.637 443.504C238.514 442.409 239.46 441.579 240.498 441.015C241.535 440.45 242.596 440.046 243.692 439.781C244.776 439.516 245.872 439.355 246.956 439.286C248.04 439.217 249.055 439.136 250 439.044C250.946 438.952 251.8 438.779 252.538 438.537C253.276 438.295 253.876 437.868 254.314 437.258C255.11 436.151 255.283 434.895 254.856 433.512C254.429 432.129 253.437 430.884 251.892 429.79C249.401 428.026 246.691 427.969 243.75 429.617C243.369 429.836 243.046 429.962 242.769 430.009C242.493 430.055 242.17 429.939 241.789 429.674L238.226 427.15C237.96 426.966 237.799 426.713 237.73 426.401C237.66 426.09 237.73 425.791 237.949 425.491C238.71 424.488 239.759 423.659 241.12 423.025C242.481 422.379 243.969 421.987 245.595 421.849C247.221 421.699 248.905 421.838 250.669 422.253C252.422 422.667 254.083 423.417 255.628 424.523Z" fill="white"/>
<path d="M153.782 552.712H112.807V453.508C112.807 435.564 127.361 421.02 145.317 421.02H149.1C167.057 421.02 181.611 435.564 181.611 453.508V524.903C181.611 540.265 169.156 552.712 153.782 552.712Z" fill="#263238"/>
<path d="M108.819 791.536C108.485 794.025 107.77 796.941 107.632 803.982C107.493 811.542 106.098 814.228 105.913 820.428C105.706 827.515 106.928 830.166 109.811 834.154C112.694 838.141 120.248 841.748 123.431 835.018C126.661 828.207 126.211 823.874 125.196 816.924C124.135 809.733 124.008 805.769 123.397 800.283C122.855 795.454 122.209 791.778 122.209 791.778L108.819 791.536Z" fill="#263238"/>
<path d="M130.292 741.323L105.381 740.874C105.75 757.492 108.391 775.943 108.829 791.536C108.91 794.474 108.76 814.343 109.867 820.382C111.528 829.452 122.311 828.23 122.888 822.802C123.464 817.374 122.196 794.163 122.23 791.778C122.138 781.774 126.82 764.891 129.288 746.935C129.404 746.048 130.199 742.176 130.315 741.323H130.292Z" fill="#FFA8A7"/>
<path d="M162.292 778.604C162.292 778.604 161.311 778.074 161.104 779.123C160.862 780.368 160.504 782.949 159.985 784.989C159.259 787.836 158.67 792.526 159.097 794.843C159.524 797.159 164.944 800.155 168.462 801.227C173.652 802.818 177.204 805.411 180.041 808.084C183.524 811.357 191.031 814.446 196.152 814.411C202.207 814.365 206.428 812.395 208.423 809.156C210.51 805.779 206.601 805.526 199.692 801.043C198.124 800.029 196.336 798.876 194.318 797.562C183.362 790.406 179.349 786.579 176.246 779.423L162.303 778.593L162.292 778.604Z" fill="#263238"/>
<path d="M176.327 774.179C176.142 769.028 179.671 725.373 179.671 725.373L156.006 736.148C161.069 766.366 162.153 773.499 162.245 778.443C162.21 778.559 162.107 778.973 162.107 779.711C162.13 785.577 168.761 788.746 173.928 792.665C175.969 794.209 181.908 798.773 187.917 801.792C191.677 803.682 199.311 803.855 200.257 801.435C193.96 796.629 184.803 789.438 179.798 783.964C177.411 781.347 176.5 779.331 176.315 774.179H176.327Z" fill="#FFA8A7"/>
<path d="M115.586 579.16C106.498 599.098 106.498 614.506 108.009 639.941C109.381 663.267 111.584 683.815 111.584 683.815C111.227 687.952 105.472 696.031 104.734 714.332C104.042 731.435 105.91 753.182 105.91 753.182C105.91 753.182 118.838 760.338 128.399 753.124C128.399 753.124 137.625 709.111 140.324 687.699C142.688 669.017 146.782 645.138 146.782 645.138L155.466 687.595C155.466 687.595 152.168 698.059 151.395 706.034C150.173 718.631 157.219 743.363 157.219 743.363C157.219 743.363 170.574 747.35 178.728 740.113C178.728 740.113 181.784 699.903 182.914 684.737C184.437 664.419 181.23 609.424 178.728 580.301L115.598 579.16H115.586Z" fill="#455A64"/>
<path d="M146.773 645.139L150.36 613.181C150.36 613.181 166.437 611.037 173.725 604.192C173.725 604.192 168.259 614.207 154.777 616.154L149.587 645.899L155.458 687.607L146.773 645.15V645.139Z" fill="#263238"/>
<path d="M211.872 571.301C212.875 561.505 212.829 554.982 212.748 553.726C212.402 548.655 211.491 547.826 204.399 538.848C194.815 526.712 186.638 515.81 178 504.966C171.83 497.221 165.337 496.022 158.994 496.38C154.566 496.622 163.204 517.908 167.563 530.504L192.416 557.218C193.177 558.278 193.535 559.569 193.408 560.871L191.886 583.609L199.324 593.555C199.324 593.555 210.592 583.84 211.872 571.313V571.301Z" fill="#FFA8A7"/>
<path d="M135.043 497.059C130.234 497.393 121.492 498.154 121.492 498.154C116.452 500.966 115.172 503.271 114.238 509.967C113.835 512.813 116.164 520.408 118.159 531.207L121.942 551.225L121.527 561.159C119.566 567.221 115.115 574.746 111.205 585.845C130.465 596.586 146.611 596.977 161.257 595.099C172.421 593.67 178.337 590.962 180.309 588.299C179.894 577.328 179.121 570.563 178.937 559.108C178.856 554.29 179.144 549.438 179.329 543.907C186.825 537.753 186.906 527.53 182.823 520.915C173.332 505.553 164.094 495.884 157.982 496.379L135.055 497.048L135.043 497.059Z" fill="#27DEBF"/>
<path d="M135.043 497.059C130.234 497.393 121.492 498.154 121.492 498.154C116.452 500.966 115.172 503.271 114.238 509.967C113.835 512.813 116.164 520.408 118.159 531.207L121.942 551.225L121.527 561.159C119.566 567.221 115.115 574.746 111.205 585.845C130.465 596.586 146.611 596.977 161.257 595.099C172.421 593.67 178.337 590.962 180.309 588.299C179.894 577.328 179.121 570.563 178.937 559.108C178.856 554.29 179.144 549.438 179.329 543.907C186.825 537.753 186.906 527.53 182.823 520.915C173.332 505.553 164.094 495.884 157.982 496.379L135.055 497.048L135.043 497.059Z" fill="#74EE9B"/>
<path opacity="0.1" d="M164.417 544.079C164.417 544.079 155.618 550.902 145.584 547.341C135.551 543.78 134.086 535.021 134.086 535.021C134.086 535.021 133.025 546.488 145.677 550.395C157.89 554.163 164.417 544.079 164.417 544.079Z" fill="black"/>
<path d="M176.345 465.586C175.964 482.227 170.567 486.342 167.857 487.517C165.147 488.704 159.922 487.978 154.848 487.137V497.117C154.848 497.117 160.706 503.248 160.268 507.823C159.818 512.41 151.065 512.917 144.491 508.434C139.694 505.173 136.269 501.439 134.769 499.664C134.227 499.019 133.927 498.212 133.927 497.371V473.872C133.927 473.872 131.148 476.811 126.224 473.446C121.311 470.092 120.895 463.822 123.894 460.284C126.039 457.772 131.471 457.588 134.089 461.506C135.554 464.376 135.761 467.257 137.399 466.07C141.781 462.912 139.429 455.744 144.734 452.194C144.745 452.194 144.745 452.183 144.757 452.183C146.337 451.33 148.136 450.523 150.154 449.832C159.599 446.57 167.788 443.827 169.76 437.374C173.485 439.586 176.806 445.948 176.345 465.586Z" fill="#FFA8A7"/>
<path d="M157.721 480.453C158.931 480.453 159.912 479.472 159.912 478.263C159.912 477.054 158.931 476.073 157.721 476.073C156.51 476.073 155.529 477.054 155.529 478.263C155.529 479.472 156.51 480.453 157.721 480.453Z" fill="#B16668"/>
<path d="M156.267 463.062C156.336 464.375 155.356 465.493 154.087 465.562C152.819 465.62 151.735 464.606 151.666 463.281C151.596 461.967 152.577 460.849 153.845 460.78C155.114 460.722 156.198 461.736 156.267 463.062Z" fill="#263238"/>
<path d="M173.738 463.292C173.796 464.491 172.908 465.505 171.754 465.563C170.486 465.62 169.621 464.814 169.551 463.488C169.494 462.29 170.382 461.275 171.535 461.218C172.688 461.16 173.68 462.094 173.738 463.292Z" fill="#263238"/>
<path d="M153.303 468.985C149.163 468.985 145.807 465.62 145.807 461.494C145.807 456.4 151.066 456.4 153.303 456.4C155.54 456.4 160.799 456.4 160.799 461.494C160.799 465.632 157.432 468.985 153.303 468.985ZM153.303 457.576C148.759 457.576 146.983 458.671 146.983 461.494C146.983 464.975 149.82 467.81 153.303 467.81C156.786 467.81 159.623 464.975 159.623 461.494C159.623 458.682 157.847 457.576 153.303 457.576Z" fill="#455A64"/>
<path d="M172.344 468.985C168.204 468.985 164.848 465.62 164.848 461.494C164.848 456.4 170.107 456.4 172.344 456.4C174.581 456.4 179.84 456.4 179.84 461.494C179.84 465.632 176.473 468.985 172.344 468.985ZM172.344 457.576C167.8 457.576 166.024 458.671 166.024 461.494C166.024 464.975 168.861 467.81 172.344 467.81C175.827 467.81 178.664 464.975 178.664 461.494C178.664 458.682 176.888 457.576 172.344 457.576Z" fill="#455A64"/>
<path d="M161.961 459.074L162.33 473.077L169.699 470.795L161.961 459.074Z" fill="#F28F8F"/>
<path d="M154.835 487.137C149.484 486.434 138.459 483.276 136.752 478.92C136.752 478.92 137.329 481.651 140.615 484.475C143.902 487.298 154.835 490.467 154.835 490.467V487.137Z" fill="#F28F8F"/>
<path d="M155.103 452.286L150.213 455.259C149.417 453.853 149.855 452.044 151.205 451.226C152.554 450.407 154.295 450.88 155.091 452.286H155.103Z" fill="#263238"/>
<path d="M174.996 455.594L169.553 453.693C170.026 452.16 171.629 451.342 173.128 451.86C174.627 452.379 175.469 454.05 174.996 455.583V455.594Z" fill="#263238"/>
<path d="M160.213 462.094C159.89 462.094 159.625 461.829 159.625 461.495C159.625 460.538 161.528 459.916 163.223 459.916C164.919 459.916 166.026 460.538 166.026 461.495C166.026 461.817 165.76 462.082 165.438 462.082C165.115 462.082 164.849 461.817 164.849 461.495C164.792 461.391 164.25 461.103 163.223 461.103C162.197 461.103 160.859 461.391 160.801 461.506C160.801 461.829 160.536 462.094 160.213 462.094Z" fill="#455A64"/>
<path d="M146.406 461.586C146.406 461.586 146.36 461.586 146.337 461.586L133.155 460.388C132.912 460.169 132.29 459.524 130.998 458.982L146.475 460.411C146.798 460.446 147.029 460.745 146.994 461.068C146.959 461.368 146.706 461.598 146.406 461.598V461.586Z" fill="#455A64"/>
<path d="M92.2805 475.324C96.5938 469.573 99.5346 465.217 103.467 460.284C105.705 457.484 107.135 455.479 109.28 452.609C110.756 450.627 111.621 448.967 113.27 448.345C115.115 447.653 116.891 446.293 118.079 445.049C118.933 444.161 119.625 443.136 120.351 442.145C122.819 438.826 125.76 435.864 129.058 433.374C132.53 430.758 136.382 428.765 139.945 426.275C142.067 424.789 144.351 422.322 141.767 420.017C140.995 419.326 140.015 418.923 139.011 418.704C132.737 417.332 127.259 419.499 121.124 421.066C118.46 421.746 115.83 422.599 113.305 423.705C112.082 424.235 110.86 424.823 109.845 425.688C108.265 427.036 107.319 428.96 106.293 430.77C103.536 435.633 97.8163 439.92 93.7913 443.7C89.0744 448.137 84.8535 452.206 79.4677 457.104C74.6239 461.506 69.884 465.574 65.4323 470.38C61.7534 474.356 63.0912 477.479 63.6217 478.551C66.6202 484.705 69.9762 486.918 73.9781 490.732C80.9208 497.336 104.828 516.351 112.763 522.621C114.458 523.969 115.796 525.709 116.649 527.692L118.16 531.207C127.202 532.866 133.233 519.302 125.749 502.971C124.538 500.321 122.612 498.062 120.247 496.345C110.802 489.465 92.2805 475.312 92.2805 475.312V475.324Z" fill="#FFA8A7"/>
<path d="M92.2827 475.324C92.2827 475.324 88.2001 480.787 81.2344 482.93C81.2344 482.93 87.0007 484.405 94.9006 477.318L92.2943 475.324H92.2827Z" fill="#F28F8F"/>
<path d="M209.524 559.281H209.559L208.083 558.013V558.036C207.748 557.771 207.229 557.69 206.56 557.863L190.553 562.22C189.065 562.623 187.462 564.133 186.955 565.585L175.433 598.81C175.168 599.582 175.272 600.17 175.641 600.504H175.629L177.152 601.818V601.795C177.486 602.072 178.005 602.164 178.686 601.979L194.693 597.623C196.181 597.22 197.784 595.71 198.291 594.258C200.552 587.724 207.552 567.567 209.812 561.033C210.101 560.214 209.951 559.604 209.524 559.281Z" fill="#455A64"/>
<path d="M176.897 600.066L188.419 566.841C188.926 565.388 190.529 563.879 192.017 563.475L208.036 559.119C209.523 558.716 210.319 559.569 209.812 561.021C207.551 567.555 200.551 587.712 198.291 594.246C197.783 595.698 196.18 597.208 194.692 597.611L178.685 601.968C177.197 602.371 176.401 601.518 176.909 600.066H176.897Z" fill="#37474F"/>
<path d="M190.289 564.409C189.458 565.066 188.743 565.977 188.432 566.852L176.899 600.066C176.645 600.815 176.726 601.392 177.061 601.737L175.631 600.504H175.642C175.262 600.159 175.158 599.571 175.423 598.799L186.956 565.573C187.232 564.755 187.89 563.925 188.663 563.268L190.289 564.421V564.409Z" fill="#37474F"/>
<path d="M205.13 574.424C204 577.812 199.975 580.071 193.367 581.639C186.758 583.206 183.091 590.224 184.152 592.356C185.224 594.488 195.904 596.471 200.182 595.86C204.461 595.249 208.763 589.072 210.054 587.159C211.346 585.246 212.857 571.9 211.484 570.068C210.112 568.235 207.217 568.524 207.217 568.524L205.13 574.424Z" fill="#F28F8F"/>
<path d="M1380.74 1119.24C1380.74 1119.24 1284.69 1064.77 1301.77 930.22C1320.92 779.353 1209.99 714.506 1134.23 751.886C1058.46 789.265 1042.45 955.29 919.731 932.083C797.004 908.865 741.519 1110.71 741.519 1110.71" stroke="#26DD9B" stroke-miterlimit="10"/>
<path d="M1269.76 1159.82C1269.76 1159.82 1228.14 1044.81 1243.08 930.381C1258.02 815.951 1190.86 802.571 1164.11 815.951C1108.62 843.718 1097.95 992.155 1008.31 1001.77C940.933 1008.99 850.372 951.575 802.353 1081.86" stroke="#26DD9B" stroke-miterlimit="10"/>
<path d="M1224.94 1108.55C1224.94 1108.55 1239.92 990.999 1173.71 1011.99C1097.81 1036.04 1099.01 1092.54 1002.96 1039.15C968.798 1020.16 831.15 1014.58 858.898 1119.24" stroke="#26DD9B" stroke-miterlimit="10"/>
<path d="M1148.1 909.4C1148.1 880.207 1161 856.542 1176.92 856.542C1192.83 856.542 1205.74 880.207 1205.74 909.4C1205.74 938.593 1192.83 962.258 1176.92 962.258C1161 962.258 1148.1 938.593 1148.1 909.4Z" stroke="#26DD9B" stroke-miterlimit="10"/>
<path d="M213.502 -204C95.5878 -204 0 -108.412 0 9.50232C0 127.417 95.5878 223.005 213.502 223.005C331.417 223.005 427.005 127.417 427.005 9.50232C427.005 -108.412 331.412 -204 213.502 -204ZM213.502 155.692C132.762 155.692 67.313 90.2381 67.313 9.50232C67.313 -71.2335 132.762 -136.692 213.502 -136.692C294.243 -136.692 359.692 -71.2381 359.692 9.49769C359.692 90.2335 294.238 155.687 213.502 155.687V155.692Z" fill="#74EE9B"/>
</svg>
