<svg width="30" height="30" viewBox="0 0 41 41" fill="none" xmlns="http://www.w3.org/2000/svg">
<path fill-rule="evenodd" clip-rule="evenodd" d="M20.9176 0C9.82679 0 0.835938 8.99085 0.835938 20.0816C0.835938 31.1724 9.82679 40.1632 20.9176 40.1632C32.0083 40.1632 40.9992 31.1724 40.9992 20.0816C40.9992 8.99085 32.0083 0 20.9176 0ZM20.3588 17.0175L20.3167 16.3226C20.1902 14.5216 21.2999 12.8766 23.0558 12.2385C23.7019 12.0116 24.7976 11.9832 25.5139 12.1818C25.7949 12.2668 26.3286 12.5505 26.7079 12.8057L27.3962 13.2737L28.1547 13.0326C28.5761 12.905 29.138 12.6923 29.3908 12.5505C29.6296 12.4228 29.8403 12.3519 29.8403 12.3945C29.8403 12.6356 29.3206 13.458 28.8851 13.9118C28.2952 14.55 28.4637 14.6067 29.6577 14.1813C30.3741 13.9402 30.3881 13.9402 30.2477 14.2096C30.1634 14.3515 29.7279 14.8478 29.2644 15.3016C28.4778 16.0815 28.4356 16.1666 28.4356 16.8189C28.4356 17.8258 27.9581 19.9246 27.4805 21.0733C26.5955 23.2288 24.6992 25.4552 22.8029 26.5755C20.1341 28.1496 16.5802 28.5466 13.5883 27.6249C12.591 27.3129 10.8773 26.5188 10.8773 26.3769C10.8773 26.3344 11.397 26.2777 12.0291 26.2635C13.3495 26.2351 14.6699 25.8664 15.7936 25.2141L16.5522 24.7603L15.6813 24.4625C14.4452 24.0371 13.3355 23.0586 13.0545 22.1368C12.9703 21.839 12.9983 21.8248 13.785 21.8248L14.5997 21.8107L13.9114 21.4845C13.0967 21.0733 12.3522 20.3784 11.987 19.6693C11.7201 19.1588 11.383 17.8683 11.4813 17.7691C11.5094 17.7265 11.8044 17.8116 12.1415 17.9251C13.1107 18.2796 13.2371 18.1945 12.6753 17.5989C11.6218 16.5211 11.2987 14.9187 11.8044 13.4013L12.0432 12.7206L12.9703 13.6424C14.8666 15.5001 17.1 16.6062 19.6565 16.9324L20.3588 17.0175Z" fill="white"/>
</svg>
