<svg width="17" height="17" viewBox="0 0 60 60" fill="none" xmlns="http://www.w3.org/2000/svg">
<g clip-path="url(#clip0_678_151)">
<path d="M30 30C34.5466 30 38.9069 28.4196 42.1218 25.6066C45.3367 22.7936 47.1429 18.9782 47.1429 15C47.1429 11.0218 45.3367 7.20644 42.1218 4.3934C38.9069 1.58035 34.5466 0 30 0C25.4534 0 21.0931 1.58035 17.8782 4.3934C14.6633 7.20644 12.8571 11.0218 12.8571 15C12.8571 18.9782 14.6633 22.7936 17.8782 25.6066C21.0931 28.4196 25.4534 30 30 30ZM23.8795 35.625C10.6875 35.625 0 44.9766 0 56.5195C0 58.4414 1.78125 60 3.97768 60H56.0223C58.2187 60 60 58.4414 60 56.5195C60 44.9766 49.3125 35.625 36.1205 35.625H23.8795Z" fill="#B2B2B2"/>
</g>
<defs>
<clipPath id="clip0_678_151">
<rect width="60" height="60" fill="white"/>
</clipPath>
</defs>
</svg>
