<svg width="780" height="780" viewBox="0 0 667 667" fill="none" xmlns="http://www.w3.org/2000/svg">
<path fill-rule="evenodd" clip-rule="evenodd" d="M0 333.333C0 149.238 149.238 0 333.333 0C517.427 0 666.667 149.238 666.667 333.333C666.667 517.427 517.427 666.667 333.333 666.667C149.238 666.667 0 517.427 0 333.333ZM333.33 133.333C259.692 133.333 199.997 193.029 199.997 266.667C199.997 340.303 259.692 400 333.33 400C406.967 400 466.663 340.303 466.663 266.667C466.663 193.029 406.967 133.333 333.33 133.333ZM503.717 466.58C528.977 482.847 527.743 518.303 504.74 537.627C458.39 576.553 398.603 600 333.337 600C268.503 600 209.072 576.863 162.852 538.393C139.644 519.077 138.414 483.44 163.784 467.067C171.681 461.97 180.282 457.503 189.616 453.657C227.172 438.173 275.14 433.333 333.333 433.333C391.82 433.333 440.06 437.863 477.713 453.18C487.12 457.007 495.78 461.47 503.717 466.58Z" fill="white"/>
</svg>
