<svg width="120.8" height="336.8" viewBox="0 0 151 421" fill="none" xmlns="http://www.w3.org/2000/svg">
<path d="M91.7824 134.712H50.8066V35.5078C50.8066 17.5641 65.361 3.02002 83.3174 3.02002H87.1001C105.057 3.02002 119.611 17.5641 119.611 35.5078V106.903C119.611 122.265 107.156 134.712 91.7824 134.712Z" fill="#263238"/>
<path d="M46.8194 373.536C46.4849 376.025 45.7699 378.941 45.6315 385.982C45.4931 393.542 44.0977 396.228 43.9131 402.428C43.7055 409.515 44.928 412.166 47.8112 416.154C50.6944 420.141 58.2483 423.748 61.4314 417.018C64.6605 410.207 64.2107 405.874 63.1959 398.924C62.1349 391.733 62.008 387.769 61.3968 382.283C60.8547 377.454 60.2089 373.778 60.2089 373.778L46.8194 373.536Z" fill="#263238"/>
<path d="M68.2916 323.323L43.3809 322.874C43.7499 339.492 46.3909 357.943 46.8292 373.536C46.9099 376.474 46.7599 396.343 47.8671 402.382C49.5278 411.452 60.3109 410.23 60.8876 404.802C61.4642 399.374 60.1956 376.163 60.2302 373.778C60.1379 363.774 64.8202 346.891 67.2882 328.935C67.4035 328.048 68.1993 324.176 68.3146 323.323H68.2916Z" fill="#FFA8A7"/>
<path d="M100.292 360.604C100.292 360.604 99.3115 360.074 99.1039 361.123C98.8617 362.368 98.5042 364.949 97.9852 366.989C97.2587 369.836 96.6705 374.526 97.0972 376.843C97.5239 379.159 102.944 382.155 106.462 383.227C111.652 384.818 115.204 387.411 118.041 390.084C121.524 393.357 129.031 396.446 134.152 396.411C140.207 396.365 144.428 394.395 146.423 391.156C148.51 387.779 144.601 387.526 137.692 383.043C136.124 382.029 134.336 380.876 132.318 379.562C121.362 372.406 117.349 368.579 114.246 361.423L100.303 360.593L100.292 360.604Z" fill="#263238"/>
<path d="M114.327 356.179C114.142 351.028 117.671 307.373 117.671 307.373L94.0059 318.148C99.0687 348.366 100.153 355.499 100.245 360.443C100.21 360.559 100.107 360.973 100.107 361.711C100.13 367.577 106.761 370.746 111.928 374.665C113.969 376.209 119.908 380.773 125.917 383.792C129.677 385.682 137.311 385.855 138.257 383.435C131.96 378.629 122.803 371.438 117.798 365.964C115.411 363.347 114.5 361.331 114.315 356.179H114.327Z" fill="#FFA8A7"/>
<path d="M53.5861 161.16C44.4983 181.098 44.4983 196.506 46.0091 221.941C47.3815 245.267 49.5843 265.815 49.5843 265.815C49.2267 269.952 43.4719 278.031 42.7338 296.332C42.0418 313.435 43.9102 335.182 43.9102 335.182C43.9102 335.182 56.8383 342.338 66.399 335.124C66.399 335.124 75.6252 291.111 78.3238 269.699C80.688 251.017 84.7822 227.138 84.7822 227.138L93.4663 269.595C93.4663 269.595 90.1679 280.059 89.3952 288.034C88.1728 300.631 95.2193 325.363 95.2193 325.363C95.2193 325.363 108.574 329.35 116.728 322.113C116.728 322.113 119.784 281.903 120.914 266.737C122.437 246.419 119.23 191.424 116.728 162.301L53.5976 161.16H53.5861Z" fill="#455A64"/>
<path d="M84.7734 227.138L88.3601 195.181C88.3601 195.181 104.437 193.037 111.725 186.191C111.725 186.191 106.259 196.206 92.7772 198.154L87.5874 227.899L93.4576 269.606L84.7734 227.15V227.138Z" fill="#263238"/>
<path d="M149.872 153.301C150.875 143.505 150.829 136.982 150.748 135.726C150.402 130.655 149.491 129.826 142.399 120.848C132.815 108.712 124.638 97.8102 116 86.9656C109.83 79.221 103.337 78.0225 96.9944 78.3797C92.5658 78.6218 101.204 99.9077 105.563 112.504L130.416 139.218C131.177 140.278 131.535 141.569 131.408 142.871L129.886 165.609L137.324 175.555C137.324 175.555 148.592 165.84 149.872 153.313V153.301Z" fill="#FFA8A7"/>
<path d="M73.0432 79.0592C68.2341 79.3934 59.4923 80.1541 59.4923 80.1541C54.4525 82.9661 53.1723 85.271 52.2382 91.9668C51.8345 94.8133 54.1642 102.408 56.1593 113.207L59.942 133.225L59.5269 143.159C57.5663 149.221 53.1147 156.746 49.2051 167.845C68.4647 178.586 84.6106 178.977 99.2571 177.099C110.421 175.67 116.337 172.962 118.309 170.299C117.894 159.328 117.121 152.563 116.937 141.108C116.856 136.29 117.144 131.438 117.329 125.907C124.825 119.753 124.906 109.53 120.823 102.915C111.332 87.5528 102.094 77.8837 95.9818 78.3793L73.0548 79.0477L73.0432 79.0592Z" fill="#27DEBF"/>
<path d="M73.0432 79.0592C68.2341 79.3934 59.4923 80.1541 59.4923 80.1541C54.4525 82.9661 53.1723 85.271 52.2382 91.9668C51.8345 94.8133 54.1642 102.408 56.1593 113.207L59.942 133.225L59.5269 143.159C57.5663 149.221 53.1147 156.746 49.2051 167.845C68.4647 178.586 84.6106 178.977 99.2571 177.099C110.421 175.67 116.337 172.962 118.309 170.299C117.894 159.328 117.121 152.563 116.937 141.108C116.856 136.29 117.144 131.438 117.329 125.907C124.825 119.753 124.906 109.53 120.823 102.915C111.332 87.5528 102.094 77.8837 95.9818 78.3793L73.0548 79.0477L73.0432 79.0592Z" fill="#74EE9B"/>
<path opacity="0.1" d="M102.417 126.08C102.417 126.08 93.618 132.902 83.5845 129.341C73.551 125.78 72.0863 117.021 72.0863 117.021C72.0863 117.021 71.0253 128.488 83.6767 132.395C95.8899 136.164 102.417 126.08 102.417 126.08Z" fill="black"/>
<path d="M114.345 47.5857C113.964 64.2272 108.567 68.3415 105.857 69.517C103.147 70.7041 97.9222 69.978 92.8478 69.1367V79.117C92.8478 79.117 98.7064 85.2481 98.2682 89.8234C97.8184 94.4101 89.065 94.9172 82.4914 90.4342C77.6938 87.1727 74.2686 83.4387 72.7693 81.664C72.2273 81.0186 71.9274 80.2118 71.9274 79.3706V55.8719C71.9274 55.8719 69.148 58.8107 64.2236 55.4455C59.3106 52.0919 58.8954 45.8225 61.8939 42.2844C64.039 39.7721 69.4709 39.5877 72.0889 43.506C73.5535 46.3757 73.7611 49.2568 75.3988 48.0698C79.7812 44.912 77.4285 37.7437 82.7336 34.1942C82.7451 34.1942 82.7451 34.1826 82.7566 34.1826C84.3366 33.3298 86.1357 32.5231 88.154 31.8316C97.5993 28.5702 105.788 25.8273 107.76 19.3735C111.485 21.5863 114.806 27.9478 114.345 47.5857Z" fill="#FFA8A7"/>
<path d="M95.7205 62.4526C96.9307 62.4526 97.9117 61.4722 97.9117 60.2629C97.9117 59.0536 96.9307 58.0732 95.7205 58.0732C94.5103 58.0732 93.5293 59.0536 93.5293 60.2629C93.5293 61.4722 94.5103 62.4526 95.7205 62.4526Z" fill="#B16668"/>
<path d="M94.2671 45.0618C94.3363 46.3756 93.356 47.4935 92.0874 47.5626C90.8188 47.6203 89.7348 46.6061 89.6656 45.2808C89.5964 43.967 90.5766 42.8491 91.8452 42.7799C93.1138 42.7223 94.1979 43.7365 94.2671 45.0618Z" fill="#263238"/>
<path d="M111.738 45.2923C111.796 46.4908 110.908 47.505 109.754 47.5626C108.486 47.6203 107.621 46.8135 107.551 45.4882C107.494 44.2897 108.382 43.2755 109.535 43.2179C110.688 43.1602 111.68 44.0937 111.738 45.2923Z" fill="#263238"/>
<path d="M91.3029 50.9855C87.1627 50.9855 83.8066 47.6203 83.8066 43.4945C83.8066 38.4006 89.0656 38.4006 91.3029 38.4006C93.5403 38.4006 98.7992 38.4006 98.7992 43.4945C98.7992 47.6318 95.4316 50.9855 91.3029 50.9855ZM91.3029 39.5761C86.759 39.5761 84.983 40.671 84.983 43.4945C84.983 46.9749 87.82 49.81 91.3029 49.81C94.7858 49.81 97.6228 46.9749 97.6228 43.4945C97.6228 40.6825 95.8468 39.5761 91.3029 39.5761Z" fill="#455A64"/>
<path d="M110.344 50.9855C106.204 50.9855 102.848 47.6203 102.848 43.4945C102.848 38.4006 108.107 38.4006 110.344 38.4006C112.581 38.4006 117.84 38.4006 117.84 43.4945C117.84 47.6318 114.473 50.9855 110.344 50.9855ZM110.344 39.5761C105.8 39.5761 104.024 40.671 104.024 43.4945C104.024 46.9749 106.861 49.81 110.344 49.81C113.827 49.81 116.664 46.9749 116.664 43.4945C116.664 40.6825 114.888 39.5761 110.344 39.5761Z" fill="#455A64"/>
<path d="M99.9609 41.0742L100.33 55.0766L107.699 52.7947L99.9609 41.0742Z" fill="#F28F8F"/>
<path d="M92.8353 69.137C87.4841 68.434 76.4588 65.2762 74.752 60.9199C74.752 60.9199 75.3286 63.6512 78.6154 66.4748C81.9022 69.2983 92.8353 72.4676 92.8353 72.4676V69.137Z" fill="#F28F8F"/>
<path d="M93.1027 34.2862L88.2128 37.2595C87.4171 35.8535 87.8553 34.0442 89.2047 33.2259C90.554 32.4077 92.2954 32.8802 93.0912 34.2862H93.1027Z" fill="#263238"/>
<path d="M112.996 37.5941L107.553 35.6925C108.026 34.1598 109.629 33.3415 111.128 33.8601C112.627 34.3787 113.469 36.0498 112.996 37.5826V37.5941Z" fill="#263238"/>
<path d="M98.2132 44.0939C97.8903 44.0939 97.625 43.8289 97.625 43.4946C97.625 42.5381 99.5279 41.9158 101.223 41.9158C102.919 41.9158 104.026 42.5381 104.026 43.4946C104.026 43.8173 103.76 44.0824 103.438 44.0824C103.115 44.0824 102.849 43.8173 102.849 43.4946C102.792 43.3909 102.25 43.1028 101.223 43.1028C100.197 43.1028 98.859 43.3909 98.8013 43.5062C98.8013 43.8289 98.5361 44.0939 98.2132 44.0939Z" fill="#455A64"/>
<path d="M84.4058 43.5867C84.4058 43.5867 84.3596 43.5867 84.3366 43.5867L71.1547 42.3882C70.9125 42.1692 70.2897 41.5238 68.998 40.9822L84.475 42.4112C84.7979 42.4458 85.0285 42.7454 84.9939 43.0681C84.9593 43.3678 84.7056 43.5983 84.4058 43.5983V43.5867Z" fill="#455A64"/>
<path d="M30.2805 57.3239C34.5938 51.5732 37.5346 47.2169 41.4673 42.2843C43.7046 39.4839 45.1347 37.4786 47.2798 34.609C48.756 32.6267 49.6209 30.9672 51.2701 30.3449C53.1153 29.6534 54.8914 28.2935 56.0793 27.0488C56.9327 26.1614 57.6246 25.1357 58.3512 24.1446C60.8192 20.8255 63.76 17.8637 67.0584 15.3744C70.5298 12.7583 74.3817 10.7646 77.9453 8.27526C80.0673 6.78859 82.3508 4.32232 79.7675 2.0174C78.9948 1.32593 78.0145 0.922568 77.0112 0.703601C70.7374 -0.667825 65.2593 1.4988 59.1239 3.06614C56.4598 3.74609 53.8304 4.59891 51.3047 5.70527C50.0822 6.23541 48.8598 6.82316 47.8449 7.6875C46.2649 9.03588 45.3192 10.9605 44.2928 12.7698C41.5365 17.6332 35.8162 21.9204 31.7913 25.7004C27.0744 30.1374 22.8535 34.2056 17.4677 39.1035C12.6239 43.5059 7.88397 47.5741 3.43234 52.3799C-0.246603 56.3559 1.09119 59.479 1.6217 60.5508C4.62021 66.7049 7.97623 68.9177 11.9781 72.7323C18.9208 79.3359 42.8281 98.3515 50.7627 104.621C52.458 105.969 53.7958 107.709 54.6492 109.692L56.16 113.207C65.2016 114.866 71.2333 101.302 63.7485 84.9714C62.5376 82.3208 60.6116 80.0619 58.2474 78.3448C48.8021 71.4646 30.2805 57.3124 30.2805 57.3124V57.3239Z" fill="#FFA8A7"/>
<path d="M30.2827 57.324C30.2827 57.324 26.2001 62.7866 19.2344 64.9302C19.2344 64.9302 25.0007 66.4053 32.9006 59.3177L30.2943 57.324H30.2827Z" fill="#F28F8F"/>
<path d="M147.524 141.281H147.559L146.083 140.013V140.036C145.748 139.771 145.229 139.69 144.56 139.863L128.553 144.22C127.065 144.623 125.462 146.133 124.955 147.585L113.433 180.81C113.168 181.582 113.272 182.17 113.641 182.504H113.629L115.152 183.818V183.795C115.486 184.072 116.005 184.164 116.686 183.979L132.693 179.623C134.181 179.22 135.784 177.71 136.291 176.258C138.552 169.724 145.552 149.567 147.812 143.033C148.101 142.214 147.951 141.604 147.524 141.281Z" fill="#455A64"/>
<path d="M114.897 182.066L126.419 148.841C126.926 147.389 128.529 145.879 130.017 145.476L146.036 141.119C147.523 140.716 148.319 141.569 147.812 143.021C145.551 149.555 138.551 169.712 136.291 176.246C135.783 177.698 134.18 179.208 132.692 179.611L116.685 183.968C115.197 184.371 114.401 183.518 114.909 182.066H114.897Z" fill="#37474F"/>
<path d="M128.289 146.409C127.458 147.066 126.743 147.977 126.432 148.852L114.899 182.066C114.645 182.815 114.726 183.392 115.061 183.737L113.631 182.504H113.642C113.262 182.159 113.158 181.571 113.423 180.799L124.956 147.573C125.232 146.755 125.89 145.925 126.663 145.268L128.289 146.421V146.409Z" fill="#37474F"/>
<path d="M143.13 156.424C142 159.812 137.975 162.071 131.367 163.639C124.758 165.206 121.091 172.224 122.152 174.356C123.224 176.488 133.904 178.471 138.182 177.86C142.461 177.249 146.763 171.072 148.054 169.159C149.346 167.246 150.857 153.9 149.484 152.068C148.112 150.235 145.217 150.524 145.217 150.524L143.13 156.424Z" fill="#F28F8F"/>
</svg>
