<svg width="65.6" height="69.6" viewBox="0 0 82 87" fill="none" xmlns="http://www.w3.org/2000/svg">
<path d="M19.8922 0.433299C21.9104 0.882758 23.8133 1.59728 25.5894 2.57687C27.3769 3.55646 28.8877 4.75502 30.1217 6.17255C31.3557 7.59007 32.2553 9.20352 32.7973 11.0129C33.3394 12.8222 33.3855 14.7699 32.9126 16.8674C32.5321 18.5845 31.9324 20.0136 31.1251 21.1545C30.3063 22.2955 29.3721 23.2866 28.3111 24.1048C27.2501 24.9231 26.1314 25.6491 24.9666 26.2599C23.7903 26.8822 22.6831 27.47 21.6452 28.0232C20.5957 28.5764 19.65 29.1872 18.8081 29.8556C17.9662 30.524 17.3665 31.3192 17.0321 32.2296C16.836 32.6791 16.5592 33.0479 16.1787 33.3245C15.7981 33.6011 15.3829 33.6817 14.9101 33.578L10.0202 32.4947C9.54735 32.391 9.16676 32.1259 8.87844 31.6995C8.59012 31.2731 8.52094 30.8352 8.67086 30.3742C9.13217 28.7262 9.80105 27.3317 10.7121 26.2023C11.6117 25.0729 12.615 24.1048 13.7222 23.2981C14.8293 22.4914 15.9711 21.7884 17.159 21.1891C18.3468 20.6013 19.454 20.0251 20.4804 19.4604C21.5068 18.8957 22.3717 18.3079 23.0983 17.6856C23.8249 17.0633 24.2862 16.2911 24.4822 15.3922C24.8397 13.7673 24.4592 12.2691 23.3174 10.9207C22.1757 9.5723 20.4688 8.63881 18.1969 8.13173C14.5525 7.32501 11.4733 8.55814 8.94763 11.8196C8.62472 12.246 8.32487 12.5456 8.03656 12.73C7.74824 12.9144 7.32152 12.949 6.76795 12.8222L1.55517 11.6698C1.17459 11.5891 0.863194 11.3817 0.644072 11.059C0.42495 10.7363 0.355756 10.3675 0.448018 9.94109C0.817065 8.45442 1.62436 7.02537 2.84683 5.65394C4.0693 4.28251 5.56856 3.13005 7.32153 2.19656C9.08604 1.26307 11.0466 0.606168 13.2263 0.237381C15.406 -0.131406 17.6203 -0.0737827 19.8922 0.433299ZM14.3796 37.5079C14.8524 37.6116 15.2214 37.8767 15.4867 38.2916C15.7519 38.7065 15.8327 39.1559 15.7289 39.6284L14.4718 45.287C14.368 45.7595 14.1028 46.1283 13.6876 46.3934C13.2724 46.6584 12.8226 46.7391 12.3498 46.6354L6.81409 45.4138C6.34125 45.3101 5.97219 45.045 5.70694 44.6301C5.44169 44.2152 5.36097 43.7658 5.46476 43.2933L6.72183 37.6347C6.82562 37.1622 7.09087 36.7934 7.50604 36.5283C7.92122 36.2633 8.371 36.1826 8.84384 36.2863L14.3796 37.5079Z" fill="#41E39B"/>
<path d="M26.052 54.495C27.459 54.2645 28.8545 54.23 30.2499 54.4028C31.6454 54.5757 32.9255 54.956 34.0788 55.5438C35.2321 56.1431 36.2239 56.9498 37.0312 57.9639C37.85 58.9781 38.369 60.2228 38.6111 61.6864C38.8072 62.8849 38.7841 63.9567 38.5535 64.9017C38.3228 65.8468 37.9769 66.7111 37.504 67.5178C37.0312 68.313 36.5007 69.0621 35.9125 69.7536C35.3243 70.4451 34.7592 71.102 34.2287 71.7358C33.6982 72.3582 33.2484 72.992 32.8794 73.6374C32.5103 74.2828 32.3373 74.9397 32.3489 75.6081C32.3489 75.9538 32.2566 76.2535 32.0836 76.5301C31.9106 76.8067 31.6569 76.968 31.334 77.0256L27.9203 77.5788C27.5859 77.6364 27.2745 77.5557 26.9862 77.3598C26.6978 77.1639 26.5364 76.8988 26.5133 76.5646C26.3865 75.3891 26.4672 74.3289 26.7555 73.3723C27.0438 72.4158 27.4359 71.5399 27.9318 70.7332C28.4278 69.9265 28.9813 69.1889 29.5926 68.5089C30.2038 67.829 30.7689 67.1721 31.2763 66.5498C31.7838 65.9274 32.1989 65.3282 32.4988 64.7404C32.7986 64.1526 32.9025 63.5418 32.7987 62.9195C32.6141 61.7901 31.9798 60.9258 30.9073 60.3495C29.8347 59.7733 28.4969 59.612 26.917 59.877C24.3798 60.2919 22.7075 61.8708 21.9348 64.6021C21.8426 64.9594 21.7272 65.2244 21.5888 65.4203C21.4504 65.6163 21.1852 65.743 20.8046 65.8007L17.1718 66.3999C16.9066 66.446 16.6528 66.3999 16.4337 66.2501C16.2146 66.1003 16.0762 65.8813 16.0301 65.5817C15.8917 64.533 16.0301 63.4151 16.4683 62.2165C16.9066 61.0295 17.5639 59.9001 18.4519 58.8513C19.34 57.8026 20.4356 56.8806 21.7272 56.0854C23.0304 55.2902 24.472 54.7601 26.052 54.5066V54.495ZM32.0144 79.6763C32.3489 79.6186 32.6487 79.6993 32.9255 79.8952C33.2023 80.0912 33.3638 80.3562 33.4214 80.6904L34.0672 84.6434C34.1249 84.9776 34.0442 85.2772 33.8481 85.5538C33.6521 85.8304 33.3868 85.9917 33.0524 86.0494L29.1889 86.6832C28.8545 86.7408 28.5546 86.6602 28.2778 86.4643C28.001 86.2683 27.828 86.0033 27.7819 85.6691L27.1361 81.7161C27.0784 81.3934 27.1592 81.0823 27.3552 80.8057C27.5513 80.5291 27.8165 80.3562 28.151 80.3101L32.0144 79.6763Z" fill="#41E39B"/>
<g opacity="0.2">
<path d="M26.052 54.4955C27.459 54.265 28.8545 54.2305 30.2499 54.4033C31.6454 54.5762 32.9255 54.9565 34.0788 55.5443C35.2321 56.1435 36.2239 56.9503 37.0312 57.9644C37.85 58.9786 38.369 60.2232 38.6111 61.6869C38.8072 62.8854 38.7841 63.9572 38.5535 64.9022C38.3228 65.8472 37.9769 66.7116 37.504 67.5183C37.0312 68.3135 36.5007 69.0626 35.9125 69.7541C35.3243 70.4456 34.7592 71.1025 34.2287 71.7363C33.6982 72.3586 33.2484 72.9925 32.8794 73.6379C32.5103 74.2833 32.3373 74.9402 32.3489 75.6086C32.3489 75.9543 32.2566 76.254 32.0836 76.5305C31.9106 76.8071 31.6569 76.9685 31.334 77.0261L27.9203 77.5793C27.5859 77.6369 27.2745 77.5562 26.9862 77.3603C26.6978 77.1644 26.5364 76.8993 26.5133 76.5651C26.3865 75.3896 26.4672 74.3293 26.7555 73.3728C27.0438 72.4163 27.4359 71.5404 27.9318 70.7337C28.4278 69.927 28.9813 69.1894 29.5926 68.5094C30.2038 67.8295 30.7689 67.1726 31.2763 66.5502C31.7838 65.9279 32.1989 65.3286 32.4988 64.7409C32.7986 64.1531 32.9025 63.5423 32.7987 62.92C32.6141 61.7906 31.9798 60.9262 30.9073 60.35C29.8347 59.7738 28.4969 59.6124 26.917 59.8775C24.3798 60.2924 22.7075 61.8713 21.9348 64.6026C21.8426 64.9599 21.7272 65.2249 21.5888 65.4208C21.4504 65.6168 21.1852 65.7435 20.8046 65.8011L17.1718 66.4004C16.9066 66.4465 16.6528 66.4004 16.4337 66.2506C16.2146 66.1008 16.0762 65.8818 16.0301 65.5822C15.8917 64.5334 16.0301 63.4156 16.4683 62.217C16.9066 61.03 17.5639 59.9006 18.4519 58.8518C19.34 57.8031 20.4356 56.8811 21.7272 56.0859C23.0304 55.2907 24.472 54.7606 26.052 54.507V54.4955ZM32.0144 79.6768C32.3489 79.6191 32.6487 79.6998 32.9255 79.8957C33.2023 80.0916 33.3638 80.3567 33.4214 80.6909L34.0672 84.6439C34.1249 84.9781 34.0442 85.2777 33.8481 85.5543C33.6521 85.8309 33.3868 85.9922 33.0524 86.0499L29.1889 86.6837C28.8545 86.7413 28.5546 86.6607 28.2778 86.4647C28.001 86.2688 27.828 86.0038 27.7819 85.6695L27.1361 81.7166C27.0784 81.3939 27.1592 81.0828 27.3552 80.8062C27.5513 80.5296 27.8165 80.3567 28.151 80.3106L32.0144 79.6768Z" fill="black"/>
</g>
<path d="M58.6517 60.6955C58.9746 60.9259 59.1707 61.2371 59.2399 61.6405C59.3091 62.0438 59.2284 62.4011 58.9977 62.7238L56.2529 66.5845C56.0223 66.9072 55.7109 67.1031 55.3072 67.1723C54.9036 67.2414 54.5461 67.1608 54.2232 66.9303L50.452 64.245C50.1291 64.0145 49.933 63.7034 49.8638 63.3C49.7946 62.8967 49.8754 62.5394 50.106 62.2167L52.8508 58.356C53.0814 58.0333 53.3928 57.8374 53.7965 57.7682C54.2001 57.6991 54.5576 57.7797 54.8805 58.0102L58.6517 60.6955ZM74.6246 34.5231C75.997 35.5027 77.2079 36.6436 78.2343 37.9459C79.2607 39.2482 80.0219 40.6311 80.5063 42.0948C80.9906 43.5584 81.1406 45.0566 80.9791 46.5894C80.8177 48.1221 80.2179 49.6088 79.2031 51.0379C78.3727 52.2134 77.4616 53.1007 76.4814 53.7C75.5011 54.2993 74.4862 54.7488 73.4252 55.0254C72.3642 55.3135 71.2916 55.4979 70.2191 55.5901C69.135 55.6823 68.1201 55.7745 67.1514 55.8551C66.1826 55.9358 65.2831 56.0971 64.4296 56.3392C63.5762 56.5697 62.8843 56.9845 62.3422 57.5608C62.0539 57.8374 61.7195 58.0218 61.3504 58.1139C60.9814 58.2061 60.6354 58.137 60.3124 57.9065L56.9795 55.5324C56.6566 55.3019 56.449 54.9793 56.3683 54.5759C56.2875 54.161 56.3682 53.8153 56.6335 53.5041C57.51 52.4093 58.4557 51.5795 59.4936 51.0148C60.5316 50.4501 61.5926 50.0467 62.6882 49.7817C63.7723 49.5166 64.8679 49.3553 65.952 49.2861C67.036 49.217 68.0509 49.1363 68.9966 49.0441C69.9423 48.9519 70.7957 48.779 71.5338 48.537C72.2719 48.295 72.8716 47.8686 73.3099 47.2578C74.1056 46.1514 74.2786 44.8952 73.8519 43.5123C73.4252 42.1293 72.4334 40.8847 70.888 39.7898C68.3969 38.0266 65.6867 37.969 62.7459 39.617C62.3653 39.8359 62.0424 39.9627 61.7656 40.0088C61.4888 40.0549 61.1659 39.9397 60.7853 39.6746L57.2217 37.1507C56.9564 36.9663 56.795 36.7128 56.7258 36.4016C56.6566 36.0905 56.7258 35.7908 56.9449 35.4912C57.7061 34.4885 58.7555 33.6588 60.1164 33.0249C61.4773 32.3795 62.965 31.9877 64.5911 31.8494C66.2172 31.6996 67.901 31.8379 69.6655 32.2528C71.4185 32.6677 73.0792 33.4167 74.6246 34.5231Z" fill="#41E39B"/>
<g opacity="0.6">
<path d="M58.6556 60.6952C58.9785 60.9257 59.1746 61.2369 59.2438 61.6402C59.313 62.0436 59.2323 62.4009 59.0016 62.7235L56.2568 66.5843C56.0262 66.907 55.7148 67.1029 55.3111 67.172C54.9075 67.2412 54.55 67.1605 54.2271 66.93L50.4559 64.2448C50.133 64.0143 49.9369 63.7031 49.8677 63.2998C49.7985 62.8964 49.8793 62.5392 50.1099 62.2165L52.8547 58.3557C53.0853 58.033 53.3967 57.8371 53.8004 57.768C54.204 57.6988 54.5615 57.7795 54.8844 58.01L58.6556 60.6952ZM74.6285 34.5229C76.0009 35.5025 77.2118 36.6434 78.2382 37.9457C79.2646 39.248 80.0258 40.6309 80.5102 42.0945C80.9945 43.5581 81.1445 45.0563 80.983 46.5891C80.8216 48.1219 80.2218 49.6086 79.207 51.0376C78.3766 52.2131 77.4655 53.1005 76.4853 53.6998C75.505 54.2991 74.4901 54.7485 73.4291 55.0251C72.3681 55.3132 71.2955 55.4976 70.223 55.5898C69.1389 55.682 68.124 55.7742 67.1553 55.8549C66.1865 55.9356 65.287 56.0969 64.4335 56.3389C63.5801 56.5694 62.8882 56.9843 62.3461 57.5605C62.0578 57.8371 61.7234 58.0215 61.3543 58.1137C60.9853 58.2059 60.6393 58.1368 60.3163 57.9063L56.9834 55.5322C56.6605 55.3017 56.4529 54.979 56.3722 54.5757C56.2914 54.1608 56.3722 53.815 56.6374 53.5039C57.5139 52.409 58.4596 51.5793 59.4975 51.0146C60.5355 50.4499 61.5965 50.0465 62.6921 49.7814C63.7762 49.5164 64.8718 49.355 65.9559 49.2859C67.0399 49.2167 68.0548 49.136 69.0005 49.0439C69.9462 48.9517 70.7996 48.7788 71.5377 48.5368C72.2758 48.2948 72.8755 47.8683 73.3138 47.2575C74.1095 46.1512 74.2825 44.895 73.8558 43.512C73.4291 42.1291 72.4373 40.8844 70.8919 39.7896C68.4008 38.0263 65.6906 37.9687 62.7498 39.6167C62.3692 39.8357 62.0463 39.9625 61.7695 40.0086C61.4927 40.0547 61.1698 39.9394 60.7892 39.6744L57.2256 37.1505C56.9603 36.9661 56.7989 36.7125 56.7297 36.4014C56.6605 36.0902 56.7297 35.7906 56.9488 35.4909C57.71 34.4883 58.7595 33.6585 60.1203 33.0247C61.4812 32.3793 62.9689 31.9875 64.595 31.8492C66.2211 31.6993 67.9049 31.8376 69.6694 32.2525C71.4224 32.6674 73.0831 33.4165 74.6285 34.5229Z" fill="white"/>
</g>
</svg>
