<svg width="487.2" height="272" viewBox="0 0 609 340" fill="none" xmlns="http://www.w3.org/2000/svg">
<path d="M639.738 378.237C639.738 378.237 543.69 323.774 560.773 189.22C579.921 38.3531 468.993 -26.4938 393.227 10.8857C317.46 48.2653 301.446 214.29 178.731 191.083C56.0044 167.865 0.519139 369.706 0.519139 369.706" stroke="#26DD9B" stroke-miterlimit="10"/>
<path d="M528.758 418.817C528.758 418.817 487.136 303.81 502.08 189.381C517.023 74.9512 449.857 61.5708 423.114 74.9512C367.619 102.718 356.954 251.155 267.313 260.768C199.933 267.993 109.372 210.575 61.3535 340.858" stroke="#26DD9B" stroke-miterlimit="10"/>
<path d="M483.937 367.554C483.937 367.554 498.924 249.999 432.71 270.991C356.815 295.043 358.013 351.541 261.964 298.147C227.798 279.158 90.1496 273.581 117.898 378.237" stroke="#26DD9B" stroke-miterlimit="10"/>
<path d="M407.101 168.4C407.101 139.207 420.003 115.542 435.919 115.542C451.834 115.542 464.736 139.207 464.736 168.4C464.736 197.593 451.834 221.258 435.919 221.258C420.003 221.258 407.101 197.593 407.101 168.4Z" stroke="#26DD9B" stroke-miterlimit="10"/>
</svg>
