<svg width="161.6" height="258.4" viewBox="0 0 202 323" fill="none" xmlns="http://www.w3.org/2000/svg">
<path d="M44.2835 322.018L38.9399 318.932C37.248 317.96 35.8945 315.593 35.8945 313.649V91.7166C35.8945 89.7723 37.2621 87.4054 38.9399 86.4332L187.474 0.743029C189.166 -0.229122 191.887 -0.229122 193.579 0.743029L198.922 3.82855C200.614 4.8007 201.982 7.16768 201.982 9.11198V231.044C201.982 232.988 200.614 235.355 198.922 236.328L50.3884 322.032C48.6965 323.004 45.9754 323.004 44.2835 322.032V322.018Z" fill="#455A64"/>
<path d="M201.938 8.60494C201.727 7.02696 200.444 6.44931 198.907 7.33692L50.3873 93.0412C49.5413 93.5343 48.7941 94.3515 48.2301 95.3095L36.7676 88.7017C37.3174 87.7437 38.0788 86.9124 38.9247 86.4193L187.459 0.729113C189.136 -0.243038 191.872 -0.243038 193.564 0.729113L198.907 3.81464C200.458 4.70225 201.741 6.77336 201.938 8.60494Z" fill="#455A64"/>
<path d="M49.8691 322.258C48.1772 322.976 45.8086 322.892 44.2859 322.018L38.9282 318.919C37.2504 317.946 35.8828 315.579 35.8828 313.635V91.7029C35.8828 90.7307 36.2212 89.66 36.7711 88.7019L48.2336 95.3097C47.6696 96.2678 47.3313 97.3526 47.3313 98.3248V320.257C47.3313 322.004 48.431 322.807 49.8691 322.258Z" fill="#263238"/>
<path d="M47.3301 98.3246V320.257C47.3301 322.201 48.6977 322.99 50.3896 322.018L198.924 236.314C200.615 235.341 201.983 232.974 201.983 231.03V9.09801C201.983 7.15371 200.615 6.36472 198.924 7.33687L50.3896 93.0411C48.6977 94.0133 47.3301 96.3802 47.3301 98.3246Z" fill="#37474F"/>
<path d="M12.6446 182.916C10.7272 181.775 1.83062 176.717 1.36535 176.449C-0.0445557 175.59 -0.552113 173.505 0.759103 172.096L35.88 134.449L47.3284 141.015L12.2217 178.675C10.9528 180.028 11.3616 181.986 12.6446 182.916Z" fill="#455A64"/>
<path d="M47.33 141.029L12.2092 178.675C10.4468 180.563 11.9413 183.62 14.5073 183.409L47.3159 180.704V141.015L47.33 141.029Z" fill="#37474F"/>
<path d="M124.647 73.2741C141.961 63.2849 155.989 71.3862 155.989 91.3505C155.989 111.315 141.961 135.619 124.647 145.594C107.333 155.583 93.3047 147.482 93.3047 127.503C93.3047 107.525 107.333 83.2352 124.647 73.26V73.2741Z" fill="#26DD9B"/>
<path d="M124.437 88.9972C130.048 85.7567 134.602 88.3773 134.602 94.8583C134.602 101.339 130.048 109.215 124.437 112.456C118.825 115.696 114.271 113.076 114.271 106.595C114.271 100.114 118.825 92.2377 124.437 88.9972Z" fill="white"/>
<path d="M144.468 123.544C144.468 112.893 136.982 108.581 127.761 113.907L121.995 117.232C112.774 122.558 105.287 135.506 105.287 146.143V149.045C106.951 149.595 108.755 149.877 110.673 149.877C114.875 149.877 119.626 148.496 124.645 145.594C132.16 141.254 139.069 134.21 144.468 125.996V123.53V123.544Z" fill="white"/>
<path d="M104.8 244.499L144.517 221.59C146.209 220.618 147.576 221.407 147.576 223.351V236.13C147.576 238.075 146.209 240.442 144.517 241.414L104.8 264.323C103.108 265.295 101.74 264.506 101.74 262.562V249.783C101.74 247.838 103.108 245.471 104.786 244.499H104.8Z" fill="#26DD9B"/>
<path d="M85.3552 215.955L163.929 170.616C165.946 169.447 167.595 170.391 167.595 172.729V177.491C167.595 179.83 165.96 182.662 163.929 183.832L85.3552 229.17C83.3391 230.34 81.6895 229.396 81.6895 227.057V222.295C81.6895 219.956 83.325 217.124 85.3552 215.955Z" fill="#FAFAFA"/>
<path d="M85.3552 191.841L163.929 146.502C165.946 145.332 167.595 146.276 167.595 148.615V153.377C167.595 155.716 165.96 158.548 163.929 159.717L85.3552 205.056C83.3391 206.226 81.6895 205.282 81.6895 202.943V198.181C81.6895 195.842 83.325 193.01 85.3552 191.841Z" fill="#FAFAFA"/>
</svg>
